<?xml version="1.0" encoding="UTF-8" standalone="no"?>
<!DOCTYPE svg PUBLIC "-//W3C//DTD SVG 1.1//EN"
 "http://www.w3.org/Graphics/SVG/1.1/DTD/svg11.dtd">
<!-- Generated by graphviz version 2.36.0 (20140111.2315)
 -->
<!-- Title: addNewSymbolINST1 Pages: 1 -->
<svg width="268pt" height="66pt"
 viewBox="0.00 0.00 268.00 66.00" xmlns="http://www.w3.org/2000/svg" xmlns:xlink="http://www.w3.org/1999/xlink">
<g id="graph0" class="graph" transform="scale(1 1) rotate(0) translate(4 62)">
<title>addNewSymbolINST1</title>
<polygon fill="white" stroke="none" points="-4,4 -4,-62 264,-62 264,4 -4,4"/>
<!-- Node1 -->
<g id="node1" class="node"><title>Node1</title>
<polygon fill="#bfbfbf" stroke="black" points="0,-19.5 0,-38.5 114,-38.5 114,-19.5 0,-19.5"/>
<text text-anchor="middle" x="57" y="-26.5" font-family="Helvetica,sans-Serif" font-size="10.00">addNewSymbolINST1</text>
</g>
<!-- Node2 -->
<g id="node2" class="node"><title>Node2</title>
<g id="a_node2"><a xlink:href="parser_8cpp.html#ab6243b513963c15735c801e6e3b7fbdf" target="_top" xlink:title="isValidInstructionCall">
<polygon fill="white" stroke="black" points="150.5,-38.5 150.5,-57.5 259.5,-57.5 259.5,-38.5 150.5,-38.5"/>
<text text-anchor="middle" x="205" y="-45.5" font-family="Helvetica,sans-Serif" font-size="10.00">isValidInstructionCall</text>
</a>
</g>
</g>
<!-- Node1&#45;&gt;Node2 -->
<g id="edge1" class="edge"><title>Node1&#45;&gt;Node2</title>
<path fill="none" stroke="midnightblue" d="M114.03,-36.2916C122.584,-37.4048 131.467,-38.5608 140.174,-39.6939"/>
<polygon fill="midnightblue" stroke="midnightblue" points="139.915,-43.1896 150.283,-41.0094 140.818,-36.2481 139.915,-43.1896"/>
</g>
<!-- Node3 -->
<g id="node3" class="node"><title>Node3</title>
<g id="a_node3"><a xlink:href="parser_8cpp.html#a9ef8c814439aab8a9db6ae7207902ab1" target="_top" xlink:title="findLabel">
<polygon fill="white" stroke="black" points="177,-0.5 177,-19.5 233,-19.5 233,-0.5 177,-0.5"/>
<text text-anchor="middle" x="205" y="-7.5" font-family="Helvetica,sans-Serif" font-size="10.00">findLabel</text>
</a>
</g>
</g>
<!-- Node1&#45;&gt;Node3 -->
<g id="edge2" class="edge"><title>Node1&#45;&gt;Node3</title>
<path fill="none" stroke="midnightblue" d="M114.03,-21.7084C131.709,-19.4078 150.793,-16.9242 166.817,-14.8389"/>
<polygon fill="midnightblue" stroke="midnightblue" points="167.395,-18.2933 176.859,-13.532 166.491,-11.3518 167.395,-18.2933"/>
</g>
</g>
</svg>
