<?xml version="1.0" encoding="UTF-8" standalone="no"?>
<!DOCTYPE svg PUBLIC "-//W3C//DTD SVG 1.1//EN"
 "http://www.w3.org/Graphics/SVG/1.1/DTD/svg11.dtd">
<!-- Generated by graphviz version 2.36.0 (20140111.2315)
 -->
<!-- Title: assembler.cpp Pages: 1 -->
<svg width="668pt" height="140pt"
 viewBox="0.00 0.00 668.00 140.00" xmlns="http://www.w3.org/2000/svg" xmlns:xlink="http://www.w3.org/1999/xlink">
<g id="graph0" class="graph" transform="scale(1 1) rotate(0) translate(4 136)">
<title>assembler.cpp</title>
<polygon fill="white" stroke="none" points="-4,4 -4,-136 664,-136 664,4 -4,4"/>
<!-- Node1 -->
<g id="node1" class="node"><title>Node1</title>
<polygon fill="#bfbfbf" stroke="black" points="264,-112.5 264,-131.5 344,-131.5 344,-112.5 264,-112.5"/>
<text text-anchor="middle" x="304" y="-119.5" font-family="Helvetica,sans-Serif" font-size="10.00">assembler.cpp</text>
</g>
<!-- Node2 -->
<g id="node2" class="node"><title>Node2</title>
<polygon fill="white" stroke="#bfbfbf" points="0,-56.5 0,-75.5 46,-75.5 46,-56.5 0,-56.5"/>
<text text-anchor="middle" x="23" y="-63.5" font-family="Helvetica,sans-Serif" font-size="10.00">stdio.h</text>
</g>
<!-- Node1&#45;&gt;Node2 -->
<g id="edge1" class="edge"><title>Node1&#45;&gt;Node2</title>
<path fill="none" stroke="midnightblue" d="M263.652,-114.922C216.232,-107.512 134.998,-93.9868 56.1107,-76.0753"/>
<polygon fill="midnightblue" stroke="midnightblue" points="56.5343,-72.5815 46.0045,-73.7531 54.9667,-79.4037 56.5343,-72.5815"/>
</g>
<!-- Node3 -->
<g id="node3" class="node"><title>Node3</title>
<polygon fill="white" stroke="#bfbfbf" points="64,-56.5 64,-75.5 118,-75.5 118,-56.5 64,-56.5"/>
<text text-anchor="middle" x="91" y="-63.5" font-family="Helvetica,sans-Serif" font-size="10.00">iostream</text>
</g>
<!-- Node1&#45;&gt;Node3 -->
<g id="edge2" class="edge"><title>Node1&#45;&gt;Node3</title>
<path fill="none" stroke="midnightblue" d="M270.25,-112.444C231.509,-102.622 168.168,-86.5637 128.08,-76.4007"/>
<polygon fill="midnightblue" stroke="midnightblue" points="128.725,-72.9535 118.172,-73.8886 127.005,-79.7388 128.725,-72.9535"/>
</g>
<!-- Node4 -->
<g id="node4" class="node"><title>Node4</title>
<polygon fill="white" stroke="#bfbfbf" points="136,-56.5 136,-75.5 186,-75.5 186,-56.5 136,-56.5"/>
<text text-anchor="middle" x="161" y="-63.5" font-family="Helvetica,sans-Serif" font-size="10.00">fstream</text>
</g>
<!-- Node1&#45;&gt;Node4 -->
<g id="edge3" class="edge"><title>Node1&#45;&gt;Node4</title>
<path fill="none" stroke="midnightblue" d="M281.341,-112.444C257.598,-103.478 220.091,-89.314 193.262,-79.1827"/>
<polygon fill="midnightblue" stroke="midnightblue" points="194.144,-75.7749 183.553,-75.5164 191.671,-82.3235 194.144,-75.7749"/>
</g>
<!-- Node5 -->
<g id="node5" class="node"><title>Node5</title>
<polygon fill="white" stroke="#bfbfbf" points="319.5,-0.5 319.5,-19.5 360.5,-19.5 360.5,-0.5 319.5,-0.5"/>
<text text-anchor="middle" x="340" y="-7.5" font-family="Helvetica,sans-Serif" font-size="10.00">string</text>
</g>
<!-- Node1&#45;&gt;Node5 -->
<g id="edge4" class="edge"><title>Node1&#45;&gt;Node5</title>
<path fill="none" stroke="midnightblue" d="M280.946,-112.331C254.613,-101.055 217.095,-79.9431 233,-56 249.782,-30.7367 283.813,-19.6248 309.012,-14.7568"/>
<polygon fill="midnightblue" stroke="midnightblue" points="309.92,-18.1527 319.194,-13.0297 308.75,-11.2512 309.92,-18.1527"/>
</g>
<!-- Node6 -->
<g id="node6" class="node"><title>Node6</title>
<polygon fill="white" stroke="#bfbfbf" points="242,-56.5 242,-75.5 298,-75.5 298,-56.5 242,-56.5"/>
<text text-anchor="middle" x="270" y="-63.5" font-family="Helvetica,sans-Serif" font-size="10.00">algorithm</text>
</g>
<!-- Node1&#45;&gt;Node6 -->
<g id="edge5" class="edge"><title>Node1&#45;&gt;Node6</title>
<path fill="none" stroke="midnightblue" d="M298.386,-112.083C293.633,-104.534 286.682,-93.4948 280.848,-84.2298"/>
<polygon fill="midnightblue" stroke="midnightblue" points="283.8,-82.3486 275.51,-75.7511 277.876,-86.0783 283.8,-82.3486"/>
</g>
<!-- Node7 -->
<g id="node7" class="node"><title>Node7</title>
<polygon fill="white" stroke="#bfbfbf" points="316,-56.5 316,-75.5 360,-75.5 360,-56.5 316,-56.5"/>
<text text-anchor="middle" x="338" y="-63.5" font-family="Helvetica,sans-Serif" font-size="10.00">vector</text>
</g>
<!-- Node1&#45;&gt;Node7 -->
<g id="edge6" class="edge"><title>Node1&#45;&gt;Node7</title>
<path fill="none" stroke="midnightblue" d="M309.614,-112.083C314.367,-104.534 321.318,-93.4948 327.152,-84.2298"/>
<polygon fill="midnightblue" stroke="midnightblue" points="330.124,-86.0783 332.49,-75.7511 324.2,-82.3486 330.124,-86.0783"/>
</g>
<!-- Node8 -->
<g id="node8" class="node"><title>Node8</title>
<polygon fill="white" stroke="#bfbfbf" points="378.5,-56.5 378.5,-75.5 427.5,-75.5 427.5,-56.5 378.5,-56.5"/>
<text text-anchor="middle" x="403" y="-63.5" font-family="Helvetica,sans-Serif" font-size="10.00">string.h</text>
</g>
<!-- Node1&#45;&gt;Node8 -->
<g id="edge7" class="edge"><title>Node1&#45;&gt;Node8</title>
<path fill="none" stroke="midnightblue" d="M319.906,-112.324C335.638,-103.743 359.942,-90.486 378.209,-80.5224"/>
<polygon fill="midnightblue" stroke="midnightblue" points="380.03,-83.5157 387.133,-75.6545 376.678,-77.3704 380.03,-83.5157"/>
</g>
<!-- Node9 -->
<g id="node9" class="node"><title>Node9</title>
<g id="a_node9"><a xlink:href="assembler_8h.html" target="_top" xlink:title="assembler.h">
<polygon fill="white" stroke="black" points="446,-56.5 446,-75.5 516,-75.5 516,-56.5 446,-56.5"/>
<text text-anchor="middle" x="481" y="-63.5" font-family="Helvetica,sans-Serif" font-size="10.00">assembler.h</text>
</a>
</g>
</g>
<!-- Node1&#45;&gt;Node9 -->
<g id="edge8" class="edge"><title>Node1&#45;&gt;Node9</title>
<path fill="none" stroke="midnightblue" d="M332.046,-112.444C362.082,-103.28 409.913,-88.6876 443.243,-78.5192"/>
<polygon fill="midnightblue" stroke="midnightblue" points="444.542,-81.7822 453.085,-75.5164 442.499,-75.0869 444.542,-81.7822"/>
</g>
<!-- Node10 -->
<g id="node10" class="node"><title>Node10</title>
<g id="a_node10"><a xlink:href="lexer_8h.html" target="_top" xlink:title="lexer.h">
<polygon fill="white" stroke="black" points="534,-56.5 534,-75.5 580,-75.5 580,-56.5 534,-56.5"/>
<text text-anchor="middle" x="557" y="-63.5" font-family="Helvetica,sans-Serif" font-size="10.00">lexer.h</text>
</a>
</g>
</g>
<!-- Node1&#45;&gt;Node10 -->
<g id="edge9" class="edge"><title>Node1&#45;&gt;Node10</title>
<path fill="none" stroke="midnightblue" d="M344.119,-113.747C386.468,-105.888 455.366,-92.5288 523.879,-76.1325"/>
<polygon fill="midnightblue" stroke="midnightblue" points="525.083,-79.4424 533.981,-73.6917 523.439,-72.6382 525.083,-79.4424"/>
</g>
<!-- Node12 -->
<g id="node12" class="node"><title>Node12</title>
<g id="a_node12"><a xlink:href="msgs__pt_8h.html" target="_top" xlink:title="msgs_pt.h">
<polygon fill="white" stroke="black" points="598,-56.5 598,-75.5 660,-75.5 660,-56.5 598,-56.5"/>
<text text-anchor="middle" x="629" y="-63.5" font-family="Helvetica,sans-Serif" font-size="10.00">msgs_pt.h</text>
</a>
</g>
</g>
<!-- Node1&#45;&gt;Node12 -->
<g id="edge12" class="edge"><title>Node1&#45;&gt;Node12</title>
<path fill="none" stroke="midnightblue" d="M344.261,-115.481C397.646,-107.978 495.008,-93.6596 587.508,-76.1893"/>
<polygon fill="midnightblue" stroke="midnightblue" points="588.429,-79.5769 597.597,-74.2673 587.119,-72.7005 588.429,-79.5769"/>
</g>
<!-- Node10&#45;&gt;Node5 -->
<g id="edge10" class="edge"><title>Node10&#45;&gt;Node5</title>
<path fill="none" stroke="midnightblue" d="M533.955,-58.4129C530.947,-57.5842 527.903,-56.761 525,-56 470.871,-41.8097 407.431,-26.7087 370.666,-18.1068"/>
<polygon fill="midnightblue" stroke="midnightblue" points="371.126,-14.6203 360.592,-15.7566 369.535,-21.4372 371.126,-14.6203"/>
</g>
<!-- Node11 -->
<g id="node11" class="node"><title>Node11</title>
<g id="a_node11"><a xlink:href="languagedefinition_8h.html" target="_top" xlink:title="languagedefinition.h">
<polygon fill="white" stroke="black" points="505.5,-0.5 505.5,-19.5 608.5,-19.5 608.5,-0.5 505.5,-0.5"/>
<text text-anchor="middle" x="557" y="-7.5" font-family="Helvetica,sans-Serif" font-size="10.00">languagedefinition.h</text>
</a>
</g>
</g>
<!-- Node10&#45;&gt;Node11 -->
<g id="edge11" class="edge"><title>Node10&#45;&gt;Node11</title>
<path fill="none" stroke="midnightblue" d="M557,-56.083C557,-49.0059 557,-38.8611 557,-29.9865"/>
<polygon fill="midnightblue" stroke="midnightblue" points="560.5,-29.751 557,-19.7511 553.5,-29.7511 560.5,-29.751"/>
</g>
</g>
</svg>
