<?xml version="1.0" encoding="UTF-8" standalone="no"?>
<!DOCTYPE svg PUBLIC "-//W3C//DTD SVG 1.1//EN"
 "http://www.w3.org/Graphics/SVG/1.1/DTD/svg11.dtd">
<!-- Generated by graphviz version 2.36.0 (20140111.2315)
 -->
<!-- Title: assembler.cpp Pages: 1 -->
<svg width="726pt" height="84pt"
 viewBox="0.00 0.00 726.00 84.00" xmlns="http://www.w3.org/2000/svg" xmlns:xlink="http://www.w3.org/1999/xlink">
<g id="graph0" class="graph" transform="scale(1 1) rotate(0) translate(4 80)">
<title>assembler.cpp</title>
<polygon fill="white" stroke="none" points="-4,4 -4,-80 722,-80 722,4 -4,4"/>
<!-- Node1 -->
<g id="node1" class="node"><title>Node1</title>
<polygon fill="#bfbfbf" stroke="black" points="286,-56.5 286,-75.5 366,-75.5 366,-56.5 286,-56.5"/>
<text text-anchor="middle" x="326" y="-63.5" font-family="Helvetica,sans-Serif" font-size="10.00">assembler.cpp</text>
</g>
<!-- Node2 -->
<g id="node2" class="node"><title>Node2</title>
<polygon fill="white" stroke="#bfbfbf" points="0,-0.5 0,-19.5 46,-19.5 46,-0.5 0,-0.5"/>
<text text-anchor="middle" x="23" y="-7.5" font-family="Helvetica,sans-Serif" font-size="10.00">stdio.h</text>
</g>
<!-- Node1&#45;&gt;Node2 -->
<g id="edge1" class="edge"><title>Node1&#45;&gt;Node2</title>
<path fill="none" stroke="midnightblue" d="M285.787,-59.7278C234.557,-52.7028 143.14,-39.1362 56.1104,-20.0537"/>
<polygon fill="midnightblue" stroke="midnightblue" points="56.8647,-16.636 46.3437,-17.8844 55.3469,-23.4695 56.8647,-16.636"/>
</g>
<!-- Node3 -->
<g id="node3" class="node"><title>Node3</title>
<polygon fill="white" stroke="#bfbfbf" points="64,-0.5 64,-19.5 118,-19.5 118,-0.5 64,-0.5"/>
<text text-anchor="middle" x="91" y="-7.5" font-family="Helvetica,sans-Serif" font-size="10.00">iostream</text>
</g>
<!-- Node1&#45;&gt;Node3 -->
<g id="edge2" class="edge"><title>Node1&#45;&gt;Node3</title>
<path fill="none" stroke="midnightblue" d="M287.046,-56.464C248.923,-48.0497 188.956,-34.6532 127.914,-20.179"/>
<polygon fill="midnightblue" stroke="midnightblue" points="128.649,-16.7564 118.111,-17.8473 127.029,-23.5664 128.649,-16.7564"/>
</g>
<!-- Node4 -->
<g id="node4" class="node"><title>Node4</title>
<polygon fill="white" stroke="#bfbfbf" points="136,-0.5 136,-19.5 186,-19.5 186,-0.5 136,-0.5"/>
<text text-anchor="middle" x="161" y="-7.5" font-family="Helvetica,sans-Serif" font-size="10.00">fstream</text>
</g>
<!-- Node1&#45;&gt;Node4 -->
<g id="edge3" class="edge"><title>Node1&#45;&gt;Node4</title>
<path fill="none" stroke="midnightblue" d="M299.855,-56.4435C271.731,-47.2391 226.868,-32.5568 195.781,-22.3829"/>
<polygon fill="midnightblue" stroke="midnightblue" points="196.803,-19.0349 186.211,-19.2508 194.626,-25.6876 196.803,-19.0349"/>
</g>
<!-- Node5 -->
<g id="node5" class="node"><title>Node5</title>
<polygon fill="white" stroke="#bfbfbf" points="204.5,-0.5 204.5,-19.5 245.5,-19.5 245.5,-0.5 204.5,-0.5"/>
<text text-anchor="middle" x="225" y="-7.5" font-family="Helvetica,sans-Serif" font-size="10.00">string</text>
</g>
<!-- Node1&#45;&gt;Node5 -->
<g id="edge4" class="edge"><title>Node1&#45;&gt;Node5</title>
<path fill="none" stroke="midnightblue" d="M309.773,-56.324C293.649,-47.7034 268.7,-34.3643 250.036,-24.3855"/>
<polygon fill="midnightblue" stroke="midnightblue" points="251.656,-21.283 241.187,-19.6545 248.356,-27.456 251.656,-21.283"/>
</g>
<!-- Node6 -->
<g id="node6" class="node"><title>Node6</title>
<polygon fill="white" stroke="#bfbfbf" points="264,-0.5 264,-19.5 320,-19.5 320,-0.5 264,-0.5"/>
<text text-anchor="middle" x="292" y="-7.5" font-family="Helvetica,sans-Serif" font-size="10.00">algorithm</text>
</g>
<!-- Node1&#45;&gt;Node6 -->
<g id="edge5" class="edge"><title>Node1&#45;&gt;Node6</title>
<path fill="none" stroke="midnightblue" d="M320.386,-56.083C315.633,-48.5341 308.682,-37.4948 302.848,-28.2298"/>
<polygon fill="midnightblue" stroke="midnightblue" points="305.8,-26.3486 297.51,-19.7511 299.876,-30.0783 305.8,-26.3486"/>
</g>
<!-- Node7 -->
<g id="node7" class="node"><title>Node7</title>
<polygon fill="white" stroke="#bfbfbf" points="338,-0.5 338,-19.5 382,-19.5 382,-0.5 338,-0.5"/>
<text text-anchor="middle" x="360" y="-7.5" font-family="Helvetica,sans-Serif" font-size="10.00">vector</text>
</g>
<!-- Node1&#45;&gt;Node7 -->
<g id="edge6" class="edge"><title>Node1&#45;&gt;Node7</title>
<path fill="none" stroke="midnightblue" d="M331.614,-56.083C336.367,-48.5341 343.318,-37.4948 349.152,-28.2298"/>
<polygon fill="midnightblue" stroke="midnightblue" points="352.124,-30.0783 354.49,-19.7511 346.2,-26.3486 352.124,-30.0783"/>
</g>
<!-- Node8 -->
<g id="node8" class="node"><title>Node8</title>
<polygon fill="white" stroke="#bfbfbf" points="400.5,-0.5 400.5,-19.5 449.5,-19.5 449.5,-0.5 400.5,-0.5"/>
<text text-anchor="middle" x="425" y="-7.5" font-family="Helvetica,sans-Serif" font-size="10.00">string.h</text>
</g>
<!-- Node1&#45;&gt;Node8 -->
<g id="edge7" class="edge"><title>Node1&#45;&gt;Node8</title>
<path fill="none" stroke="midnightblue" d="M341.906,-56.324C357.638,-47.7428 381.942,-34.486 400.209,-24.5224"/>
<polygon fill="midnightblue" stroke="midnightblue" points="402.03,-27.5157 409.133,-19.6545 398.678,-21.3704 402.03,-27.5157"/>
</g>
<!-- Node9 -->
<g id="node9" class="node"><title>Node9</title>
<g id="a_node9"><a xlink:href="assembler_8h.html" target="_top" xlink:title="assembler.h">
<polygon fill="white" stroke="black" points="468,-0.5 468,-19.5 538,-19.5 538,-0.5 468,-0.5"/>
<text text-anchor="middle" x="503" y="-7.5" font-family="Helvetica,sans-Serif" font-size="10.00">assembler.h</text>
</a>
</g>
</g>
<!-- Node1&#45;&gt;Node9 -->
<g id="edge8" class="edge"><title>Node1&#45;&gt;Node9</title>
<path fill="none" stroke="midnightblue" d="M354.046,-56.4435C384.082,-47.2801 431.913,-32.6876 465.243,-22.5192"/>
<polygon fill="midnightblue" stroke="midnightblue" points="466.542,-25.7822 475.085,-19.5164 464.499,-19.0869 466.542,-25.7822"/>
</g>
<!-- Node10 -->
<g id="node10" class="node"><title>Node10</title>
<g id="a_node10"><a xlink:href="preprocessor_8h.html" target="_top" xlink:title="preprocessor.h">
<polygon fill="white" stroke="black" points="556.5,-0.5 556.5,-19.5 637.5,-19.5 637.5,-0.5 556.5,-0.5"/>
<text text-anchor="middle" x="597" y="-7.5" font-family="Helvetica,sans-Serif" font-size="10.00">preprocessor.h</text>
</a>
</g>
</g>
<!-- Node1&#45;&gt;Node10 -->
<g id="edge9" class="edge"><title>Node1&#45;&gt;Node10</title>
<path fill="none" stroke="midnightblue" d="M366.279,-56.974C414.107,-47.4437 493.939,-31.5362 546.026,-21.1572"/>
<polygon fill="midnightblue" stroke="midnightblue" points="546.933,-24.5454 556.056,-19.1586 545.565,-17.6804 546.933,-24.5454"/>
</g>
<!-- Node11 -->
<g id="node11" class="node"><title>Node11</title>
<g id="a_node11"><a xlink:href="msgs__pt_8h.html" target="_top" xlink:title="msgs_pt.h">
<polygon fill="white" stroke="black" points="656,-0.5 656,-19.5 718,-19.5 718,-0.5 656,-0.5"/>
<text text-anchor="middle" x="687" y="-7.5" font-family="Helvetica,sans-Serif" font-size="10.00">msgs_pt.h</text>
</a>
</g>
</g>
<!-- Node1&#45;&gt;Node11 -->
<g id="edge10" class="edge"><title>Node1&#45;&gt;Node11</title>
<path fill="none" stroke="midnightblue" d="M366.066,-60.3631C424.98,-53.327 538.632,-38.9254 645.703,-19.9197"/>
<polygon fill="midnightblue" stroke="midnightblue" points="646.484,-23.3356 655.71,-18.1264 645.249,-16.4454 646.484,-23.3356"/>
</g>
</g>
</svg>
