<?xml version="1.0" encoding="UTF-8" standalone="no"?>
<!DOCTYPE svg PUBLIC "-//W3C//DTD SVG 1.1//EN"
 "http://www.w3.org/Graphics/SVG/1.1/DTD/svg11.dtd">
<!-- Generated by graphviz version 2.36.0 (20140111.2315)
 -->
<!-- Title: assembler Pages: 1 -->
<svg width="392pt" height="284pt"
 viewBox="0.00 0.00 392.00 284.01" xmlns="http://www.w3.org/2000/svg" xmlns:xlink="http://www.w3.org/1999/xlink">
<g id="graph0" class="graph" transform="scale(1 1) rotate(0) translate(4 280.013)">
<title>assembler</title>
<polygon fill="white" stroke="none" points="-4,4 -4,-280.013 388,-280.013 388,4 -4,4"/>
<!-- Node1 -->
<g id="node1" class="node"><title>Node1</title>
<polygon fill="#bfbfbf" stroke="black" points="0,-123.513 0,-142.513 62,-142.513 62,-123.513 0,-123.513"/>
<text text-anchor="middle" x="31" y="-130.513" font-family="Helvetica,sans-Serif" font-size="10.00">assembler</text>
</g>
<!-- Node2 -->
<g id="node2" class="node"><title>Node2</title>
<g id="a_node2"><a xlink:href="lexer_8cpp.html#a63ef6d488951c4541159fe0961565c4d" target="_top" xlink:title="scanner">
<polygon fill="white" stroke="black" points="142.5,-256.513 142.5,-275.513 193.5,-275.513 193.5,-256.513 142.5,-256.513"/>
<text text-anchor="middle" x="168" y="-263.513" font-family="Helvetica,sans-Serif" font-size="10.00">scanner</text>
</a>
</g>
</g>
<!-- Node1&#45;&gt;Node2 -->
<g id="edge1" class="edge"><title>Node1&#45;&gt;Node2</title>
<path fill="none" stroke="midnightblue" d="M34.7914,-142.649C41.6774,-164.667 61.6117,-218.926 98,-247.013 107.814,-254.588 120.459,-259.144 132.237,-261.885"/>
<polygon fill="midnightblue" stroke="midnightblue" points="131.785,-265.363 142.272,-263.855 133.134,-258.494 131.785,-265.363"/>
</g>
<!-- Node3 -->
<g id="node3" class="node"><title>Node3</title>
<g id="a_node3"><a xlink:href="assembler_8cpp.html#a33535e8f85da588842c21d65d304f740" target="_top" xlink:title="addNewSymbolINST0">
<polygon fill="white" stroke="black" points="111,-218.513 111,-237.513 225,-237.513 225,-218.513 111,-218.513"/>
<text text-anchor="middle" x="168" y="-225.513" font-family="Helvetica,sans-Serif" font-size="10.00">addNewSymbolINST0</text>
</a>
</g>
</g>
<!-- Node1&#45;&gt;Node3 -->
<g id="edge2" class="edge"><title>Node1&#45;&gt;Node3</title>
<path fill="none" stroke="midnightblue" d="M37.6126,-142.545C47.6387,-158.722 70.2031,-191.501 98,-209.013 101.334,-211.114 104.902,-212.986 108.593,-214.653"/>
<polygon fill="midnightblue" stroke="midnightblue" points="107.378,-217.937 117.963,-218.391 109.972,-211.435 107.378,-217.937"/>
</g>
<!-- Node5 -->
<g id="node5" class="node"><title>Node5</title>
<g id="a_node5"><a xlink:href="assembler_8cpp.html#a45dcd38a718d16b9fdcda1e45c4ad5de" target="_top" xlink:title="addNewSymbolINST1">
<polygon fill="white" stroke="black" points="111,-66.5133 111,-85.5133 225,-85.5133 225,-66.5133 111,-66.5133"/>
<text text-anchor="middle" x="168" y="-73.5133" font-family="Helvetica,sans-Serif" font-size="10.00">addNewSymbolINST1</text>
</a>
</g>
</g>
<!-- Node1&#45;&gt;Node5 -->
<g id="edge4" class="edge"><title>Node1&#45;&gt;Node5</title>
<path fill="none" stroke="midnightblue" d="M46.135,-123.459C59.1433,-115.017 79.2106,-102.859 98,-95.0133 103.718,-92.6254 109.828,-90.4469 115.958,-88.4866"/>
<polygon fill="midnightblue" stroke="midnightblue" points="116.996,-91.8294 125.557,-85.5873 114.972,-85.1284 116.996,-91.8294"/>
</g>
<!-- Node6 -->
<g id="node6" class="node"><title>Node6</title>
<g id="a_node6"><a xlink:href="parser_8cpp.html#a9ef8c814439aab8a9db6ae7207902ab1" target="_top" xlink:title="findLabel">
<polygon fill="white" stroke="black" points="301,-66.5133 301,-85.5133 357,-85.5133 357,-66.5133 301,-66.5133"/>
<text text-anchor="middle" x="329" y="-73.5133" font-family="Helvetica,sans-Serif" font-size="10.00">findLabel</text>
</a>
</g>
</g>
<!-- Node1&#45;&gt;Node6 -->
<g id="edge18" class="edge"><title>Node1&#45;&gt;Node6</title>
<path fill="none" stroke="midnightblue" d="M34.1438,-123.359C39.8461,-100.298 57.7812,-42.2015 98,-19.0133 151.905,12.0656 178.24,-1.68122 238,-19.0133 265.227,-26.91 292.115,-45.7853 309.309,-59.6611"/>
<polygon fill="midnightblue" stroke="midnightblue" points="307.445,-62.6632 317.367,-66.3769 311.926,-57.2859 307.445,-62.6632"/>
</g>
<!-- Node7 -->
<g id="node7" class="node"><title>Node7</title>
<g id="a_node7"><a xlink:href="assembler_8cpp.html#a53bd42138e87fabd2519a34abbf40b55" target="_top" xlink:title="addNewSymbolINST1NUM">
<polygon fill="white" stroke="black" points="99.5,-180.513 99.5,-199.513 236.5,-199.513 236.5,-180.513 99.5,-180.513"/>
<text text-anchor="middle" x="168" y="-187.513" font-family="Helvetica,sans-Serif" font-size="10.00">addNewSymbolINST1NUM</text>
</a>
</g>
</g>
<!-- Node1&#45;&gt;Node7 -->
<g id="edge7" class="edge"><title>Node1&#45;&gt;Node7</title>
<path fill="none" stroke="midnightblue" d="M46.135,-142.567C59.1433,-151.01 79.2106,-163.168 98,-171.013 103.718,-173.401 109.828,-175.58 115.958,-177.54"/>
<polygon fill="midnightblue" stroke="midnightblue" points="114.972,-180.898 125.557,-180.439 116.996,-174.197 114.972,-180.898"/>
</g>
<!-- Node8 -->
<g id="node8" class="node"><title>Node8</title>
<g id="a_node8"><a xlink:href="assembler_8cpp.html#ad85cc701dcbc6e69b1c273a99c2262d8" target="_top" xlink:title="addNewSymbolINST1PLUS">
<polygon fill="white" stroke="black" points="98,-28.5133 98,-47.5133 238,-47.5133 238,-28.5133 98,-28.5133"/>
<text text-anchor="middle" x="168" y="-35.5133" font-family="Helvetica,sans-Serif" font-size="10.00">addNewSymbolINST1PLUS</text>
</a>
</g>
</g>
<!-- Node1&#45;&gt;Node8 -->
<g id="edge9" class="edge"><title>Node1&#45;&gt;Node8</title>
<path fill="none" stroke="midnightblue" d="M37.6126,-123.482C47.6387,-107.304 70.2031,-74.5259 98,-57.0133 101.334,-54.9125 104.902,-53.0406 108.593,-51.3731"/>
<polygon fill="midnightblue" stroke="midnightblue" points="109.972,-54.5916 117.963,-47.6354 107.378,-48.0899 109.972,-54.5916"/>
</g>
<!-- Node9 -->
<g id="node9" class="node"><title>Node9</title>
<g id="a_node9"><a xlink:href="assembler_8cpp.html#a4b08bb4206172aa8ae36e47f8298e274" target="_top" xlink:title="addNewSymbolINST2">
<polygon fill="white" stroke="black" points="111,-142.513 111,-161.513 225,-161.513 225,-142.513 111,-142.513"/>
<text text-anchor="middle" x="168" y="-149.513" font-family="Helvetica,sans-Serif" font-size="10.00">addNewSymbolINST2</text>
</a>
</g>
</g>
<!-- Node1&#45;&gt;Node9 -->
<g id="edge12" class="edge"><title>Node1&#45;&gt;Node9</title>
<path fill="none" stroke="midnightblue" d="M62.2966,-137.277C73.6952,-138.881 87.152,-140.775 100.554,-142.662"/>
<polygon fill="midnightblue" stroke="midnightblue" points="100.366,-146.17 110.756,-144.097 101.341,-139.238 100.366,-146.17"/>
</g>
<!-- Node10 -->
<g id="node10" class="node"><title>Node10</title>
<g id="a_node10"><a xlink:href="assembler_8cpp.html#a54fad2c006413b60d87eea48e412471b" target="_top" xlink:title="addNewLabel">
<polygon fill="white" stroke="black" points="130,-104.513 130,-123.513 206,-123.513 206,-104.513 130,-104.513"/>
<text text-anchor="middle" x="168" y="-111.513" font-family="Helvetica,sans-Serif" font-size="10.00">addNewLabel</text>
</a>
</g>
</g>
<!-- Node1&#45;&gt;Node10 -->
<g id="edge15" class="edge"><title>Node1&#45;&gt;Node10</title>
<path fill="none" stroke="midnightblue" d="M62.2966,-128.749C79.166,-126.375 100.544,-123.366 119.578,-120.687"/>
<polygon fill="midnightblue" stroke="midnightblue" points="120.16,-124.14 129.574,-119.281 119.184,-117.209 120.16,-124.14"/>
</g>
<!-- Node4 -->
<g id="node4" class="node"><title>Node4</title>
<g id="a_node4"><a xlink:href="parser_8cpp.html#ab6243b513963c15735c801e6e3b7fbdf" target="_top" xlink:title="isValidInstructionCall">
<polygon fill="white" stroke="black" points="274.5,-123.513 274.5,-142.513 383.5,-142.513 383.5,-123.513 274.5,-123.513"/>
<text text-anchor="middle" x="329" y="-130.513" font-family="Helvetica,sans-Serif" font-size="10.00">isValidInstructionCall</text>
</a>
</g>
</g>
<!-- Node3&#45;&gt;Node4 -->
<g id="edge3" class="edge"><title>Node3&#45;&gt;Node4</title>
<path fill="none" stroke="midnightblue" d="M214.617,-218.468C222.645,-215.951 230.745,-212.836 238,-209.013 267.075,-193.692 295.113,-167.657 311.958,-150.398"/>
<polygon fill="midnightblue" stroke="midnightblue" points="314.915,-152.368 319.283,-142.715 309.849,-147.537 314.915,-152.368"/>
</g>
<!-- Node5&#45;&gt;Node4 -->
<g id="edge5" class="edge"><title>Node5&#45;&gt;Node4</title>
<path fill="none" stroke="midnightblue" d="M207.236,-85.5837C217.322,-88.3685 228.14,-91.5907 238,-95.0133 258.359,-102.08 280.68,-111.493 297.999,-119.183"/>
<polygon fill="midnightblue" stroke="midnightblue" points="297.01,-122.575 307.566,-123.48 299.878,-116.19 297.01,-122.575"/>
</g>
<!-- Node5&#45;&gt;Node6 -->
<g id="edge6" class="edge"><title>Node5&#45;&gt;Node6</title>
<path fill="none" stroke="midnightblue" d="M225.057,-76.0133C246.884,-76.0133 271.3,-76.0133 290.874,-76.0133"/>
<polygon fill="midnightblue" stroke="midnightblue" points="290.915,-79.5134 300.915,-76.0133 290.915,-72.5134 290.915,-79.5134"/>
</g>
<!-- Node7&#45;&gt;Node4 -->
<g id="edge8" class="edge"><title>Node7&#45;&gt;Node4</title>
<path fill="none" stroke="midnightblue" d="M207.236,-180.443C217.322,-177.658 228.14,-174.436 238,-171.013 258.359,-163.946 280.68,-154.533 297.999,-146.844"/>
<polygon fill="midnightblue" stroke="midnightblue" points="299.878,-149.837 307.566,-142.546 297.01,-143.451 299.878,-149.837"/>
</g>
<!-- Node8&#45;&gt;Node4 -->
<g id="edge10" class="edge"><title>Node8&#45;&gt;Node4</title>
<path fill="none" stroke="midnightblue" d="M217.165,-47.6248C224.422,-50.095 231.608,-53.1768 238,-57.0133 257.947,-68.9855 256.4,-79.7991 274,-95.0133 283.429,-103.164 294.588,-111.245 304.308,-117.846"/>
<polygon fill="midnightblue" stroke="midnightblue" points="302.473,-120.829 312.738,-123.451 306.349,-115 302.473,-120.829"/>
</g>
<!-- Node8&#45;&gt;Node6 -->
<g id="edge11" class="edge"><title>Node8&#45;&gt;Node6</title>
<path fill="none" stroke="midnightblue" d="M209.122,-47.6023C234.238,-53.6046 266.367,-61.2834 290.891,-67.1444"/>
<polygon fill="midnightblue" stroke="midnightblue" points="290.353,-70.6144 300.893,-69.5348 291.98,-63.8061 290.353,-70.6144"/>
</g>
<!-- Node9&#45;&gt;Node4 -->
<g id="edge13" class="edge"><title>Node9&#45;&gt;Node4</title>
<path fill="none" stroke="midnightblue" d="M225.057,-145.315C237.686,-143.806 251.181,-142.193 264.103,-140.649"/>
<polygon fill="midnightblue" stroke="midnightblue" points="264.802,-144.09 274.316,-139.428 263.972,-137.14 264.802,-144.09"/>
</g>
<!-- Node9&#45;&gt;Node6 -->
<g id="edge14" class="edge"><title>Node9&#45;&gt;Node6</title>
<path fill="none" stroke="midnightblue" d="M211.288,-142.5C220.279,-139.892 229.592,-136.734 238,-133.013 263.204,-121.859 289.563,-104.376 307.19,-91.7117"/>
<polygon fill="midnightblue" stroke="midnightblue" points="309.557,-94.3172 315.561,-85.5876 305.423,-88.6679 309.557,-94.3172"/>
</g>
<!-- Node10&#45;&gt;Node4 -->
<g id="edge16" class="edge"><title>Node10&#45;&gt;Node4</title>
<path fill="none" stroke="midnightblue" d="M206.278,-118.468C223.553,-120.532 244.573,-123.044 264.252,-125.396"/>
<polygon fill="midnightblue" stroke="midnightblue" points="264.049,-128.896 274.394,-126.608 264.88,-121.946 264.049,-128.896"/>
</g>
<!-- Node10&#45;&gt;Node6 -->
<g id="edge17" class="edge"><title>Node10&#45;&gt;Node6</title>
<path fill="none" stroke="midnightblue" d="M206.278,-105.104C231.771,-99.0113 265.424,-90.9686 290.882,-84.8842"/>
<polygon fill="midnightblue" stroke="midnightblue" points="291.983,-88.2197 300.896,-82.4911 290.356,-81.4115 291.983,-88.2197"/>
</g>
</g>
</svg>
