<?xml version="1.0" encoding="UTF-8" standalone="no"?>
<!DOCTYPE svg PUBLIC "-//W3C//DTD SVG 1.1//EN"
 "http://www.w3.org/Graphics/SVG/1.1/DTD/svg11.dtd">
<!-- Generated by graphviz version 2.36.0 (20140111.2315)
 -->
<!-- Title: assembler.cpp Pages: 1 -->
<svg width="777pt" height="140pt"
 viewBox="0.00 0.00 777.00 140.00" xmlns="http://www.w3.org/2000/svg" xmlns:xlink="http://www.w3.org/1999/xlink">
<g id="graph0" class="graph" transform="scale(1 1) rotate(0) translate(4 136)">
<title>assembler.cpp</title>
<polygon fill="white" stroke="none" points="-4,4 -4,-136 773,-136 773,4 -4,4"/>
<!-- Node1 -->
<g id="node1" class="node"><title>Node1</title>
<polygon fill="#bfbfbf" stroke="black" points="298,-112.5 298,-131.5 378,-131.5 378,-112.5 298,-112.5"/>
<text text-anchor="middle" x="338" y="-119.5" font-family="Helvetica,sans-Serif" font-size="10.00">assembler.cpp</text>
</g>
<!-- Node2 -->
<g id="node2" class="node"><title>Node2</title>
<polygon fill="white" stroke="#bfbfbf" points="0,-56.5 0,-75.5 46,-75.5 46,-56.5 0,-56.5"/>
<text text-anchor="middle" x="23" y="-63.5" font-family="Helvetica,sans-Serif" font-size="10.00">stdio.h</text>
</g>
<!-- Node1&#45;&gt;Node2 -->
<g id="edge1" class="edge"><title>Node1&#45;&gt;Node2</title>
<path fill="none" stroke="midnightblue" d="M297.888,-116.119C244.73,-109.323 147.884,-95.807 56.3246,-76.0838"/>
<polygon fill="midnightblue" stroke="midnightblue" points="56.8561,-72.6175 46.3395,-73.9032 55.3625,-79.4563 56.8561,-72.6175"/>
</g>
<!-- Node3 -->
<g id="node3" class="node"><title>Node3</title>
<polygon fill="white" stroke="#bfbfbf" points="64,-56.5 64,-75.5 118,-75.5 118,-56.5 64,-56.5"/>
<text text-anchor="middle" x="91" y="-63.5" font-family="Helvetica,sans-Serif" font-size="10.00">iostream</text>
</g>
<!-- Node1&#45;&gt;Node3 -->
<g id="edge2" class="edge"><title>Node1&#45;&gt;Node3</title>
<path fill="none" stroke="midnightblue" d="M297.85,-112.871C257.408,-104.587 192.975,-91.1264 128.095,-76.1939"/>
<polygon fill="midnightblue" stroke="midnightblue" points="128.634,-72.7263 118.102,-73.8831 127.057,-79.5463 128.634,-72.7263"/>
</g>
<!-- Node4 -->
<g id="node4" class="node"><title>Node4</title>
<polygon fill="white" stroke="#bfbfbf" points="136,-56.5 136,-75.5 186,-75.5 186,-56.5 136,-56.5"/>
<text text-anchor="middle" x="161" y="-63.5" font-family="Helvetica,sans-Serif" font-size="10.00">fstream</text>
</g>
<!-- Node1&#45;&gt;Node4 -->
<g id="edge3" class="edge"><title>Node1&#45;&gt;Node4</title>
<path fill="none" stroke="midnightblue" d="M309.954,-112.444C279.035,-103.011 229.258,-87.8245 195.855,-77.6337"/>
<polygon fill="midnightblue" stroke="midnightblue" points="196.639,-74.2138 186.053,-74.6433 194.597,-80.9091 196.639,-74.2138"/>
</g>
<!-- Node5 -->
<g id="node5" class="node"><title>Node5</title>
<polygon fill="white" stroke="#bfbfbf" points="607.5,-0.5 607.5,-19.5 648.5,-19.5 648.5,-0.5 607.5,-0.5"/>
<text text-anchor="middle" x="628" y="-7.5" font-family="Helvetica,sans-Serif" font-size="10.00">string</text>
</g>
<!-- Node1&#45;&gt;Node5 -->
<g id="edge4" class="edge"><title>Node1&#45;&gt;Node5</title>
<path fill="none" stroke="midnightblue" d="M299.756,-112.486C260.796,-102.117 209.23,-82.6316 233,-56 257.183,-28.9057 508.597,-15.9456 597.258,-12.1928"/>
<polygon fill="midnightblue" stroke="midnightblue" points="597.627,-15.6806 607.474,-11.7709 597.338,-8.68656 597.627,-15.6806"/>
</g>
<!-- Node6 -->
<g id="node6" class="node"><title>Node6</title>
<polygon fill="white" stroke="#bfbfbf" points="242,-56.5 242,-75.5 298,-75.5 298,-56.5 242,-56.5"/>
<text text-anchor="middle" x="270" y="-63.5" font-family="Helvetica,sans-Serif" font-size="10.00">algorithm</text>
</g>
<!-- Node1&#45;&gt;Node6 -->
<g id="edge5" class="edge"><title>Node1&#45;&gt;Node6</title>
<path fill="none" stroke="midnightblue" d="M327.075,-112.324C316.825,-104.185 301.279,-91.8395 288.999,-82.0874"/>
<polygon fill="midnightblue" stroke="midnightblue" points="291.132,-79.3119 281.124,-75.8339 286.779,-84.7937 291.132,-79.3119"/>
</g>
<!-- Node7 -->
<g id="node7" class="node"><title>Node7</title>
<polygon fill="white" stroke="#bfbfbf" points="316,-56.5 316,-75.5 360,-75.5 360,-56.5 316,-56.5"/>
<text text-anchor="middle" x="338" y="-63.5" font-family="Helvetica,sans-Serif" font-size="10.00">vector</text>
</g>
<!-- Node1&#45;&gt;Node7 -->
<g id="edge6" class="edge"><title>Node1&#45;&gt;Node7</title>
<path fill="none" stroke="midnightblue" d="M338,-112.083C338,-105.006 338,-94.8611 338,-85.9865"/>
<polygon fill="midnightblue" stroke="midnightblue" points="341.5,-85.751 338,-75.7511 334.5,-85.7511 341.5,-85.751"/>
</g>
<!-- Node8 -->
<g id="node8" class="node"><title>Node8</title>
<polygon fill="white" stroke="#bfbfbf" points="378.5,-56.5 378.5,-75.5 427.5,-75.5 427.5,-56.5 378.5,-56.5"/>
<text text-anchor="middle" x="403" y="-63.5" font-family="Helvetica,sans-Serif" font-size="10.00">string.h</text>
</g>
<!-- Node1&#45;&gt;Node8 -->
<g id="edge7" class="edge"><title>Node1&#45;&gt;Node8</title>
<path fill="none" stroke="midnightblue" d="M348.443,-112.324C358.146,-104.263 372.815,-92.0765 384.5,-82.3695"/>
<polygon fill="midnightblue" stroke="midnightblue" points="386.911,-84.9163 392.367,-75.8339 382.438,-79.532 386.911,-84.9163"/>
</g>
<!-- Node9 -->
<g id="node9" class="node"><title>Node9</title>
<g id="a_node9"><a xlink:href="msgs__pt_8h.html" target="_top" xlink:title="msgs_pt.h">
<polygon fill="white" stroke="black" points="446,-56.5 446,-75.5 508,-75.5 508,-56.5 446,-56.5"/>
<text text-anchor="middle" x="477" y="-63.5" font-family="Helvetica,sans-Serif" font-size="10.00">msgs_pt.h</text>
</a>
</g>
</g>
<!-- Node1&#45;&gt;Node9 -->
<g id="edge8" class="edge"><title>Node1&#45;&gt;Node9</title>
<path fill="none" stroke="midnightblue" d="M360.025,-112.444C383.104,-103.478 419.562,-89.314 445.641,-79.1827"/>
<polygon fill="midnightblue" stroke="midnightblue" points="447.024,-82.4002 455.078,-75.5164 444.489,-75.8753 447.024,-82.4002"/>
</g>
<!-- Node10 -->
<g id="node10" class="node"><title>Node10</title>
<g id="a_node10"><a xlink:href="assembler_8h.html" target="_top" xlink:title="assembler.h">
<polygon fill="white" stroke="black" points="526,-56.5 526,-75.5 596,-75.5 596,-56.5 526,-56.5"/>
<text text-anchor="middle" x="561" y="-63.5" font-family="Helvetica,sans-Serif" font-size="10.00">assembler.h</text>
</a>
</g>
</g>
<!-- Node1&#45;&gt;Node10 -->
<g id="edge9" class="edge"><title>Node1&#45;&gt;Node10</title>
<path fill="none" stroke="midnightblue" d="M373.335,-112.444C411.911,-103.102 473.785,-88.1194 515.853,-77.9326"/>
<polygon fill="midnightblue" stroke="midnightblue" points="516.935,-81.2717 525.83,-75.5164 515.287,-74.4683 516.935,-81.2717"/>
</g>
<!-- Node11 -->
<g id="node11" class="node"><title>Node11</title>
<g id="a_node11"><a xlink:href="lexer_8h.html" target="_top" xlink:title="lexer.h">
<polygon fill="white" stroke="black" points="684,-56.5 684,-75.5 730,-75.5 730,-56.5 684,-56.5"/>
<text text-anchor="middle" x="707" y="-63.5" font-family="Helvetica,sans-Serif" font-size="10.00">lexer.h</text>
</a>
</g>
</g>
<!-- Node1&#45;&gt;Node11 -->
<g id="edge10" class="edge"><title>Node1&#45;&gt;Node11</title>
<path fill="none" stroke="midnightblue" d="M378.253,-117.483C439.906,-111.692 561.525,-98.6775 673.559,-76.0469"/>
<polygon fill="midnightblue" stroke="midnightblue" points="674.583,-79.41 683.675,-73.9715 673.176,-72.5528 674.583,-79.41"/>
</g>
<!-- Node13 -->
<g id="node13" class="node"><title>Node13</title>
<g id="a_node13"><a xlink:href="parser_8h.html" target="_top" xlink:title="parser.h">
<polygon fill="white" stroke="black" points="614,-56.5 614,-75.5 666,-75.5 666,-56.5 614,-56.5"/>
<text text-anchor="middle" x="640" y="-63.5" font-family="Helvetica,sans-Serif" font-size="10.00">parser.h</text>
</a>
</g>
</g>
<!-- Node1&#45;&gt;Node13 -->
<g id="edge13" class="edge"><title>Node1&#45;&gt;Node13</title>
<path fill="none" stroke="midnightblue" d="M378.007,-115.338C428.453,-107.962 518.029,-94.077 603.787,-76.1165"/>
<polygon fill="midnightblue" stroke="midnightblue" points="604.625,-79.5169 613.683,-74.0219 603.175,-72.6687 604.625,-79.5169"/>
</g>
<!-- Node11&#45;&gt;Node5 -->
<g id="edge11" class="edge"><title>Node11&#45;&gt;Node5</title>
<path fill="none" stroke="midnightblue" d="M694.307,-56.324C682.099,-47.979 663.422,-35.2122 648.997,-25.3524"/>
<polygon fill="midnightblue" stroke="midnightblue" points="650.892,-22.4082 640.661,-19.6545 646.942,-28.1871 650.892,-22.4082"/>
</g>
<!-- Node12 -->
<g id="node12" class="node"><title>Node12</title>
<g id="a_node12"><a xlink:href="languagedefinition_8h.html" target="_top" xlink:title="languagedefinition.h">
<polygon fill="white" stroke="black" points="666.5,-0.5 666.5,-19.5 769.5,-19.5 769.5,-0.5 666.5,-0.5"/>
<text text-anchor="middle" x="718" y="-7.5" font-family="Helvetica,sans-Serif" font-size="10.00">languagedefinition.h</text>
</a>
</g>
</g>
<!-- Node11&#45;&gt;Node12 -->
<g id="edge12" class="edge"><title>Node11&#45;&gt;Node12</title>
<path fill="none" stroke="midnightblue" d="M708.816,-56.083C710.274,-48.9272 712.371,-38.6353 714.193,-29.6911"/>
<polygon fill="midnightblue" stroke="midnightblue" points="717.651,-30.2485 716.217,-19.7511 710.792,-28.8512 717.651,-30.2485"/>
</g>
<!-- Node13&#45;&gt;Node5 -->
<g id="edge14" class="edge"><title>Node13&#45;&gt;Node5</title>
<path fill="none" stroke="midnightblue" d="M638.018,-56.083C636.428,-48.9272 634.141,-38.6353 632.154,-29.6911"/>
<polygon fill="midnightblue" stroke="midnightblue" points="635.531,-28.7537 629.945,-19.7511 628.697,-30.2722 635.531,-28.7537"/>
</g>
</g>
</svg>
