<?xml version="1.0" encoding="UTF-8" standalone="no"?>
<!DOCTYPE svg PUBLIC "-//W3C//DTD SVG 1.1//EN"
 "http://www.w3.org/Graphics/SVG/1.1/DTD/svg11.dtd">
<!-- Generated by graphviz version 2.36.0 (20140111.2315)
 -->
<!-- Title: addNewSymbolINST0 Pages: 1 -->
<svg width="294pt" height="28pt"
 viewBox="0.00 0.00 294.00 28.00" xmlns="http://www.w3.org/2000/svg" xmlns:xlink="http://www.w3.org/1999/xlink">
<g id="graph0" class="graph" transform="scale(1 1) rotate(0) translate(4 24)">
<title>addNewSymbolINST0</title>
<polygon fill="white" stroke="none" points="-4,4 -4,-24 290,-24 290,4 -4,4"/>
<!-- Node1 -->
<g id="node1" class="node"><title>Node1</title>
<polygon fill="#bfbfbf" stroke="black" points="0,-0.5 0,-19.5 114,-19.5 114,-0.5 0,-0.5"/>
<text text-anchor="middle" x="57" y="-7.5" font-family="Helvetica,sans-Serif" font-size="10.00">addNewSymbolINST0</text>
</g>
<!-- Node2 -->
<g id="node2" class="node"><title>Node2</title>
<g id="a_node2"><a xlink:href="assembler_8h.html#a368a4f7b83093ab74e79be4ceeb11e3d" target="_top" xlink:title="assembler">
<polygon fill="white" stroke="black" points="150,-0.5 150,-19.5 212,-19.5 212,-0.5 150,-0.5"/>
<text text-anchor="middle" x="181" y="-7.5" font-family="Helvetica,sans-Serif" font-size="10.00">assembler</text>
</a>
</g>
</g>
<!-- Node1&#45;&gt;Node2 -->
<g id="edge1" class="edge"><title>Node1&#45;&gt;Node2</title>
<path fill="none" stroke="midnightblue" d="M124.195,-10C133.204,-10 142.061,-10 149.972,-10"/>
<polygon fill="midnightblue" stroke="midnightblue" points="124.001,-6.5001 114.001,-10 124.001,-13.5001 124.001,-6.5001"/>
</g>
<!-- Node3 -->
<g id="node3" class="node"><title>Node3</title>
<g id="a_node3"><a xlink:href="main_8cpp.html#a3c04138a5bfe5d72780bb7e82a18e627" target="_top" xlink:title="main">
<polygon fill="white" stroke="black" points="248,-0.5 248,-19.5 286,-19.5 286,-0.5 248,-0.5"/>
<text text-anchor="middle" x="267" y="-7.5" font-family="Helvetica,sans-Serif" font-size="10.00">main</text>
</a>
</g>
</g>
<!-- Node2&#45;&gt;Node3 -->
<g id="edge2" class="edge"><title>Node2&#45;&gt;Node3</title>
<path fill="none" stroke="midnightblue" d="M222.544,-10C231.361,-10 240.264,-10 247.696,-10"/>
<polygon fill="midnightblue" stroke="midnightblue" points="222.326,-6.5001 212.326,-10 222.326,-13.5001 222.326,-6.5001"/>
</g>
</g>
</svg>
