<?xml version="1.0" encoding="UTF-8" standalone="no"?>
<!DOCTYPE svg PUBLIC "-//W3C//DTD SVG 1.1//EN"
 "http://www.w3.org/Graphics/SVG/1.1/DTD/svg11.dtd">
<!-- Generated by graphviz version 2.36.0 (20140111.2315)
 -->
<!-- Title: assembler.cpp Pages: 1 -->
<svg width="610pt" height="140pt"
 viewBox="0.00 0.00 610.00 140.00" xmlns="http://www.w3.org/2000/svg" xmlns:xlink="http://www.w3.org/1999/xlink">
<g id="graph0" class="graph" transform="scale(1 1) rotate(0) translate(4 136)">
<title>assembler.cpp</title>
<polygon fill="white" stroke="none" points="-4,4 -4,-136 606,-136 606,4 -4,4"/>
<!-- Node1 -->
<g id="node1" class="node"><title>Node1</title>
<polygon fill="#bfbfbf" stroke="black" points="258,-112.5 258,-131.5 338,-131.5 338,-112.5 258,-112.5"/>
<text text-anchor="middle" x="298" y="-119.5" font-family="Helvetica,sans-Serif" font-size="10.00">assembler.cpp</text>
</g>
<!-- Node2 -->
<g id="node2" class="node"><title>Node2</title>
<polygon fill="white" stroke="#bfbfbf" points="0,-56.5 0,-75.5 46,-75.5 46,-56.5 0,-56.5"/>
<text text-anchor="middle" x="23" y="-63.5" font-family="Helvetica,sans-Serif" font-size="10.00">stdio.h</text>
</g>
<!-- Node1&#45;&gt;Node2 -->
<g id="edge1" class="edge"><title>Node1&#45;&gt;Node2</title>
<path fill="none" stroke="midnightblue" d="M257.779,-114.705C211.379,-107.188 132.627,-93.6518 55.8455,-76.0251"/>
<polygon fill="midnightblue" stroke="midnightblue" points="56.5397,-72.5932 46.0073,-73.7411 54.9567,-79.4119 56.5397,-72.5932"/>
</g>
<!-- Node3 -->
<g id="node3" class="node"><title>Node3</title>
<polygon fill="white" stroke="#bfbfbf" points="64,-56.5 64,-75.5 118,-75.5 118,-56.5 64,-56.5"/>
<text text-anchor="middle" x="91" y="-63.5" font-family="Helvetica,sans-Serif" font-size="10.00">iostream</text>
</g>
<!-- Node1&#45;&gt;Node3 -->
<g id="edge2" class="edge"><title>Node1&#45;&gt;Node3</title>
<path fill="none" stroke="midnightblue" d="M265.2,-112.444C227.84,-102.698 166.939,-86.8101 127.938,-76.6359"/>
<polygon fill="midnightblue" stroke="midnightblue" points="128.599,-73.1913 118.039,-74.0537 126.832,-79.9647 128.599,-73.1913"/>
</g>
<!-- Node4 -->
<g id="node4" class="node"><title>Node4</title>
<polygon fill="white" stroke="#bfbfbf" points="136,-56.5 136,-75.5 186,-75.5 186,-56.5 136,-56.5"/>
<text text-anchor="middle" x="161" y="-63.5" font-family="Helvetica,sans-Serif" font-size="10.00">fstream</text>
</g>
<!-- Node1&#45;&gt;Node4 -->
<g id="edge3" class="edge"><title>Node1&#45;&gt;Node4</title>
<path fill="none" stroke="midnightblue" d="M276.292,-112.444C253.645,-103.517 217.928,-89.4387 192.248,-79.3168"/>
<polygon fill="midnightblue" stroke="midnightblue" points="193.193,-75.9273 182.606,-75.5164 190.626,-82.4397 193.193,-75.9273"/>
</g>
<!-- Node5 -->
<g id="node5" class="node"><title>Node5</title>
<polygon fill="white" stroke="#bfbfbf" points="154.5,-0.5 154.5,-19.5 195.5,-19.5 195.5,-0.5 154.5,-0.5"/>
<text text-anchor="middle" x="175" y="-7.5" font-family="Helvetica,sans-Serif" font-size="10.00">string</text>
</g>
<!-- Node1&#45;&gt;Node5 -->
<g id="edge4" class="edge"><title>Node1&#45;&gt;Node5</title>
<path fill="none" stroke="midnightblue" d="M283.599,-112.419C269.934,-103.963 249.145,-90.2718 233,-76 216.082,-61.0452 199.171,-41.4261 188.012,-27.6694"/>
<polygon fill="midnightblue" stroke="midnightblue" points="190.537,-25.2224 181.568,-19.5838 185.063,-29.5853 190.537,-25.2224"/>
</g>
<!-- Node6 -->
<g id="node6" class="node"><title>Node6</title>
<polygon fill="white" stroke="#bfbfbf" points="397,-0.5 397,-19.5 453,-19.5 453,-0.5 397,-0.5"/>
<text text-anchor="middle" x="425" y="-7.5" font-family="Helvetica,sans-Serif" font-size="10.00">algorithm</text>
</g>
<!-- Node1&#45;&gt;Node6 -->
<g id="edge5" class="edge"><title>Node1&#45;&gt;Node6</title>
<path fill="none" stroke="midnightblue" d="M321.267,-112.494C339.566,-104.963 364.908,-92.587 383,-76 397.663,-62.5568 409.414,-42.9207 416.717,-28.7521"/>
<polygon fill="midnightblue" stroke="midnightblue" points="419.961,-30.0872 421.226,-19.5682 413.677,-27.002 419.961,-30.0872"/>
</g>
<!-- Node7 -->
<g id="node7" class="node"><title>Node7</title>
<polygon fill="white" stroke="#bfbfbf" points="335,-0.5 335,-19.5 379,-19.5 379,-0.5 335,-0.5"/>
<text text-anchor="middle" x="357" y="-7.5" font-family="Helvetica,sans-Serif" font-size="10.00">vector</text>
</g>
<!-- Node1&#45;&gt;Node7 -->
<g id="edge6" class="edge"><title>Node1&#45;&gt;Node7</title>
<path fill="none" stroke="midnightblue" d="M321.788,-112.499C337.721,-105.413 357.463,-93.6052 367,-76 374.887,-61.4401 370.628,-42.5153 365.454,-28.8444"/>
<polygon fill="midnightblue" stroke="midnightblue" points="368.644,-27.402 361.505,-19.5736 362.204,-30.1454 368.644,-27.402"/>
</g>
<!-- Node8 -->
<g id="node8" class="node"><title>Node8</title>
<g id="a_node8"><a xlink:href="msgs__pt_8h.html" target="_top" xlink:title="msgs_pt.h">
<polygon fill="white" stroke="black" points="452,-56.5 452,-75.5 514,-75.5 514,-56.5 452,-56.5"/>
<text text-anchor="middle" x="483" y="-63.5" font-family="Helvetica,sans-Serif" font-size="10.00">msgs_pt.h</text>
</a>
</g>
</g>
<!-- Node1&#45;&gt;Node8 -->
<g id="edge7" class="edge"><title>Node1&#45;&gt;Node8</title>
<path fill="none" stroke="midnightblue" d="M327.314,-112.444C358.842,-103.241 409.131,-88.5617 443.986,-78.3879"/>
<polygon fill="midnightblue" stroke="midnightblue" points="445.205,-81.6783 453.823,-75.5164 443.243,-74.9587 445.205,-81.6783"/>
</g>
<!-- Node9 -->
<g id="node9" class="node"><title>Node9</title>
<g id="a_node9"><a xlink:href="assembler_8h.html" target="_top" xlink:title="assembler.h">
<polygon fill="white" stroke="black" points="532,-56.5 532,-75.5 602,-75.5 602,-56.5 532,-56.5"/>
<text text-anchor="middle" x="567" y="-63.5" font-family="Helvetica,sans-Serif" font-size="10.00">assembler.h</text>
</a>
</g>
</g>
<!-- Node1&#45;&gt;Node9 -->
<g id="edge8" class="edge"><title>Node1&#45;&gt;Node9</title>
<path fill="none" stroke="midnightblue" d="M338.272,-112.916C387.463,-103.041 470.448,-86.3821 521.785,-76.0767"/>
<polygon fill="midnightblue" stroke="midnightblue" points="522.495,-79.504 531.61,-74.1042 521.117,-72.6409 522.495,-79.504"/>
</g>
<!-- Node10 -->
<g id="node10" class="node"><title>Node10</title>
<g id="a_node10"><a xlink:href="lexer_8h.html" target="_top" xlink:title="lexer.h">
<polygon fill="white" stroke="black" points="242,-56.5 242,-75.5 288,-75.5 288,-56.5 242,-56.5"/>
<text text-anchor="middle" x="265" y="-63.5" font-family="Helvetica,sans-Serif" font-size="10.00">lexer.h</text>
</a>
</g>
</g>
<!-- Node1&#45;&gt;Node10 -->
<g id="edge9" class="edge"><title>Node1&#45;&gt;Node10</title>
<path fill="none" stroke="midnightblue" d="M292.551,-112.083C287.986,-104.613 281.332,-93.7244 275.707,-84.5199"/>
<polygon fill="midnightblue" stroke="midnightblue" points="278.549,-82.4588 270.348,-75.7511 272.576,-86.109 278.549,-82.4588"/>
</g>
<!-- Node12 -->
<g id="node12" class="node"><title>Node12</title>
<g id="a_node12"><a xlink:href="parser_8h.html" target="_top" xlink:title="parser.h">
<polygon fill="white" stroke="black" points="306,-56.5 306,-75.5 358,-75.5 358,-56.5 306,-56.5"/>
<text text-anchor="middle" x="332" y="-63.5" font-family="Helvetica,sans-Serif" font-size="10.00">parser.h</text>
</a>
</g>
</g>
<!-- Node1&#45;&gt;Node12 -->
<g id="edge13" class="edge"><title>Node1&#45;&gt;Node12</title>
<path fill="none" stroke="midnightblue" d="M303.614,-112.083C308.367,-104.534 315.318,-93.4948 321.152,-84.2298"/>
<polygon fill="midnightblue" stroke="midnightblue" points="324.124,-86.0783 326.49,-75.7511 318.2,-82.3486 324.124,-86.0783"/>
</g>
<!-- Node10&#45;&gt;Node5 -->
<g id="edge10" class="edge"><title>Node10&#45;&gt;Node5</title>
<path fill="none" stroke="midnightblue" d="M250.54,-56.324C236.5,-47.9002 214.952,-34.9709 198.457,-25.0741"/>
<polygon fill="midnightblue" stroke="midnightblue" points="199.8,-21.7983 189.424,-19.6545 196.198,-27.8007 199.8,-21.7983"/>
</g>
<!-- Node10&#45;&gt;Node7 -->
<g id="edge11" class="edge"><title>Node10&#45;&gt;Node7</title>
<path fill="none" stroke="midnightblue" d="M279.781,-56.324C294.267,-47.8215 316.573,-34.7288 333.493,-24.7975"/>
<polygon fill="midnightblue" stroke="midnightblue" points="335.403,-27.735 342.255,-19.6545 331.859,-21.6981 335.403,-27.735"/>
</g>
<!-- Node11 -->
<g id="node11" class="node"><title>Node11</title>
<g id="a_node11"><a xlink:href="languagedefinition_8h.html" target="_top" xlink:title="languagedefinition.h">
<polygon fill="white" stroke="black" points="213.5,-0.5 213.5,-19.5 316.5,-19.5 316.5,-0.5 213.5,-0.5"/>
<text text-anchor="middle" x="265" y="-7.5" font-family="Helvetica,sans-Serif" font-size="10.00">languagedefinition.h</text>
</a>
</g>
</g>
<!-- Node10&#45;&gt;Node11 -->
<g id="edge12" class="edge"><title>Node10&#45;&gt;Node11</title>
<path fill="none" stroke="midnightblue" d="M265,-56.083C265,-49.0059 265,-38.8611 265,-29.9865"/>
<polygon fill="midnightblue" stroke="midnightblue" points="268.5,-29.751 265,-19.7511 261.5,-29.7511 268.5,-29.751"/>
</g>
<!-- Node12&#45;&gt;Node5 -->
<g id="edge14" class="edge"><title>Node12&#45;&gt;Node5</title>
<path fill="none" stroke="midnightblue" d="M307.123,-56.4435C279.588,-46.973 235.193,-31.7032 205.563,-21.512"/>
<polygon fill="midnightblue" stroke="midnightblue" points="206.344,-18.0797 195.75,-18.1368 204.068,-24.6991 206.344,-18.0797"/>
</g>
<!-- Node12&#45;&gt;Node6 -->
<g id="edge15" class="edge"><title>Node12&#45;&gt;Node6</title>
<path fill="none" stroke="midnightblue" d="M346.942,-56.324C361.585,-47.8215 384.134,-34.7288 401.238,-24.7975"/>
<polygon fill="midnightblue" stroke="midnightblue" points="403.205,-27.7027 410.095,-19.6545 399.69,-21.6491 403.205,-27.7027"/>
</g>
<!-- Node12&#45;&gt;Node7 -->
<g id="edge16" class="edge"><title>Node12&#45;&gt;Node7</title>
<path fill="none" stroke="midnightblue" d="M336.128,-56.083C339.514,-48.77 344.416,-38.1814 348.619,-29.1034"/>
<polygon fill="midnightblue" stroke="midnightblue" points="351.923,-30.2962 352.949,-19.7511 345.571,-27.3553 351.923,-30.2962"/>
</g>
</g>
</svg>
