<?xml version="1.0" encoding="UTF-8" standalone="no"?>
<!DOCTYPE svg PUBLIC "-//W3C//DTD SVG 1.1//EN"
 "http://www.w3.org/Graphics/SVG/1.1/DTD/svg11.dtd">
<!-- Generated by graphviz version 2.36.0 (20140111.2315)
 -->
<!-- Title: assembler.cpp Pages: 1 -->
<svg width="678pt" height="140pt"
 viewBox="0.00 0.00 678.00 140.00" xmlns="http://www.w3.org/2000/svg" xmlns:xlink="http://www.w3.org/1999/xlink">
<g id="graph0" class="graph" transform="scale(1 1) rotate(0) translate(4 136)">
<title>assembler.cpp</title>
<polygon fill="white" stroke="none" points="-4,4 -4,-136 674,-136 674,4 -4,4"/>
<!-- Node1 -->
<g id="node1" class="node"><title>Node1</title>
<polygon fill="#bfbfbf" stroke="black" points="276,-112.5 276,-131.5 356,-131.5 356,-112.5 276,-112.5"/>
<text text-anchor="middle" x="316" y="-119.5" font-family="Helvetica,sans-Serif" font-size="10.00">assembler.cpp</text>
</g>
<!-- Node2 -->
<g id="node2" class="node"><title>Node2</title>
<polygon fill="white" stroke="#bfbfbf" points="0,-56.5 0,-75.5 46,-75.5 46,-56.5 0,-56.5"/>
<text text-anchor="middle" x="23" y="-63.5" font-family="Helvetica,sans-Serif" font-size="10.00">stdio.h</text>
</g>
<!-- Node1&#45;&gt;Node2 -->
<g id="edge1" class="edge"><title>Node1&#45;&gt;Node2</title>
<path fill="none" stroke="midnightblue" d="M275.951,-115.411C226.463,-108.215 139.53,-94.6352 56.2232,-76.0932"/>
<polygon fill="midnightblue" stroke="midnightblue" points="56.8723,-72.6518 46.3475,-73.8675 55.3333,-79.4805 56.8723,-72.6518"/>
</g>
<!-- Node3 -->
<g id="node3" class="node"><title>Node3</title>
<polygon fill="white" stroke="#bfbfbf" points="64,-56.5 64,-75.5 118,-75.5 118,-56.5 64,-56.5"/>
<text text-anchor="middle" x="91" y="-63.5" font-family="Helvetica,sans-Serif" font-size="10.00">iostream</text>
</g>
<!-- Node1&#45;&gt;Node3 -->
<g id="edge2" class="edge"><title>Node1&#45;&gt;Node3</title>
<path fill="none" stroke="midnightblue" d="M279.738,-112.494C243.677,-104.006 186.514,-90.4767 127.915,-76.2042"/>
<polygon fill="midnightblue" stroke="midnightblue" points="128.663,-72.7841 118.119,-73.8143 127.004,-79.5846 128.663,-72.7841"/>
</g>
<!-- Node4 -->
<g id="node4" class="node"><title>Node4</title>
<polygon fill="white" stroke="#bfbfbf" points="136,-56.5 136,-75.5 186,-75.5 186,-56.5 136,-56.5"/>
<text text-anchor="middle" x="161" y="-63.5" font-family="Helvetica,sans-Serif" font-size="10.00">fstream</text>
</g>
<!-- Node1&#45;&gt;Node4 -->
<g id="edge3" class="edge"><title>Node1&#45;&gt;Node4</title>
<path fill="none" stroke="midnightblue" d="M291.44,-112.444C265.477,-103.399 224.332,-89.064 195.203,-78.9158"/>
<polygon fill="midnightblue" stroke="midnightblue" points="196.04,-75.5013 185.445,-75.5164 193.737,-82.1116 196.04,-75.5013"/>
</g>
<!-- Node5 -->
<g id="node5" class="node"><title>Node5</title>
<polygon fill="white" stroke="#bfbfbf" points="257.5,-0.5 257.5,-19.5 298.5,-19.5 298.5,-0.5 257.5,-0.5"/>
<text text-anchor="middle" x="278" y="-7.5" font-family="Helvetica,sans-Serif" font-size="10.00">string</text>
</g>
<!-- Node1&#45;&gt;Node5 -->
<g id="edge4" class="edge"><title>Node1&#45;&gt;Node5</title>
<path fill="none" stroke="midnightblue" d="M313.018,-112.368C306.858,-94.5366 292.611,-53.2953 284.312,-29.2717"/>
<polygon fill="midnightblue" stroke="midnightblue" points="287.541,-27.9005 280.968,-19.5914 280.925,-30.1862 287.541,-27.9005"/>
</g>
<!-- Node6 -->
<g id="node6" class="node"><title>Node6</title>
<polygon fill="white" stroke="#bfbfbf" points="387,-0.5 387,-19.5 443,-19.5 443,-0.5 387,-0.5"/>
<text text-anchor="middle" x="415" y="-7.5" font-family="Helvetica,sans-Serif" font-size="10.00">algorithm</text>
</g>
<!-- Node1&#45;&gt;Node6 -->
<g id="edge5" class="edge"><title>Node1&#45;&gt;Node6</title>
<path fill="none" stroke="midnightblue" d="M349.409,-112.422C368.687,-105.712 391.68,-94.3586 405,-76 414.534,-62.8599 416.562,-44.2644 416.481,-30.3272"/>
<polygon fill="midnightblue" stroke="midnightblue" points="419.961,-29.7784 416.035,-19.9376 412.967,-30.0784 419.961,-29.7784"/>
</g>
<!-- Node7 -->
<g id="node7" class="node"><title>Node7</title>
<polygon fill="white" stroke="#bfbfbf" points="317,-0.5 317,-19.5 361,-19.5 361,-0.5 317,-0.5"/>
<text text-anchor="middle" x="339" y="-7.5" font-family="Helvetica,sans-Serif" font-size="10.00">vector</text>
</g>
<!-- Node1&#45;&gt;Node7 -->
<g id="edge6" class="edge"><title>Node1&#45;&gt;Node7</title>
<path fill="none" stroke="midnightblue" d="M317.805,-112.368C321.516,-94.617 330.079,-53.6664 335.111,-29.5974"/>
<polygon fill="midnightblue" stroke="midnightblue" points="338.583,-30.0961 337.204,-19.5914 331.731,-28.6634 338.583,-30.0961"/>
</g>
<!-- Node8 -->
<g id="node8" class="node"><title>Node8</title>
<polygon fill="white" stroke="#bfbfbf" points="452.5,-56.5 452.5,-75.5 501.5,-75.5 501.5,-56.5 452.5,-56.5"/>
<text text-anchor="middle" x="477" y="-63.5" font-family="Helvetica,sans-Serif" font-size="10.00">string.h</text>
</g>
<!-- Node1&#45;&gt;Node8 -->
<g id="edge7" class="edge"><title>Node1&#45;&gt;Node8</title>
<path fill="none" stroke="midnightblue" d="M341.511,-112.444C368.835,-103.279 412.35,-88.6839 442.667,-78.5153"/>
<polygon fill="midnightblue" stroke="midnightblue" points="444.032,-81.7491 452.4,-75.2508 441.806,-75.1125 444.032,-81.7491"/>
</g>
<!-- Node9 -->
<g id="node9" class="node"><title>Node9</title>
<g id="a_node9"><a xlink:href="msgs__pt_8h.html" target="_top" xlink:title="msgs_pt.h">
<polygon fill="white" stroke="black" points="520,-56.5 520,-75.5 582,-75.5 582,-56.5 520,-56.5"/>
<text text-anchor="middle" x="551" y="-63.5" font-family="Helvetica,sans-Serif" font-size="10.00">msgs_pt.h</text>
</a>
</g>
</g>
<!-- Node1&#45;&gt;Node9 -->
<g id="edge8" class="edge"><title>Node1&#45;&gt;Node9</title>
<path fill="none" stroke="midnightblue" d="M353.236,-112.444C395.981,-102.621 465.871,-86.5616 510.098,-76.3987"/>
<polygon fill="midnightblue" stroke="midnightblue" points="510.979,-79.7875 519.942,-74.1368 509.412,-72.9653 510.979,-79.7875"/>
</g>
<!-- Node10 -->
<g id="node10" class="node"><title>Node10</title>
<g id="a_node10"><a xlink:href="assembler_8h.html" target="_top" xlink:title="assembler.h">
<polygon fill="white" stroke="black" points="600,-56.5 600,-75.5 670,-75.5 670,-56.5 600,-56.5"/>
<text text-anchor="middle" x="635" y="-63.5" font-family="Helvetica,sans-Serif" font-size="10.00">assembler.h</text>
</a>
</g>
</g>
<!-- Node1&#45;&gt;Node10 -->
<g id="edge9" class="edge"><title>Node1&#45;&gt;Node10</title>
<path fill="none" stroke="midnightblue" d="M356.007,-114.874C407.507,-106.89 500.01,-92.2198 589.589,-76.0186"/>
<polygon fill="midnightblue" stroke="midnightblue" points="590.436,-79.4221 599.649,-74.1904 589.184,-72.5349 590.436,-79.4221"/>
</g>
<!-- Node11 -->
<g id="node11" class="node"><title>Node11</title>
<g id="a_node11"><a xlink:href="lexer_8h.html" target="_top" xlink:title="lexer.h">
<polygon fill="white" stroke="black" points="204,-56.5 204,-75.5 250,-75.5 250,-56.5 204,-56.5"/>
<text text-anchor="middle" x="227" y="-63.5" font-family="Helvetica,sans-Serif" font-size="10.00">lexer.h</text>
</a>
</g>
</g>
<!-- Node1&#45;&gt;Node11 -->
<g id="edge10" class="edge"><title>Node1&#45;&gt;Node11</title>
<path fill="none" stroke="midnightblue" d="M301.701,-112.324C287.817,-103.9 266.508,-90.9709 250.196,-81.0741"/>
<polygon fill="midnightblue" stroke="midnightblue" points="251.629,-77.8495 241.264,-75.6545 247.998,-83.8341 251.629,-77.8495"/>
</g>
<!-- Node13 -->
<g id="node13" class="node"><title>Node13</title>
<g id="a_node13"><a xlink:href="parser_8h.html" target="_top" xlink:title="parser.h">
<polygon fill="white" stroke="black" points="344,-56.5 344,-75.5 396,-75.5 396,-56.5 344,-56.5"/>
<text text-anchor="middle" x="370" y="-63.5" font-family="Helvetica,sans-Serif" font-size="10.00">parser.h</text>
</a>
</g>
</g>
<!-- Node1&#45;&gt;Node13 -->
<g id="edge14" class="edge"><title>Node1&#45;&gt;Node13</title>
<path fill="none" stroke="midnightblue" d="M324.917,-112.083C332.78,-104.22 344.431,-92.5688 353.919,-83.0813"/>
<polygon fill="midnightblue" stroke="midnightblue" points="356.653,-85.2971 361.249,-75.7511 351.703,-80.3473 356.653,-85.2971"/>
</g>
<!-- Node11&#45;&gt;Node5 -->
<g id="edge11" class="edge"><title>Node11&#45;&gt;Node5</title>
<path fill="none" stroke="midnightblue" d="M235.422,-56.083C242.848,-48.2195 253.852,-36.5688 262.812,-27.0813"/>
<polygon fill="midnightblue" stroke="midnightblue" points="265.413,-29.4244 269.735,-19.7511 260.324,-24.618 265.413,-29.4244"/>
</g>
<!-- Node11&#45;&gt;Node7 -->
<g id="edge12" class="edge"><title>Node11&#45;&gt;Node7</title>
<path fill="none" stroke="midnightblue" d="M244.995,-56.324C263.038,-47.6247 291.047,-34.1202 311.803,-24.113"/>
<polygon fill="midnightblue" stroke="midnightblue" points="313.562,-27.1502 321.05,-19.6545 310.522,-20.8449 313.562,-27.1502"/>
</g>
<!-- Node12 -->
<g id="node12" class="node"><title>Node12</title>
<g id="a_node12"><a xlink:href="languagedefinition_8h.html" target="_top" xlink:title="languagedefinition.h">
<polygon fill="white" stroke="black" points="136.5,-0.5 136.5,-19.5 239.5,-19.5 239.5,-0.5 136.5,-0.5"/>
<text text-anchor="middle" x="188" y="-7.5" font-family="Helvetica,sans-Serif" font-size="10.00">languagedefinition.h</text>
</a>
</g>
</g>
<!-- Node11&#45;&gt;Node12 -->
<g id="edge13" class="edge"><title>Node11&#45;&gt;Node12</title>
<path fill="none" stroke="midnightblue" d="M220.56,-56.083C215.051,-48.4554 206.969,-37.2645 200.235,-27.9408"/>
<polygon fill="midnightblue" stroke="midnightblue" points="203.013,-25.8087 194.32,-19.7511 197.338,-29.9071 203.013,-25.8087"/>
</g>
<!-- Node13&#45;&gt;Node5 -->
<g id="edge15" class="edge"><title>Node13&#45;&gt;Node5</title>
<path fill="none" stroke="midnightblue" d="M355.219,-56.324C340.733,-47.8215 318.427,-34.7288 301.507,-24.7975"/>
<polygon fill="midnightblue" stroke="midnightblue" points="303.141,-21.6981 292.745,-19.6545 299.597,-27.735 303.141,-21.6981"/>
</g>
<!-- Node13&#45;&gt;Node6 -->
<g id="edge16" class="edge"><title>Node13&#45;&gt;Node6</title>
<path fill="none" stroke="midnightblue" d="M377.431,-56.083C383.853,-48.3768 393.306,-37.0333 401.122,-27.6531"/>
<polygon fill="midnightblue" stroke="midnightblue" points="403.994,-29.674 407.707,-19.7511 398.617,-25.1927 403.994,-29.674"/>
</g>
<!-- Node13&#45;&gt;Node7 -->
<g id="edge17" class="edge"><title>Node13&#45;&gt;Node7</title>
<path fill="none" stroke="midnightblue" d="M364.881,-56.083C360.592,-48.6127 354.342,-37.7244 349.058,-28.5199"/>
<polygon fill="midnightblue" stroke="midnightblue" points="352.038,-26.6811 344.024,-19.7511 345.967,-30.1662 352.038,-26.6811"/>
</g>
</g>
</svg>
