<?xml version="1.0" encoding="UTF-8" standalone="no"?>
<!DOCTYPE svg PUBLIC "-//W3C//DTD SVG 1.1//EN"
 "http://www.w3.org/Graphics/SVG/1.1/DTD/svg11.dtd">
<!-- Generated by graphviz version 2.36.0 (20140111.2315)
 -->
<!-- Title: assembler Pages: 1 -->
<svg width="378pt" height="85pt"
 viewBox="0.00 0.00 378.00 85.00" xmlns="http://www.w3.org/2000/svg" xmlns:xlink="http://www.w3.org/1999/xlink">
<g id="graph0" class="graph" transform="scale(1 1) rotate(0) translate(4 81)">
<title>assembler</title>
<polygon fill="white" stroke="none" points="-4,4 -4,-81 374,-81 374,4 -4,4"/>
<!-- Node1 -->
<g id="node1" class="node"><title>Node1</title>
<polygon fill="#bfbfbf" stroke="black" points="0,-38.5 0,-57.5 62,-57.5 62,-38.5 0,-38.5"/>
<text text-anchor="middle" x="31" y="-45.5" font-family="Helvetica,sans-Serif" font-size="10.00">assembler</text>
</g>
<!-- Node2 -->
<g id="node2" class="node"><title>Node2</title>
<g id="a_node2"><a xlink:href="lexer_8cpp.html#a63ef6d488951c4541159fe0961565c4d" target="_top" xlink:title="scanner">
<polygon fill="white" stroke="black" points="135.5,-57.5 135.5,-76.5 186.5,-76.5 186.5,-57.5 135.5,-57.5"/>
<text text-anchor="middle" x="161" y="-64.5" font-family="Helvetica,sans-Serif" font-size="10.00">scanner</text>
</a>
</g>
</g>
<!-- Node1&#45;&gt;Node2 -->
<g id="edge1" class="edge"><title>Node1&#45;&gt;Node2</title>
<path fill="none" stroke="midnightblue" d="M62.0103,-52.4547C80.9262,-55.2625 105.423,-58.8987 125.191,-61.833"/>
<polygon fill="midnightblue" stroke="midnightblue" points="124.925,-65.3319 135.331,-63.3382 125.953,-58.4078 124.925,-65.3319"/>
</g>
<!-- Node3 -->
<g id="node3" class="node"><title>Node3</title>
<g id="a_node3"><a xlink:href="assembler_8cpp.html#ad735f823bad61ae08954113bfcaac5ad" target="_top" xlink:title="lexicalAnalisisInstruction">
<polygon fill="white" stroke="black" points="98.5,-19.5 98.5,-38.5 223.5,-38.5 223.5,-19.5 98.5,-19.5"/>
<text text-anchor="middle" x="161" y="-26.5" font-family="Helvetica,sans-Serif" font-size="10.00">lexicalAnalisisInstruction</text>
</a>
</g>
</g>
<!-- Node1&#45;&gt;Node3 -->
<g id="edge2" class="edge"><title>Node1&#45;&gt;Node3</title>
<path fill="none" stroke="midnightblue" d="M62.0103,-43.5453C70.0415,-42.3532 79.0787,-41.0118 88.3328,-39.6381"/>
<polygon fill="midnightblue" stroke="midnightblue" points="89.0446,-43.0709 98.4223,-38.1404 88.0168,-36.1467 89.0446,-43.0709"/>
</g>
<!-- Node4 -->
<g id="node4" class="node"><title>Node4</title>
<g id="a_node4"><a xlink:href="parser_8cpp.html#ab6243b513963c15735c801e6e3b7fbdf" target="_top" xlink:title="isValidInstructionCall">
<polygon fill="white" stroke="black" points="260.5,-38.5 260.5,-57.5 369.5,-57.5 369.5,-38.5 260.5,-38.5"/>
<text text-anchor="middle" x="315" y="-45.5" font-family="Helvetica,sans-Serif" font-size="10.00">isValidInstructionCall</text>
</a>
</g>
</g>
<!-- Node3&#45;&gt;Node4 -->
<g id="edge3" class="edge"><title>Node3&#45;&gt;Node4</title>
<path fill="none" stroke="midnightblue" d="M223.824,-36.728C232.449,-37.8061 241.327,-38.9158 249.991,-39.9989"/>
<polygon fill="midnightblue" stroke="midnightblue" points="249.679,-43.487 260.036,-41.2545 250.547,-36.5411 249.679,-43.487"/>
</g>
<!-- Node5 -->
<g id="node5" class="node"><title>Node5</title>
<g id="a_node5"><a xlink:href="parser_8cpp.html#a9ef8c814439aab8a9db6ae7207902ab1" target="_top" xlink:title="findLabel">
<polygon fill="white" stroke="black" points="287,-0.5 287,-19.5 343,-19.5 343,-0.5 287,-0.5"/>
<text text-anchor="middle" x="315" y="-7.5" font-family="Helvetica,sans-Serif" font-size="10.00">findLabel</text>
</a>
</g>
</g>
<!-- Node3&#45;&gt;Node5 -->
<g id="edge4" class="edge"><title>Node3&#45;&gt;Node5</title>
<path fill="none" stroke="midnightblue" d="M223.824,-21.272C241.759,-19.0302 260.785,-16.6519 276.715,-14.6606"/>
<polygon fill="midnightblue" stroke="midnightblue" points="277.205,-18.1267 286.694,-13.4133 276.337,-11.1807 277.205,-18.1267"/>
</g>
</g>
</svg>
