<?xml version="1.0" encoding="UTF-8" standalone="no"?>
<!DOCTYPE svg PUBLIC "-//W3C//DTD SVG 1.1//EN"
 "http://www.w3.org/Graphics/SVG/1.1/DTD/svg11.dtd">
<!-- Generated by graphviz version 2.36.0 (20140111.2315)
 -->
<!-- Title: assembler.cpp Pages: 1 -->
<svg width="726pt" height="140pt"
 viewBox="0.00 0.00 726.00 140.00" xmlns="http://www.w3.org/2000/svg" xmlns:xlink="http://www.w3.org/1999/xlink">
<g id="graph0" class="graph" transform="scale(1 1) rotate(0) translate(4 136)">
<title>assembler.cpp</title>
<polygon fill="white" stroke="none" points="-4,4 -4,-136 722,-136 722,4 -4,4"/>
<!-- Node1 -->
<g id="node1" class="node"><title>Node1</title>
<polygon fill="#bfbfbf" stroke="black" points="302,-112.5 302,-131.5 382,-131.5 382,-112.5 302,-112.5"/>
<text text-anchor="middle" x="342" y="-119.5" font-family="Helvetica,sans-Serif" font-size="10.00">assembler.cpp</text>
</g>
<!-- Node2 -->
<g id="node2" class="node"><title>Node2</title>
<polygon fill="white" stroke="#bfbfbf" points="0,-56.5 0,-75.5 46,-75.5 46,-56.5 0,-56.5"/>
<text text-anchor="middle" x="23" y="-63.5" font-family="Helvetica,sans-Serif" font-size="10.00">stdio.h</text>
</g>
<!-- Node1&#45;&gt;Node2 -->
<g id="edge1" class="edge"><title>Node1&#45;&gt;Node2</title>
<path fill="none" stroke="midnightblue" d="M301.793,-116.226C247.934,-109.497 149.258,-95.9963 56.1952,-76.0509"/>
<polygon fill="midnightblue" stroke="midnightblue" points="56.8534,-72.6123 46.3382,-73.9091 55.367,-79.4527 56.8534,-72.6123"/>
</g>
<!-- Node3 -->
<g id="node3" class="node"><title>Node3</title>
<polygon fill="white" stroke="#bfbfbf" points="64,-56.5 64,-75.5 118,-75.5 118,-56.5 64,-56.5"/>
<text text-anchor="middle" x="91" y="-63.5" font-family="Helvetica,sans-Serif" font-size="10.00">iostream</text>
</g>
<!-- Node1&#45;&gt;Node3 -->
<g id="edge2" class="edge"><title>Node1&#45;&gt;Node3</title>
<path fill="none" stroke="midnightblue" d="M301.877,-113.084C260.643,-104.842 194.351,-91.2958 127.902,-76.1413"/>
<polygon fill="midnightblue" stroke="midnightblue" points="128.629,-72.7172 118.1,-73.8941 127.065,-79.5402 128.629,-72.7172"/>
</g>
<!-- Node4 -->
<g id="node4" class="node"><title>Node4</title>
<polygon fill="white" stroke="#bfbfbf" points="136,-56.5 136,-75.5 186,-75.5 186,-56.5 136,-56.5"/>
<text text-anchor="middle" x="161" y="-63.5" font-family="Helvetica,sans-Serif" font-size="10.00">fstream</text>
</g>
<!-- Node1&#45;&gt;Node4 -->
<g id="edge3" class="edge"><title>Node1&#45;&gt;Node4</title>
<path fill="none" stroke="midnightblue" d="M313.32,-112.444C281.522,-102.957 230.218,-87.6507 196.059,-77.4595"/>
<polygon fill="midnightblue" stroke="midnightblue" points="196.632,-73.9781 186.048,-74.473 194.63,-80.6859 196.632,-73.9781"/>
</g>
<!-- Node5 -->
<g id="node5" class="node"><title>Node5</title>
<polygon fill="white" stroke="#bfbfbf" points="321.5,-0.5 321.5,-19.5 362.5,-19.5 362.5,-0.5 321.5,-0.5"/>
<text text-anchor="middle" x="342" y="-7.5" font-family="Helvetica,sans-Serif" font-size="10.00">string</text>
</g>
<!-- Node1&#45;&gt;Node5 -->
<g id="edge4" class="edge"><title>Node1&#45;&gt;Node5</title>
<path fill="none" stroke="midnightblue" d="M301.995,-115.678C277.622,-110.146 248.312,-98.8864 233,-76 211.238,-43.472 272.152,-24.7902 311.488,-16.4002"/>
<polygon fill="midnightblue" stroke="midnightblue" points="312.331,-19.8009 321.443,-14.3949 310.948,-12.9387 312.331,-19.8009"/>
</g>
<!-- Node6 -->
<g id="node6" class="node"><title>Node6</title>
<polygon fill="white" stroke="#bfbfbf" points="242,-56.5 242,-75.5 298,-75.5 298,-56.5 242,-56.5"/>
<text text-anchor="middle" x="270" y="-63.5" font-family="Helvetica,sans-Serif" font-size="10.00">algorithm</text>
</g>
<!-- Node1&#45;&gt;Node6 -->
<g id="edge5" class="edge"><title>Node1&#45;&gt;Node6</title>
<path fill="none" stroke="midnightblue" d="M330.432,-112.324C319.58,-104.185 303.119,-91.8395 290.117,-82.0874"/>
<polygon fill="midnightblue" stroke="midnightblue" points="291.879,-79.0339 281.779,-75.8339 287.679,-84.6339 291.879,-79.0339"/>
</g>
<!-- Node7 -->
<g id="node7" class="node"><title>Node7</title>
<polygon fill="white" stroke="#bfbfbf" points="674,-0.5 674,-19.5 718,-19.5 718,-0.5 674,-0.5"/>
<text text-anchor="middle" x="696" y="-7.5" font-family="Helvetica,sans-Serif" font-size="10.00">vector</text>
</g>
<!-- Node1&#45;&gt;Node7 -->
<g id="edge6" class="edge"><title>Node1&#45;&gt;Node7</title>
<path fill="none" stroke="midnightblue" d="M382.302,-120.909C461.509,-119.899 633.554,-113.341 677,-76 690.216,-64.6415 694.497,-44.6466 695.76,-29.8234"/>
<polygon fill="midnightblue" stroke="midnightblue" points="699.261,-29.8783 696.235,-19.7248 692.269,-29.5493 699.261,-29.8783"/>
</g>
<!-- Node8 -->
<g id="node8" class="node"><title>Node8</title>
<polygon fill="white" stroke="#bfbfbf" points="386.5,-56.5 386.5,-75.5 435.5,-75.5 435.5,-56.5 386.5,-56.5"/>
<text text-anchor="middle" x="411" y="-63.5" font-family="Helvetica,sans-Serif" font-size="10.00">string.h</text>
</g>
<!-- Node1&#45;&gt;Node8 -->
<g id="edge7" class="edge"><title>Node1&#45;&gt;Node8</title>
<path fill="none" stroke="midnightblue" d="M353.086,-112.324C363.486,-104.185 379.261,-91.8395 391.722,-82.0874"/>
<polygon fill="midnightblue" stroke="midnightblue" points="393.994,-84.7533 399.712,-75.8339 389.68,-79.2407 393.994,-84.7533"/>
</g>
<!-- Node9 -->
<g id="node9" class="node"><title>Node9</title>
<g id="a_node9"><a xlink:href="msgs__pt_8h.html" target="_top" xlink:title="msgs_pt.h">
<polygon fill="white" stroke="black" points="454,-56.5 454,-75.5 516,-75.5 516,-56.5 454,-56.5"/>
<text text-anchor="middle" x="485" y="-63.5" font-family="Helvetica,sans-Serif" font-size="10.00">msgs_pt.h</text>
</a>
</g>
</g>
<!-- Node1&#45;&gt;Node9 -->
<g id="edge8" class="edge"><title>Node1&#45;&gt;Node9</title>
<path fill="none" stroke="midnightblue" d="M364.659,-112.444C388.402,-103.478 425.909,-89.314 452.738,-79.1827"/>
<polygon fill="midnightblue" stroke="midnightblue" points="454.329,-82.3235 462.447,-75.5164 451.856,-75.7749 454.329,-82.3235"/>
</g>
<!-- Node10 -->
<g id="node10" class="node"><title>Node10</title>
<g id="a_node10"><a xlink:href="assembler_8h.html" target="_top" xlink:title="assembler.h">
<polygon fill="white" stroke="black" points="534,-56.5 534,-75.5 604,-75.5 604,-56.5 534,-56.5"/>
<text text-anchor="middle" x="569" y="-63.5" font-family="Helvetica,sans-Serif" font-size="10.00">assembler.h</text>
</a>
</g>
</g>
<!-- Node1&#45;&gt;Node10 -->
<g id="edge9" class="edge"><title>Node1&#45;&gt;Node10</title>
<path fill="none" stroke="midnightblue" d="M377.969,-112.444C417.551,-103.028 481.231,-87.8791 524.068,-77.6887"/>
<polygon fill="midnightblue" stroke="midnightblue" points="525.027,-81.0583 533.945,-75.339 523.407,-74.2484 525.027,-81.0583"/>
</g>
<!-- Node11 -->
<g id="node11" class="node"><title>Node11</title>
<g id="a_node11"><a xlink:href="lexer_8h.html" target="_top" xlink:title="lexer.h">
<polygon fill="white" stroke="black" points="622,-56.5 622,-75.5 668,-75.5 668,-56.5 622,-56.5"/>
<text text-anchor="middle" x="645" y="-63.5" font-family="Helvetica,sans-Serif" font-size="10.00">lexer.h</text>
</a>
</g>
</g>
<!-- Node1&#45;&gt;Node11 -->
<g id="edge10" class="edge"><title>Node1&#45;&gt;Node11</title>
<path fill="none" stroke="midnightblue" d="M382.213,-115.728C433.443,-108.703 524.86,-95.1362 611.89,-76.0537"/>
<polygon fill="midnightblue" stroke="midnightblue" points="612.653,-79.4695 621.656,-73.8844 611.135,-72.636 612.653,-79.4695"/>
</g>
<!-- Node13 -->
<g id="node13" class="node"><title>Node13</title>
<g id="a_node13"><a xlink:href="parser_8h.html" target="_top" xlink:title="parser.h">
<polygon fill="white" stroke="black" points="316,-56.5 316,-75.5 368,-75.5 368,-56.5 316,-56.5"/>
<text text-anchor="middle" x="342" y="-63.5" font-family="Helvetica,sans-Serif" font-size="10.00">parser.h</text>
</a>
</g>
</g>
<!-- Node1&#45;&gt;Node13 -->
<g id="edge14" class="edge"><title>Node1&#45;&gt;Node13</title>
<path fill="none" stroke="midnightblue" d="M342,-112.083C342,-105.006 342,-94.8611 342,-85.9865"/>
<polygon fill="midnightblue" stroke="midnightblue" points="345.5,-85.751 342,-75.7511 338.5,-85.7511 345.5,-85.751"/>
</g>
<!-- Node11&#45;&gt;Node5 -->
<g id="edge11" class="edge"><title>Node11&#45;&gt;Node5</title>
<path fill="none" stroke="midnightblue" d="M621.656,-58.1156C618.753,-57.3539 615.816,-56.6279 613,-56 526.517,-36.7189 422.831,-21.723 372.459,-14.9473"/>
<polygon fill="midnightblue" stroke="midnightblue" points="372.919,-11.4778 362.545,-13.6277 371.996,-18.4166 372.919,-11.4778"/>
</g>
<!-- Node11&#45;&gt;Node7 -->
<g id="edge12" class="edge"><title>Node11&#45;&gt;Node7</title>
<path fill="none" stroke="midnightblue" d="M653.422,-56.083C660.848,-48.2195 671.852,-36.5688 680.812,-27.0813"/>
<polygon fill="midnightblue" stroke="midnightblue" points="683.413,-29.4244 687.735,-19.7511 678.324,-24.618 683.413,-29.4244"/>
</g>
<!-- Node12 -->
<g id="node12" class="node"><title>Node12</title>
<g id="a_node12"><a xlink:href="languagedefinition_8h.html" target="_top" xlink:title="languagedefinition.h">
<polygon fill="white" stroke="black" points="552.5,-0.5 552.5,-19.5 655.5,-19.5 655.5,-0.5 552.5,-0.5"/>
<text text-anchor="middle" x="604" y="-7.5" font-family="Helvetica,sans-Serif" font-size="10.00">languagedefinition.h</text>
</a>
</g>
</g>
<!-- Node11&#45;&gt;Node12 -->
<g id="edge13" class="edge"><title>Node11&#45;&gt;Node12</title>
<path fill="none" stroke="midnightblue" d="M638.23,-56.083C632.438,-48.4554 623.942,-37.2645 616.862,-27.9408"/>
<polygon fill="midnightblue" stroke="midnightblue" points="619.479,-25.5991 610.644,-19.7511 613.904,-29.8321 619.479,-25.5991"/>
</g>
<!-- Node13&#45;&gt;Node5 -->
<g id="edge15" class="edge"><title>Node13&#45;&gt;Node5</title>
<path fill="none" stroke="midnightblue" d="M342,-56.083C342,-49.0059 342,-38.8611 342,-29.9865"/>
<polygon fill="midnightblue" stroke="midnightblue" points="345.5,-29.751 342,-19.7511 338.5,-29.7511 345.5,-29.751"/>
</g>
</g>
</svg>
