<?xml version="1.0" encoding="UTF-8" standalone="no"?>
<!DOCTYPE svg PUBLIC "-//W3C//DTD SVG 1.1//EN"
 "http://www.w3.org/Graphics/SVG/1.1/DTD/svg11.dtd">
<!-- Generated by graphviz version 2.36.0 (20140111.2315)
 -->
<!-- Title: assembler Pages: 1 -->
<svg width="216pt" height="66pt"
 viewBox="0.00 0.00 216.00 66.00" xmlns="http://www.w3.org/2000/svg" xmlns:xlink="http://www.w3.org/1999/xlink">
<g id="graph0" class="graph" transform="scale(1 1) rotate(0) translate(4 62)">
<title>assembler</title>
<polygon fill="white" stroke="none" points="-4,4 -4,-62 212,-62 212,4 -4,4"/>
<!-- Node1 -->
<g id="node1" class="node"><title>Node1</title>
<polygon fill="#bfbfbf" stroke="black" points="0,-19.5 0,-38.5 62,-38.5 62,-19.5 0,-19.5"/>
<text text-anchor="middle" x="31" y="-26.5" font-family="Helvetica,sans-Serif" font-size="10.00">assembler</text>
</g>
<!-- Node2 -->
<g id="node2" class="node"><title>Node2</title>
<g id="a_node2"><a xlink:href="lexer_8cpp.html#a63ef6d488951c4541159fe0961565c4d" target="_top" xlink:title="scanner">
<polygon fill="white" stroke="black" points="127.5,-38.5 127.5,-57.5 178.5,-57.5 178.5,-38.5 127.5,-38.5"/>
<text text-anchor="middle" x="153" y="-45.5" font-family="Helvetica,sans-Serif" font-size="10.00">scanner</text>
</a>
</g>
</g>
<!-- Node1&#45;&gt;Node2 -->
<g id="edge1" class="edge"><title>Node1&#45;&gt;Node2</title>
<path fill="none" stroke="midnightblue" d="M62.2811,-33.7945C78.9555,-36.4346 99.7268,-39.7234 117.083,-42.4715"/>
<polygon fill="midnightblue" stroke="midnightblue" points="116.957,-45.995 127.381,-44.102 118.052,-39.0812 116.957,-45.995"/>
</g>
<!-- Node3 -->
<g id="node3" class="node"><title>Node3</title>
<g id="a_node3"><a xlink:href="parser_8cpp.html#ab6243b513963c15735c801e6e3b7fbdf" target="_top" xlink:title="isValidInstructionCall">
<polygon fill="white" stroke="black" points="98.5,-0.5 98.5,-19.5 207.5,-19.5 207.5,-0.5 98.5,-0.5"/>
<text text-anchor="middle" x="153" y="-7.5" font-family="Helvetica,sans-Serif" font-size="10.00">isValidInstructionCall</text>
</a>
</g>
</g>
<!-- Node1&#45;&gt;Node3 -->
<g id="edge2" class="edge"><title>Node1&#45;&gt;Node3</title>
<path fill="none" stroke="midnightblue" d="M62.2811,-24.2055C70.3373,-22.9299 79.3499,-21.5029 88.4716,-20.0587"/>
<polygon fill="midnightblue" stroke="midnightblue" points="89.0428,-23.5119 98.3724,-18.491 87.948,-16.598 89.0428,-23.5119"/>
</g>
</g>
</svg>
