<?xml version="1.0" encoding="UTF-8" standalone="no"?>
<!DOCTYPE svg PUBLIC "-//W3C//DTD SVG 1.1//EN"
 "http://www.w3.org/Graphics/SVG/1.1/DTD/svg11.dtd">
<!-- Generated by graphviz version 2.36.0 (20140111.2315)
 -->
<!-- Title: languagedefinition.h Pages: 1 -->
<svg width="621pt" height="140pt"
 viewBox="0.00 0.00 621.00 140.00" xmlns="http://www.w3.org/2000/svg" xmlns:xlink="http://www.w3.org/1999/xlink">
<g id="graph0" class="graph" transform="scale(1 1) rotate(0) translate(4 136)">
<title>languagedefinition.h</title>
<polygon fill="white" stroke="none" points="-4,4 -4,-136 617,-136 617,4 -4,4"/>
<!-- Node1 -->
<g id="node1" class="node"><title>Node1</title>
<polygon fill="#bfbfbf" stroke="black" points="446.5,-112.5 446.5,-131.5 549.5,-131.5 549.5,-112.5 446.5,-112.5"/>
<text text-anchor="middle" x="498" y="-119.5" font-family="Helvetica,sans-Serif" font-size="10.00">languagedefinition.h</text>
</g>
<!-- Node2 -->
<g id="node2" class="node"><title>Node2</title>
<g id="a_node2"><a xlink:href="lexer_8h.html" target="_top" xlink:title="lexer.h">
<polygon fill="white" stroke="black" points="302,-56.5 302,-75.5 348,-75.5 348,-56.5 302,-56.5"/>
<text text-anchor="middle" x="325" y="-63.5" font-family="Helvetica,sans-Serif" font-size="10.00">lexer.h</text>
</a>
</g>
</g>
<!-- Node1&#45;&gt;Node2 -->
<g id="edge1" class="edge"><title>Node1&#45;&gt;Node2</title>
<path fill="none" stroke="midnightblue" d="M460.947,-109.434C426.742,-98.7576 377.004,-83.2324 348.132,-74.2203"/>
<polygon fill="midnightblue" stroke="midnightblue" points="459.999,-112.805 470.588,-112.444 462.085,-106.123 459.999,-112.805"/>
</g>
<!-- Node9 -->
<g id="node9" class="node"><title>Node9</title>
<g id="a_node9"><a xlink:href="simulator_8cpp.html" target="_top" xlink:title="simulator.cpp">
<polygon fill="white" stroke="black" points="538.5,-0.5 538.5,-19.5 613.5,-19.5 613.5,-0.5 538.5,-0.5"/>
<text text-anchor="middle" x="576" y="-7.5" font-family="Helvetica,sans-Serif" font-size="10.00">simulator.cpp</text>
</a>
</g>
</g>
<!-- Node1&#45;&gt;Node9 -->
<g id="edge10" class="edge"><title>Node1&#45;&gt;Node9</title>
<path fill="none" stroke="midnightblue" d="M500.315,-102.052C502.724,-88.3046 507.536,-69.7801 517,-56 527.94,-40.0712 546.315,-27.3595 559.657,-19.5635"/>
<polygon fill="midnightblue" stroke="midnightblue" points="496.805,-101.864 498.808,-112.268 503.73,-102.886 496.805,-101.864"/>
</g>
<!-- Node10 -->
<g id="node10" class="node"><title>Node10</title>
<g id="a_node10"><a xlink:href="parser_8cpp.html" target="_top" xlink:title="parser.cpp">
<polygon fill="white" stroke="black" points="526,-56.5 526,-75.5 588,-75.5 588,-56.5 526,-56.5"/>
<text text-anchor="middle" x="557" y="-63.5" font-family="Helvetica,sans-Serif" font-size="10.00">parser.cpp</text>
</a>
</g>
</g>
<!-- Node1&#45;&gt;Node10 -->
<g id="edge9" class="edge"><title>Node1&#45;&gt;Node10</title>
<path fill="none" stroke="midnightblue" d="M514.895,-105.537C525.415,-95.9087 538.569,-83.8694 547.348,-75.8339"/>
<polygon fill="midnightblue" stroke="midnightblue" points="512.493,-102.99 507.479,-112.324 517.219,-108.154 512.493,-102.99"/>
</g>
<!-- Node3 -->
<g id="node3" class="node"><title>Node3</title>
<g id="a_node3"><a xlink:href="assembler_8cpp.html" target="_top" xlink:title="assembler.cpp">
<polygon fill="white" stroke="black" points="0,-0.5 0,-19.5 80,-19.5 80,-0.5 0,-0.5"/>
<text text-anchor="middle" x="40" y="-7.5" font-family="Helvetica,sans-Serif" font-size="10.00">assembler.cpp</text>
</a>
</g>
</g>
<!-- Node2&#45;&gt;Node3 -->
<g id="edge2" class="edge"><title>Node2&#45;&gt;Node3</title>
<path fill="none" stroke="midnightblue" d="M291.531,-58.6584C238.889,-48.6842 136.927,-29.3651 80.3257,-18.6406"/>
<polygon fill="midnightblue" stroke="midnightblue" points="291.2,-62.1581 301.677,-60.581 292.504,-55.2804 291.2,-62.1581"/>
</g>
<!-- Node4 -->
<g id="node4" class="node"><title>Node4</title>
<g id="a_node4"><a xlink:href="lexer_8cpp.html" target="_top" xlink:title="lexer.cpp">
<polygon fill="white" stroke="black" points="98,-0.5 98,-19.5 154,-19.5 154,-0.5 98,-0.5"/>
<text text-anchor="middle" x="126" y="-7.5" font-family="Helvetica,sans-Serif" font-size="10.00">lexer.cpp</text>
</a>
</g>
</g>
<!-- Node2&#45;&gt;Node4 -->
<g id="edge3" class="edge"><title>Node2&#45;&gt;Node4</title>
<path fill="none" stroke="midnightblue" d="M292.088,-56.069C253.591,-45.6227 190.514,-28.5064 154.18,-18.6469"/>
<polygon fill="midnightblue" stroke="midnightblue" points="291.215,-59.4587 301.783,-58.6998 293.048,-52.703 291.215,-59.4587"/>
</g>
<!-- Node5 -->
<g id="node5" class="node"><title>Node5</title>
<g id="a_node5"><a xlink:href="linker_8cpp.html" target="_top" xlink:title="linker.cpp">
<polygon fill="white" stroke="black" points="172.5,-0.5 172.5,-19.5 231.5,-19.5 231.5,-0.5 172.5,-0.5"/>
<text text-anchor="middle" x="202" y="-7.5" font-family="Helvetica,sans-Serif" font-size="10.00">linker.cpp</text>
</a>
</g>
</g>
<!-- Node2&#45;&gt;Node5 -->
<g id="edge4" class="edge"><title>Node2&#45;&gt;Node5</title>
<path fill="none" stroke="midnightblue" d="M296.227,-52.3678C273.193,-42.2553 241.516,-28.3486 221.399,-19.5164"/>
<polygon fill="midnightblue" stroke="midnightblue" points="294.947,-55.6283 305.51,-56.4435 297.761,-49.2188 294.947,-55.6283"/>
</g>
<!-- Node6 -->
<g id="node6" class="node"><title>Node6</title>
<g id="a_node6"><a xlink:href="loader_8cpp.html" target="_top" xlink:title="loader.cpp">
<polygon fill="white" stroke="black" points="250,-0.5 250,-19.5 312,-19.5 312,-0.5 250,-0.5"/>
<text text-anchor="middle" x="281" y="-7.5" font-family="Helvetica,sans-Serif" font-size="10.00">loader.cpp</text>
</a>
</g>
</g>
<!-- Node2&#45;&gt;Node6 -->
<g id="edge5" class="edge"><title>Node2&#45;&gt;Node6</title>
<path fill="none" stroke="midnightblue" d="M311.265,-48.144C303.599,-38.7357 294.367,-27.4046 288.131,-19.7511"/>
<polygon fill="midnightblue" stroke="midnightblue" points="308.704,-50.5415 317.734,-56.083 314.131,-46.1198 308.704,-50.5415"/>
</g>
<!-- Node7 -->
<g id="node7" class="node"><title>Node7</title>
<g id="a_node7"><a xlink:href="macroeval_8cpp.html" target="_top" xlink:title="macroeval.cpp">
<polygon fill="white" stroke="black" points="330,-0.5 330,-19.5 410,-19.5 410,-0.5 330,-0.5"/>
<text text-anchor="middle" x="370" y="-7.5" font-family="Helvetica,sans-Serif" font-size="10.00">macroeval.cpp</text>
</a>
</g>
</g>
<!-- Node2&#45;&gt;Node7 -->
<g id="edge6" class="edge"><title>Node2&#45;&gt;Node7</title>
<path fill="none" stroke="midnightblue" d="M339.047,-48.144C346.887,-38.7357 356.329,-27.4046 362.707,-19.7511"/>
<polygon fill="midnightblue" stroke="midnightblue" points="336.144,-46.1601 332.431,-56.083 341.521,-50.6414 336.144,-46.1601"/>
</g>
<!-- Node8 -->
<g id="node8" class="node"><title>Node8</title>
<g id="a_node8"><a xlink:href="preprocessor_8cpp.html" target="_top" xlink:title="preprocessor.cpp">
<polygon fill="white" stroke="black" points="428,-0.5 428,-19.5 520,-19.5 520,-0.5 428,-0.5"/>
<text text-anchor="middle" x="474" y="-7.5" font-family="Helvetica,sans-Serif" font-size="10.00">preprocessor.cpp</text>
</a>
</g>
</g>
<!-- Node2&#45;&gt;Node8 -->
<g id="edge7" class="edge"><title>Node2&#45;&gt;Node8</title>
<path fill="none" stroke="midnightblue" d="M358.027,-53.0303C386.02,-42.8853 425.477,-28.5854 450.391,-19.5565"/>
<polygon fill="midnightblue" stroke="midnightblue" points="356.49,-49.8646 348.281,-56.5625 358.875,-56.4457 356.49,-49.8646"/>
</g>
<!-- Node2&#45;&gt;Node9 -->
<g id="edge8" class="edge"><title>Node2&#45;&gt;Node9</title>
<path fill="none" stroke="midnightblue" d="M358.047,-57.8902C404.636,-47.8671 489.394,-29.6324 538.355,-19.0989"/>
<polygon fill="midnightblue" stroke="midnightblue" points="357.204,-54.4915 348.164,-60.0166 358.676,-61.335 357.204,-54.4915"/>
</g>
</g>
</svg>
