<?xml version="1.0" encoding="UTF-8" standalone="no"?>
<!DOCTYPE svg PUBLIC "-//W3C//DTD SVG 1.1//EN"
 "http://www.w3.org/Graphics/SVG/1.1/DTD/svg11.dtd">
<!-- Generated by graphviz version 2.36.0 (20140111.2315)
 -->
<!-- Title: scanner Pages: 1 -->
<svg width="342pt" height="104pt"
 viewBox="0.00 0.00 342.00 104.00" xmlns="http://www.w3.org/2000/svg" xmlns:xlink="http://www.w3.org/1999/xlink">
<g id="graph0" class="graph" transform="scale(1 1) rotate(0) translate(4 100)">
<title>scanner</title>
<polygon fill="white" stroke="none" points="-4,4 -4,-100 338,-100 338,4 -4,4"/>
<!-- Node1 -->
<g id="node1" class="node"><title>Node1</title>
<polygon fill="#bfbfbf" stroke="black" points="0.5,-57.5 0.5,-76.5 51.5,-76.5 51.5,-57.5 0.5,-57.5"/>
<text text-anchor="middle" x="26" y="-64.5" font-family="Helvetica,sans-Serif" font-size="10.00">scanner</text>
</g>
<!-- Node2 -->
<g id="node2" class="node"><title>Node2</title>
<g id="a_node2"><a xlink:href="assembler_8h.html#a368a4f7b83093ab74e79be4ceeb11e3d" target="_top" xlink:title="assembler">
<polygon fill="white" stroke="black" points="88,-76.5 88,-95.5 150,-95.5 150,-76.5 88,-76.5"/>
<text text-anchor="middle" x="119" y="-83.5" font-family="Helvetica,sans-Serif" font-size="10.00">assembler</text>
</a>
</g>
</g>
<!-- Node1&#45;&gt;Node2 -->
<g id="edge1" class="edge"><title>Node1&#45;&gt;Node2</title>
<path fill="none" stroke="midnightblue" d="M61.6963,-74.2443C70.3561,-76.0524 79.5702,-77.9762 87.9825,-79.7326"/>
<polygon fill="midnightblue" stroke="midnightblue" points="62.3704,-70.8096 51.8661,-72.1918 60.9397,-77.6619 62.3704,-70.8096"/>
</g>
<!-- Node4 -->
<g id="node4" class="node"><title>Node4</title>
<g id="a_node4"><a xlink:href="lexer_8h.html#ab482a9701233ff4e5a0ffc1f75f9c41a" target="_top" xlink:title="tokenizer">
<polygon fill="white" stroke="black" points="91,-38.5 91,-57.5 147,-57.5 147,-38.5 91,-38.5"/>
<text text-anchor="middle" x="119" y="-45.5" font-family="Helvetica,sans-Serif" font-size="10.00">tokenizer</text>
</a>
</g>
</g>
<!-- Node1&#45;&gt;Node4 -->
<g id="edge3" class="edge"><title>Node1&#45;&gt;Node4</title>
<path fill="none" stroke="midnightblue" d="M61.9469,-59.7034C71.5579,-57.6967 81.8339,-55.5512 90.928,-53.6524"/>
<polygon fill="midnightblue" stroke="midnightblue" points="60.9397,-56.3381 51.8661,-61.8082 62.3704,-63.1904 60.9397,-56.3381"/>
</g>
<!-- Node3 -->
<g id="node3" class="node"><title>Node3</title>
<g id="a_node3"><a xlink:href="main_8cpp.html#a3c04138a5bfe5d72780bb7e82a18e627" target="_top" xlink:title="main">
<polygon fill="white" stroke="black" points="296,-38.5 296,-57.5 334,-57.5 334,-38.5 296,-38.5"/>
<text text-anchor="middle" x="315" y="-45.5" font-family="Helvetica,sans-Serif" font-size="10.00">main</text>
</a>
</g>
</g>
<!-- Node2&#45;&gt;Node3 -->
<g id="edge2" class="edge"><title>Node2&#45;&gt;Node3</title>
<path fill="none" stroke="midnightblue" d="M160.368,-82.7157C188.556,-79.8904 226.91,-74.9788 260,-67 272.173,-64.0647 285.445,-59.4161 295.785,-55.4518"/>
<polygon fill="midnightblue" stroke="midnightblue" points="159.717,-79.2619 150.095,-83.6983 160.383,-86.2301 159.717,-79.2619"/>
</g>
<!-- Node5 -->
<g id="node5" class="node"><title>Node5</title>
<g id="a_node5"><a xlink:href="macroeval_8h.html#ab726e2a9f26698bddb5ddd13683e6630" target="_top" xlink:title="macroeval">
<polygon fill="white" stroke="black" points="192,-38.5 192,-57.5 254,-57.5 254,-38.5 192,-38.5"/>
<text text-anchor="middle" x="223" y="-45.5" font-family="Helvetica,sans-Serif" font-size="10.00">macroeval</text>
</a>
</g>
</g>
<!-- Node4&#45;&gt;Node5 -->
<g id="edge4" class="edge"><title>Node4&#45;&gt;Node5</title>
<path fill="none" stroke="midnightblue" d="M157.203,-48C168.626,-48 181.047,-48 191.93,-48"/>
<polygon fill="midnightblue" stroke="midnightblue" points="157.066,-44.5001 147.066,-48 157.066,-51.5001 157.066,-44.5001"/>
</g>
<!-- Node6 -->
<g id="node6" class="node"><title>Node6</title>
<g id="a_node6"><a xlink:href="preprocessor_8h.html#a64877d45066932f7594bb2ad347c1d26" target="_top" xlink:title="preprocessor">
<polygon fill="white" stroke="black" points="186.5,-0.5 186.5,-19.5 259.5,-19.5 259.5,-0.5 186.5,-0.5"/>
<text text-anchor="middle" x="223" y="-7.5" font-family="Helvetica,sans-Serif" font-size="10.00">preprocessor</text>
</a>
</g>
</g>
<!-- Node4&#45;&gt;Node6 -->
<g id="edge6" class="edge"><title>Node4&#45;&gt;Node6</title>
<path fill="none" stroke="midnightblue" d="M155.211,-34.882C168.702,-29.8561 183.828,-24.2209 196.269,-19.5859"/>
<polygon fill="midnightblue" stroke="midnightblue" points="153.888,-31.6401 145.739,-38.411 156.332,-38.1996 153.888,-31.6401"/>
</g>
<!-- Node5&#45;&gt;Node3 -->
<g id="edge5" class="edge"><title>Node5&#45;&gt;Node3</title>
<path fill="none" stroke="midnightblue" d="M264.747,-48C275.662,-48 286.913,-48 295.902,-48"/>
<polygon fill="midnightblue" stroke="midnightblue" points="264.47,-44.5001 254.47,-48 264.47,-51.5001 264.47,-44.5001"/>
</g>
<!-- Node6&#45;&gt;Node3 -->
<g id="edge7" class="edge"><title>Node6&#45;&gt;Node3</title>
<path fill="none" stroke="midnightblue" d="M256.065,-23.5384C269.417,-29.1762 284.431,-35.5151 295.828,-40.3273"/>
<polygon fill="midnightblue" stroke="midnightblue" points="257.285,-20.2544 246.711,-19.589 254.562,-26.7032 257.285,-20.2544"/>
</g>
</g>
</svg>
