<?xml version="1.0" encoding="UTF-8" standalone="no"?>
<!DOCTYPE svg PUBLIC "-//W3C//DTD SVG 1.1//EN"
 "http://www.w3.org/Graphics/SVG/1.1/DTD/svg11.dtd">
<!-- Generated by graphviz version 2.36.0 (20140111.2315)
 -->
<!-- Title: lexer.cpp Pages: 1 -->
<svg width="237pt" height="140pt"
 viewBox="0.00 0.00 237.00 140.00" xmlns="http://www.w3.org/2000/svg" xmlns:xlink="http://www.w3.org/1999/xlink">
<g id="graph0" class="graph" transform="scale(1 1) rotate(0) translate(4 136)">
<title>lexer.cpp</title>
<polygon fill="white" stroke="none" points="-4,4 -4,-136 233,-136 233,4 -4,4"/>
<!-- Node1 -->
<g id="node1" class="node"><title>Node1</title>
<polygon fill="#bfbfbf" stroke="black" points="85,-112.5 85,-131.5 141,-131.5 141,-112.5 85,-112.5"/>
<text text-anchor="middle" x="113" y="-119.5" font-family="Helvetica,sans-Serif" font-size="10.00">lexer.cpp</text>
</g>
<!-- Node2 -->
<g id="node2" class="node"><title>Node2</title>
<polygon fill="white" stroke="#bfbfbf" points="-1,-56.5 -1,-75.5 43,-75.5 43,-56.5 -1,-56.5"/>
<text text-anchor="middle" x="21" y="-63.5" font-family="Helvetica,sans-Serif" font-size="10.00">vector</text>
</g>
<!-- Node1&#45;&gt;Node2 -->
<g id="edge1" class="edge"><title>Node1&#45;&gt;Node2</title>
<path fill="none" stroke="midnightblue" d="M98.2186,-112.324C83.7329,-103.822 61.4269,-90.7288 44.5068,-80.7975"/>
<polygon fill="midnightblue" stroke="midnightblue" points="46.1406,-77.6981 35.7447,-75.6545 42.5972,-83.735 46.1406,-77.6981"/>
</g>
<!-- Node3 -->
<g id="node3" class="node"><title>Node3</title>
<g id="a_node3"><a xlink:href="languagedefinition_8h.html" target="_top" xlink:title="languagedefinition.h">
<polygon fill="white" stroke="black" points="61.5,-56.5 61.5,-75.5 164.5,-75.5 164.5,-56.5 61.5,-56.5"/>
<text text-anchor="middle" x="113" y="-63.5" font-family="Helvetica,sans-Serif" font-size="10.00">languagedefinition.h</text>
</a>
</g>
</g>
<!-- Node1&#45;&gt;Node3 -->
<g id="edge2" class="edge"><title>Node1&#45;&gt;Node3</title>
<path fill="none" stroke="midnightblue" d="M113,-112.083C113,-105.006 113,-94.8611 113,-85.9865"/>
<polygon fill="midnightblue" stroke="midnightblue" points="116.5,-85.751 113,-75.7511 109.5,-85.7511 116.5,-85.751"/>
</g>
<!-- Node4 -->
<g id="node4" class="node"><title>Node4</title>
<g id="a_node4"><a xlink:href="lexer_8h.html" target="_top" xlink:title="lexer.h">
<polygon fill="white" stroke="black" points="183,-56.5 183,-75.5 229,-75.5 229,-56.5 183,-56.5"/>
<text text-anchor="middle" x="206" y="-63.5" font-family="Helvetica,sans-Serif" font-size="10.00">lexer.h</text>
</a>
</g>
</g>
<!-- Node1&#45;&gt;Node4 -->
<g id="edge3" class="edge"><title>Node1&#45;&gt;Node4</title>
<path fill="none" stroke="midnightblue" d="M127.942,-112.324C142.585,-103.822 165.134,-90.7288 182.238,-80.7975"/>
<polygon fill="midnightblue" stroke="midnightblue" points="184.205,-83.7027 191.095,-75.6545 180.69,-77.6491 184.205,-83.7027"/>
</g>
<!-- Node5 -->
<g id="node5" class="node"><title>Node5</title>
<polygon fill="white" stroke="#bfbfbf" points="185.5,-0.5 185.5,-19.5 226.5,-19.5 226.5,-0.5 185.5,-0.5"/>
<text text-anchor="middle" x="206" y="-7.5" font-family="Helvetica,sans-Serif" font-size="10.00">string</text>
</g>
<!-- Node4&#45;&gt;Node5 -->
<g id="edge4" class="edge"><title>Node4&#45;&gt;Node5</title>
<path fill="none" stroke="midnightblue" d="M206,-56.083C206,-49.0059 206,-38.8611 206,-29.9865"/>
<polygon fill="midnightblue" stroke="midnightblue" points="209.5,-29.751 206,-19.7511 202.5,-29.7511 209.5,-29.751"/>
</g>
</g>
</svg>
