<?xml version="1.0" encoding="UTF-8" standalone="no"?>
<!DOCTYPE svg PUBLIC "-//W3C//DTD SVG 1.1//EN"
 "http://www.w3.org/Graphics/SVG/1.1/DTD/svg11.dtd">
<!-- Generated by graphviz version 2.36.0 (20140111.2315)
 -->
<!-- Title: tokenizer Pages: 1 -->
<svg width="248pt" height="66pt"
 viewBox="0.00 0.00 248.00 66.00" xmlns="http://www.w3.org/2000/svg" xmlns:xlink="http://www.w3.org/1999/xlink">
<g id="graph0" class="graph" transform="scale(1 1) rotate(0) translate(4 62)">
<title>tokenizer</title>
<polygon fill="white" stroke="none" points="-4,4 -4,-62 244,-62 244,4 -4,4"/>
<!-- Node1 -->
<g id="node1" class="node"><title>Node1</title>
<polygon fill="#bfbfbf" stroke="black" points="0,-19.5 0,-38.5 56,-38.5 56,-19.5 0,-19.5"/>
<text text-anchor="middle" x="28" y="-26.5" font-family="Helvetica,sans-Serif" font-size="10.00">tokenizer</text>
</g>
<!-- Node2 -->
<g id="node2" class="node"><title>Node2</title>
<g id="a_node2"><a xlink:href="macroeval_8h.html#ab726e2a9f26698bddb5ddd13683e6630" target="_top" xlink:title="macroeval">
<polygon fill="white" stroke="black" points="98,-38.5 98,-57.5 160,-57.5 160,-38.5 98,-38.5"/>
<text text-anchor="middle" x="129" y="-45.5" font-family="Helvetica,sans-Serif" font-size="10.00">macroeval</text>
</a>
</g>
</g>
<!-- Node1&#45;&gt;Node2 -->
<g id="edge1" class="edge"><title>Node1&#45;&gt;Node2</title>
<path fill="none" stroke="midnightblue" d="M66.1676,-36.1332C76.6194,-38.1391 87.8547,-40.2953 97.843,-42.2123"/>
<polygon fill="midnightblue" stroke="midnightblue" points="66.5327,-32.6394 56.0522,-34.1918 65.2133,-39.514 66.5327,-32.6394"/>
</g>
<!-- Node4 -->
<g id="node4" class="node"><title>Node4</title>
<g id="a_node4"><a xlink:href="preprocessor_8h.html#a64877d45066932f7594bb2ad347c1d26" target="_top" xlink:title="preprocessor">
<polygon fill="white" stroke="black" points="92.5,-0.5 92.5,-19.5 165.5,-19.5 165.5,-0.5 92.5,-0.5"/>
<text text-anchor="middle" x="129" y="-7.5" font-family="Helvetica,sans-Serif" font-size="10.00">preprocessor</text>
</a>
</g>
</g>
<!-- Node1&#45;&gt;Node4 -->
<g id="edge3" class="edge"><title>Node1&#45;&gt;Node4</title>
<path fill="none" stroke="midnightblue" d="M65.9134,-21.9156C74.5895,-20.2505 83.818,-18.4794 92.4335,-16.8259"/>
<polygon fill="midnightblue" stroke="midnightblue" points="65.2133,-18.486 56.0522,-23.8082 66.5327,-25.3606 65.2133,-18.486"/>
</g>
<!-- Node3 -->
<g id="node3" class="node"><title>Node3</title>
<g id="a_node3"><a xlink:href="main_8cpp.html#a3c04138a5bfe5d72780bb7e82a18e627" target="_top" xlink:title="main">
<polygon fill="white" stroke="black" points="202,-19.5 202,-38.5 240,-38.5 240,-19.5 202,-19.5"/>
<text text-anchor="middle" x="221" y="-26.5" font-family="Helvetica,sans-Serif" font-size="10.00">main</text>
</a>
</g>
</g>
<!-- Node2&#45;&gt;Node3 -->
<g id="edge2" class="edge"><title>Node2&#45;&gt;Node3</title>
<path fill="none" stroke="midnightblue" d="M170.409,-39.4692C181.429,-37.1427 192.821,-34.7379 201.902,-32.8207"/>
<polygon fill="midnightblue" stroke="midnightblue" points="169.531,-36.0773 160.47,-41.5675 170.977,-42.9263 169.531,-36.0773"/>
</g>
<!-- Node4&#45;&gt;Node3 -->
<g id="edge4" class="edge"><title>Node4&#45;&gt;Node3</title>
<path fill="none" stroke="midnightblue" d="M175.574,-19.6211C184.849,-21.5793 194.092,-23.5306 201.726,-25.1422"/>
<polygon fill="midnightblue" stroke="midnightblue" points="176.078,-16.1504 165.57,-17.5093 174.632,-22.9995 176.078,-16.1504"/>
</g>
</g>
</svg>
