<?xml version="1.0" encoding="UTF-8" standalone="no"?>
<!DOCTYPE svg PUBLIC "-//W3C//DTD SVG 1.1//EN"
 "http://www.w3.org/Graphics/SVG/1.1/DTD/svg11.dtd">
<!-- Generated by graphviz version 2.36.0 (20140111.2315)
 -->
<!-- Title: lexer.cpp Pages: 1 -->
<svg width="232pt" height="140pt"
 viewBox="0.00 0.00 232.00 140.00" xmlns="http://www.w3.org/2000/svg" xmlns:xlink="http://www.w3.org/1999/xlink">
<g id="graph0" class="graph" transform="scale(1 1) rotate(0) translate(4 136)">
<title>lexer.cpp</title>
<polygon fill="white" stroke="none" points="-4,4 -4,-136 228,-136 228,4 -4,4"/>
<!-- Node1 -->
<g id="node1" class="node"><title>Node1</title>
<polygon fill="#bfbfbf" stroke="black" points="24,-112.5 24,-131.5 80,-131.5 80,-112.5 24,-112.5"/>
<text text-anchor="middle" x="52" y="-119.5" font-family="Helvetica,sans-Serif" font-size="10.00">lexer.cpp</text>
</g>
<!-- Node2 -->
<g id="node2" class="node"><title>Node2</title>
<polygon fill="white" stroke="#bfbfbf" points="0,-0.5 0,-19.5 44,-19.5 44,-0.5 0,-0.5"/>
<text text-anchor="middle" x="22" y="-7.5" font-family="Helvetica,sans-Serif" font-size="10.00">vector</text>
</g>
<!-- Node1&#45;&gt;Node2 -->
<g id="edge1" class="edge"><title>Node1&#45;&gt;Node2</title>
<path fill="none" stroke="midnightblue" d="M49.646,-112.368C44.7827,-94.5366 33.5351,-53.2953 26.9832,-29.2717"/>
<polygon fill="midnightblue" stroke="midnightblue" points="30.351,-28.3181 24.3431,-19.5914 23.5977,-30.16 30.351,-28.3181"/>
</g>
<!-- Node3 -->
<g id="node3" class="node"><title>Node3</title>
<g id="a_node3"><a xlink:href="lexer_8h.html" target="_top" xlink:title="lexer.h">
<polygon fill="white" stroke="black" points="57,-56.5 57,-75.5 103,-75.5 103,-56.5 57,-56.5"/>
<text text-anchor="middle" x="80" y="-63.5" font-family="Helvetica,sans-Serif" font-size="10.00">lexer.h</text>
</a>
</g>
</g>
<!-- Node1&#45;&gt;Node3 -->
<g id="edge2" class="edge"><title>Node1&#45;&gt;Node3</title>
<path fill="none" stroke="midnightblue" d="M56.6236,-112.083C60.4563,-104.691 66.0242,-93.9533 70.7646,-84.8111"/>
<polygon fill="midnightblue" stroke="midnightblue" points="73.9663,-86.2398 75.4624,-75.7511 67.752,-83.0175 73.9663,-86.2398"/>
</g>
<!-- Node3&#45;&gt;Node2 -->
<g id="edge4" class="edge"><title>Node3&#45;&gt;Node2</title>
<path fill="none" stroke="midnightblue" d="M70.6813,-56.324C62.1074,-48.3414 49.1878,-36.3128 38.8124,-26.6529"/>
<polygon fill="midnightblue" stroke="midnightblue" points="41.1922,-24.0865 31.4883,-19.8339 36.4223,-29.2098 41.1922,-24.0865"/>
</g>
<!-- Node4 -->
<g id="node4" class="node"><title>Node4</title>
<polygon fill="white" stroke="#bfbfbf" points="62.5,-0.5 62.5,-19.5 103.5,-19.5 103.5,-0.5 62.5,-0.5"/>
<text text-anchor="middle" x="83" y="-7.5" font-family="Helvetica,sans-Serif" font-size="10.00">string</text>
</g>
<!-- Node3&#45;&gt;Node4 -->
<g id="edge3" class="edge"><title>Node3&#45;&gt;Node4</title>
<path fill="none" stroke="midnightblue" d="M80.4954,-56.083C80.8886,-49.0059 81.4522,-38.8611 81.9452,-29.9865"/>
<polygon fill="midnightblue" stroke="midnightblue" points="85.4536,-29.9299 82.5138,-19.7511 78.4644,-29.5415 85.4536,-29.9299"/>
</g>
<!-- Node5 -->
<g id="node5" class="node"><title>Node5</title>
<g id="a_node5"><a xlink:href="languagedefinition_8h.html" target="_top" xlink:title="languagedefinition.h">
<polygon fill="white" stroke="black" points="121.5,-0.5 121.5,-19.5 224.5,-19.5 224.5,-0.5 121.5,-0.5"/>
<text text-anchor="middle" x="173" y="-7.5" font-family="Helvetica,sans-Serif" font-size="10.00">languagedefinition.h</text>
</a>
</g>
</g>
<!-- Node3&#45;&gt;Node5 -->
<g id="edge5" class="edge"><title>Node3&#45;&gt;Node5</title>
<path fill="none" stroke="midnightblue" d="M94.9421,-56.324C109.585,-47.8215 132.134,-34.7288 149.238,-24.7975"/>
<polygon fill="midnightblue" stroke="midnightblue" points="151.205,-27.7027 158.095,-19.6545 147.69,-21.6491 151.205,-27.7027"/>
</g>
</g>
</svg>
