<?xml version="1.0" encoding="UTF-8" standalone="no"?>
<!DOCTYPE svg PUBLIC "-//W3C//DTD SVG 1.1//EN"
 "http://www.w3.org/Graphics/SVG/1.1/DTD/svg11.dtd">
<!-- Generated by graphviz version 2.36.0 (20140111.2315)
 -->
<!-- Title: tokenizer Pages: 1 -->
<svg width="248pt" height="142pt"
 viewBox="0.00 0.00 248.00 142.00" xmlns="http://www.w3.org/2000/svg" xmlns:xlink="http://www.w3.org/1999/xlink">
<g id="graph0" class="graph" transform="scale(1 1) rotate(0) translate(4 138)">
<title>tokenizer</title>
<polygon fill="white" stroke="none" points="-4,4 -4,-138 244,-138 244,4 -4,4"/>
<!-- Node1 -->
<g id="node1" class="node"><title>Node1</title>
<polygon fill="#bfbfbf" stroke="black" points="0,-57.5 0,-76.5 56,-76.5 56,-57.5 0,-57.5"/>
<text text-anchor="middle" x="28" y="-64.5" font-family="Helvetica,sans-Serif" font-size="10.00">tokenizer</text>
</g>
<!-- Node2 -->
<g id="node2" class="node"><title>Node2</title>
<g id="a_node2"><a xlink:href="linker_8cpp.html#a3c04138a5bfe5d72780bb7e82a18e627" target="_top" xlink:title="main">
<polygon fill="white" stroke="black" points="110,-114.5 110,-133.5 148,-133.5 148,-114.5 110,-114.5"/>
<text text-anchor="middle" x="129" y="-121.5" font-family="Helvetica,sans-Serif" font-size="10.00">main</text>
</a>
</g>
</g>
<!-- Node1&#45;&gt;Node2 -->
<g id="edge1" class="edge"><title>Node1&#45;&gt;Node2</title>
<path fill="none" stroke="midnightblue" d="M53.1075,-81.9825C64.7638,-89.1129 79.0122,-97.6636 92,-105 97.784,-108.267 104.174,-111.697 109.945,-114.729"/>
<polygon fill="midnightblue" stroke="midnightblue" points="54.7401,-78.8776 44.3888,-76.6188 51.0722,-84.8397 54.7401,-78.8776"/>
</g>
<!-- Node3 -->
<g id="node3" class="node"><title>Node3</title>
<g id="a_node3"><a xlink:href="macroeval_8h.html#afd6754ab646ddc8aa952e7d63cb5ad81" target="_top" xlink:title="macroeval">
<polygon fill="white" stroke="black" points="98,-76.5 98,-95.5 160,-95.5 160,-76.5 98,-76.5"/>
<text text-anchor="middle" x="129" y="-83.5" font-family="Helvetica,sans-Serif" font-size="10.00">macroeval</text>
</a>
</g>
</g>
<!-- Node1&#45;&gt;Node3 -->
<g id="edge2" class="edge"><title>Node1&#45;&gt;Node3</title>
<path fill="none" stroke="midnightblue" d="M66.1676,-74.1332C76.6194,-76.1391 87.8547,-78.2953 97.843,-80.2123"/>
<polygon fill="midnightblue" stroke="midnightblue" points="66.5327,-70.6394 56.0522,-72.1918 65.2133,-77.514 66.5327,-70.6394"/>
</g>
<!-- Node5 -->
<g id="node5" class="node"><title>Node5</title>
<g id="a_node5"><a xlink:href="preprocessor_8h.html#a20cb42028a668e38567f8a26304b9c69" target="_top" xlink:title="preprocessor">
<polygon fill="white" stroke="black" points="92.5,-38.5 92.5,-57.5 165.5,-57.5 165.5,-38.5 92.5,-38.5"/>
<text text-anchor="middle" x="129" y="-45.5" font-family="Helvetica,sans-Serif" font-size="10.00">preprocessor</text>
</a>
</g>
</g>
<!-- Node1&#45;&gt;Node5 -->
<g id="edge4" class="edge"><title>Node1&#45;&gt;Node5</title>
<path fill="none" stroke="midnightblue" d="M65.9134,-59.9156C74.5895,-58.2505 83.818,-56.4794 92.4335,-54.8259"/>
<polygon fill="midnightblue" stroke="midnightblue" points="65.2133,-56.486 56.0522,-61.8082 66.5327,-63.3606 65.2133,-56.486"/>
</g>
<!-- Node6 -->
<g id="node6" class="node"><title>Node6</title>
<g id="a_node6"><a xlink:href="simulator_8h.html#ac22a38b5c3395e0092ff660c6767ab38" target="_top" xlink:title="simulator">
<polygon fill="white" stroke="black" points="101,-0.5 101,-19.5 157,-19.5 157,-0.5 101,-0.5"/>
<text text-anchor="middle" x="129" y="-7.5" font-family="Helvetica,sans-Serif" font-size="10.00">simulator</text>
</a>
</g>
</g>
<!-- Node1&#45;&gt;Node6 -->
<g id="edge6" class="edge"><title>Node1&#45;&gt;Node6</title>
<path fill="none" stroke="midnightblue" d="M53.1075,-52.0175C64.7638,-44.8871 79.0122,-36.3364 92,-29 97.5379,-25.8718 103.631,-22.5948 109.205,-19.6602"/>
<polygon fill="midnightblue" stroke="midnightblue" points="51.0722,-49.1603 44.3888,-57.3812 54.7401,-55.1224 51.0722,-49.1603"/>
</g>
<!-- Node4 -->
<g id="node4" class="node"><title>Node4</title>
<g id="a_node4"><a xlink:href="main_8cpp.html#a3c04138a5bfe5d72780bb7e82a18e627" target="_top" xlink:title="main">
<polygon fill="white" stroke="black" points="202,-57.5 202,-76.5 240,-76.5 240,-57.5 202,-57.5"/>
<text text-anchor="middle" x="221" y="-64.5" font-family="Helvetica,sans-Serif" font-size="10.00">main</text>
</a>
</g>
</g>
<!-- Node3&#45;&gt;Node4 -->
<g id="edge3" class="edge"><title>Node3&#45;&gt;Node4</title>
<path fill="none" stroke="midnightblue" d="M170.409,-77.4692C181.429,-75.1427 192.821,-72.7379 201.902,-70.8207"/>
<polygon fill="midnightblue" stroke="midnightblue" points="169.531,-74.0773 160.47,-79.5675 170.977,-80.9263 169.531,-74.0773"/>
</g>
<!-- Node5&#45;&gt;Node4 -->
<g id="edge5" class="edge"><title>Node5&#45;&gt;Node4</title>
<path fill="none" stroke="midnightblue" d="M175.574,-57.6211C184.849,-59.5793 194.092,-61.5306 201.726,-63.1422"/>
<polygon fill="midnightblue" stroke="midnightblue" points="176.078,-54.1504 165.57,-55.5093 174.632,-60.9995 176.078,-54.1504"/>
</g>
<!-- Node7 -->
<g id="node7" class="node"><title>Node7</title>
<g id="a_node7"><a xlink:href="loader_8cpp.html#a3c04138a5bfe5d72780bb7e82a18e627" target="_top" xlink:title="main">
<polygon fill="white" stroke="black" points="202,-0.5 202,-19.5 240,-19.5 240,-0.5 202,-0.5"/>
<text text-anchor="middle" x="221" y="-7.5" font-family="Helvetica,sans-Serif" font-size="10.00">main</text>
</a>
</g>
</g>
<!-- Node6&#45;&gt;Node7 -->
<g id="edge7" class="edge"><title>Node6&#45;&gt;Node7</title>
<path fill="none" stroke="midnightblue" d="M167.228,-10C179.185,-10 191.897,-10 201.848,-10"/>
<polygon fill="midnightblue" stroke="midnightblue" points="167.003,-6.5001 157.003,-10 167.003,-13.5001 167.003,-6.5001"/>
</g>
</g>
</svg>
