<?xml version="1.0" encoding="UTF-8" standalone="no"?>
<!DOCTYPE svg PUBLIC "-//W3C//DTD SVG 1.1//EN"
 "http://www.w3.org/Graphics/SVG/1.1/DTD/svg11.dtd">
<!-- Generated by graphviz version 2.36.0 (20140111.2315)
 -->
<!-- Title: lexer.h Pages: 1 -->
<svg width="370pt" height="84pt"
 viewBox="0.00 0.00 370.00 84.00" xmlns="http://www.w3.org/2000/svg" xmlns:xlink="http://www.w3.org/1999/xlink">
<g id="graph0" class="graph" transform="scale(1 1) rotate(0) translate(4 80)">
<title>lexer.h</title>
<polygon fill="white" stroke="none" points="-4,4 -4,-80 366,-80 366,4 -4,4"/>
<!-- Node1 -->
<g id="node1" class="node"><title>Node1</title>
<polygon fill="#bfbfbf" stroke="black" points="146,-56.5 146,-75.5 192,-75.5 192,-56.5 146,-56.5"/>
<text text-anchor="middle" x="169" y="-63.5" font-family="Helvetica,sans-Serif" font-size="10.00">lexer.h</text>
</g>
<!-- Node2 -->
<g id="node2" class="node"><title>Node2</title>
<g id="a_node2"><a xlink:href="assembler_8cpp.html" target="_top" xlink:title="assembler.cpp">
<polygon fill="white" stroke="black" points="0,-0.5 0,-19.5 80,-19.5 80,-0.5 0,-0.5"/>
<text text-anchor="middle" x="40" y="-7.5" font-family="Helvetica,sans-Serif" font-size="10.00">assembler.cpp</text>
</a>
</g>
</g>
<!-- Node1&#45;&gt;Node2 -->
<g id="edge1" class="edge"><title>Node1&#45;&gt;Node2</title>
<path fill="none" stroke="midnightblue" d="M139.146,-52.503C114.962,-42.3795 81.538,-28.388 60.3448,-19.5164"/>
<polygon fill="midnightblue" stroke="midnightblue" points="137.984,-55.8106 148.56,-56.4435 140.687,-49.3536 137.984,-55.8106"/>
</g>
<!-- Node3 -->
<g id="node3" class="node"><title>Node3</title>
<g id="a_node3"><a xlink:href="lexer_8cpp.html" target="_top" xlink:title="lexer.cpp">
<polygon fill="white" stroke="black" points="98,-0.5 98,-19.5 154,-19.5 154,-0.5 98,-0.5"/>
<text text-anchor="middle" x="126" y="-7.5" font-family="Helvetica,sans-Serif" font-size="10.00">lexer.cpp</text>
</a>
</g>
</g>
<!-- Node1&#45;&gt;Node3 -->
<g id="edge2" class="edge"><title>Node1&#45;&gt;Node3</title>
<path fill="none" stroke="midnightblue" d="M155.578,-48.144C148.086,-38.7357 139.063,-27.4046 132.968,-19.7511"/>
<polygon fill="midnightblue" stroke="midnightblue" points="152.932,-50.4404 161.899,-56.083 158.408,-46.0799 152.932,-50.4404"/>
</g>
<!-- Node4 -->
<g id="node4" class="node"><title>Node4</title>
<g id="a_node4"><a xlink:href="macroeval_8cpp.html" target="_top" xlink:title="macroeval.cpp">
<polygon fill="white" stroke="black" points="172,-0.5 172,-19.5 252,-19.5 252,-0.5 172,-0.5"/>
<text text-anchor="middle" x="212" y="-7.5" font-family="Helvetica,sans-Serif" font-size="10.00">macroeval.cpp</text>
</a>
</g>
</g>
<!-- Node1&#45;&gt;Node4 -->
<g id="edge3" class="edge"><title>Node1&#45;&gt;Node4</title>
<path fill="none" stroke="midnightblue" d="M182.422,-48.144C189.914,-38.7357 198.937,-27.4046 205.032,-19.7511"/>
<polygon fill="midnightblue" stroke="midnightblue" points="179.592,-46.0799 176.101,-56.083 185.068,-50.4404 179.592,-46.0799"/>
</g>
<!-- Node5 -->
<g id="node5" class="node"><title>Node5</title>
<g id="a_node5"><a xlink:href="preprocessor_8cpp.html" target="_top" xlink:title="preprocessor.cpp">
<polygon fill="white" stroke="black" points="270,-0.5 270,-19.5 362,-19.5 362,-0.5 270,-0.5"/>
<text text-anchor="middle" x="316" y="-7.5" font-family="Helvetica,sans-Serif" font-size="10.00">preprocessor.cpp</text>
</a>
</g>
</g>
<!-- Node1&#45;&gt;Node5 -->
<g id="edge4" class="edge"><title>Node1&#45;&gt;Node5</title>
<path fill="none" stroke="midnightblue" d="M201.923,-52.9058C229.56,-42.7536 268.344,-28.5063 292.816,-19.5164"/>
<polygon fill="midnightblue" stroke="midnightblue" points="200.472,-49.71 192.293,-56.4435 202.886,-56.2806 200.472,-49.71"/>
</g>
</g>
</svg>
