<?xml version="1.0" encoding="UTF-8" standalone="no"?>
<!DOCTYPE svg PUBLIC "-//W3C//DTD SVG 1.1//EN"
 "http://www.w3.org/Graphics/SVG/1.1/DTD/svg11.dtd">
<!-- Generated by graphviz version 2.36.0 (20140111.2315)
 -->
<!-- Title: findMacroDefinition Pages: 1 -->
<svg width="282pt" height="28pt"
 viewBox="0.00 0.00 282.00 28.00" xmlns="http://www.w3.org/2000/svg" xmlns:xlink="http://www.w3.org/1999/xlink">
<g id="graph0" class="graph" transform="scale(1 1) rotate(0) translate(4 24)">
<title>findMacroDefinition</title>
<polygon fill="white" stroke="none" points="-4,4 -4,-24 278,-24 278,4 -4,4"/>
<!-- Node1 -->
<g id="node1" class="node"><title>Node1</title>
<polygon fill="#bfbfbf" stroke="black" points="0.5,-0.5 0.5,-19.5 101.5,-19.5 101.5,-0.5 0.5,-0.5"/>
<text text-anchor="middle" x="51" y="-7.5" font-family="Helvetica,sans-Serif" font-size="10.00">findMacroDefinition</text>
</g>
<!-- Node2 -->
<g id="node2" class="node"><title>Node2</title>
<g id="a_node2"><a xlink:href="macroeval_8h.html#ab726e2a9f26698bddb5ddd13683e6630" target="_top" xlink:title="macroeval">
<polygon fill="white" stroke="black" points="138,-0.5 138,-19.5 200,-19.5 200,-0.5 138,-0.5"/>
<text text-anchor="middle" x="169" y="-7.5" font-family="Helvetica,sans-Serif" font-size="10.00">macroeval</text>
</a>
</g>
</g>
<!-- Node1&#45;&gt;Node2 -->
<g id="edge1" class="edge"><title>Node1&#45;&gt;Node2</title>
<path fill="none" stroke="midnightblue" d="M111.704,-10C120.735,-10 129.71,-10 137.754,-10"/>
<polygon fill="midnightblue" stroke="midnightblue" points="111.531,-6.5001 101.531,-10 111.531,-13.5001 111.531,-6.5001"/>
</g>
<!-- Node3 -->
<g id="node3" class="node"><title>Node3</title>
<g id="a_node3"><a xlink:href="main_8cpp.html#a3c04138a5bfe5d72780bb7e82a18e627" target="_top" xlink:title="main">
<polygon fill="white" stroke="black" points="236,-0.5 236,-19.5 274,-19.5 274,-0.5 236,-0.5"/>
<text text-anchor="middle" x="255" y="-7.5" font-family="Helvetica,sans-Serif" font-size="10.00">main</text>
</a>
</g>
</g>
<!-- Node2&#45;&gt;Node3 -->
<g id="edge2" class="edge"><title>Node2&#45;&gt;Node3</title>
<path fill="none" stroke="midnightblue" d="M210.544,-10C219.361,-10 228.264,-10 235.696,-10"/>
<polygon fill="midnightblue" stroke="midnightblue" points="210.326,-6.5001 200.326,-10 210.326,-13.5001 210.326,-6.5001"/>
</g>
</g>
</svg>
