<?xml version="1.0" encoding="UTF-8" standalone="no"?>
<!DOCTYPE svg PUBLIC "-//W3C//DTD SVG 1.1//EN"
 "http://www.w3.org/Graphics/SVG/1.1/DTD/svg11.dtd">
<!-- Generated by graphviz version 2.36.0 (20140111.2315)
 -->
<!-- Title: macroeval Pages: 1 -->
<svg width="296pt" height="66pt"
 viewBox="0.00 0.00 296.00 66.00" xmlns="http://www.w3.org/2000/svg" xmlns:xlink="http://www.w3.org/1999/xlink">
<g id="graph0" class="graph" transform="scale(1 1) rotate(0) translate(4 62)">
<title>macroeval</title>
<polygon fill="white" stroke="none" points="-4,4 -4,-62 292,-62 292,4 -4,4"/>
<!-- Node1 -->
<g id="node1" class="node"><title>Node1</title>
<polygon fill="#bfbfbf" stroke="black" points="0,-19.5 0,-38.5 62,-38.5 62,-19.5 0,-19.5"/>
<text text-anchor="middle" x="31" y="-26.5" font-family="Helvetica,sans-Serif" font-size="10.00">macroeval</text>
</g>
<!-- Node2 -->
<g id="node2" class="node"><title>Node2</title>
<g id="a_node2"><a xlink:href="lexer_8cpp.html#ab482a9701233ff4e5a0ffc1f75f9c41a" target="_top" xlink:title="tokenizer">
<polygon fill="white" stroke="black" points="121,-38.5 121,-57.5 177,-57.5 177,-38.5 121,-38.5"/>
<text text-anchor="middle" x="149" y="-45.5" font-family="Helvetica,sans-Serif" font-size="10.00">tokenizer</text>
</a>
</g>
</g>
<!-- Node1&#45;&gt;Node2 -->
<g id="edge1" class="edge"><title>Node1&#45;&gt;Node2</title>
<path fill="none" stroke="midnightblue" d="M62.1748,-33.9424C77.0429,-36.3777 95.1081,-39.3367 110.822,-41.9105"/>
<polygon fill="midnightblue" stroke="midnightblue" points="110.317,-45.3744 120.752,-43.5369 111.449,-38.4665 110.317,-45.3744"/>
</g>
<!-- Node4 -->
<g id="node4" class="node"><title>Node4</title>
<g id="a_node4"><a xlink:href="macroeval_8cpp.html#a34e9b7c10801b62d8a947c6afd9ba576" target="_top" xlink:title="findMacroDefinition">
<polygon fill="white" stroke="black" points="98.5,-0.5 98.5,-19.5 199.5,-19.5 199.5,-0.5 98.5,-0.5"/>
<text text-anchor="middle" x="149" y="-7.5" font-family="Helvetica,sans-Serif" font-size="10.00">findMacroDefinition</text>
</a>
</g>
</g>
<!-- Node1&#45;&gt;Node4 -->
<g id="edge3" class="edge"><title>Node1&#45;&gt;Node4</title>
<path fill="none" stroke="midnightblue" d="M62.1748,-24.0576C70.1737,-22.7474 79.0979,-21.2857 88.0836,-19.8139"/>
<polygon fill="midnightblue" stroke="midnightblue" points="88.9059,-23.2259 98.2087,-18.1555 87.7744,-16.318 88.9059,-23.2259"/>
</g>
<!-- Node3 -->
<g id="node3" class="node"><title>Node3</title>
<g id="a_node3"><a xlink:href="lexer_8cpp.html#a63ef6d488951c4541159fe0961565c4d" target="_top" xlink:title="scanner">
<polygon fill="white" stroke="black" points="236.5,-38.5 236.5,-57.5 287.5,-57.5 287.5,-38.5 236.5,-38.5"/>
<text text-anchor="middle" x="262" y="-45.5" font-family="Helvetica,sans-Serif" font-size="10.00">scanner</text>
</a>
</g>
</g>
<!-- Node2&#45;&gt;Node3 -->
<g id="edge2" class="edge"><title>Node2&#45;&gt;Node3</title>
<path fill="none" stroke="midnightblue" d="M177.154,-48C191.859,-48 210.195,-48 225.966,-48"/>
<polygon fill="midnightblue" stroke="midnightblue" points="226.399,-51.5001 236.399,-48 226.399,-44.5001 226.399,-51.5001"/>
</g>
</g>
</svg>
