<?xml version="1.0" encoding="UTF-8" standalone="no"?>
<!DOCTYPE svg PUBLIC "-//W3C//DTD SVG 1.1//EN"
 "http://www.w3.org/Graphics/SVG/1.1/DTD/svg11.dtd">
<!-- Generated by graphviz version 2.36.0 (20140111.2315)
 -->
<!-- Title: main Pages: 1 -->
<svg width="464pt" height="161pt"
 viewBox="0.00 0.00 464.00 161.00" xmlns="http://www.w3.org/2000/svg" xmlns:xlink="http://www.w3.org/1999/xlink">
<g id="graph0" class="graph" transform="scale(1 1) rotate(0) translate(4 157)">
<title>main</title>
<polygon fill="white" stroke="none" points="-4,4 -4,-157 460,-157 460,4 -4,4"/>
<!-- Node1 -->
<g id="node1" class="node"><title>Node1</title>
<polygon fill="#bfbfbf" stroke="black" points="0,-76.5 0,-95.5 38,-95.5 38,-76.5 0,-76.5"/>
<text text-anchor="middle" x="19" y="-83.5" font-family="Helvetica,sans-Serif" font-size="10.00">main</text>
</g>
<!-- Node2 -->
<g id="node2" class="node"><title>Node2</title>
<g id="a_node2"><a xlink:href="preprocessor_8cpp.html#a64877d45066932f7594bb2ad347c1d26" target="_top" xlink:title="preprocessor">
<polygon fill="white" stroke="black" points="74.5,-114.5 74.5,-133.5 147.5,-133.5 147.5,-114.5 74.5,-114.5"/>
<text text-anchor="middle" x="111" y="-121.5" font-family="Helvetica,sans-Serif" font-size="10.00">preprocessor</text>
</a>
</g>
</g>
<!-- Node1&#45;&gt;Node2 -->
<g id="edge1" class="edge"><title>Node1&#45;&gt;Node2</title>
<path fill="none" stroke="midnightblue" d="M38.2128,-93.6899C49.6204,-98.5064 64.639,-104.848 77.9893,-110.484"/>
<polygon fill="midnightblue" stroke="midnightblue" points="76.7661,-113.767 87.34,-114.432 79.489,-107.318 76.7661,-113.767"/>
</g>
<!-- Node6 -->
<g id="node6" class="node"><title>Node6</title>
<g id="a_node6"><a xlink:href="macroeval_8cpp.html#ab726e2a9f26698bddb5ddd13683e6630" target="_top" xlink:title="macroeval">
<polygon fill="white" stroke="black" points="80,-76.5 80,-95.5 142,-95.5 142,-76.5 80,-76.5"/>
<text text-anchor="middle" x="111" y="-83.5" font-family="Helvetica,sans-Serif" font-size="10.00">macroeval</text>
</a>
</g>
</g>
<!-- Node1&#45;&gt;Node6 -->
<g id="edge5" class="edge"><title>Node1&#45;&gt;Node6</title>
<path fill="none" stroke="midnightblue" d="M38.2128,-86C47.2432,-86 58.5365,-86 69.4737,-86"/>
<polygon fill="midnightblue" stroke="midnightblue" points="69.7653,-89.5001 79.7653,-86 69.7652,-82.5001 69.7653,-89.5001"/>
</g>
<!-- Node7 -->
<g id="node7" class="node"><title>Node7</title>
<g id="a_node7"><a xlink:href="assembler_8cpp.html#a368a4f7b83093ab74e79be4ceeb11e3d" target="_top" xlink:title="assembler">
<polygon fill="white" stroke="black" points="80,-38.5 80,-57.5 142,-57.5 142,-38.5 80,-38.5"/>
<text text-anchor="middle" x="111" y="-45.5" font-family="Helvetica,sans-Serif" font-size="10.00">assembler</text>
</a>
</g>
</g>
<!-- Node1&#45;&gt;Node7 -->
<g id="edge6" class="edge"><title>Node1&#45;&gt;Node7</title>
<path fill="none" stroke="midnightblue" d="M38.2128,-78.3101C49.6204,-73.4936 64.639,-67.1524 77.9893,-61.5156"/>
<polygon fill="midnightblue" stroke="midnightblue" points="79.489,-64.6817 87.34,-57.5675 76.7661,-58.2329 79.489,-64.6817"/>
</g>
<!-- Node3 -->
<g id="node3" class="node"><title>Node3</title>
<g id="a_node3"><a xlink:href="lexer_8cpp.html#ab482a9701233ff4e5a0ffc1f75f9c41a" target="_top" xlink:title="tokenizer">
<polygon fill="white" stroke="black" points="219,-133.5 219,-152.5 275,-152.5 275,-133.5 219,-133.5"/>
<text text-anchor="middle" x="247" y="-140.5" font-family="Helvetica,sans-Serif" font-size="10.00">tokenizer</text>
</a>
</g>
</g>
<!-- Node2&#45;&gt;Node3 -->
<g id="edge2" class="edge"><title>Node2&#45;&gt;Node3</title>
<path fill="none" stroke="midnightblue" d="M147.558,-129.042C166.399,-131.713 189.53,-134.993 208.635,-137.702"/>
<polygon fill="midnightblue" stroke="midnightblue" points="208.39,-141.202 218.782,-139.141 209.373,-134.271 208.39,-141.202"/>
</g>
<!-- Node5 -->
<g id="node5" class="node"><title>Node5</title>
<g id="a_node5"><a xlink:href="preprocessor_8cpp.html#a130bd12178693578a2c217a3011725f3" target="_top" xlink:title="findLabelDir">
<polygon fill="white" stroke="black" points="213,-95.5 213,-114.5 281,-114.5 281,-95.5 213,-95.5"/>
<text text-anchor="middle" x="247" y="-102.5" font-family="Helvetica,sans-Serif" font-size="10.00">findLabelDir</text>
</a>
</g>
</g>
<!-- Node2&#45;&gt;Node5 -->
<g id="edge4" class="edge"><title>Node2&#45;&gt;Node5</title>
<path fill="none" stroke="midnightblue" d="M147.558,-118.958C164.41,-116.569 184.694,-113.693 202.459,-111.174"/>
<polygon fill="midnightblue" stroke="midnightblue" points="203.173,-114.608 212.583,-109.738 202.191,-107.677 203.173,-114.608"/>
</g>
<!-- Node4 -->
<g id="node4" class="node"><title>Node4</title>
<g id="a_node4"><a xlink:href="lexer_8cpp.html#a63ef6d488951c4541159fe0961565c4d" target="_top" xlink:title="scanner">
<polygon fill="white" stroke="black" points="375.5,-104.5 375.5,-123.5 426.5,-123.5 426.5,-104.5 375.5,-104.5"/>
<text text-anchor="middle" x="401" y="-111.5" font-family="Helvetica,sans-Serif" font-size="10.00">scanner</text>
</a>
</g>
</g>
<!-- Node3&#45;&gt;Node4 -->
<g id="edge3" class="edge"><title>Node3&#45;&gt;Node4</title>
<path fill="none" stroke="midnightblue" d="M275.175,-137.815C300.313,-133.019 337.811,-125.865 365.145,-120.65"/>
<polygon fill="midnightblue" stroke="midnightblue" points="365.909,-124.067 375.076,-118.755 364.597,-117.191 365.909,-124.067"/>
</g>
<!-- Node7&#45;&gt;Node4 -->
<g id="edge7" class="edge"><title>Node7&#45;&gt;Node4</title>
<path fill="none" stroke="midnightblue" d="M142.083,-52.6951C181.087,-59.0282 251.094,-71.2335 310,-86 328.534,-90.646 348.884,-96.8789 365.538,-102.285"/>
<polygon fill="midnightblue" stroke="midnightblue" points="364.788,-105.722 375.381,-105.522 366.975,-99.0726 364.788,-105.722"/>
</g>
<!-- Node8 -->
<g id="node8" class="node"><title>Node8</title>
<g id="a_node8"><a xlink:href="assembler_8cpp.html#ad735f823bad61ae08954113bfcaac5ad" target="_top" xlink:title="lexicalAnalisisInstruction">
<polygon fill="white" stroke="black" points="184.5,-19.5 184.5,-38.5 309.5,-38.5 309.5,-19.5 184.5,-19.5"/>
<text text-anchor="middle" x="247" y="-26.5" font-family="Helvetica,sans-Serif" font-size="10.00">lexicalAnalisisInstruction</text>
</a>
</g>
</g>
<!-- Node7&#45;&gt;Node8 -->
<g id="edge8" class="edge"><title>Node7&#45;&gt;Node8</title>
<path fill="none" stroke="midnightblue" d="M142.072,-43.736C151.8,-42.3567 163.039,-40.7632 174.454,-39.1446"/>
<polygon fill="midnightblue" stroke="midnightblue" points="175.088,-42.5898 184.497,-37.7205 174.105,-35.6591 175.088,-42.5898"/>
</g>
<!-- Node9 -->
<g id="node9" class="node"><title>Node9</title>
<g id="a_node9"><a xlink:href="parser_8cpp.html#ab6243b513963c15735c801e6e3b7fbdf" target="_top" xlink:title="isValidInstructionCall">
<polygon fill="white" stroke="black" points="346.5,-38.5 346.5,-57.5 455.5,-57.5 455.5,-38.5 346.5,-38.5"/>
<text text-anchor="middle" x="401" y="-45.5" font-family="Helvetica,sans-Serif" font-size="10.00">isValidInstructionCall</text>
</a>
</g>
</g>
<!-- Node8&#45;&gt;Node9 -->
<g id="edge9" class="edge"><title>Node8&#45;&gt;Node9</title>
<path fill="none" stroke="midnightblue" d="M309.824,-36.728C318.449,-37.8061 327.327,-38.9158 335.991,-39.9989"/>
<polygon fill="midnightblue" stroke="midnightblue" points="335.679,-43.487 346.036,-41.2545 336.547,-36.5411 335.679,-43.487"/>
</g>
<!-- Node10 -->
<g id="node10" class="node"><title>Node10</title>
<g id="a_node10"><a xlink:href="parser_8cpp.html#a9ef8c814439aab8a9db6ae7207902ab1" target="_top" xlink:title="findLabel">
<polygon fill="white" stroke="black" points="373,-0.5 373,-19.5 429,-19.5 429,-0.5 373,-0.5"/>
<text text-anchor="middle" x="401" y="-7.5" font-family="Helvetica,sans-Serif" font-size="10.00">findLabel</text>
</a>
</g>
</g>
<!-- Node8&#45;&gt;Node10 -->
<g id="edge10" class="edge"><title>Node8&#45;&gt;Node10</title>
<path fill="none" stroke="midnightblue" d="M309.824,-21.272C327.759,-19.0302 346.785,-16.6519 362.715,-14.6606"/>
<polygon fill="midnightblue" stroke="midnightblue" points="363.205,-18.1267 372.694,-13.4133 362.337,-11.1807 363.205,-18.1267"/>
</g>
</g>
</svg>
