<?xml version="1.0" encoding="UTF-8" standalone="no"?>
<!DOCTYPE svg PUBLIC "-//W3C//DTD SVG 1.1//EN"
 "http://www.w3.org/Graphics/SVG/1.1/DTD/svg11.dtd">
<!-- Generated by graphviz version 2.36.0 (20140111.2315)
 -->
<!-- Title: main Pages: 1 -->
<svg width="478pt" height="408pt"
 viewBox="0.00 0.00 478.00 408.00" xmlns="http://www.w3.org/2000/svg" xmlns:xlink="http://www.w3.org/1999/xlink">
<g id="graph0" class="graph" transform="scale(1 1) rotate(0) translate(4 404)">
<title>main</title>
<polygon fill="white" stroke="none" points="-4,4 -4,-404 474,-404 474,4 -4,4"/>
<!-- Node1 -->
<g id="node1" class="node"><title>Node1</title>
<polygon fill="#bfbfbf" stroke="black" points="0,-304.5 0,-323.5 38,-323.5 38,-304.5 0,-304.5"/>
<text text-anchor="middle" x="19" y="-311.5" font-family="Helvetica,sans-Serif" font-size="10.00">main</text>
</g>
<!-- Node2 -->
<g id="node2" class="node"><title>Node2</title>
<g id="a_node2"><a xlink:href="preprocessor_8cpp.html#a64877d45066932f7594bb2ad347c1d26" target="_top" xlink:title="preprocessor">
<polygon fill="white" stroke="black" points="74.5,-304.5 74.5,-323.5 147.5,-323.5 147.5,-304.5 74.5,-304.5"/>
<text text-anchor="middle" x="111" y="-311.5" font-family="Helvetica,sans-Serif" font-size="10.00">preprocessor</text>
</a>
</g>
</g>
<!-- Node1&#45;&gt;Node2 -->
<g id="edge1" class="edge"><title>Node1&#45;&gt;Node2</title>
<path fill="none" stroke="midnightblue" d="M38.2128,-314C45.7513,-314 54.8666,-314 64.0353,-314"/>
<polygon fill="midnightblue" stroke="midnightblue" points="64.3287,-317.5 74.3286,-314 64.3286,-310.5 64.3287,-317.5"/>
</g>
<!-- Node6 -->
<g id="node6" class="node"><title>Node6</title>
<g id="a_node6"><a xlink:href="macroeval_8cpp.html#ab726e2a9f26698bddb5ddd13683e6630" target="_top" xlink:title="macroeval">
<polygon fill="white" stroke="black" points="80,-342.5 80,-361.5 142,-361.5 142,-342.5 80,-342.5"/>
<text text-anchor="middle" x="111" y="-349.5" font-family="Helvetica,sans-Serif" font-size="10.00">macroeval</text>
</a>
</g>
</g>
<!-- Node1&#45;&gt;Node6 -->
<g id="edge5" class="edge"><title>Node1&#45;&gt;Node6</title>
<path fill="none" stroke="midnightblue" d="M38.2128,-321.69C49.6204,-326.506 64.639,-332.848 77.9893,-338.484"/>
<polygon fill="midnightblue" stroke="midnightblue" points="76.7661,-341.767 87.34,-342.432 79.489,-335.318 76.7661,-341.767"/>
</g>
<!-- Node8 -->
<g id="node8" class="node"><title>Node8</title>
<g id="a_node8"><a xlink:href="assembler_8cpp.html#a368a4f7b83093ab74e79be4ceeb11e3d" target="_top" xlink:title="assembler">
<polygon fill="white" stroke="black" points="80,-152.5 80,-171.5 142,-171.5 142,-152.5 80,-152.5"/>
<text text-anchor="middle" x="111" y="-159.5" font-family="Helvetica,sans-Serif" font-size="10.00">assembler</text>
</a>
</g>
</g>
<!-- Node1&#45;&gt;Node8 -->
<g id="edge8" class="edge"><title>Node1&#45;&gt;Node8</title>
<path fill="none" stroke="midnightblue" d="M25.6299,-304.492C40.2774,-279.754 79.7744,-213.048 99.0792,-180.444"/>
<polygon fill="midnightblue" stroke="midnightblue" points="102.289,-181.893 104.372,-171.505 96.2656,-178.326 102.289,-181.893"/>
</g>
<!-- Node3 -->
<g id="node3" class="node"><title>Node3</title>
<g id="a_node3"><a xlink:href="lexer_8cpp.html#ab482a9701233ff4e5a0ffc1f75f9c41a" target="_top" xlink:title="tokenizer">
<polygon fill="white" stroke="black" points="226,-342.5 226,-361.5 282,-361.5 282,-342.5 226,-342.5"/>
<text text-anchor="middle" x="254" y="-349.5" font-family="Helvetica,sans-Serif" font-size="10.00">tokenizer</text>
</a>
</g>
</g>
<!-- Node2&#45;&gt;Node3 -->
<g id="edge2" class="edge"><title>Node2&#45;&gt;Node3</title>
<path fill="none" stroke="midnightblue" d="M147.58,-323.589C168.473,-329.22 194.84,-336.326 215.977,-342.022"/>
<polygon fill="midnightblue" stroke="midnightblue" points="215.321,-345.47 225.887,-344.693 217.142,-338.711 215.321,-345.47"/>
</g>
<!-- Node5 -->
<g id="node5" class="node"><title>Node5</title>
<g id="a_node5"><a xlink:href="preprocessor_8cpp.html#a130bd12178693578a2c217a3011725f3" target="_top" xlink:title="findLabelDir">
<polygon fill="white" stroke="black" points="220,-304.5 220,-323.5 288,-323.5 288,-304.5 220,-304.5"/>
<text text-anchor="middle" x="254" y="-311.5" font-family="Helvetica,sans-Serif" font-size="10.00">findLabelDir</text>
</a>
</g>
</g>
<!-- Node2&#45;&gt;Node5 -->
<g id="edge4" class="edge"><title>Node2&#45;&gt;Node5</title>
<path fill="none" stroke="midnightblue" d="M147.58,-314C166.477,-314 189.851,-314 209.784,-314"/>
<polygon fill="midnightblue" stroke="midnightblue" points="209.853,-317.5 219.853,-314 209.853,-310.5 209.853,-317.5"/>
</g>
<!-- Node4 -->
<g id="node4" class="node"><title>Node4</title>
<g id="a_node4"><a xlink:href="lexer_8cpp.html#a63ef6d488951c4541159fe0961565c4d" target="_top" xlink:title="scanner">
<polygon fill="white" stroke="black" points="389.5,-304.5 389.5,-323.5 440.5,-323.5 440.5,-304.5 389.5,-304.5"/>
<text text-anchor="middle" x="415" y="-311.5" font-family="Helvetica,sans-Serif" font-size="10.00">scanner</text>
</a>
</g>
</g>
<!-- Node3&#45;&gt;Node4 -->
<g id="edge3" class="edge"><title>Node3&#45;&gt;Node4</title>
<path fill="none" stroke="midnightblue" d="M282.333,-345.468C309.258,-339.033 350.477,-329.182 379.612,-322.218"/>
<polygon fill="midnightblue" stroke="midnightblue" points="380.458,-325.615 389.371,-319.886 378.831,-318.807 380.458,-325.615"/>
</g>
<!-- Node6&#45;&gt;Node3 -->
<g id="edge6" class="edge"><title>Node6&#45;&gt;Node3</title>
<path fill="none" stroke="midnightblue" d="M142.248,-352C163.721,-352 192.685,-352 215.608,-352"/>
<polygon fill="midnightblue" stroke="midnightblue" points="215.666,-355.5 225.666,-352 215.666,-348.5 215.666,-355.5"/>
</g>
<!-- Node7 -->
<g id="node7" class="node"><title>Node7</title>
<g id="a_node7"><a xlink:href="macroeval_8cpp.html#a34e9b7c10801b62d8a947c6afd9ba576" target="_top" xlink:title="findMacroDefinition">
<polygon fill="white" stroke="black" points="203.5,-380.5 203.5,-399.5 304.5,-399.5 304.5,-380.5 203.5,-380.5"/>
<text text-anchor="middle" x="254" y="-387.5" font-family="Helvetica,sans-Serif" font-size="10.00">findMacroDefinition</text>
</a>
</g>
</g>
<!-- Node6&#45;&gt;Node7 -->
<g id="edge7" class="edge"><title>Node6&#45;&gt;Node7</title>
<path fill="none" stroke="midnightblue" d="M142.248,-360.152C161.319,-365.292 186.299,-372.024 207.707,-377.794"/>
<polygon fill="midnightblue" stroke="midnightblue" points="207.006,-381.229 217.573,-380.452 208.828,-374.471 207.006,-381.229"/>
</g>
<!-- Node8&#45;&gt;Node4 -->
<g id="edge9" class="edge"><title>Node8&#45;&gt;Node4</title>
<path fill="none" stroke="midnightblue" d="M118.144,-171.515C129.295,-188.041 154.463,-222.088 184,-241 216.881,-262.054 323.816,-291.15 379.532,-305.415"/>
<polygon fill="midnightblue" stroke="midnightblue" points="378.756,-308.829 389.31,-307.9 380.481,-302.045 378.756,-308.829"/>
</g>
<!-- Node9 -->
<g id="node9" class="node"><title>Node9</title>
<g id="a_node9"><a xlink:href="assembler_8cpp.html#a33535e8f85da588842c21d65d304f740" target="_top" xlink:title="addNewSymbolINST0">
<polygon fill="white" stroke="black" points="197,-0.5 197,-19.5 311,-19.5 311,-0.5 197,-0.5"/>
<text text-anchor="middle" x="254" y="-7.5" font-family="Helvetica,sans-Serif" font-size="10.00">addNewSymbolINST0</text>
</a>
</g>
</g>
<!-- Node8&#45;&gt;Node9 -->
<g id="edge10" class="edge"><title>Node8&#45;&gt;Node9</title>
<path fill="none" stroke="midnightblue" d="M114.417,-152.256C121.042,-127.632 141.865,-62.4952 184,-29 186.28,-27.1878 188.72,-25.5482 191.273,-24.0648"/>
<polygon fill="midnightblue" stroke="midnightblue" points="192.899,-27.1654 200.315,-19.5989 189.799,-20.8891 192.899,-27.1654"/>
</g>
<!-- Node11 -->
<g id="node11" class="node"><title>Node11</title>
<g id="a_node11"><a xlink:href="assembler_8cpp.html#a45dcd38a718d16b9fdcda1e45c4ad5de" target="_top" xlink:title="addNewSymbolINST1">
<polygon fill="white" stroke="black" points="197,-190.5 197,-209.5 311,-209.5 311,-190.5 197,-190.5"/>
<text text-anchor="middle" x="254" y="-197.5" font-family="Helvetica,sans-Serif" font-size="10.00">addNewSymbolINST1</text>
</a>
</g>
</g>
<!-- Node8&#45;&gt;Node11 -->
<g id="edge12" class="edge"><title>Node8&#45;&gt;Node11</title>
<path fill="none" stroke="midnightblue" d="M142.248,-170.152C161.319,-175.292 186.299,-182.024 207.707,-187.794"/>
<polygon fill="midnightblue" stroke="midnightblue" points="207.006,-191.229 217.573,-190.452 208.828,-184.471 207.006,-191.229"/>
</g>
<!-- Node12 -->
<g id="node12" class="node"><title>Node12</title>
<g id="a_node12"><a xlink:href="parser_8cpp.html#a9ef8c814439aab8a9db6ae7207902ab1" target="_top" xlink:title="findLabel">
<polygon fill="white" stroke="black" points="387,-152.5 387,-171.5 443,-171.5 443,-152.5 387,-152.5"/>
<text text-anchor="middle" x="415" y="-159.5" font-family="Helvetica,sans-Serif" font-size="10.00">findLabel</text>
</a>
</g>
</g>
<!-- Node8&#45;&gt;Node12 -->
<g id="edge26" class="edge"><title>Node8&#45;&gt;Node12</title>
<path fill="none" stroke="midnightblue" d="M120.103,-171.595C132.311,-185.221 156.896,-209.57 184,-219 242.767,-239.446 264.24,-236.332 324,-219 351.227,-211.103 378.115,-192.228 395.309,-178.352"/>
<polygon fill="midnightblue" stroke="midnightblue" points="397.926,-180.727 403.367,-171.636 393.445,-175.35 397.926,-180.727"/>
</g>
<!-- Node13 -->
<g id="node13" class="node"><title>Node13</title>
<g id="a_node13"><a xlink:href="assembler_8cpp.html#a53bd42138e87fabd2519a34abbf40b55" target="_top" xlink:title="addNewSymbolINST1NUM">
<polygon fill="white" stroke="black" points="185.5,-38.5 185.5,-57.5 322.5,-57.5 322.5,-38.5 185.5,-38.5"/>
<text text-anchor="middle" x="254" y="-45.5" font-family="Helvetica,sans-Serif" font-size="10.00">addNewSymbolINST1NUM</text>
</a>
</g>
</g>
<!-- Node8&#45;&gt;Node13 -->
<g id="edge15" class="edge"><title>Node8&#45;&gt;Node13</title>
<path fill="none" stroke="midnightblue" d="M116.625,-152.244C126.303,-132.908 150.591,-89.6353 184,-67 187.06,-64.9266 190.341,-63.0786 193.75,-61.4314"/>
<polygon fill="midnightblue" stroke="midnightblue" points="195.156,-64.6369 203.008,-57.524 192.434,-58.1877 195.156,-64.6369"/>
</g>
<!-- Node14 -->
<g id="node14" class="node"><title>Node14</title>
<g id="a_node14"><a xlink:href="assembler_8cpp.html#ad85cc701dcbc6e69b1c273a99c2262d8" target="_top" xlink:title="addNewSymbolINST1PLUS">
<polygon fill="white" stroke="black" points="184,-152.5 184,-171.5 324,-171.5 324,-152.5 184,-152.5"/>
<text text-anchor="middle" x="254" y="-159.5" font-family="Helvetica,sans-Serif" font-size="10.00">addNewSymbolINST1PLUS</text>
</a>
</g>
</g>
<!-- Node8&#45;&gt;Node14 -->
<g id="edge17" class="edge"><title>Node8&#45;&gt;Node14</title>
<path fill="none" stroke="midnightblue" d="M142.248,-162C151.665,-162 162.523,-162 173.68,-162"/>
<polygon fill="midnightblue" stroke="midnightblue" points="173.978,-165.5 183.978,-162 173.978,-158.5 173.978,-165.5"/>
</g>
<!-- Node15 -->
<g id="node15" class="node"><title>Node15</title>
<g id="a_node15"><a xlink:href="assembler_8cpp.html#a4b08bb4206172aa8ae36e47f8298e274" target="_top" xlink:title="addNewSymbolINST2">
<polygon fill="white" stroke="black" points="197,-114.5 197,-133.5 311,-133.5 311,-114.5 197,-114.5"/>
<text text-anchor="middle" x="254" y="-121.5" font-family="Helvetica,sans-Serif" font-size="10.00">addNewSymbolINST2</text>
</a>
</g>
</g>
<!-- Node8&#45;&gt;Node15 -->
<g id="edge20" class="edge"><title>Node8&#45;&gt;Node15</title>
<path fill="none" stroke="midnightblue" d="M142.248,-153.848C161.319,-148.708 186.299,-141.976 207.707,-136.206"/>
<polygon fill="midnightblue" stroke="midnightblue" points="208.828,-139.529 217.573,-133.548 207.006,-132.771 208.828,-139.529"/>
</g>
<!-- Node16 -->
<g id="node16" class="node"><title>Node16</title>
<g id="a_node16"><a xlink:href="assembler_8cpp.html#a54fad2c006413b60d87eea48e412471b" target="_top" xlink:title="addNewLabel">
<polygon fill="white" stroke="black" points="216,-76.5 216,-95.5 292,-95.5 292,-76.5 216,-76.5"/>
<text text-anchor="middle" x="254" y="-83.5" font-family="Helvetica,sans-Serif" font-size="10.00">addNewLabel</text>
</a>
</g>
</g>
<!-- Node8&#45;&gt;Node16 -->
<g id="edge23" class="edge"><title>Node8&#45;&gt;Node16</title>
<path fill="none" stroke="midnightblue" d="M121.367,-152.497C134.327,-139.871 158.972,-117.687 184,-105 190.858,-101.523 198.433,-98.6175 205.976,-96.2093"/>
<polygon fill="midnightblue" stroke="midnightblue" points="207.202,-99.4973 215.812,-93.3242 205.232,-92.7803 207.202,-99.4973"/>
</g>
<!-- Node10 -->
<g id="node10" class="node"><title>Node10</title>
<g id="a_node10"><a xlink:href="parser_8cpp.html#ab6243b513963c15735c801e6e3b7fbdf" target="_top" xlink:title="isValidInstructionCall">
<polygon fill="white" stroke="black" points="360.5,-95.5 360.5,-114.5 469.5,-114.5 469.5,-95.5 360.5,-95.5"/>
<text text-anchor="middle" x="415" y="-102.5" font-family="Helvetica,sans-Serif" font-size="10.00">isValidInstructionCall</text>
</a>
</g>
</g>
<!-- Node9&#45;&gt;Node10 -->
<g id="edge11" class="edge"><title>Node9&#45;&gt;Node10</title>
<path fill="none" stroke="midnightblue" d="M300.617,-19.5449C308.645,-22.0623 316.745,-25.177 324,-29 353.075,-44.3214 381.113,-70.3559 397.958,-87.6156"/>
<polygon fill="midnightblue" stroke="midnightblue" points="395.849,-90.4765 405.283,-95.2983 400.915,-85.6458 395.849,-90.4765"/>
</g>
<!-- Node11&#45;&gt;Node10 -->
<g id="edge13" class="edge"><title>Node11&#45;&gt;Node10</title>
<path fill="none" stroke="midnightblue" d="M303.165,-190.388C310.422,-187.918 317.608,-184.836 324,-181 343.947,-169.028 342.4,-158.214 360,-143 369.429,-134.85 380.588,-126.768 390.308,-120.168"/>
<polygon fill="midnightblue" stroke="midnightblue" points="392.349,-123.014 398.738,-114.562 388.473,-117.184 392.349,-123.014"/>
</g>
<!-- Node11&#45;&gt;Node12 -->
<g id="edge14" class="edge"><title>Node11&#45;&gt;Node12</title>
<path fill="none" stroke="midnightblue" d="M295.122,-190.411C320.238,-184.409 352.367,-176.73 376.891,-170.869"/>
<polygon fill="midnightblue" stroke="midnightblue" points="377.98,-174.207 386.893,-168.478 376.353,-167.399 377.98,-174.207"/>
</g>
<!-- Node13&#45;&gt;Node10 -->
<g id="edge16" class="edge"><title>Node13&#45;&gt;Node10</title>
<path fill="none" stroke="midnightblue" d="M293.236,-57.5705C303.322,-60.3552 314.14,-63.5774 324,-67 344.359,-74.0671 366.68,-83.4802 383.999,-91.1695"/>
<polygon fill="midnightblue" stroke="midnightblue" points="383.01,-94.562 393.566,-95.4669 385.878,-88.1766 383.01,-94.562"/>
</g>
<!-- Node14&#45;&gt;Node10 -->
<g id="edge18" class="edge"><title>Node14&#45;&gt;Node10</title>
<path fill="none" stroke="midnightblue" d="M293.236,-152.43C303.322,-149.645 314.14,-146.423 324,-143 344.359,-135.933 366.68,-126.52 383.999,-118.831"/>
<polygon fill="midnightblue" stroke="midnightblue" points="385.878,-121.823 393.566,-114.533 383.01,-115.438 385.878,-121.823"/>
</g>
<!-- Node14&#45;&gt;Node12 -->
<g id="edge19" class="edge"><title>Node14&#45;&gt;Node12</title>
<path fill="none" stroke="midnightblue" d="M324.277,-162C342.228,-162 360.886,-162 376.507,-162"/>
<polygon fill="midnightblue" stroke="midnightblue" points="376.791,-165.5 386.791,-162 376.791,-158.5 376.791,-165.5"/>
</g>
<!-- Node15&#45;&gt;Node10 -->
<g id="edge21" class="edge"><title>Node15&#45;&gt;Node10</title>
<path fill="none" stroke="midnightblue" d="M311.057,-117.301C323.686,-115.792 337.181,-114.18 350.103,-112.635"/>
<polygon fill="midnightblue" stroke="midnightblue" points="350.802,-116.077 360.316,-111.415 349.972,-109.126 350.802,-116.077"/>
</g>
<!-- Node15&#45;&gt;Node12 -->
<g id="edge22" class="edge"><title>Node15&#45;&gt;Node12</title>
<path fill="none" stroke="midnightblue" d="M295.122,-133.589C320.238,-139.591 352.367,-147.27 376.891,-153.131"/>
<polygon fill="midnightblue" stroke="midnightblue" points="376.353,-156.601 386.893,-155.522 377.98,-149.793 376.353,-156.601"/>
</g>
<!-- Node16&#45;&gt;Node10 -->
<g id="edge24" class="edge"><title>Node16&#45;&gt;Node10</title>
<path fill="none" stroke="midnightblue" d="M292.278,-90.4547C309.553,-92.5189 330.573,-95.0308 350.252,-97.3824"/>
<polygon fill="midnightblue" stroke="midnightblue" points="350.049,-100.883 360.394,-98.5943 350.88,-93.9324 350.049,-100.883"/>
</g>
<!-- Node16&#45;&gt;Node12 -->
<g id="edge25" class="edge"><title>Node16&#45;&gt;Node12</title>
<path fill="none" stroke="midnightblue" d="M292.227,-94.0913C302.723,-96.9473 314.001,-100.575 324,-105 349.204,-116.154 375.563,-133.637 393.19,-146.302"/>
<polygon fill="midnightblue" stroke="midnightblue" points="391.423,-149.345 401.561,-152.426 395.557,-143.696 391.423,-149.345"/>
</g>
</g>
</svg>
