<?xml version="1.0" encoding="UTF-8" standalone="no"?>
<!DOCTYPE svg PUBLIC "-//W3C//DTD SVG 1.1//EN"
 "http://www.w3.org/Graphics/SVG/1.1/DTD/svg11.dtd">
<!-- Generated by graphviz version 2.36.0 (20140111.2315)
 -->
<!-- Title: main Pages: 1 -->
<svg width="156pt" height="66pt"
 viewBox="0.00 0.00 156.00 66.00" xmlns="http://www.w3.org/2000/svg" xmlns:xlink="http://www.w3.org/1999/xlink">
<g id="graph0" class="graph" transform="scale(1 1) rotate(0) translate(4 62)">
<title>main</title>
<polygon fill="white" stroke="none" points="-4,4 -4,-62 152,-62 152,4 -4,4"/>
<!-- Node1 -->
<g id="node1" class="node"><title>Node1</title>
<polygon fill="#bfbfbf" stroke="black" points="0,-19.5 0,-38.5 38,-38.5 38,-19.5 0,-19.5"/>
<text text-anchor="middle" x="19" y="-26.5" font-family="Helvetica,sans-Serif" font-size="10.00">main</text>
</g>
<!-- Node2 -->
<g id="node2" class="node"><title>Node2</title>
<g id="a_node2"><a xlink:href="preprocessor_8cpp.html#a64877d45066932f7594bb2ad347c1d26" target="_top" xlink:title="preprocessor">
<polygon fill="white" stroke="black" points="74.5,-38.5 74.5,-57.5 147.5,-57.5 147.5,-38.5 74.5,-38.5"/>
<text text-anchor="middle" x="111" y="-45.5" font-family="Helvetica,sans-Serif" font-size="10.00">preprocessor</text>
</a>
</g>
</g>
<!-- Node1&#45;&gt;Node2 -->
<g id="edge1" class="edge"><title>Node1&#45;&gt;Node2</title>
<path fill="none" stroke="midnightblue" d="M38.2128,-32.8449C45.8323,-34.4535 55.0628,-36.4021 64.3311,-38.3588"/>
<polygon fill="midnightblue" stroke="midnightblue" points="63.8213,-41.8282 74.3286,-40.4694 65.2673,-34.9792 63.8213,-41.8282"/>
</g>
<!-- Node3 -->
<g id="node3" class="node"><title>Node3</title>
<g id="a_node3"><a xlink:href="assembler_8cpp.html#a368a4f7b83093ab74e79be4ceeb11e3d" target="_top" xlink:title="assembler">
<polygon fill="white" stroke="black" points="80,-0.5 80,-19.5 142,-19.5 142,-0.5 80,-0.5"/>
<text text-anchor="middle" x="111" y="-7.5" font-family="Helvetica,sans-Serif" font-size="10.00">assembler</text>
</a>
</g>
</g>
<!-- Node1&#45;&gt;Node3 -->
<g id="edge2" class="edge"><title>Node1&#45;&gt;Node3</title>
<path fill="none" stroke="midnightblue" d="M38.2128,-25.1551C47.3363,-23.229 58.7695,-20.8153 69.8118,-18.4842"/>
<polygon fill="midnightblue" stroke="midnightblue" points="70.7039,-21.8731 79.7653,-16.3829 69.2579,-15.024 70.7039,-21.8731"/>
</g>
</g>
</svg>
