<?xml version="1.0" encoding="UTF-8" standalone="no"?>
<!DOCTYPE svg PUBLIC "-//W3C//DTD SVG 1.1//EN"
 "http://www.w3.org/Graphics/SVG/1.1/DTD/svg11.dtd">
<!-- Generated by graphviz version 2.36.0 (20140111.2315)
 -->
<!-- Title: main Pages: 1 -->
<svg width="390pt" height="218pt"
 viewBox="0.00 0.00 390.00 218.00" xmlns="http://www.w3.org/2000/svg" xmlns:xlink="http://www.w3.org/1999/xlink">
<g id="graph0" class="graph" transform="scale(1 1) rotate(0) translate(4 214)">
<title>main</title>
<polygon fill="white" stroke="none" points="-4,4 -4,-214 386,-214 386,4 -4,4"/>
<!-- Node1 -->
<g id="node1" class="node"><title>Node1</title>
<polygon fill="#bfbfbf" stroke="black" points="0,-114.5 0,-133.5 38,-133.5 38,-114.5 0,-114.5"/>
<text text-anchor="middle" x="19" y="-121.5" font-family="Helvetica,sans-Serif" font-size="10.00">main</text>
</g>
<!-- Node2 -->
<g id="node2" class="node"><title>Node2</title>
<g id="a_node2"><a xlink:href="preprocessor_8cpp.html#a64877d45066932f7594bb2ad347c1d26" target="_top" xlink:title="preprocessor">
<polygon fill="white" stroke="black" points="74.5,-152.5 74.5,-171.5 147.5,-171.5 147.5,-152.5 74.5,-152.5"/>
<text text-anchor="middle" x="111" y="-159.5" font-family="Helvetica,sans-Serif" font-size="10.00">preprocessor</text>
</a>
</g>
</g>
<!-- Node1&#45;&gt;Node2 -->
<g id="edge1" class="edge"><title>Node1&#45;&gt;Node2</title>
<path fill="none" stroke="midnightblue" d="M38.2128,-131.69C49.6204,-136.506 64.639,-142.848 77.9893,-148.484"/>
<polygon fill="midnightblue" stroke="midnightblue" points="76.7661,-151.767 87.34,-152.432 79.489,-145.318 76.7661,-151.767"/>
</g>
<!-- Node6 -->
<g id="node6" class="node"><title>Node6</title>
<g id="a_node6"><a xlink:href="macroeval_8cpp.html#ab726e2a9f26698bddb5ddd13683e6630" target="_top" xlink:title="macroeval">
<polygon fill="white" stroke="black" points="80,-114.5 80,-133.5 142,-133.5 142,-114.5 80,-114.5"/>
<text text-anchor="middle" x="111" y="-121.5" font-family="Helvetica,sans-Serif" font-size="10.00">macroeval</text>
</a>
</g>
</g>
<!-- Node1&#45;&gt;Node6 -->
<g id="edge5" class="edge"><title>Node1&#45;&gt;Node6</title>
<path fill="none" stroke="midnightblue" d="M38.2128,-124C47.2432,-124 58.5365,-124 69.4737,-124"/>
<polygon fill="midnightblue" stroke="midnightblue" points="69.7653,-127.5 79.7653,-124 69.7652,-120.5 69.7653,-127.5"/>
</g>
<!-- Node8 -->
<g id="node8" class="node"><title>Node8</title>
<g id="a_node8"><a xlink:href="assembler_8cpp.html#a368a4f7b83093ab74e79be4ceeb11e3d" target="_top" xlink:title="assembler">
<polygon fill="white" stroke="black" points="80,-57.5 80,-76.5 142,-76.5 142,-57.5 80,-57.5"/>
<text text-anchor="middle" x="111" y="-64.5" font-family="Helvetica,sans-Serif" font-size="10.00">assembler</text>
</a>
</g>
</g>
<!-- Node1&#45;&gt;Node8 -->
<g id="edge8" class="edge"><title>Node1&#45;&gt;Node8</title>
<path fill="none" stroke="midnightblue" d="M35.2673,-114.331C49.1858,-105.516 69.9732,-92.3503 86.0934,-82.1408"/>
<polygon fill="midnightblue" stroke="midnightblue" points="88.3827,-84.8339 94.9582,-76.5265 84.6373,-78.9202 88.3827,-84.8339"/>
</g>
<!-- Node3 -->
<g id="node3" class="node"><title>Node3</title>
<g id="a_node3"><a xlink:href="lexer_8cpp.html#ab482a9701233ff4e5a0ffc1f75f9c41a" target="_top" xlink:title="tokenizer">
<polygon fill="white" stroke="black" points="211,-152.5 211,-171.5 267,-171.5 267,-152.5 211,-152.5"/>
<text text-anchor="middle" x="239" y="-159.5" font-family="Helvetica,sans-Serif" font-size="10.00">tokenizer</text>
</a>
</g>
</g>
<!-- Node2&#45;&gt;Node3 -->
<g id="edge2" class="edge"><title>Node2&#45;&gt;Node3</title>
<path fill="none" stroke="midnightblue" d="M147.77,-162C164.399,-162 184.163,-162 200.948,-162"/>
<polygon fill="midnightblue" stroke="midnightblue" points="200.96,-165.5 210.96,-162 200.96,-158.5 200.96,-165.5"/>
</g>
<!-- Node5 -->
<g id="node5" class="node"><title>Node5</title>
<g id="a_node5"><a xlink:href="preprocessor_8cpp.html#a130bd12178693578a2c217a3011725f3" target="_top" xlink:title="findLabelDir">
<polygon fill="white" stroke="black" points="205,-190.5 205,-209.5 273,-209.5 273,-190.5 205,-190.5"/>
<text text-anchor="middle" x="239" y="-197.5" font-family="Helvetica,sans-Serif" font-size="10.00">findLabelDir</text>
</a>
</g>
</g>
<!-- Node2&#45;&gt;Node5 -->
<g id="edge4" class="edge"><title>Node2&#45;&gt;Node5</title>
<path fill="none" stroke="midnightblue" d="M143.795,-171.589C159.762,-176.404 179.307,-182.299 196.447,-187.468"/>
<polygon fill="midnightblue" stroke="midnightblue" points="195.63,-190.878 206.215,-190.414 197.652,-184.176 195.63,-190.878"/>
</g>
<!-- Node4 -->
<g id="node4" class="node"><title>Node4</title>
<g id="a_node4"><a xlink:href="lexer_8cpp.html#a63ef6d488951c4541159fe0961565c4d" target="_top" xlink:title="scanner">
<polygon fill="white" stroke="black" points="330.5,-114.5 330.5,-133.5 381.5,-133.5 381.5,-114.5 330.5,-114.5"/>
<text text-anchor="middle" x="356" y="-121.5" font-family="Helvetica,sans-Serif" font-size="10.00">scanner</text>
</a>
</g>
</g>
<!-- Node3&#45;&gt;Node4 -->
<g id="edge3" class="edge"><title>Node3&#45;&gt;Node4</title>
<path fill="none" stroke="midnightblue" d="M267.253,-152.995C283.244,-147.711 303.598,-140.985 320.675,-135.342"/>
<polygon fill="midnightblue" stroke="midnightblue" points="321.897,-138.624 330.294,-132.164 319.701,-131.978 321.897,-138.624"/>
</g>
<!-- Node6&#45;&gt;Node3 -->
<g id="edge6" class="edge"><title>Node6&#45;&gt;Node3</title>
<path fill="none" stroke="midnightblue" d="M142.18,-133.102C159.83,-138.425 182.248,-145.186 200.962,-150.83"/>
<polygon fill="midnightblue" stroke="midnightblue" points="200.059,-154.213 210.644,-153.75 202.081,-147.511 200.059,-154.213"/>
</g>
<!-- Node7 -->
<g id="node7" class="node"><title>Node7</title>
<g id="a_node7"><a xlink:href="macroeval_8cpp.html#a34e9b7c10801b62d8a947c6afd9ba576" target="_top" xlink:title="findMacroDefinition">
<polygon fill="white" stroke="black" points="188.5,-114.5 188.5,-133.5 289.5,-133.5 289.5,-114.5 188.5,-114.5"/>
<text text-anchor="middle" x="239" y="-121.5" font-family="Helvetica,sans-Serif" font-size="10.00">findMacroDefinition</text>
</a>
</g>
</g>
<!-- Node6&#45;&gt;Node7 -->
<g id="edge7" class="edge"><title>Node6&#45;&gt;Node7</title>
<path fill="none" stroke="midnightblue" d="M142.18,-124C152.987,-124 165.582,-124 178.019,-124"/>
<polygon fill="midnightblue" stroke="midnightblue" points="178.387,-127.5 188.387,-124 178.387,-120.5 178.387,-127.5"/>
</g>
<!-- Node8&#45;&gt;Node4 -->
<g id="edge9" class="edge"><title>Node8&#45;&gt;Node4</title>
<path fill="none" stroke="midnightblue" d="M142.156,-72.3767C178.425,-79.0545 241.042,-91.2577 294,-105 302.643,-107.243 311.882,-109.954 320.488,-112.617"/>
<polygon fill="midnightblue" stroke="midnightblue" points="319.636,-116.018 330.225,-115.69 321.742,-109.343 319.636,-116.018"/>
</g>
<!-- Node9 -->
<g id="node9" class="node"><title>Node9</title>
<g id="a_node9"><a xlink:href="parser_8cpp.html#ab6243b513963c15735c801e6e3b7fbdf" target="_top" xlink:title="isValidInstructionCall">
<polygon fill="white" stroke="black" points="184.5,-38.5 184.5,-57.5 293.5,-57.5 293.5,-38.5 184.5,-38.5"/>
<text text-anchor="middle" x="239" y="-45.5" font-family="Helvetica,sans-Serif" font-size="10.00">isValidInstructionCall</text>
</a>
</g>
</g>
<!-- Node8&#45;&gt;Node9 -->
<g id="edge10" class="edge"><title>Node8&#45;&gt;Node9</title>
<path fill="none" stroke="midnightblue" d="M142.18,-62.449C151.879,-60.9865 163.018,-59.3068 174.191,-57.6221"/>
<polygon fill="midnightblue" stroke="midnightblue" points="175.054,-61.0315 184.42,-56.0794 174.01,-54.1097 175.054,-61.0315"/>
</g>
<!-- Node10 -->
<g id="node10" class="node"><title>Node10</title>
<g id="a_node10"><a xlink:href="parser_8cpp.html#a9ef8c814439aab8a9db6ae7207902ab1" target="_top" xlink:title="findLabel">
<polygon fill="white" stroke="black" points="211,-0.5 211,-19.5 267,-19.5 267,-0.5 211,-0.5"/>
<text text-anchor="middle" x="239" y="-7.5" font-family="Helvetica,sans-Serif" font-size="10.00">findLabel</text>
</a>
</g>
</g>
<!-- Node8&#45;&gt;Node10 -->
<g id="edge11" class="edge"><title>Node8&#45;&gt;Node10</title>
<path fill="none" stroke="midnightblue" d="M128.531,-57.379C142.907,-49.2311 164.443,-37.5459 184,-29 189.484,-26.6036 195.376,-24.2833 201.181,-22.1358"/>
<polygon fill="midnightblue" stroke="midnightblue" points="202.543,-25.3659 210.779,-18.7022 200.185,-18.7749 202.543,-25.3659"/>
</g>
</g>
</svg>
