<?xml version="1.0" encoding="UTF-8" standalone="no"?>
<!DOCTYPE svg PUBLIC "-//W3C//DTD SVG 1.1//EN"
 "http://www.w3.org/Graphics/SVG/1.1/DTD/svg11.dtd">
<!-- Generated by graphviz version 2.36.0 (20140111.2315)
 -->
<!-- Title: main.cpp Pages: 1 -->
<svg width="680pt" height="84pt"
 viewBox="0.00 0.00 680.00 84.00" xmlns="http://www.w3.org/2000/svg" xmlns:xlink="http://www.w3.org/1999/xlink">
<g id="graph0" class="graph" transform="scale(1 1) rotate(0) translate(4 80)">
<title>main.cpp</title>
<polygon fill="white" stroke="none" points="-4,4 -4,-80 676,-80 676,4 -4,4"/>
<!-- Node1 -->
<g id="node1" class="node"><title>Node1</title>
<polygon fill="#bfbfbf" stroke="black" points="262,-56.5 262,-75.5 318,-75.5 318,-56.5 262,-56.5"/>
<text text-anchor="middle" x="290" y="-63.5" font-family="Helvetica,sans-Serif" font-size="10.00">main.cpp</text>
</g>
<!-- Node2 -->
<g id="node2" class="node"><title>Node2</title>
<polygon fill="white" stroke="#bfbfbf" points="0,-0.5 0,-19.5 46,-19.5 46,-0.5 0,-0.5"/>
<text text-anchor="middle" x="23" y="-7.5" font-family="Helvetica,sans-Serif" font-size="10.00">stdio.h</text>
</g>
<!-- Node1&#45;&gt;Node2 -->
<g id="edge1" class="edge"><title>Node1&#45;&gt;Node2</title>
<path fill="none" stroke="midnightblue" d="M261.983,-60.4281C219.491,-53.3233 136.041,-38.7037 55.7804,-20.0223"/>
<polygon fill="midnightblue" stroke="midnightblue" points="56.547,-16.6071 46.0112,-17.7241 54.944,-23.4211 56.547,-16.6071"/>
</g>
<!-- Node3 -->
<g id="node3" class="node"><title>Node3</title>
<polygon fill="white" stroke="#bfbfbf" points="64,-0.5 64,-19.5 112,-19.5 112,-0.5 64,-0.5"/>
<text text-anchor="middle" x="88" y="-7.5" font-family="Helvetica,sans-Serif" font-size="10.00">stdlib.h</text>
</g>
<!-- Node1&#45;&gt;Node3 -->
<g id="edge2" class="edge"><title>Node1&#45;&gt;Node3</title>
<path fill="none" stroke="midnightblue" d="M261.878,-57.5671C230.227,-49.1896 177.013,-35.0687 122.059,-20.2743"/>
<polygon fill="midnightblue" stroke="midnightblue" points="122.712,-16.8255 112.146,-17.6033 120.891,-23.5845 122.712,-16.8255"/>
</g>
<!-- Node4 -->
<g id="node4" class="node"><title>Node4</title>
<polygon fill="white" stroke="#bfbfbf" points="130.5,-0.5 130.5,-19.5 179.5,-19.5 179.5,-0.5 130.5,-0.5"/>
<text text-anchor="middle" x="155" y="-7.5" font-family="Helvetica,sans-Serif" font-size="10.00">ctype.h</text>
</g>
<!-- Node1&#45;&gt;Node4 -->
<g id="edge3" class="edge"><title>Node1&#45;&gt;Node4</title>
<path fill="none" stroke="midnightblue" d="M268.609,-56.4435C246.293,-47.5171 211.097,-33.4387 185.792,-23.3168"/>
<polygon fill="midnightblue" stroke="midnightblue" points="186.876,-19.9807 176.291,-19.5164 184.276,-26.4801 186.876,-19.9807"/>
</g>
<!-- Node5 -->
<g id="node5" class="node"><title>Node5</title>
<polygon fill="white" stroke="#bfbfbf" points="197.5,-0.5 197.5,-19.5 246.5,-19.5 246.5,-0.5 197.5,-0.5"/>
<text text-anchor="middle" x="222" y="-7.5" font-family="Helvetica,sans-Serif" font-size="10.00">string.h</text>
</g>
<!-- Node1&#45;&gt;Node5 -->
<g id="edge4" class="edge"><title>Node1&#45;&gt;Node5</title>
<path fill="none" stroke="midnightblue" d="M279.075,-56.324C268.825,-48.1849 253.279,-35.8395 240.999,-26.0874"/>
<polygon fill="midnightblue" stroke="midnightblue" points="243.132,-23.3119 233.124,-19.8339 238.779,-28.7937 243.132,-23.3119"/>
</g>
<!-- Node6 -->
<g id="node6" class="node"><title>Node6</title>
<polygon fill="white" stroke="#bfbfbf" points="264.5,-0.5 264.5,-19.5 315.5,-19.5 315.5,-0.5 264.5,-0.5"/>
<text text-anchor="middle" x="290" y="-7.5" font-family="Helvetica,sans-Serif" font-size="10.00">unistd.h</text>
</g>
<!-- Node1&#45;&gt;Node6 -->
<g id="edge5" class="edge"><title>Node1&#45;&gt;Node6</title>
<path fill="none" stroke="midnightblue" d="M290,-56.083C290,-49.0059 290,-38.8611 290,-29.9865"/>
<polygon fill="midnightblue" stroke="midnightblue" points="293.5,-29.751 290,-19.7511 286.5,-29.7511 293.5,-29.751"/>
</g>
<!-- Node7 -->
<g id="node7" class="node"><title>Node7</title>
<g id="a_node7"><a xlink:href="msgs__pt_8h.html" target="_top" xlink:title="msgs_pt.h">
<polygon fill="white" stroke="black" points="334,-0.5 334,-19.5 396,-19.5 396,-0.5 334,-0.5"/>
<text text-anchor="middle" x="365" y="-7.5" font-family="Helvetica,sans-Serif" font-size="10.00">msgs_pt.h</text>
</a>
</g>
</g>
<!-- Node1&#45;&gt;Node7 -->
<g id="edge6" class="edge"><title>Node1&#45;&gt;Node7</title>
<path fill="none" stroke="midnightblue" d="M302.05,-56.324C313.463,-48.1066 330.831,-35.6017 344.435,-25.8069"/>
<polygon fill="midnightblue" stroke="midnightblue" points="346.66,-28.5174 352.731,-19.8339 342.57,-22.8366 346.66,-28.5174"/>
</g>
<!-- Node8 -->
<g id="node8" class="node"><title>Node8</title>
<g id="a_node8"><a xlink:href="preprocessor_8h.html" target="_top" xlink:title="preprocessor.h">
<polygon fill="white" stroke="black" points="414.5,-0.5 414.5,-19.5 495.5,-19.5 495.5,-0.5 414.5,-0.5"/>
<text text-anchor="middle" x="455" y="-7.5" font-family="Helvetica,sans-Serif" font-size="10.00">preprocessor.h</text>
</a>
</g>
</g>
<!-- Node1&#45;&gt;Node8 -->
<g id="edge7" class="edge"><title>Node1&#45;&gt;Node8</title>
<path fill="none" stroke="midnightblue" d="M316.145,-56.4435C344.023,-47.3196 388.348,-32.8133 419.4,-22.6509"/>
<polygon fill="midnightblue" stroke="midnightblue" points="420.562,-25.9533 428.978,-19.5164 418.385,-19.3005 420.562,-25.9533"/>
</g>
<!-- Node9 -->
<g id="node9" class="node"><title>Node9</title>
<g id="a_node9"><a xlink:href="assembler_8h.html" target="_top" xlink:title="assembler.h">
<polygon fill="white" stroke="black" points="514,-0.5 514,-19.5 584,-19.5 584,-0.5 514,-0.5"/>
<text text-anchor="middle" x="549" y="-7.5" font-family="Helvetica,sans-Serif" font-size="10.00">assembler.h</text>
</a>
</g>
</g>
<!-- Node1&#45;&gt;Node9 -->
<g id="edge8" class="edge"><title>Node1&#45;&gt;Node9</title>
<path fill="none" stroke="midnightblue" d="M318.211,-59.1183C362.921,-49.7964 450.458,-31.5455 503.936,-20.3955"/>
<polygon fill="midnightblue" stroke="midnightblue" points="504.756,-23.8 513.831,-18.3325 503.327,-16.9473 504.756,-23.8"/>
</g>
<!-- Node10 -->
<g id="node10" class="node"><title>Node10</title>
<g id="a_node10"><a xlink:href="macroeval_8h.html" target="_top" xlink:title="macroeval.h">
<polygon fill="white" stroke="black" points="602,-0.5 602,-19.5 672,-19.5 672,-0.5 602,-0.5"/>
<text text-anchor="middle" x="637" y="-7.5" font-family="Helvetica,sans-Serif" font-size="10.00">macroeval.h</text>
</a>
</g>
</g>
<!-- Node1&#45;&gt;Node10 -->
<g id="edge9" class="edge"><title>Node1&#45;&gt;Node10</title>
<path fill="none" stroke="midnightblue" d="M318.071,-61.3499C370.037,-54.4813 484.947,-38.7731 591.97,-20.1015"/>
<polygon fill="midnightblue" stroke="midnightblue" points="592.725,-23.5225 601.968,-18.3443 591.513,-16.6282 592.725,-23.5225"/>
</g>
</g>
</svg>
