<?xml version="1.0" encoding="UTF-8" standalone="no"?>
<!DOCTYPE svg PUBLIC "-//W3C//DTD SVG 1.1//EN"
 "http://www.w3.org/Graphics/SVG/1.1/DTD/svg11.dtd">
<!-- Generated by graphviz version 2.36.0 (20140111.2315)
 -->
<!-- Title: main Pages: 1 -->
<svg width="506pt" height="446pt"
 viewBox="0.00 0.00 506.00 446.00" xmlns="http://www.w3.org/2000/svg" xmlns:xlink="http://www.w3.org/1999/xlink">
<g id="graph0" class="graph" transform="scale(1 1) rotate(0) translate(4 442)">
<title>main</title>
<polygon fill="white" stroke="none" points="-4,4 -4,-442 502,-442 502,4 -4,4"/>
<!-- Node1 -->
<g id="node1" class="node"><title>Node1</title>
<polygon fill="#bfbfbf" stroke="black" points="0,-342.5 0,-361.5 38,-361.5 38,-342.5 0,-342.5"/>
<text text-anchor="middle" x="19" y="-349.5" font-family="Helvetica,sans-Serif" font-size="10.00">main</text>
</g>
<!-- Node2 -->
<g id="node2" class="node"><title>Node2</title>
<g id="a_node2"><a xlink:href="preprocessor_8cpp.html#a64877d45066932f7594bb2ad347c1d26" target="_top" xlink:title="preprocessor">
<polygon fill="white" stroke="black" points="74.5,-342.5 74.5,-361.5 147.5,-361.5 147.5,-342.5 74.5,-342.5"/>
<text text-anchor="middle" x="111" y="-349.5" font-family="Helvetica,sans-Serif" font-size="10.00">preprocessor</text>
</a>
</g>
</g>
<!-- Node1&#45;&gt;Node2 -->
<g id="edge1" class="edge"><title>Node1&#45;&gt;Node2</title>
<path fill="none" stroke="midnightblue" d="M38.2128,-352C45.7513,-352 54.8666,-352 64.0353,-352"/>
<polygon fill="midnightblue" stroke="midnightblue" points="64.3287,-355.5 74.3286,-352 64.3286,-348.5 64.3287,-355.5"/>
</g>
<!-- Node6 -->
<g id="node6" class="node"><title>Node6</title>
<g id="a_node6"><a xlink:href="macroeval_8cpp.html#ab726e2a9f26698bddb5ddd13683e6630" target="_top" xlink:title="macroeval">
<polygon fill="white" stroke="black" points="80,-380.5 80,-399.5 142,-399.5 142,-380.5 80,-380.5"/>
<text text-anchor="middle" x="111" y="-387.5" font-family="Helvetica,sans-Serif" font-size="10.00">macroeval</text>
</a>
</g>
</g>
<!-- Node1&#45;&gt;Node6 -->
<g id="edge5" class="edge"><title>Node1&#45;&gt;Node6</title>
<path fill="none" stroke="midnightblue" d="M38.2128,-359.69C49.6204,-364.506 64.639,-370.848 77.9893,-376.484"/>
<polygon fill="midnightblue" stroke="midnightblue" points="76.7661,-379.767 87.34,-380.432 79.489,-373.318 76.7661,-379.767"/>
</g>
<!-- Node8 -->
<g id="node8" class="node"><title>Node8</title>
<g id="a_node8"><a xlink:href="assembler_8cpp.html#a368a4f7b83093ab74e79be4ceeb11e3d" target="_top" xlink:title="assembler">
<polygon fill="white" stroke="black" points="80,-171.5 80,-190.5 142,-190.5 142,-171.5 80,-171.5"/>
<text text-anchor="middle" x="111" y="-178.5" font-family="Helvetica,sans-Serif" font-size="10.00">assembler</text>
</a>
</g>
</g>
<!-- Node1&#45;&gt;Node8 -->
<g id="edge8" class="edge"><title>Node1&#45;&gt;Node8</title>
<path fill="none" stroke="midnightblue" d="M25.0967,-342.316C39.5763,-314.805 81.14,-235.834 100.216,-199.589"/>
<polygon fill="midnightblue" stroke="midnightblue" points="103.399,-201.057 104.959,-190.577 97.2045,-197.797 103.399,-201.057"/>
</g>
<!-- Node3 -->
<g id="node3" class="node"><title>Node3</title>
<g id="a_node3"><a xlink:href="lexer_8cpp.html#ab482a9701233ff4e5a0ffc1f75f9c41a" target="_top" xlink:title="tokenizer">
<polygon fill="white" stroke="black" points="240,-380.5 240,-399.5 296,-399.5 296,-380.5 240,-380.5"/>
<text text-anchor="middle" x="268" y="-387.5" font-family="Helvetica,sans-Serif" font-size="10.00">tokenizer</text>
</a>
</g>
</g>
<!-- Node2&#45;&gt;Node3 -->
<g id="edge2" class="edge"><title>Node2&#45;&gt;Node3</title>
<path fill="none" stroke="midnightblue" d="M147.097,-361.51C158.812,-364.618 171.949,-368.032 184,-371 198.899,-374.67 215.363,-378.488 229.672,-381.73"/>
<polygon fill="midnightblue" stroke="midnightblue" points="229.132,-385.196 239.657,-383.979 230.67,-378.367 229.132,-385.196"/>
</g>
<!-- Node5 -->
<g id="node5" class="node"><title>Node5</title>
<g id="a_node5"><a xlink:href="preprocessor_8cpp.html#a130bd12178693578a2c217a3011725f3" target="_top" xlink:title="findLabelDir">
<polygon fill="white" stroke="black" points="234,-342.5 234,-361.5 302,-361.5 302,-342.5 234,-342.5"/>
<text text-anchor="middle" x="268" y="-349.5" font-family="Helvetica,sans-Serif" font-size="10.00">findLabelDir</text>
</a>
</g>
</g>
<!-- Node2&#45;&gt;Node5 -->
<g id="edge4" class="edge"><title>Node2&#45;&gt;Node5</title>
<path fill="none" stroke="midnightblue" d="M147.56,-352C170.216,-352 199.715,-352 223.728,-352"/>
<polygon fill="midnightblue" stroke="midnightblue" points="223.988,-355.5 233.988,-352 223.988,-348.5 223.988,-355.5"/>
</g>
<!-- Node4 -->
<g id="node4" class="node"><title>Node4</title>
<g id="a_node4"><a xlink:href="lexer_8cpp.html#a63ef6d488951c4541159fe0961565c4d" target="_top" xlink:title="scanner">
<polygon fill="white" stroke="black" points="417.5,-342.5 417.5,-361.5 468.5,-361.5 468.5,-342.5 417.5,-342.5"/>
<text text-anchor="middle" x="443" y="-349.5" font-family="Helvetica,sans-Serif" font-size="10.00">scanner</text>
</a>
</g>
</g>
<!-- Node3&#45;&gt;Node4 -->
<g id="edge3" class="edge"><title>Node3&#45;&gt;Node4</title>
<path fill="none" stroke="midnightblue" d="M296.031,-384.062C326.044,-377.47 374.57,-366.811 407.351,-359.611"/>
<polygon fill="midnightblue" stroke="midnightblue" points="408.381,-362.968 417.397,-357.404 406.879,-356.131 408.381,-362.968"/>
</g>
<!-- Node6&#45;&gt;Node3 -->
<g id="edge6" class="edge"><title>Node6&#45;&gt;Node3</title>
<path fill="none" stroke="midnightblue" d="M142.254,-390C167.298,-390 202.986,-390 229.779,-390"/>
<polygon fill="midnightblue" stroke="midnightblue" points="229.933,-393.5 239.933,-390 229.933,-386.5 229.933,-393.5"/>
</g>
<!-- Node7 -->
<g id="node7" class="node"><title>Node7</title>
<g id="a_node7"><a xlink:href="macroeval_8cpp.html#a34e9b7c10801b62d8a947c6afd9ba576" target="_top" xlink:title="findMacroDefinition">
<polygon fill="white" stroke="black" points="217.5,-418.5 217.5,-437.5 318.5,-437.5 318.5,-418.5 217.5,-418.5"/>
<text text-anchor="middle" x="268" y="-425.5" font-family="Helvetica,sans-Serif" font-size="10.00">findMacroDefinition</text>
</a>
</g>
</g>
<!-- Node6&#45;&gt;Node7 -->
<g id="edge7" class="edge"><title>Node6&#45;&gt;Node7</title>
<path fill="none" stroke="midnightblue" d="M142.07,-398.172C154.957,-401.612 170.192,-405.599 184,-409 193.689,-411.387 204.038,-413.836 214.027,-416.148"/>
<polygon fill="midnightblue" stroke="midnightblue" points="213.328,-419.579 223.857,-418.408 214.896,-412.756 213.328,-419.579"/>
</g>
<!-- Node8&#45;&gt;Node4 -->
<g id="edge9" class="edge"><title>Node8&#45;&gt;Node4</title>
<path fill="none" stroke="midnightblue" d="M116.163,-190.759C125.316,-211.017 149.185,-257.76 184,-282 202.484,-294.87 341.277,-328.469 407.299,-343.962"/>
<polygon fill="midnightblue" stroke="midnightblue" points="406.707,-347.418 417.241,-346.287 408.301,-340.602 406.707,-347.418"/>
</g>
<!-- Node9 -->
<g id="node9" class="node"><title>Node9</title>
<g id="a_node9"><a xlink:href="assembler_8cpp.html#a33535e8f85da588842c21d65d304f740" target="_top" xlink:title="addNewSymbolINST0">
<polygon fill="white" stroke="black" points="211,-38.5 211,-57.5 325,-57.5 325,-38.5 211,-38.5"/>
<text text-anchor="middle" x="268" y="-45.5" font-family="Helvetica,sans-Serif" font-size="10.00">addNewSymbolINST0</text>
</a>
</g>
</g>
<!-- Node8&#45;&gt;Node9 -->
<g id="edge10" class="edge"><title>Node8&#45;&gt;Node9</title>
<path fill="none" stroke="midnightblue" d="M115.225,-171.241C123.116,-148.963 145.604,-94.1949 184,-67 189.225,-63.2994 195.058,-60.3071 201.143,-57.8893"/>
<polygon fill="midnightblue" stroke="midnightblue" points="202.546,-61.1079 210.863,-54.5438 200.268,-54.4891 202.546,-61.1079"/>
</g>
<!-- Node11 -->
<g id="node11" class="node"><title>Node11</title>
<g id="a_node11"><a xlink:href="assembler_8cpp.html#a45dcd38a718d16b9fdcda1e45c4ad5de" target="_top" xlink:title="addNewSymbolINST1">
<polygon fill="white" stroke="black" points="211,-152.5 211,-171.5 325,-171.5 325,-152.5 211,-152.5"/>
<text text-anchor="middle" x="268" y="-159.5" font-family="Helvetica,sans-Serif" font-size="10.00">addNewSymbolINST1</text>
</a>
</g>
</g>
<!-- Node8&#45;&gt;Node11 -->
<g id="edge12" class="edge"><title>Node8&#45;&gt;Node11</title>
<path fill="none" stroke="midnightblue" d="M142.254,-177.292C158.91,-175.25 180.274,-172.631 200.599,-170.139"/>
<polygon fill="midnightblue" stroke="midnightblue" points="201.284,-173.582 210.784,-168.891 200.432,-166.634 201.284,-173.582"/>
</g>
<!-- Node12 -->
<g id="node12" class="node"><title>Node12</title>
<g id="a_node12"><a xlink:href="parser_8cpp.html#a9ef8c814439aab8a9db6ae7207902ab1" target="_top" xlink:title="findLabel">
<polygon fill="white" stroke="black" points="415,-171.5 415,-190.5 471,-190.5 471,-171.5 415,-171.5"/>
<text text-anchor="middle" x="443" y="-178.5" font-family="Helvetica,sans-Serif" font-size="10.00">findLabel</text>
</a>
</g>
</g>
<!-- Node8&#45;&gt;Node12 -->
<g id="edge29" class="edge"><title>Node8&#45;&gt;Node12</title>
<path fill="none" stroke="midnightblue" d="M117.4,-190.558C127.727,-207.729 152.11,-243.283 184,-257 252.591,-286.503 281.876,-282.647 352,-257 383.812,-245.365 412.134,-216.971 428.166,-198.375"/>
<polygon fill="midnightblue" stroke="midnightblue" points="430.919,-200.538 434.635,-190.616 425.543,-196.055 430.919,-200.538"/>
</g>
<!-- Node13 -->
<g id="node13" class="node"><title>Node13</title>
<g id="a_node13"><a xlink:href="assembler_8cpp.html#a53bd42138e87fabd2519a34abbf40b55" target="_top" xlink:title="addNewSymbolINST1NUM">
<polygon fill="white" stroke="black" points="199.5,-0.5 199.5,-19.5 336.5,-19.5 336.5,-0.5 199.5,-0.5"/>
<text text-anchor="middle" x="268" y="-7.5" font-family="Helvetica,sans-Serif" font-size="10.00">addNewSymbolINST1NUM</text>
</a>
</g>
</g>
<!-- Node8&#45;&gt;Node13 -->
<g id="edge15" class="edge"><title>Node8&#45;&gt;Node13</title>
<path fill="none" stroke="midnightblue" d="M113.578,-171.376C118.54,-144.344 136.422,-67.2182 184,-29 186.067,-27.3394 188.252,-25.8183 190.528,-24.4252"/>
<polygon fill="midnightblue" stroke="midnightblue" points="192.44,-27.3762 199.703,-19.6626 189.215,-21.1634 192.44,-27.3762"/>
</g>
<!-- Node14 -->
<g id="node14" class="node"><title>Node14</title>
<g id="a_node14"><a xlink:href="assembler_8cpp.html#ad85cc701dcbc6e69b1c273a99c2262d8" target="_top" xlink:title="addNewSymbolINST1PLUS">
<polygon fill="white" stroke="black" points="198,-114.5 198,-133.5 338,-133.5 338,-114.5 198,-114.5"/>
<text text-anchor="middle" x="268" y="-121.5" font-family="Helvetica,sans-Serif" font-size="10.00">addNewSymbolINST1PLUS</text>
</a>
</g>
</g>
<!-- Node8&#45;&gt;Node14 -->
<g id="edge17" class="edge"><title>Node8&#45;&gt;Node14</title>
<path fill="none" stroke="midnightblue" d="M127.187,-171.482C141.399,-162.945 163.461,-150.622 184,-143 190.86,-140.454 198.171,-138.183 205.501,-136.174"/>
<polygon fill="midnightblue" stroke="midnightblue" points="206.662,-139.489 215.468,-133.598 204.91,-132.712 206.662,-139.489"/>
</g>
<!-- Node15 -->
<g id="node15" class="node"><title>Node15</title>
<g id="a_node15"><a xlink:href="assembler_8cpp.html#a4b08bb4206172aa8ae36e47f8298e274" target="_top" xlink:title="addNewSymbolINST2">
<polygon fill="white" stroke="black" points="211,-76.5 211,-95.5 325,-95.5 325,-76.5 211,-76.5"/>
<text text-anchor="middle" x="268" y="-83.5" font-family="Helvetica,sans-Serif" font-size="10.00">addNewSymbolINST2</text>
</a>
</g>
</g>
<!-- Node8&#45;&gt;Node15 -->
<g id="edge20" class="edge"><title>Node8&#45;&gt;Node15</title>
<path fill="none" stroke="midnightblue" d="M118.26,-171.348C129.405,-154.987 154.325,-121.941 184,-105 189.392,-101.922 195.249,-99.3424 201.273,-97.1807"/>
<polygon fill="midnightblue" stroke="midnightblue" points="202.379,-100.502 210.834,-94.1162 200.242,-93.8356 202.379,-100.502"/>
</g>
<!-- Node16 -->
<g id="node16" class="node"><title>Node16</title>
<g id="a_node16"><a xlink:href="assembler_8cpp.html#a23fbad662368f294c55a33dfa57a904c" target="_top" xlink:title="addNewSymbolINST2PLUSPLUS">
<polygon fill="white" stroke="black" points="184.5,-228.5 184.5,-247.5 351.5,-247.5 351.5,-228.5 184.5,-228.5"/>
<text text-anchor="middle" x="268" y="-235.5" font-family="Helvetica,sans-Serif" font-size="10.00">addNewSymbolINST2PLUSPLUS</text>
</a>
</g>
</g>
<!-- Node8&#45;&gt;Node16 -->
<g id="edge23" class="edge"><title>Node8&#45;&gt;Node16</title>
<path fill="none" stroke="midnightblue" d="M127.187,-190.518C141.399,-199.055 163.461,-211.378 184,-219 190.86,-221.546 198.171,-223.817 205.501,-225.826"/>
<polygon fill="midnightblue" stroke="midnightblue" points="204.91,-229.288 215.468,-228.402 206.662,-222.511 204.91,-229.288"/>
</g>
<!-- Node17 -->
<g id="node17" class="node"><title>Node17</title>
<g id="a_node17"><a xlink:href="assembler_8cpp.html#a54fad2c006413b60d87eea48e412471b" target="_top" xlink:title="addNewLabel">
<polygon fill="white" stroke="black" points="230,-190.5 230,-209.5 306,-209.5 306,-190.5 230,-190.5"/>
<text text-anchor="middle" x="268" y="-197.5" font-family="Helvetica,sans-Serif" font-size="10.00">addNewLabel</text>
</a>
</g>
</g>
<!-- Node8&#45;&gt;Node17 -->
<g id="edge26" class="edge"><title>Node8&#45;&gt;Node17</title>
<path fill="none" stroke="midnightblue" d="M142.254,-184.708C164.322,-187.414 194.655,-191.132 219.884,-194.225"/>
<polygon fill="midnightblue" stroke="midnightblue" points="219.635,-197.72 229.987,-195.463 220.487,-190.772 219.635,-197.72"/>
</g>
<!-- Node10 -->
<g id="node10" class="node"><title>Node10</title>
<g id="a_node10"><a xlink:href="parser_8cpp.html#ab6243b513963c15735c801e6e3b7fbdf" target="_top" xlink:title="isValidInstructionCall">
<polygon fill="white" stroke="black" points="388.5,-114.5 388.5,-133.5 497.5,-133.5 497.5,-114.5 388.5,-114.5"/>
<text text-anchor="middle" x="443" y="-121.5" font-family="Helvetica,sans-Serif" font-size="10.00">isValidInstructionCall</text>
</a>
</g>
</g>
<!-- Node9&#45;&gt;Node10 -->
<g id="edge11" class="edge"><title>Node9&#45;&gt;Node10</title>
<path fill="none" stroke="midnightblue" d="M322.971,-57.5478C332.816,-60.0737 342.858,-63.1906 352,-67 377.587,-77.6617 404.062,-95.3764 421.615,-108.231"/>
<polygon fill="midnightblue" stroke="midnightblue" points="419.824,-111.263 429.929,-114.448 424.016,-105.656 419.824,-111.263"/>
</g>
<!-- Node11&#45;&gt;Node10 -->
<g id="edge13" class="edge"><title>Node11&#45;&gt;Node10</title>
<path fill="none" stroke="midnightblue" d="M312.655,-152.411C335.793,-147.329 364.402,-141.045 388.827,-135.68"/>
<polygon fill="midnightblue" stroke="midnightblue" points="389.642,-139.084 398.659,-133.52 388.141,-132.247 389.642,-139.084"/>
</g>
<!-- Node11&#45;&gt;Node12 -->
<g id="edge14" class="edge"><title>Node11&#45;&gt;Node12</title>
<path fill="none" stroke="midnightblue" d="M325.168,-168.169C351.178,-171.025 381.377,-174.342 404.556,-176.888"/>
<polygon fill="midnightblue" stroke="midnightblue" points="404.349,-180.386 414.671,-177.999 405.113,-173.428 404.349,-180.386"/>
</g>
<!-- Node13&#45;&gt;Node10 -->
<g id="edge16" class="edge"><title>Node13&#45;&gt;Node10</title>
<path fill="none" stroke="midnightblue" d="M329.965,-19.5668C337.652,-22.0254 345.196,-25.1157 352,-29 385.838,-48.3171 414.73,-84.3879 430.116,-106.096"/>
<polygon fill="midnightblue" stroke="midnightblue" points="427.303,-108.181 435.859,-114.429 433.067,-104.209 427.303,-108.181"/>
</g>
<!-- Node14&#45;&gt;Node10 -->
<g id="edge18" class="edge"><title>Node14&#45;&gt;Node10</title>
<path fill="none" stroke="midnightblue" d="M338.369,-124C351.498,-124 365.175,-124 378.125,-124"/>
<polygon fill="midnightblue" stroke="midnightblue" points="378.33,-127.5 388.33,-124 378.33,-120.5 378.33,-127.5"/>
</g>
<!-- Node14&#45;&gt;Node12 -->
<g id="edge19" class="edge"><title>Node14&#45;&gt;Node12</title>
<path fill="none" stroke="midnightblue" d="M317.228,-133.543C328.728,-136.229 340.887,-139.412 352,-143 372.643,-149.664 395.124,-159.155 412.453,-166.984"/>
<polygon fill="midnightblue" stroke="midnightblue" points="411.46,-170.379 422.009,-171.367 414.379,-164.016 411.46,-170.379"/>
</g>
<!-- Node15&#45;&gt;Node10 -->
<g id="edge21" class="edge"><title>Node15&#45;&gt;Node10</title>
<path fill="none" stroke="midnightblue" d="M312.655,-95.589C335.793,-100.671 364.402,-106.955 388.827,-112.32"/>
<polygon fill="midnightblue" stroke="midnightblue" points="388.141,-115.753 398.659,-114.48 389.642,-108.916 388.141,-115.753"/>
</g>
<!-- Node15&#45;&gt;Node12 -->
<g id="edge22" class="edge"><title>Node15&#45;&gt;Node12</title>
<path fill="none" stroke="midnightblue" d="M325.166,-94.1162C334.488,-96.7769 343.784,-100.31 352,-105 372.204,-116.534 370.4,-127.786 388,-143 397.429,-151.15 408.588,-159.232 418.308,-165.832"/>
<polygon fill="midnightblue" stroke="midnightblue" points="416.473,-168.816 426.738,-171.438 420.349,-162.986 416.473,-168.816"/>
</g>
<!-- Node16&#45;&gt;Node10 -->
<g id="edge24" class="edge"><title>Node16&#45;&gt;Node10</title>
<path fill="none" stroke="midnightblue" d="M334.145,-228.391C340.487,-225.925 346.572,-222.845 352,-219 376.451,-201.682 367.348,-183.709 388,-162 396.143,-153.44 406.482,-145.613 415.928,-139.317"/>
<polygon fill="midnightblue" stroke="midnightblue" points="418.065,-142.106 424.611,-133.775 414.299,-136.205 418.065,-142.106"/>
</g>
<!-- Node16&#45;&gt;Node12 -->
<g id="edge25" class="edge"><title>Node16&#45;&gt;Node12</title>
<path fill="none" stroke="midnightblue" d="M317.228,-228.457C328.728,-225.771 340.887,-222.588 352,-219 372.643,-212.336 395.124,-202.845 412.453,-195.016"/>
<polygon fill="midnightblue" stroke="midnightblue" points="414.379,-197.984 422.009,-190.633 411.46,-191.621 414.379,-197.984"/>
</g>
<!-- Node17&#45;&gt;Node10 -->
<g id="edge27" class="edge"><title>Node17&#45;&gt;Node10</title>
<path fill="none" stroke="midnightblue" d="M306.196,-194.282C320.82,-191.32 337.536,-187.027 352,-181 365.73,-175.279 397.733,-154.247 419.629,-139.401"/>
<polygon fill="midnightblue" stroke="midnightblue" points="421.739,-142.199 428.03,-133.674 417.796,-136.415 421.739,-142.199"/>
</g>
<!-- Node17&#45;&gt;Node12 -->
<g id="edge28" class="edge"><title>Node17&#45;&gt;Node12</title>
<path fill="none" stroke="midnightblue" d="M306.113,-195.924C335.204,-192.729 375.504,-188.303 404.655,-185.101"/>
<polygon fill="midnightblue" stroke="midnightblue" points="405.291,-188.553 414.849,-183.982 404.527,-181.595 405.291,-188.553"/>
</g>
</g>
</svg>
