<?xml version="1.0" encoding="UTF-8" standalone="no"?>
<!DOCTYPE svg PUBLIC "-//W3C//DTD SVG 1.1//EN"
 "http://www.w3.org/Graphics/SVG/1.1/DTD/svg11.dtd">
<!-- Generated by graphviz version 2.36.0 (20140111.2315)
 -->
<!-- Title: main.cpp Pages: 1 -->
<svg width="592pt" height="84pt"
 viewBox="0.00 0.00 592.00 84.00" xmlns="http://www.w3.org/2000/svg" xmlns:xlink="http://www.w3.org/1999/xlink">
<g id="graph0" class="graph" transform="scale(1 1) rotate(0) translate(4 80)">
<title>main.cpp</title>
<polygon fill="white" stroke="none" points="-4,4 -4,-80 588,-80 588,4 -4,4"/>
<!-- Node1 -->
<g id="node1" class="node"><title>Node1</title>
<polygon fill="#bfbfbf" stroke="black" points="228,-56.5 228,-75.5 284,-75.5 284,-56.5 228,-56.5"/>
<text text-anchor="middle" x="256" y="-63.5" font-family="Helvetica,sans-Serif" font-size="10.00">main.cpp</text>
</g>
<!-- Node2 -->
<g id="node2" class="node"><title>Node2</title>
<polygon fill="white" stroke="#bfbfbf" points="0,-0.5 0,-19.5 46,-19.5 46,-0.5 0,-0.5"/>
<text text-anchor="middle" x="23" y="-7.5" font-family="Helvetica,sans-Serif" font-size="10.00">stdio.h</text>
</g>
<!-- Node1&#45;&gt;Node2 -->
<g id="edge1" class="edge"><title>Node1&#45;&gt;Node2</title>
<path fill="none" stroke="midnightblue" d="M227.923,-59.2136C190.79,-51.4526 123.102,-36.9326 55.9348,-20.1326"/>
<polygon fill="midnightblue" stroke="midnightblue" points="56.5844,-16.687 46.0323,-17.6379 54.8743,-23.4749 56.5844,-16.687"/>
</g>
<!-- Node3 -->
<g id="node3" class="node"><title>Node3</title>
<polygon fill="white" stroke="#bfbfbf" points="64,-0.5 64,-19.5 112,-19.5 112,-0.5 64,-0.5"/>
<text text-anchor="middle" x="88" y="-7.5" font-family="Helvetica,sans-Serif" font-size="10.00">stdlib.h</text>
</g>
<!-- Node1&#45;&gt;Node3 -->
<g id="edge2" class="edge"><title>Node1&#45;&gt;Node3</title>
<path fill="none" stroke="midnightblue" d="M229.38,-56.4435C200.243,-47.0781 153.462,-32.0415 121.766,-21.8532"/>
<polygon fill="midnightblue" stroke="midnightblue" points="122.637,-18.4571 112.046,-18.729 120.495,-25.1213 122.637,-18.4571"/>
</g>
<!-- Node4 -->
<g id="node4" class="node"><title>Node4</title>
<polygon fill="white" stroke="#bfbfbf" points="130.5,-0.5 130.5,-19.5 179.5,-19.5 179.5,-0.5 130.5,-0.5"/>
<text text-anchor="middle" x="155" y="-7.5" font-family="Helvetica,sans-Serif" font-size="10.00">ctype.h</text>
</g>
<!-- Node1&#45;&gt;Node4 -->
<g id="edge3" class="edge"><title>Node1&#45;&gt;Node4</title>
<path fill="none" stroke="midnightblue" d="M239.773,-56.324C223.649,-47.7034 198.7,-34.3643 180.036,-24.3855"/>
<polygon fill="midnightblue" stroke="midnightblue" points="181.656,-21.283 171.187,-19.6545 178.356,-27.456 181.656,-21.283"/>
</g>
<!-- Node5 -->
<g id="node5" class="node"><title>Node5</title>
<polygon fill="white" stroke="#bfbfbf" points="197.5,-0.5 197.5,-19.5 246.5,-19.5 246.5,-0.5 197.5,-0.5"/>
<text text-anchor="middle" x="222" y="-7.5" font-family="Helvetica,sans-Serif" font-size="10.00">string.h</text>
</g>
<!-- Node1&#45;&gt;Node5 -->
<g id="edge4" class="edge"><title>Node1&#45;&gt;Node5</title>
<path fill="none" stroke="midnightblue" d="M250.386,-56.083C245.633,-48.5341 238.682,-37.4948 232.848,-28.2298"/>
<polygon fill="midnightblue" stroke="midnightblue" points="235.8,-26.3486 227.51,-19.7511 229.876,-30.0783 235.8,-26.3486"/>
</g>
<!-- Node6 -->
<g id="node6" class="node"><title>Node6</title>
<polygon fill="white" stroke="#bfbfbf" points="264.5,-0.5 264.5,-19.5 315.5,-19.5 315.5,-0.5 264.5,-0.5"/>
<text text-anchor="middle" x="290" y="-7.5" font-family="Helvetica,sans-Serif" font-size="10.00">unistd.h</text>
</g>
<!-- Node1&#45;&gt;Node6 -->
<g id="edge5" class="edge"><title>Node1&#45;&gt;Node6</title>
<path fill="none" stroke="midnightblue" d="M261.614,-56.083C266.367,-48.5341 273.318,-37.4948 279.152,-28.2298"/>
<polygon fill="midnightblue" stroke="midnightblue" points="282.124,-30.0783 284.49,-19.7511 276.2,-26.3486 282.124,-30.0783"/>
</g>
<!-- Node7 -->
<g id="node7" class="node"><title>Node7</title>
<g id="a_node7"><a xlink:href="msgs__pt_8h.html" target="_top" xlink:title="msgs_pt.h">
<polygon fill="white" stroke="black" points="334,-0.5 334,-19.5 396,-19.5 396,-0.5 334,-0.5"/>
<text text-anchor="middle" x="365" y="-7.5" font-family="Helvetica,sans-Serif" font-size="10.00">msgs_pt.h</text>
</a>
</g>
</g>
<!-- Node1&#45;&gt;Node7 -->
<g id="edge6" class="edge"><title>Node1&#45;&gt;Node7</title>
<path fill="none" stroke="midnightblue" d="M273.513,-56.324C291.072,-47.6247 318.331,-34.1202 338.531,-24.113"/>
<polygon fill="midnightblue" stroke="midnightblue" points="340.124,-27.23 347.531,-19.6545 337.016,-20.9575 340.124,-27.23"/>
</g>
<!-- Node8 -->
<g id="node8" class="node"><title>Node8</title>
<g id="a_node8"><a xlink:href="preprocessor_8h.html" target="_top" xlink:title="preprocessor.h">
<polygon fill="white" stroke="black" points="414.5,-0.5 414.5,-19.5 495.5,-19.5 495.5,-0.5 414.5,-0.5"/>
<text text-anchor="middle" x="455" y="-7.5" font-family="Helvetica,sans-Serif" font-size="10.00">preprocessor.h</text>
</a>
</g>
</g>
<!-- Node1&#45;&gt;Node8 -->
<g id="edge7" class="edge"><title>Node1&#45;&gt;Node8</title>
<path fill="none" stroke="midnightblue" d="M284.09,-57.3776C317.823,-48.2238 374.703,-32.7892 413.502,-22.2607"/>
<polygon fill="midnightblue" stroke="midnightblue" points="414.707,-25.5605 423.441,-19.5637 412.874,-18.8048 414.707,-25.5605"/>
</g>
<!-- Node9 -->
<g id="node9" class="node"><title>Node9</title>
<g id="a_node9"><a xlink:href="assembler_8h.html" target="_top" xlink:title="assembler.h">
<polygon fill="white" stroke="black" points="514,-0.5 514,-19.5 584,-19.5 584,-0.5 514,-0.5"/>
<text text-anchor="middle" x="549" y="-7.5" font-family="Helvetica,sans-Serif" font-size="10.00">assembler.h</text>
</a>
</g>
</g>
<!-- Node1&#45;&gt;Node9 -->
<g id="edge8" class="edge"><title>Node1&#45;&gt;Node9</title>
<path fill="none" stroke="midnightblue" d="M284.297,-60.0354C328.668,-52.2139 417.562,-36.3964 503.695,-20.0288"/>
<polygon fill="midnightblue" stroke="midnightblue" points="504.47,-23.4442 513.638,-18.1344 503.16,-16.5678 504.47,-23.4442"/>
</g>
</g>
</svg>
