<?xml version="1.0" encoding="UTF-8" standalone="no"?>
<!DOCTYPE svg PUBLIC "-//W3C//DTD SVG 1.1//EN"
 "http://www.w3.org/Graphics/SVG/1.1/DTD/svg11.dtd">
<!-- Generated by graphviz version 2.36.0 (20140111.2315)
 -->
<!-- Title: main.cpp Pages: 1 -->
<svg width="503pt" height="140pt"
 viewBox="0.00 0.00 503.00 140.00" xmlns="http://www.w3.org/2000/svg" xmlns:xlink="http://www.w3.org/1999/xlink">
<g id="graph0" class="graph" transform="scale(1 1) rotate(0) translate(4 136)">
<title>main.cpp</title>
<polygon fill="white" stroke="none" points="-4,4 -4,-136 499,-136 499,4 -4,4"/>
<!-- Node1 -->
<g id="node1" class="node"><title>Node1</title>
<polygon fill="#bfbfbf" stroke="black" points="188,-112.5 188,-131.5 244,-131.5 244,-112.5 188,-112.5"/>
<text text-anchor="middle" x="216" y="-119.5" font-family="Helvetica,sans-Serif" font-size="10.00">main.cpp</text>
</g>
<!-- Node2 -->
<g id="node2" class="node"><title>Node2</title>
<polygon fill="white" stroke="#bfbfbf" points="0,-56.5 0,-75.5 54,-75.5 54,-56.5 0,-56.5"/>
<text text-anchor="middle" x="27" y="-63.5" font-family="Helvetica,sans-Serif" font-size="10.00">iostream</text>
</g>
<!-- Node1&#45;&gt;Node2 -->
<g id="edge1" class="edge"><title>Node1&#45;&gt;Node2</title>
<path fill="none" stroke="midnightblue" d="M187.705,-112.916C154.76,-103.503 100.241,-87.9261 63.9726,-77.5636"/>
<polygon fill="midnightblue" stroke="midnightblue" points="64.8367,-74.1705 54.2599,-74.7885 62.9136,-80.9012 64.8367,-74.1705"/>
</g>
<!-- Node3 -->
<g id="node3" class="node"><title>Node3</title>
<polygon fill="white" stroke="#bfbfbf" points="72.5,-56.5 72.5,-75.5 121.5,-75.5 121.5,-56.5 72.5,-56.5"/>
<text text-anchor="middle" x="97" y="-63.5" font-family="Helvetica,sans-Serif" font-size="10.00">string.h</text>
</g>
<!-- Node1&#45;&gt;Node3 -->
<g id="edge2" class="edge"><title>Node1&#45;&gt;Node3</title>
<path fill="none" stroke="midnightblue" d="M197.144,-112.444C177.734,-103.636 147.27,-89.8116 125.035,-79.722"/>
<polygon fill="midnightblue" stroke="midnightblue" points="126.32,-76.4615 115.768,-75.5164 123.428,-82.836 126.32,-76.4615"/>
</g>
<!-- Node4 -->
<g id="node4" class="node"><title>Node4</title>
<g id="a_node4"><a xlink:href="msgs__pt_8h.html" target="_top" xlink:title="msgs_pt.h">
<polygon fill="white" stroke="black" points="140,-56.5 140,-75.5 202,-75.5 202,-56.5 140,-56.5"/>
<text text-anchor="middle" x="171" y="-63.5" font-family="Helvetica,sans-Serif" font-size="10.00">msgs_pt.h</text>
</a>
</g>
</g>
<!-- Node1&#45;&gt;Node4 -->
<g id="edge3" class="edge"><title>Node1&#45;&gt;Node4</title>
<path fill="none" stroke="midnightblue" d="M208.569,-112.083C202.147,-104.377 192.694,-93.0333 184.878,-83.6531"/>
<polygon fill="midnightblue" stroke="midnightblue" points="187.383,-81.1927 178.293,-75.7511 182.006,-85.674 187.383,-81.1927"/>
</g>
<!-- Node5 -->
<g id="node5" class="node"><title>Node5</title>
<g id="a_node5"><a xlink:href="preprocessor_8h.html" target="_top" xlink:title="preprocessor.h">
<polygon fill="white" stroke="black" points="220.5,-56.5 220.5,-75.5 301.5,-75.5 301.5,-56.5 220.5,-56.5"/>
<text text-anchor="middle" x="261" y="-63.5" font-family="Helvetica,sans-Serif" font-size="10.00">preprocessor.h</text>
</a>
</g>
</g>
<!-- Node1&#45;&gt;Node5 -->
<g id="edge4" class="edge"><title>Node1&#45;&gt;Node5</title>
<path fill="none" stroke="midnightblue" d="M223.431,-112.083C229.853,-104.377 239.306,-93.0333 247.122,-83.6531"/>
<polygon fill="midnightblue" stroke="midnightblue" points="249.994,-85.674 253.707,-75.7511 244.617,-81.1927 249.994,-85.674"/>
</g>
<!-- Node6 -->
<g id="node6" class="node"><title>Node6</title>
<g id="a_node6"><a xlink:href="assembler_8h.html" target="_top" xlink:title="assembler.h">
<polygon fill="white" stroke="black" points="320,-56.5 320,-75.5 390,-75.5 390,-56.5 320,-56.5"/>
<text text-anchor="middle" x="355" y="-63.5" font-family="Helvetica,sans-Serif" font-size="10.00">assembler.h</text>
</a>
</g>
</g>
<!-- Node1&#45;&gt;Node6 -->
<g id="edge5" class="edge"><title>Node1&#45;&gt;Node6</title>
<path fill="none" stroke="midnightblue" d="M238.025,-112.444C261.104,-103.478 297.562,-89.314 323.641,-79.1827"/>
<polygon fill="midnightblue" stroke="midnightblue" points="325.024,-82.4002 333.078,-75.5164 322.489,-75.8753 325.024,-82.4002"/>
</g>
<!-- Node7 -->
<g id="node7" class="node"><title>Node7</title>
<g id="a_node7"><a xlink:href="macroeval_8h.html" target="_top" xlink:title="macroeval.h">
<polygon fill="white" stroke="black" points="408,-56.5 408,-75.5 478,-75.5 478,-56.5 408,-56.5"/>
<text text-anchor="middle" x="443" y="-63.5" font-family="Helvetica,sans-Serif" font-size="10.00">macroeval.h</text>
</a>
</g>
</g>
<!-- Node1&#45;&gt;Node7 -->
<g id="edge6" class="edge"><title>Node1&#45;&gt;Node7</title>
<path fill="none" stroke="midnightblue" d="M244.291,-114.27C282.743,-105.123 351.943,-88.6612 397.678,-77.7815"/>
<polygon fill="midnightblue" stroke="midnightblue" points="398.71,-81.1337 407.629,-75.4143 397.09,-74.3237 398.71,-81.1337"/>
</g>
<!-- Node8 -->
<g id="node8" class="node"><title>Node8</title>
<polygon fill="white" stroke="#bfbfbf" points="391.5,-0.5 391.5,-19.5 432.5,-19.5 432.5,-0.5 391.5,-0.5"/>
<text text-anchor="middle" x="412" y="-7.5" font-family="Helvetica,sans-Serif" font-size="10.00">string</text>
</g>
<!-- Node7&#45;&gt;Node8 -->
<g id="edge7" class="edge"><title>Node7&#45;&gt;Node8</title>
<path fill="none" stroke="midnightblue" d="M437.881,-56.083C433.592,-48.6127 427.342,-37.7244 422.058,-28.5199"/>
<polygon fill="midnightblue" stroke="midnightblue" points="425.038,-26.6811 417.024,-19.7511 418.967,-30.1662 425.038,-26.6811"/>
</g>
<!-- Node9 -->
<g id="node9" class="node"><title>Node9</title>
<polygon fill="white" stroke="#bfbfbf" points="451,-0.5 451,-19.5 495,-19.5 495,-0.5 451,-0.5"/>
<text text-anchor="middle" x="473" y="-7.5" font-family="Helvetica,sans-Serif" font-size="10.00">vector</text>
</g>
<!-- Node7&#45;&gt;Node9 -->
<g id="edge8" class="edge"><title>Node7&#45;&gt;Node9</title>
<path fill="none" stroke="midnightblue" d="M447.954,-56.083C452.104,-48.6127 458.153,-37.7244 463.267,-28.5199"/>
<polygon fill="midnightblue" stroke="midnightblue" points="466.341,-30.1924 468.138,-19.7511 460.222,-26.7929 466.341,-30.1924"/>
</g>
</g>
</svg>
