<?xml version="1.0" encoding="UTF-8" standalone="no"?>
<!DOCTYPE svg PUBLIC "-//W3C//DTD SVG 1.1//EN"
 "http://www.w3.org/Graphics/SVG/1.1/DTD/svg11.dtd">
<!-- Generated by graphviz version 2.36.0 (20140111.2315)
 -->
<!-- Title: msgs_pt.h Pages: 1 -->
<svg width="621pt" height="84pt"
 viewBox="0.00 0.00 621.00 84.00" xmlns="http://www.w3.org/2000/svg" xmlns:xlink="http://www.w3.org/1999/xlink">
<g id="graph0" class="graph" transform="scale(1 1) rotate(0) translate(4 80)">
<title>msgs_pt.h</title>
<polygon fill="white" stroke="none" points="-4,4 -4,-80 617,-80 617,4 -4,4"/>
<!-- Node1 -->
<g id="node1" class="node"><title>Node1</title>
<polygon fill="#bfbfbf" stroke="black" points="265,-56.5 265,-75.5 327,-75.5 327,-56.5 265,-56.5"/>
<text text-anchor="middle" x="296" y="-63.5" font-family="Helvetica,sans-Serif" font-size="10.00">msgs_pt.h</text>
</g>
<!-- Node2 -->
<g id="node2" class="node"><title>Node2</title>
<g id="a_node2"><a xlink:href="assembler_8cpp.html" target="_top" xlink:title="assembler.cpp">
<polygon fill="white" stroke="black" points="0,-0.5 0,-19.5 80,-19.5 80,-0.5 0,-0.5"/>
<text text-anchor="middle" x="40" y="-7.5" font-family="Helvetica,sans-Serif" font-size="10.00">assembler.cpp</text>
</a>
</g>
</g>
<!-- Node1&#45;&gt;Node2 -->
<g id="edge1" class="edge"><title>Node1&#45;&gt;Node2</title>
<path fill="none" stroke="midnightblue" d="M254.808,-56.311C206.738,-46.1714 127.782,-29.5166 80.1605,-19.4714"/>
<polygon fill="midnightblue" stroke="midnightblue" points="254.358,-59.7931 264.865,-58.4325 255.803,-52.9439 254.358,-59.7931"/>
</g>
<!-- Node3 -->
<g id="node3" class="node"><title>Node3</title>
<g id="a_node3"><a xlink:href="linker_8cpp.html" target="_top" xlink:title="linker.cpp">
<polygon fill="white" stroke="black" points="98.5,-0.5 98.5,-19.5 157.5,-19.5 157.5,-0.5 98.5,-0.5"/>
<text text-anchor="middle" x="128" y="-7.5" font-family="Helvetica,sans-Serif" font-size="10.00">linker.cpp</text>
</a>
</g>
</g>
<!-- Node1&#45;&gt;Node3 -->
<g id="edge2" class="edge"><title>Node1&#45;&gt;Node3</title>
<path fill="none" stroke="midnightblue" d="M259.614,-53.3044C227.958,-43.1294 182.832,-28.6246 154.496,-19.5164"/>
<polygon fill="midnightblue" stroke="midnightblue" points="258.789,-56.7155 269.38,-56.4435 260.931,-50.0513 258.789,-56.7155"/>
</g>
<!-- Node4 -->
<g id="node4" class="node"><title>Node4</title>
<g id="a_node4"><a xlink:href="loader_8cpp.html" target="_top" xlink:title="loader.cpp">
<polygon fill="white" stroke="black" points="176,-0.5 176,-19.5 238,-19.5 238,-0.5 176,-0.5"/>
<text text-anchor="middle" x="207" y="-7.5" font-family="Helvetica,sans-Serif" font-size="10.00">loader.cpp</text>
</a>
</g>
</g>
<!-- Node1&#45;&gt;Node4 -->
<g id="edge3" class="edge"><title>Node1&#45;&gt;Node4</title>
<path fill="none" stroke="midnightblue" d="M272.762,-50.9005C256.442,-40.9986 235.135,-28.0705 221.264,-19.6545"/>
<polygon fill="midnightblue" stroke="midnightblue" points="271.336,-54.1289 281.701,-56.324 274.967,-48.1444 271.336,-54.1289"/>
</g>
<!-- Node5 -->
<g id="node5" class="node"><title>Node5</title>
<g id="a_node5"><a xlink:href="macroeval_8cpp.html" target="_top" xlink:title="macroeval.cpp">
<polygon fill="white" stroke="black" points="256,-0.5 256,-19.5 336,-19.5 336,-0.5 256,-0.5"/>
<text text-anchor="middle" x="296" y="-7.5" font-family="Helvetica,sans-Serif" font-size="10.00">macroeval.cpp</text>
</a>
</g>
</g>
<!-- Node1&#45;&gt;Node5 -->
<g id="edge4" class="edge"><title>Node1&#45;&gt;Node5</title>
<path fill="none" stroke="midnightblue" d="M296,-45.8045C296,-36.9102 296,-26.7798 296,-19.7511"/>
<polygon fill="midnightblue" stroke="midnightblue" points="292.5,-46.083 296,-56.083 299.5,-46.083 292.5,-46.083"/>
</g>
<!-- Node6 -->
<g id="node6" class="node"><title>Node6</title>
<g id="a_node6"><a xlink:href="main_8cpp.html" target="_top" xlink:title="main.cpp">
<polygon fill="white" stroke="black" points="354,-0.5 354,-19.5 410,-19.5 410,-0.5 354,-0.5"/>
<text text-anchor="middle" x="382" y="-7.5" font-family="Helvetica,sans-Serif" font-size="10.00">main.cpp</text>
</a>
</g>
</g>
<!-- Node1&#45;&gt;Node6 -->
<g id="edge5" class="edge"><title>Node1&#45;&gt;Node6</title>
<path fill="none" stroke="midnightblue" d="M318.455,-50.9005C334.224,-40.9986 354.814,-28.0705 368.217,-19.6545"/>
<polygon fill="midnightblue" stroke="midnightblue" points="316.425,-48.0421 309.817,-56.324 320.148,-53.9704 316.425,-48.0421"/>
</g>
<!-- Node7 -->
<g id="node7" class="node"><title>Node7</title>
<g id="a_node7"><a xlink:href="preprocessor_8cpp.html" target="_top" xlink:title="preprocessor.cpp">
<polygon fill="white" stroke="black" points="428,-0.5 428,-19.5 520,-19.5 520,-0.5 428,-0.5"/>
<text text-anchor="middle" x="474" y="-7.5" font-family="Helvetica,sans-Serif" font-size="10.00">preprocessor.cpp</text>
</a>
</g>
</g>
<!-- Node1&#45;&gt;Node7 -->
<g id="edge6" class="edge"><title>Node1&#45;&gt;Node7</title>
<path fill="none" stroke="midnightblue" d="M334.117,-53.4363C367.678,-43.2551 415.774,-28.664 445.927,-19.5164"/>
<polygon fill="midnightblue" stroke="midnightblue" points="332.758,-50.1911 324.205,-56.4435 334.79,-56.8897 332.758,-50.1911"/>
</g>
<!-- Node8 -->
<g id="node8" class="node"><title>Node8</title>
<g id="a_node8"><a xlink:href="simulator_8cpp.html" target="_top" xlink:title="simulator.cpp">
<polygon fill="white" stroke="black" points="538.5,-0.5 538.5,-19.5 613.5,-19.5 613.5,-0.5 538.5,-0.5"/>
<text text-anchor="middle" x="576" y="-7.5" font-family="Helvetica,sans-Serif" font-size="10.00">simulator.cpp</text>
</a>
</g>
</g>
<!-- Node1&#45;&gt;Node8 -->
<g id="edge7" class="edge"><title>Node1&#45;&gt;Node8</title>
<path fill="none" stroke="midnightblue" d="M336.971,-57.0984C391.084,-46.6623 485.646,-28.4254 538.149,-18.2998"/>
<polygon fill="midnightblue" stroke="midnightblue" points="336.191,-53.6843 327.035,-59.0147 337.517,-60.5576 336.191,-53.6843"/>
</g>
</g>
</svg>
