<?xml version="1.0" encoding="UTF-8" standalone="no"?>
<!DOCTYPE svg PUBLIC "-//W3C//DTD SVG 1.1//EN"
 "http://www.w3.org/Graphics/SVG/1.1/DTD/svg11.dtd">
<!-- Generated by graphviz version 2.36.0 (20140111.2315)
 -->
<!-- Title: parser.cpp Pages: 1 -->
<svg width="181pt" height="140pt"
 viewBox="0.00 0.00 181.00 140.00" xmlns="http://www.w3.org/2000/svg" xmlns:xlink="http://www.w3.org/1999/xlink">
<g id="graph0" class="graph" transform="scale(1 1) rotate(0) translate(4 136)">
<title>parser.cpp</title>
<polygon fill="white" stroke="none" points="-4,4 -4,-136 177,-136 177,4 -4,4"/>
<!-- Node1 -->
<g id="node1" class="node"><title>Node1</title>
<polygon fill="#bfbfbf" stroke="black" points="68,-112.5 68,-131.5 130,-131.5 130,-112.5 68,-112.5"/>
<text text-anchor="middle" x="99" y="-119.5" font-family="Helvetica,sans-Serif" font-size="10.00">parser.cpp</text>
</g>
<!-- Node2 -->
<g id="node2" class="node"><title>Node2</title>
<g id="a_node2"><a xlink:href="languagedefinition_8h.html" target="_top" xlink:title="languagedefinition.h">
<polygon fill="white" stroke="black" points="-0.5,-56.5 -0.5,-75.5 102.5,-75.5 102.5,-56.5 -0.5,-56.5"/>
<text text-anchor="middle" x="51" y="-63.5" font-family="Helvetica,sans-Serif" font-size="10.00">languagedefinition.h</text>
</a>
</g>
</g>
<!-- Node1&#45;&gt;Node2 -->
<g id="edge1" class="edge"><title>Node1&#45;&gt;Node2</title>
<path fill="none" stroke="midnightblue" d="M91.0738,-112.083C84.1539,-104.298 73.9346,-92.8015 65.548,-83.3665"/>
<polygon fill="midnightblue" stroke="midnightblue" points="68.0383,-80.8999 58.7787,-75.7511 62.8065,-85.5505 68.0383,-80.8999"/>
</g>
<!-- Node3 -->
<g id="node3" class="node"><title>Node3</title>
<g id="a_node3"><a xlink:href="parser_8h.html" target="_top" xlink:title="parser.h">
<polygon fill="white" stroke="black" points="121,-56.5 121,-75.5 173,-75.5 173,-56.5 121,-56.5"/>
<text text-anchor="middle" x="147" y="-63.5" font-family="Helvetica,sans-Serif" font-size="10.00">parser.h</text>
</a>
</g>
</g>
<!-- Node1&#45;&gt;Node3 -->
<g id="edge2" class="edge"><title>Node1&#45;&gt;Node3</title>
<path fill="none" stroke="midnightblue" d="M106.926,-112.083C113.846,-104.298 124.065,-92.8015 132.452,-83.3665"/>
<polygon fill="midnightblue" stroke="midnightblue" points="135.194,-85.5505 139.221,-75.7511 129.962,-80.8999 135.194,-85.5505"/>
</g>
<!-- Node4 -->
<g id="node4" class="node"><title>Node4</title>
<polygon fill="white" stroke="#bfbfbf" points="126.5,-0.5 126.5,-19.5 167.5,-19.5 167.5,-0.5 126.5,-0.5"/>
<text text-anchor="middle" x="147" y="-7.5" font-family="Helvetica,sans-Serif" font-size="10.00">string</text>
</g>
<!-- Node3&#45;&gt;Node4 -->
<g id="edge3" class="edge"><title>Node3&#45;&gt;Node4</title>
<path fill="none" stroke="midnightblue" d="M147,-56.083C147,-49.0059 147,-38.8611 147,-29.9865"/>
<polygon fill="midnightblue" stroke="midnightblue" points="150.5,-29.751 147,-19.7511 143.5,-29.7511 150.5,-29.751"/>
</g>
</g>
</svg>
