<?xml version="1.0" encoding="UTF-8" standalone="no"?>
<!DOCTYPE svg PUBLIC "-//W3C//DTD SVG 1.1//EN"
 "http://www.w3.org/Graphics/SVG/1.1/DTD/svg11.dtd">
<!-- Generated by graphviz version 2.36.0 (20140111.2315)
 -->
<!-- Title: findLabel Pages: 1 -->
<svg width="440pt" height="213pt"
 viewBox="0.00 0.00 440.00 212.58" xmlns="http://www.w3.org/2000/svg" xmlns:xlink="http://www.w3.org/1999/xlink">
<g id="graph0" class="graph" transform="scale(1 1) rotate(0) translate(4 208.576)">
<title>findLabel</title>
<polygon fill="white" stroke="none" points="-4,4 -4,-208.576 436,-208.576 436,4 -4,4"/>
<!-- Node1 -->
<g id="node1" class="node"><title>Node1</title>
<polygon fill="#bfbfbf" stroke="black" points="0,-95.5 0,-114.5 56,-114.5 56,-95.5 0,-95.5"/>
<text text-anchor="middle" x="28" y="-102.5" font-family="Helvetica,sans-Serif" font-size="10.00">findLabel</text>
</g>
<!-- Node2 -->
<g id="node2" class="node"><title>Node2</title>
<g id="a_node2"><a xlink:href="assembler_8h.html#a368a4f7b83093ab74e79be4ceeb11e3d" target="_top" xlink:title="assembler">
<polygon fill="white" stroke="black" points="296,-95.5 296,-114.5 358,-114.5 358,-95.5 296,-95.5"/>
<text text-anchor="middle" x="327" y="-102.5" font-family="Helvetica,sans-Serif" font-size="10.00">assembler</text>
</a>
</g>
</g>
<!-- Node1&#45;&gt;Node2 -->
<g id="edge1" class="edge"><title>Node1&#45;&gt;Node2</title>
<path fill="none" stroke="midnightblue" d="M38.0993,-123.472C48.3409,-141.926 66.8876,-169.198 92,-181 159.576,-212.758 192.064,-211.981 260,-181 290.369,-167.151 312.161,-131.661 321.27,-114.532"/>
<polygon fill="midnightblue" stroke="midnightblue" points="41.1433,-121.741 33.3923,-114.518 34.9473,-124.998 41.1433,-121.741"/>
</g>
<!-- Node4 -->
<g id="node4" class="node"><title>Node4</title>
<g id="a_node4"><a xlink:href="assembler_8cpp.html#a54fad2c006413b60d87eea48e412471b" target="_top" xlink:title="addNewLabel">
<polygon fill="white" stroke="black" points="138,-152.5 138,-171.5 214,-171.5 214,-152.5 138,-152.5"/>
<text text-anchor="middle" x="176" y="-159.5" font-family="Helvetica,sans-Serif" font-size="10.00">addNewLabel</text>
</a>
</g>
</g>
<!-- Node1&#45;&gt;Node4 -->
<g id="edge3" class="edge"><title>Node1&#45;&gt;Node4</title>
<path fill="none" stroke="midnightblue" d="M50.6298,-120.401C62.3891,-128.155 77.4659,-137.129 92,-143 106.529,-148.869 123.256,-153.135 137.87,-156.12"/>
<polygon fill="midnightblue" stroke="midnightblue" points="52.5881,-117.5 42.348,-114.782 48.6577,-123.293 52.5881,-117.5"/>
</g>
<!-- Node5 -->
<g id="node5" class="node"><title>Node5</title>
<g id="a_node5"><a xlink:href="assembler_8cpp.html#a45dcd38a718d16b9fdcda1e45c4ad5de" target="_top" xlink:title="addNewSymbolINST1">
<polygon fill="white" stroke="black" points="119,-114.5 119,-133.5 233,-133.5 233,-114.5 119,-114.5"/>
<text text-anchor="middle" x="176" y="-121.5" font-family="Helvetica,sans-Serif" font-size="10.00">addNewSymbolINST1</text>
</a>
</g>
</g>
<!-- Node1&#45;&gt;Node5 -->
<g id="edge5" class="edge"><title>Node1&#45;&gt;Node5</title>
<path fill="none" stroke="midnightblue" d="M66.1681,-109.837C82.2032,-111.924 101.306,-114.41 118.998,-116.712"/>
<polygon fill="midnightblue" stroke="midnightblue" points="66.4874,-106.349 56.1193,-108.529 65.584,-113.291 66.4874,-106.349"/>
</g>
<!-- Node6 -->
<g id="node6" class="node"><title>Node6</title>
<g id="a_node6"><a xlink:href="assembler_8cpp.html#ad85cc701dcbc6e69b1c273a99c2262d8" target="_top" xlink:title="addNewSymbolINST1PLUS">
<polygon fill="white" stroke="black" points="106,-76.5 106,-95.5 246,-95.5 246,-76.5 106,-76.5"/>
<text text-anchor="middle" x="176" y="-83.5" font-family="Helvetica,sans-Serif" font-size="10.00">addNewSymbolINST1PLUS</text>
</a>
</g>
</g>
<!-- Node1&#45;&gt;Node6 -->
<g id="edge7" class="edge"><title>Node1&#45;&gt;Node6</title>
<path fill="none" stroke="midnightblue" d="M66.2473,-100.153C78.3359,-98.5796 92.1613,-96.7804 105.809,-95.0043"/>
<polygon fill="midnightblue" stroke="midnightblue" points="65.584,-96.7095 56.1193,-101.471 66.4874,-103.651 65.584,-96.7095"/>
</g>
<!-- Node7 -->
<g id="node7" class="node"><title>Node7</title>
<g id="a_node7"><a xlink:href="assembler_8cpp.html#a4b08bb4206172aa8ae36e47f8298e274" target="_top" xlink:title="addNewSymbolINST2">
<polygon fill="white" stroke="black" points="119,-38.5 119,-57.5 233,-57.5 233,-38.5 119,-38.5"/>
<text text-anchor="middle" x="176" y="-45.5" font-family="Helvetica,sans-Serif" font-size="10.00">addNewSymbolINST2</text>
</a>
</g>
</g>
<!-- Node1&#45;&gt;Node7 -->
<g id="edge9" class="edge"><title>Node1&#45;&gt;Node7</title>
<path fill="none" stroke="midnightblue" d="M50.6298,-89.5987C62.3891,-81.8453 77.4659,-72.8708 92,-67 101.32,-63.2352 111.546,-60.1298 121.537,-57.5992"/>
<polygon fill="midnightblue" stroke="midnightblue" points="48.6577,-86.7071 42.348,-95.2182 52.5881,-92.4996 48.6577,-86.7071"/>
</g>
<!-- Node8 -->
<g id="node8" class="node"><title>Node8</title>
<g id="a_node8"><a xlink:href="assembler_8cpp.html#a23fbad662368f294c55a33dfa57a904c" target="_top" xlink:title="addNewSymbolINST2PLUSPLUS">
<polygon fill="white" stroke="black" points="92.5,-0.5 92.5,-19.5 259.5,-19.5 259.5,-0.5 92.5,-0.5"/>
<text text-anchor="middle" x="176" y="-7.5" font-family="Helvetica,sans-Serif" font-size="10.00">addNewSymbolINST2PLUSPLUS</text>
</a>
</g>
</g>
<!-- Node1&#45;&gt;Node8 -->
<g id="edge11" class="edge"><title>Node1&#45;&gt;Node8</title>
<path fill="none" stroke="midnightblue" d="M39.3625,-86.5636C50.2005,-69.0218 68.8498,-43.2523 92,-29 98.2941,-25.1251 105.296,-22.039 112.488,-19.5815"/>
<polygon fill="midnightblue" stroke="midnightblue" points="36.2507,-84.9495 34.1661,-95.3373 42.2736,-88.5168 36.2507,-84.9495"/>
</g>
<!-- Node3 -->
<g id="node3" class="node"><title>Node3</title>
<g id="a_node3"><a xlink:href="main_8cpp.html#a3c04138a5bfe5d72780bb7e82a18e627" target="_top" xlink:title="main">
<polygon fill="white" stroke="black" points="394,-95.5 394,-114.5 432,-114.5 432,-95.5 394,-95.5"/>
<text text-anchor="middle" x="413" y="-102.5" font-family="Helvetica,sans-Serif" font-size="10.00">main</text>
</a>
</g>
</g>
<!-- Node2&#45;&gt;Node3 -->
<g id="edge2" class="edge"><title>Node2&#45;&gt;Node3</title>
<path fill="none" stroke="midnightblue" d="M368.544,-105C377.361,-105 386.264,-105 393.696,-105"/>
<polygon fill="midnightblue" stroke="midnightblue" points="368.326,-101.5 358.326,-105 368.326,-108.5 368.326,-101.5"/>
</g>
<!-- Node4&#45;&gt;Node2 -->
<g id="edge4" class="edge"><title>Node4&#45;&gt;Node2</title>
<path fill="none" stroke="midnightblue" d="M223.915,-153.815C235.894,-151.035 248.603,-147.469 260,-143 279.079,-135.518 299.25,-123.166 312.196,-114.584"/>
<polygon fill="midnightblue" stroke="midnightblue" points="223.091,-150.412 214.069,-155.967 224.586,-157.251 223.091,-150.412"/>
</g>
<!-- Node5&#45;&gt;Node2 -->
<g id="edge6" class="edge"><title>Node5&#45;&gt;Node2</title>
<path fill="none" stroke="midnightblue" d="M243.422,-115.53C261.762,-113.191 280.762,-110.769 295.906,-108.837"/>
<polygon fill="midnightblue" stroke="midnightblue" points="242.807,-112.08 233.331,-116.817 243.693,-119.024 242.807,-112.08"/>
</g>
<!-- Node6&#45;&gt;Node2 -->
<g id="edge8" class="edge"><title>Node6&#45;&gt;Node2</title>
<path fill="none" stroke="midnightblue" d="M256.523,-96.1405C270.59,-97.9344 284.418,-99.6976 295.988,-101.173"/>
<polygon fill="midnightblue" stroke="midnightblue" points="256.628,-92.6256 246.266,-94.8325 255.742,-99.5694 256.628,-92.6256"/>
</g>
<!-- Node7&#45;&gt;Node2 -->
<g id="edge10" class="edge"><title>Node7&#45;&gt;Node2</title>
<path fill="none" stroke="midnightblue" d="M239.202,-60.1006C246.311,-62.1106 253.377,-64.4028 260,-67 279.079,-74.4819 299.25,-86.8342 312.196,-95.4164"/>
<polygon fill="midnightblue" stroke="midnightblue" points="240.083,-56.7133 229.52,-57.5323 238.289,-63.4793 240.083,-56.7133"/>
</g>
<!-- Node8&#45;&gt;Node2 -->
<g id="edge12" class="edge"><title>Node8&#45;&gt;Node2</title>
<path fill="none" stroke="midnightblue" d="M248.505,-23.1774C252.5,-24.887 256.364,-26.8183 260,-29 288.173,-45.9017 310.561,-78.9663 320.467,-95.3394"/>
<polygon fill="midnightblue" stroke="midnightblue" points="249.585,-19.8437 238.993,-19.577 247.107,-26.3904 249.585,-19.8437"/>
</g>
</g>
</svg>
