<?xml version="1.0" encoding="UTF-8" standalone="no"?>
<!DOCTYPE svg PUBLIC "-//W3C//DTD SVG 1.1//EN"
 "http://www.w3.org/Graphics/SVG/1.1/DTD/svg11.dtd">
<!-- Generated by graphviz version 2.36.0 (20140111.2315)
 -->
<!-- Title: isValidInstructionCall Pages: 1 -->
<svg width="466pt" height="256pt"
 viewBox="0.00 0.00 466.00 256.00" xmlns="http://www.w3.org/2000/svg" xmlns:xlink="http://www.w3.org/1999/xlink">
<g id="graph0" class="graph" transform="scale(1 1) rotate(0) translate(4 252)">
<title>isValidInstructionCall</title>
<polygon fill="white" stroke="none" points="-4,4 -4,-252 462,-252 462,4 -4,4"/>
<!-- Node1 -->
<g id="node1" class="node"><title>Node1</title>
<polygon fill="#bfbfbf" stroke="black" points="0.5,-114.5 0.5,-133.5 109.5,-133.5 109.5,-114.5 0.5,-114.5"/>
<text text-anchor="middle" x="55" y="-121.5" font-family="Helvetica,sans-Serif" font-size="10.00">isValidInstructionCall</text>
</g>
<!-- Node2 -->
<g id="node2" class="node"><title>Node2</title>
<g id="a_node2"><a xlink:href="assembler_8cpp.html#a54fad2c006413b60d87eea48e412471b" target="_top" xlink:title="addNewLabel">
<polygon fill="white" stroke="black" points="178,-228.5 178,-247.5 254,-247.5 254,-228.5 178,-228.5"/>
<text text-anchor="middle" x="216" y="-235.5" font-family="Helvetica,sans-Serif" font-size="10.00">addNewLabel</text>
</a>
</g>
</g>
<!-- Node1&#45;&gt;Node2 -->
<g id="edge1" class="edge"><title>Node1&#45;&gt;Node2</title>
<path fill="none" stroke="midnightblue" d="M68.2629,-141.994C83.8503,-163.493 112.762,-199.051 146,-219 155.588,-224.755 166.963,-228.811 177.683,-231.653"/>
<polygon fill="midnightblue" stroke="midnightblue" points="71.0524,-139.877 62.4245,-133.728 65.3347,-143.915 71.0524,-139.877"/>
</g>
<!-- Node5 -->
<g id="node5" class="node"><title>Node5</title>
<g id="a_node5"><a xlink:href="assembler_8cpp.html#a33535e8f85da588842c21d65d304f740" target="_top" xlink:title="addNewSymbolINST0">
<polygon fill="white" stroke="black" points="159,-190.5 159,-209.5 273,-209.5 273,-190.5 159,-190.5"/>
<text text-anchor="middle" x="216" y="-197.5" font-family="Helvetica,sans-Serif" font-size="10.00">addNewSymbolINST0</text>
</a>
</g>
</g>
<!-- Node1&#45;&gt;Node5 -->
<g id="edge4" class="edge"><title>Node1&#45;&gt;Node5</title>
<path fill="none" stroke="midnightblue" d="M76.8095,-139.698C94.4374,-152.363 120.796,-169.846 146,-181 154.408,-184.721 163.721,-187.878 172.712,-190.487"/>
<polygon fill="midnightblue" stroke="midnightblue" points="78.5766,-136.655 68.4394,-133.574 74.4431,-142.304 78.5766,-136.655"/>
</g>
<!-- Node6 -->
<g id="node6" class="node"><title>Node6</title>
<g id="a_node6"><a xlink:href="assembler_8cpp.html#a45dcd38a718d16b9fdcda1e45c4ad5de" target="_top" xlink:title="addNewSymbolINST1">
<polygon fill="white" stroke="black" points="159,-152.5 159,-171.5 273,-171.5 273,-152.5 159,-152.5"/>
<text text-anchor="middle" x="216" y="-159.5" font-family="Helvetica,sans-Serif" font-size="10.00">addNewSymbolINST1</text>
</a>
</g>
</g>
<!-- Node1&#45;&gt;Node6 -->
<g id="edge6" class="edge"><title>Node1&#45;&gt;Node6</title>
<path fill="none" stroke="midnightblue" d="M106.077,-135.968C128.358,-141.293 154.229,-147.476 175.166,-152.48"/>
<polygon fill="midnightblue" stroke="midnightblue" points="106.662,-132.509 96.1224,-133.589 105.035,-139.318 106.662,-132.509"/>
</g>
<!-- Node7 -->
<g id="node7" class="node"><title>Node7</title>
<g id="a_node7"><a xlink:href="assembler_8cpp.html#ad85cc701dcbc6e69b1c273a99c2262d8" target="_top" xlink:title="addNewSymbolINST1PLUS">
<polygon fill="white" stroke="black" points="146,-114.5 146,-133.5 286,-133.5 286,-114.5 146,-114.5"/>
<text text-anchor="middle" x="216" y="-121.5" font-family="Helvetica,sans-Serif" font-size="10.00">addNewSymbolINST1PLUS</text>
</a>
</g>
</g>
<!-- Node1&#45;&gt;Node7 -->
<g id="edge8" class="edge"><title>Node1&#45;&gt;Node7</title>
<path fill="none" stroke="midnightblue" d="M120.006,-124C128.469,-124 137.176,-124 145.723,-124"/>
<polygon fill="midnightblue" stroke="midnightblue" points="119.83,-120.5 109.83,-124 119.83,-127.5 119.83,-120.5"/>
</g>
<!-- Node8 -->
<g id="node8" class="node"><title>Node8</title>
<g id="a_node8"><a xlink:href="assembler_8cpp.html#a53bd42138e87fabd2519a34abbf40b55" target="_top" xlink:title="addNewSymbolINST1NUM">
<polygon fill="white" stroke="black" points="147.5,-76.5 147.5,-95.5 284.5,-95.5 284.5,-76.5 147.5,-76.5"/>
<text text-anchor="middle" x="216" y="-83.5" font-family="Helvetica,sans-Serif" font-size="10.00">addNewSymbolINST1NUM</text>
</a>
</g>
</g>
<!-- Node1&#45;&gt;Node8 -->
<g id="edge10" class="edge"><title>Node1&#45;&gt;Node8</title>
<path fill="none" stroke="midnightblue" d="M106.077,-112.032C128.358,-106.707 154.229,-100.524 175.166,-95.5201"/>
<polygon fill="midnightblue" stroke="midnightblue" points="105.035,-108.682 96.1224,-114.411 106.662,-115.491 105.035,-108.682"/>
</g>
<!-- Node9 -->
<g id="node9" class="node"><title>Node9</title>
<g id="a_node9"><a xlink:href="assembler_8cpp.html#a4b08bb4206172aa8ae36e47f8298e274" target="_top" xlink:title="addNewSymbolINST2">
<polygon fill="white" stroke="black" points="159,-38.5 159,-57.5 273,-57.5 273,-38.5 159,-38.5"/>
<text text-anchor="middle" x="216" y="-45.5" font-family="Helvetica,sans-Serif" font-size="10.00">addNewSymbolINST2</text>
</a>
</g>
</g>
<!-- Node1&#45;&gt;Node9 -->
<g id="edge12" class="edge"><title>Node1&#45;&gt;Node9</title>
<path fill="none" stroke="midnightblue" d="M76.8095,-108.302C94.4374,-95.6374 120.796,-78.154 146,-67 154.408,-63.2791 163.721,-60.1218 172.712,-57.5131"/>
<polygon fill="midnightblue" stroke="midnightblue" points="74.4431,-105.696 68.4394,-114.426 78.5766,-111.345 74.4431,-105.696"/>
</g>
<!-- Node10 -->
<g id="node10" class="node"><title>Node10</title>
<g id="a_node10"><a xlink:href="parser_8h.html#a630c1bfba8f4ed9490db77c6146d6f7f" target="_top" xlink:title="isValidInstructionCall">
<polygon fill="white" stroke="black" points="161.5,-0.5 161.5,-19.5 270.5,-19.5 270.5,-0.5 161.5,-0.5"/>
<text text-anchor="middle" x="216" y="-7.5" font-family="Helvetica,sans-Serif" font-size="10.00">isValidInstructionCall</text>
</a>
</g>
</g>
<!-- Node1&#45;&gt;Node10 -->
<g id="edge14" class="edge"><title>Node1&#45;&gt;Node10</title>
<path fill="none" stroke="midnightblue" d="M68.2629,-106.006C83.8503,-84.5074 112.762,-48.9489 146,-29 152.392,-25.1635 159.578,-22.0817 166.835,-19.6115"/>
<polygon fill="midnightblue" stroke="midnightblue" points="65.3347,-104.085 62.4245,-114.272 71.0524,-108.123 65.3347,-104.085"/>
</g>
<!-- Node3 -->
<g id="node3" class="node"><title>Node3</title>
<g id="a_node3"><a xlink:href="assembler_8h.html#a368a4f7b83093ab74e79be4ceeb11e3d" target="_top" xlink:title="assembler">
<polygon fill="white" stroke="black" points="322,-133.5 322,-152.5 384,-152.5 384,-133.5 322,-133.5"/>
<text text-anchor="middle" x="353" y="-140.5" font-family="Helvetica,sans-Serif" font-size="10.00">assembler</text>
</a>
</g>
</g>
<!-- Node2&#45;&gt;Node3 -->
<g id="edge2" class="edge"><title>Node2&#45;&gt;Node3</title>
<path fill="none" stroke="midnightblue" d="M263.871,-229.12C271.599,-226.544 279.274,-223.238 286,-219 313.797,-201.487 336.361,-168.709 346.387,-152.531"/>
<polygon fill="midnightblue" stroke="midnightblue" points="262.715,-225.812 254.12,-232.007 264.702,-232.524 262.715,-225.812"/>
</g>
<!-- Node4 -->
<g id="node4" class="node"><title>Node4</title>
<g id="a_node4"><a xlink:href="main_8cpp.html#a3c04138a5bfe5d72780bb7e82a18e627" target="_top" xlink:title="main">
<polygon fill="white" stroke="black" points="420,-133.5 420,-152.5 458,-152.5 458,-133.5 420,-133.5"/>
<text text-anchor="middle" x="439" y="-140.5" font-family="Helvetica,sans-Serif" font-size="10.00">main</text>
</a>
</g>
</g>
<!-- Node3&#45;&gt;Node4 -->
<g id="edge3" class="edge"><title>Node3&#45;&gt;Node4</title>
<path fill="none" stroke="midnightblue" d="M394.544,-143C403.361,-143 412.264,-143 419.696,-143"/>
<polygon fill="midnightblue" stroke="midnightblue" points="394.326,-139.5 384.326,-143 394.326,-146.5 394.326,-139.5"/>
</g>
<!-- Node5&#45;&gt;Node3 -->
<g id="edge5" class="edge"><title>Node5&#45;&gt;Node3</title>
<path fill="none" stroke="midnightblue" d="M268.042,-187.527C274.172,-185.566 280.282,-183.388 286,-181 304.789,-173.154 324.857,-160.997 337.865,-152.554"/>
<polygon fill="midnightblue" stroke="midnightblue" points="267.004,-184.184 258.443,-190.426 269.028,-190.885 267.004,-184.184"/>
</g>
<!-- Node6&#45;&gt;Node3 -->
<g id="edge7" class="edge"><title>Node6&#45;&gt;Node3</title>
<path fill="none" stroke="midnightblue" d="M283.316,-152.667C296.764,-150.774 310.275,-148.872 321.713,-147.263"/>
<polygon fill="midnightblue" stroke="midnightblue" points="282.494,-149.248 273.079,-154.107 283.47,-156.179 282.494,-149.248"/>
</g>
<!-- Node7&#45;&gt;Node3 -->
<g id="edge9" class="edge"><title>Node7&#45;&gt;Node3</title>
<path fill="none" stroke="midnightblue" d="M294.914,-134.966C304.46,-136.309 313.721,-137.613 321.909,-138.765"/>
<polygon fill="midnightblue" stroke="midnightblue" points="295.286,-131.484 284.896,-133.556 294.31,-138.415 295.286,-131.484"/>
</g>
<!-- Node8&#45;&gt;Node3 -->
<g id="edge11" class="edge"><title>Node8&#45;&gt;Node3</title>
<path fill="none" stroke="midnightblue" d="M268.042,-98.4734C274.172,-100.434 280.282,-102.612 286,-105 304.789,-112.846 324.857,-125.003 337.865,-133.446"/>
<polygon fill="midnightblue" stroke="midnightblue" points="269.028,-95.1152 258.443,-95.574 267.004,-101.816 269.028,-95.1152"/>
</g>
<!-- Node9&#45;&gt;Node3 -->
<g id="edge13" class="edge"><title>Node9&#45;&gt;Node3</title>
<path fill="none" stroke="midnightblue" d="M275.407,-61.3599C279.098,-63.0273 282.666,-64.8992 286,-67 313.797,-84.5127 336.361,-117.291 346.387,-133.469"/>
<polygon fill="midnightblue" stroke="midnightblue" points="276.622,-58.0766 266.037,-57.6222 274.028,-64.5784 276.622,-58.0766"/>
</g>
</g>
</svg>
