<?xml version="1.0" encoding="UTF-8" standalone="no"?>
<!DOCTYPE svg PUBLIC "-//W3C//DTD SVG 1.1//EN"
 "http://www.w3.org/Graphics/SVG/1.1/DTD/svg11.dtd">
<!-- Generated by graphviz version 2.36.0 (20140111.2315)
 -->
<!-- Title: isValidInstructionCall Pages: 1 -->
<svg width="494pt" height="294pt"
 viewBox="0.00 0.00 494.00 294.00" xmlns="http://www.w3.org/2000/svg" xmlns:xlink="http://www.w3.org/1999/xlink">
<g id="graph0" class="graph" transform="scale(1 1) rotate(0) translate(4 290)">
<title>isValidInstructionCall</title>
<polygon fill="white" stroke="none" points="-4,4 -4,-290 490,-290 490,4 -4,4"/>
<!-- Node1 -->
<g id="node1" class="node"><title>Node1</title>
<polygon fill="#bfbfbf" stroke="black" points="0.5,-133.5 0.5,-152.5 109.5,-152.5 109.5,-133.5 0.5,-133.5"/>
<text text-anchor="middle" x="55" y="-140.5" font-family="Helvetica,sans-Serif" font-size="10.00">isValidInstructionCall</text>
</g>
<!-- Node2 -->
<g id="node2" class="node"><title>Node2</title>
<g id="a_node2"><a xlink:href="assembler_8cpp.html#a54fad2c006413b60d87eea48e412471b" target="_top" xlink:title="addNewLabel">
<polygon fill="white" stroke="black" points="192,-266.5 192,-285.5 268,-285.5 268,-266.5 192,-266.5"/>
<text text-anchor="middle" x="230" y="-273.5" font-family="Helvetica,sans-Serif" font-size="10.00">addNewLabel</text>
</a>
</g>
</g>
<!-- Node1&#45;&gt;Node2 -->
<g id="edge1" class="edge"><title>Node1&#45;&gt;Node2</title>
<path fill="none" stroke="midnightblue" d="M65.5389,-161.861C79.5488,-187.554 108.18,-233.089 146,-257 159.619,-265.61 176.688,-270.333 191.8,-272.918"/>
<polygon fill="midnightblue" stroke="midnightblue" points="68.5071,-159.986 60.7453,-152.774 62.3159,-163.252 68.5071,-159.986"/>
</g>
<!-- Node5 -->
<g id="node5" class="node"><title>Node5</title>
<g id="a_node5"><a xlink:href="assembler_8cpp.html#a33535e8f85da588842c21d65d304f740" target="_top" xlink:title="addNewSymbolINST0">
<polygon fill="white" stroke="black" points="173,-228.5 173,-247.5 287,-247.5 287,-228.5 173,-228.5"/>
<text text-anchor="middle" x="230" y="-235.5" font-family="Helvetica,sans-Serif" font-size="10.00">addNewSymbolINST0</text>
</a>
</g>
</g>
<!-- Node1&#45;&gt;Node5 -->
<g id="edge4" class="edge"><title>Node1&#45;&gt;Node5</title>
<path fill="none" stroke="midnightblue" d="M71.6387,-160.37C88.3446,-177.839 116.44,-204.238 146,-219 154.332,-223.161 163.589,-226.424 172.813,-228.98"/>
<polygon fill="midnightblue" stroke="midnightblue" points="73.7754,-157.53 64.396,-152.602 68.6556,-162.303 73.7754,-157.53"/>
</g>
<!-- Node6 -->
<g id="node6" class="node"><title>Node6</title>
<g id="a_node6"><a xlink:href="assembler_8cpp.html#a45dcd38a718d16b9fdcda1e45c4ad5de" target="_top" xlink:title="addNewSymbolINST1">
<polygon fill="white" stroke="black" points="173,-190.5 173,-209.5 287,-209.5 287,-190.5 173,-190.5"/>
<text text-anchor="middle" x="230" y="-197.5" font-family="Helvetica,sans-Serif" font-size="10.00">addNewSymbolINST1</text>
</a>
</g>
</g>
<!-- Node1&#45;&gt;Node6 -->
<g id="edge6" class="edge"><title>Node1&#45;&gt;Node6</title>
<path fill="none" stroke="midnightblue" d="M85.5465,-157.016C102.876,-164.845 125.357,-174.336 146,-181 157.113,-184.588 169.272,-187.771 180.772,-190.457"/>
<polygon fill="midnightblue" stroke="midnightblue" points="86.5398,-153.621 75.9912,-152.633 83.6209,-159.984 86.5398,-153.621"/>
</g>
<!-- Node7 -->
<g id="node7" class="node"><title>Node7</title>
<g id="a_node7"><a xlink:href="assembler_8cpp.html#ad85cc701dcbc6e69b1c273a99c2262d8" target="_top" xlink:title="addNewSymbolINST1PLUS">
<polygon fill="white" stroke="black" points="160,-152.5 160,-171.5 300,-171.5 300,-152.5 160,-152.5"/>
<text text-anchor="middle" x="230" y="-159.5" font-family="Helvetica,sans-Serif" font-size="10.00">addNewSymbolINST1PLUS</text>
</a>
</g>
</g>
<!-- Node1&#45;&gt;Node7 -->
<g id="edge8" class="edge"><title>Node1&#45;&gt;Node7</title>
<path fill="none" stroke="midnightblue" d="M120.038,-150.033C133.042,-151.461 146.773,-152.969 159.942,-154.416"/>
<polygon fill="midnightblue" stroke="midnightblue" points="120.112,-146.52 109.79,-148.908 119.348,-153.478 120.112,-146.52"/>
</g>
<!-- Node8 -->
<g id="node8" class="node"><title>Node8</title>
<g id="a_node8"><a xlink:href="assembler_8cpp.html#a53bd42138e87fabd2519a34abbf40b55" target="_top" xlink:title="addNewSymbolINST1NUM">
<polygon fill="white" stroke="black" points="161.5,-114.5 161.5,-133.5 298.5,-133.5 298.5,-114.5 161.5,-114.5"/>
<text text-anchor="middle" x="230" y="-121.5" font-family="Helvetica,sans-Serif" font-size="10.00">addNewSymbolINST1NUM</text>
</a>
</g>
</g>
<!-- Node1&#45;&gt;Node8 -->
<g id="edge10" class="edge"><title>Node1&#45;&gt;Node8</title>
<path fill="none" stroke="midnightblue" d="M119.903,-135.982C133.359,-134.504 147.599,-132.94 161.192,-131.447"/>
<polygon fill="midnightblue" stroke="midnightblue" points="119.348,-132.522 109.79,-137.092 120.112,-139.48 119.348,-132.522"/>
</g>
<!-- Node9 -->
<g id="node9" class="node"><title>Node9</title>
<g id="a_node9"><a xlink:href="assembler_8cpp.html#a4b08bb4206172aa8ae36e47f8298e274" target="_top" xlink:title="addNewSymbolINST2">
<polygon fill="white" stroke="black" points="173,-76.5 173,-95.5 287,-95.5 287,-76.5 173,-76.5"/>
<text text-anchor="middle" x="230" y="-83.5" font-family="Helvetica,sans-Serif" font-size="10.00">addNewSymbolINST2</text>
</a>
</g>
</g>
<!-- Node1&#45;&gt;Node9 -->
<g id="edge12" class="edge"><title>Node1&#45;&gt;Node9</title>
<path fill="none" stroke="midnightblue" d="M85.5465,-128.984C102.876,-121.155 125.357,-111.664 146,-105 157.113,-101.412 169.272,-98.2293 180.772,-95.5432"/>
<polygon fill="midnightblue" stroke="midnightblue" points="83.6209,-126.016 75.9912,-133.367 86.5398,-132.379 83.6209,-126.016"/>
</g>
<!-- Node10 -->
<g id="node10" class="node"><title>Node10</title>
<g id="a_node10"><a xlink:href="assembler_8cpp.html#a23fbad662368f294c55a33dfa57a904c" target="_top" xlink:title="addNewSymbolINST2PLUSPLUS">
<polygon fill="white" stroke="black" points="146.5,-38.5 146.5,-57.5 313.5,-57.5 313.5,-38.5 146.5,-38.5"/>
<text text-anchor="middle" x="230" y="-45.5" font-family="Helvetica,sans-Serif" font-size="10.00">addNewSymbolINST2PLUSPLUS</text>
</a>
</g>
</g>
<!-- Node1&#45;&gt;Node10 -->
<g id="edge14" class="edge"><title>Node1&#45;&gt;Node10</title>
<path fill="none" stroke="midnightblue" d="M71.6387,-125.63C88.3446,-108.161 116.44,-81.7615 146,-67 153.803,-63.1034 162.418,-59.9938 171.056,-57.5152"/>
<polygon fill="midnightblue" stroke="midnightblue" points="68.6556,-123.697 64.396,-133.398 73.7754,-128.47 68.6556,-123.697"/>
</g>
<!-- Node11 -->
<g id="node11" class="node"><title>Node11</title>
<g id="a_node11"><a xlink:href="parser_8h.html#a630c1bfba8f4ed9490db77c6146d6f7f" target="_top" xlink:title="isValidInstructionCall">
<polygon fill="white" stroke="black" points="175.5,-0.5 175.5,-19.5 284.5,-19.5 284.5,-0.5 175.5,-0.5"/>
<text text-anchor="middle" x="230" y="-7.5" font-family="Helvetica,sans-Serif" font-size="10.00">isValidInstructionCall</text>
</a>
</g>
</g>
<!-- Node1&#45;&gt;Node11 -->
<g id="edge16" class="edge"><title>Node1&#45;&gt;Node11</title>
<path fill="none" stroke="midnightblue" d="M65.5389,-124.139C79.5488,-98.4456 108.18,-52.9106 146,-29 154.746,-23.4704 164.915,-19.5442 175.075,-16.758"/>
<polygon fill="midnightblue" stroke="midnightblue" points="62.3159,-122.748 60.7453,-133.226 68.5071,-126.014 62.3159,-122.748"/>
</g>
<!-- Node3 -->
<g id="node3" class="node"><title>Node3</title>
<g id="a_node3"><a xlink:href="assembler_8h.html#a368a4f7b83093ab74e79be4ceeb11e3d" target="_top" xlink:title="assembler">
<polygon fill="white" stroke="black" points="350,-152.5 350,-171.5 412,-171.5 412,-152.5 350,-152.5"/>
<text text-anchor="middle" x="381" y="-159.5" font-family="Helvetica,sans-Serif" font-size="10.00">assembler</text>
</a>
</g>
</g>
<!-- Node2&#45;&gt;Node3 -->
<g id="edge2" class="edge"><title>Node2&#45;&gt;Node3</title>
<path fill="none" stroke="midnightblue" d="M277.914,-271.487C290.406,-268.681 303.369,-264.185 314,-257 346.613,-234.959 367.975,-190.981 376.197,-171.577"/>
<polygon fill="midnightblue" stroke="midnightblue" points="277.204,-268.06 268.05,-273.394 278.533,-274.932 277.204,-268.06"/>
</g>
<!-- Node4 -->
<g id="node4" class="node"><title>Node4</title>
<g id="a_node4"><a xlink:href="main_8cpp.html#a3c04138a5bfe5d72780bb7e82a18e627" target="_top" xlink:title="main">
<polygon fill="white" stroke="black" points="448,-152.5 448,-171.5 486,-171.5 486,-152.5 448,-152.5"/>
<text text-anchor="middle" x="467" y="-159.5" font-family="Helvetica,sans-Serif" font-size="10.00">main</text>
</a>
</g>
</g>
<!-- Node3&#45;&gt;Node4 -->
<g id="edge3" class="edge"><title>Node3&#45;&gt;Node4</title>
<path fill="none" stroke="midnightblue" d="M422.544,-162C431.361,-162 440.264,-162 447.696,-162"/>
<polygon fill="midnightblue" stroke="midnightblue" points="422.326,-158.5 412.326,-162 422.326,-165.5 422.326,-158.5"/>
</g>
<!-- Node5&#45;&gt;Node3 -->
<g id="edge5" class="edge"><title>Node5&#45;&gt;Node3</title>
<path fill="none" stroke="midnightblue" d="M297.132,-226.005C302.97,-224.013 308.677,-221.695 314,-219 337.773,-206.963 360.053,-184.536 371.657,-171.694"/>
<polygon fill="midnightblue" stroke="midnightblue" points="295.751,-222.767 287.227,-229.059 297.814,-229.457 295.751,-222.767"/>
</g>
<!-- Node6&#45;&gt;Node3 -->
<g id="edge7" class="edge"><title>Node6&#45;&gt;Node3</title>
<path fill="none" stroke="midnightblue" d="M284.659,-188.174C294.444,-185.887 304.546,-183.441 314,-181 325.776,-177.96 338.646,-174.326 349.868,-171.054"/>
<polygon fill="midnightblue" stroke="midnightblue" points="283.574,-184.832 274.617,-190.491 285.148,-191.653 283.574,-184.832"/>
</g>
<!-- Node7&#45;&gt;Node3 -->
<g id="edge9" class="edge"><title>Node7&#45;&gt;Node3</title>
<path fill="none" stroke="midnightblue" d="M310.523,-162C324.59,-162 338.418,-162 349.988,-162"/>
<polygon fill="midnightblue" stroke="midnightblue" points="310.266,-158.5 300.266,-162 310.266,-165.5 310.266,-158.5"/>
</g>
<!-- Node8&#45;&gt;Node3 -->
<g id="edge11" class="edge"><title>Node8&#45;&gt;Node3</title>
<path fill="none" stroke="midnightblue" d="M284.659,-135.826C294.444,-138.113 304.546,-140.559 314,-143 325.776,-146.04 338.646,-149.674 349.868,-152.946"/>
<polygon fill="midnightblue" stroke="midnightblue" points="285.148,-132.347 274.617,-133.509 283.574,-139.168 285.148,-132.347"/>
</g>
<!-- Node9&#45;&gt;Node3 -->
<g id="edge13" class="edge"><title>Node9&#45;&gt;Node3</title>
<path fill="none" stroke="midnightblue" d="M297.132,-97.9954C302.97,-99.9874 308.677,-102.305 314,-105 337.773,-117.037 360.053,-139.464 371.657,-152.306"/>
<polygon fill="midnightblue" stroke="midnightblue" points="297.814,-94.5434 287.227,-94.941 295.751,-101.233 297.814,-94.5434"/>
</g>
<!-- Node10&#45;&gt;Node3 -->
<g id="edge15" class="edge"><title>Node10&#45;&gt;Node3</title>
<path fill="none" stroke="midnightblue" d="M304.611,-61.5889C307.882,-63.1976 311.032,-64.994 314,-67 346.613,-89.0408 367.975,-133.019 376.197,-152.423"/>
<polygon fill="midnightblue" stroke="midnightblue" points="305.695,-58.246 295.124,-57.5348 302.944,-64.6829 305.695,-58.246"/>
</g>
</g>
</svg>
