<?xml version="1.0" encoding="UTF-8" standalone="no"?>
<!DOCTYPE svg PUBLIC "-//W3C//DTD SVG 1.1//EN"
 "http://www.w3.org/Graphics/SVG/1.1/DTD/svg11.dtd">
<!-- Generated by graphviz version 2.36.0 (20140111.2315)
 -->
<!-- Title: parser.h Pages: 1 -->
<svg width="246pt" height="84pt"
 viewBox="0.00 0.00 246.00 84.00" xmlns="http://www.w3.org/2000/svg" xmlns:xlink="http://www.w3.org/1999/xlink">
<g id="graph0" class="graph" transform="scale(1 1) rotate(0) translate(4 80)">
<title>parser.h</title>
<polygon fill="white" stroke="none" points="-4,4 -4,-80 242,-80 242,4 -4,4"/>
<!-- Node1 -->
<g id="node1" class="node"><title>Node1</title>
<polygon fill="#bfbfbf" stroke="black" points="102,-56.5 102,-75.5 154,-75.5 154,-56.5 102,-56.5"/>
<text text-anchor="middle" x="128" y="-63.5" font-family="Helvetica,sans-Serif" font-size="10.00">parser.h</text>
</g>
<!-- Node2 -->
<g id="node2" class="node"><title>Node2</title>
<g id="a_node2"><a xlink:href="assembler_8cpp.html" target="_top" xlink:title="assembler.cpp">
<polygon fill="white" stroke="black" points="0,-0.5 0,-19.5 80,-19.5 80,-0.5 0,-0.5"/>
<text text-anchor="middle" x="40" y="-7.5" font-family="Helvetica,sans-Serif" font-size="10.00">assembler.cpp</text>
</a>
</g>
</g>
<!-- Node1&#45;&gt;Node2 -->
<g id="edge1" class="edge"><title>Node1&#45;&gt;Node2</title>
<path fill="none" stroke="midnightblue" d="M105.023,-50.9005C88.8866,-40.9986 67.8187,-28.0705 54.1036,-19.6545"/>
<polygon fill="midnightblue" stroke="midnightblue" points="103.507,-54.0769 113.861,-56.324 107.169,-48.1106 103.507,-54.0769"/>
</g>
<!-- Node3 -->
<g id="node3" class="node"><title>Node3</title>
<g id="a_node3"><a xlink:href="linker_8cpp.html" target="_top" xlink:title="linker.cpp">
<polygon fill="white" stroke="black" points="98.5,-0.5 98.5,-19.5 157.5,-19.5 157.5,-0.5 98.5,-0.5"/>
<text text-anchor="middle" x="128" y="-7.5" font-family="Helvetica,sans-Serif" font-size="10.00">linker.cpp</text>
</a>
</g>
</g>
<!-- Node1&#45;&gt;Node3 -->
<g id="edge2" class="edge"><title>Node1&#45;&gt;Node3</title>
<path fill="none" stroke="midnightblue" d="M128,-45.8045C128,-36.9102 128,-26.7798 128,-19.7511"/>
<polygon fill="midnightblue" stroke="midnightblue" points="124.5,-46.083 128,-56.083 131.5,-46.083 124.5,-46.083"/>
</g>
<!-- Node4 -->
<g id="node4" class="node"><title>Node4</title>
<g id="a_node4"><a xlink:href="parser_8cpp.html" target="_top" xlink:title="parser.cpp">
<polygon fill="white" stroke="black" points="176,-0.5 176,-19.5 238,-19.5 238,-0.5 176,-0.5"/>
<text text-anchor="middle" x="207" y="-7.5" font-family="Helvetica,sans-Serif" font-size="10.00">parser.cpp</text>
</a>
</g>
</g>
<!-- Node1&#45;&gt;Node4 -->
<g id="edge3" class="edge"><title>Node1&#45;&gt;Node4</title>
<path fill="none" stroke="midnightblue" d="M149.034,-50.6221C163.466,-40.7574 182.141,-27.9919 194.339,-19.6545"/>
<polygon fill="midnightblue" stroke="midnightblue" points="146.973,-47.7914 140.693,-56.324 150.923,-53.5703 146.973,-47.7914"/>
</g>
</g>
</svg>
