<?xml version="1.0" encoding="UTF-8" standalone="no"?>
<!DOCTYPE svg PUBLIC "-//W3C//DTD SVG 1.1//EN"
 "http://www.w3.org/Graphics/SVG/1.1/DTD/svg11.dtd">
<!-- Generated by graphviz version 2.36.0 (20140111.2315)
 -->
<!-- Title: findLabel Pages: 1 -->
<svg width="440pt" height="252pt"
 viewBox="0.00 0.00 440.00 252.00" xmlns="http://www.w3.org/2000/svg" xmlns:xlink="http://www.w3.org/1999/xlink">
<g id="graph0" class="graph" transform="scale(1 1) rotate(0) translate(4 247.995)">
<title>findLabel</title>
<polygon fill="white" stroke="none" points="-4,4 -4,-247.995 436,-247.995 436,4 -4,4"/>
<!-- Node1 -->
<g id="node1" class="node"><title>Node1</title>
<polygon fill="#bfbfbf" stroke="black" points="0,-114.5 0,-133.5 56,-133.5 56,-114.5 0,-114.5"/>
<text text-anchor="middle" x="28" y="-121.5" font-family="Helvetica,sans-Serif" font-size="10.00">findLabel</text>
</g>
<!-- Node2 -->
<g id="node2" class="node"><title>Node2</title>
<g id="a_node2"><a xlink:href="assembler_8h.html#a797a6a110fea06ef3ba01a4a30ea9695" target="_top" xlink:title="assembler">
<polygon fill="white" stroke="black" points="296,-133.5 296,-152.5 358,-152.5 358,-133.5 296,-133.5"/>
<text text-anchor="middle" x="327" y="-140.5" font-family="Helvetica,sans-Serif" font-size="10.00">assembler</text>
</a>
</g>
</g>
<!-- Node1&#45;&gt;Node2 -->
<g id="edge1" class="edge"><title>Node1&#45;&gt;Node2</title>
<path fill="none" stroke="midnightblue" d="M35.3732,-143.2C44.1048,-166.015 62.1948,-203.002 92,-219 157.789,-254.312 192.064,-249.981 260,-219 290.369,-205.151 312.161,-169.661 321.27,-152.532"/>
<polygon fill="midnightblue" stroke="midnightblue" points="38.5889,-141.798 31.9195,-133.566 31.9995,-144.16 38.5889,-141.798"/>
</g>
<!-- Node4 -->
<g id="node4" class="node"><title>Node4</title>
<g id="a_node4"><a xlink:href="assembler_8cpp.html#a54fad2c006413b60d87eea48e412471b" target="_top" xlink:title="addNewLabel">
<polygon fill="white" stroke="black" points="138,-190.5 138,-209.5 214,-209.5 214,-190.5 138,-190.5"/>
<text text-anchor="middle" x="176" y="-197.5" font-family="Helvetica,sans-Serif" font-size="10.00">addNewLabel</text>
</a>
</g>
</g>
<!-- Node1&#45;&gt;Node4 -->
<g id="edge3" class="edge"><title>Node1&#45;&gt;Node4</title>
<path fill="none" stroke="midnightblue" d="M43.716,-141.449C55.4923,-154.291 73.1138,-171.162 92,-181 106.028,-188.307 122.829,-192.826 137.635,-195.609"/>
<polygon fill="midnightblue" stroke="midnightblue" points="46.114,-138.878 36.8667,-133.707 40.8709,-143.516 46.114,-138.878"/>
</g>
<!-- Node5 -->
<g id="node5" class="node"><title>Node5</title>
<g id="a_node5"><a xlink:href="assembler_8cpp.html#a45dcd38a718d16b9fdcda1e45c4ad5de" target="_top" xlink:title="addNewSymbolINST1">
<polygon fill="white" stroke="black" points="119,-152.5 119,-171.5 233,-171.5 233,-152.5 119,-152.5"/>
<text text-anchor="middle" x="176" y="-159.5" font-family="Helvetica,sans-Serif" font-size="10.00">addNewSymbolINST1</text>
</a>
</g>
</g>
<!-- Node1&#45;&gt;Node5 -->
<g id="edge5" class="edge"><title>Node1&#45;&gt;Node5</title>
<path fill="none" stroke="midnightblue" d="M65.8893,-135.583C74.4314,-138.137 83.5071,-140.75 92,-143 104.575,-146.331 118.312,-149.618 130.927,-152.496"/>
<polygon fill="midnightblue" stroke="midnightblue" points="66.7593,-132.189 56.1739,-132.636 64.7274,-138.888 66.7593,-132.189"/>
</g>
<!-- Node6 -->
<g id="node6" class="node"><title>Node6</title>
<g id="a_node6"><a xlink:href="assembler_8cpp.html#ad85cc701dcbc6e69b1c273a99c2262d8" target="_top" xlink:title="addNewSymbolINST1PLUS">
<polygon fill="white" stroke="black" points="106,-114.5 106,-133.5 246,-133.5 246,-114.5 106,-114.5"/>
<text text-anchor="middle" x="176" y="-121.5" font-family="Helvetica,sans-Serif" font-size="10.00">addNewSymbolINST1PLUS</text>
</a>
</g>
</g>
<!-- Node1&#45;&gt;Node6 -->
<g id="edge7" class="edge"><title>Node1&#45;&gt;Node6</title>
<path fill="none" stroke="midnightblue" d="M66.2473,-124C78.3359,-124 92.1613,-124 105.809,-124"/>
<polygon fill="midnightblue" stroke="midnightblue" points="66.1194,-120.5 56.1193,-124 66.1193,-127.5 66.1194,-120.5"/>
</g>
<!-- Node7 -->
<g id="node7" class="node"><title>Node7</title>
<g id="a_node7"><a xlink:href="assembler_8cpp.html#a4b08bb4206172aa8ae36e47f8298e274" target="_top" xlink:title="addNewSymbolINST2">
<polygon fill="white" stroke="black" points="119,-76.5 119,-95.5 233,-95.5 233,-76.5 119,-76.5"/>
<text text-anchor="middle" x="176" y="-83.5" font-family="Helvetica,sans-Serif" font-size="10.00">addNewSymbolINST2</text>
</a>
</g>
</g>
<!-- Node1&#45;&gt;Node7 -->
<g id="edge9" class="edge"><title>Node1&#45;&gt;Node7</title>
<path fill="none" stroke="midnightblue" d="M65.8893,-112.417C74.4314,-109.863 83.5071,-107.25 92,-105 104.575,-101.669 118.312,-98.3825 130.927,-95.5041"/>
<polygon fill="midnightblue" stroke="midnightblue" points="64.7274,-109.112 56.1739,-115.364 66.7593,-115.811 64.7274,-109.112"/>
</g>
<!-- Node8 -->
<g id="node8" class="node"><title>Node8</title>
<g id="a_node8"><a xlink:href="assembler_8cpp.html#a23fbad662368f294c55a33dfa57a904c" target="_top" xlink:title="addNewSymbolINST2PLUSPLUS">
<polygon fill="white" stroke="black" points="92.5,-38.5 92.5,-57.5 259.5,-57.5 259.5,-38.5 92.5,-38.5"/>
<text text-anchor="middle" x="176" y="-45.5" font-family="Helvetica,sans-Serif" font-size="10.00">addNewSymbolINST2PLUSPLUS</text>
</a>
</g>
</g>
<!-- Node1&#45;&gt;Node8 -->
<g id="edge11" class="edge"><title>Node1&#45;&gt;Node8</title>
<path fill="none" stroke="midnightblue" d="M43.716,-106.551C55.4923,-93.7087 73.1138,-76.8381 92,-67 99.4729,-63.1073 107.733,-60.0061 116.059,-57.5369"/>
<polygon fill="midnightblue" stroke="midnightblue" points="40.8709,-104.484 36.8667,-114.293 46.114,-109.122 40.8709,-104.484"/>
</g>
<!-- Node9 -->
<g id="node9" class="node"><title>Node9</title>
<g id="a_node9"><a xlink:href="linker_8cpp.html#a3c04138a5bfe5d72780bb7e82a18e627" target="_top" xlink:title="main">
<polygon fill="white" stroke="black" points="157,-0.5 157,-19.5 195,-19.5 195,-0.5 157,-0.5"/>
<text text-anchor="middle" x="176" y="-7.5" font-family="Helvetica,sans-Serif" font-size="10.00">main</text>
</a>
</g>
</g>
<!-- Node1&#45;&gt;Node9 -->
<g id="edge13" class="edge"><title>Node1&#45;&gt;Node9</title>
<path fill="none" stroke="midnightblue" d="M36.4475,-104.916C45.9727,-83.0985 64.5852,-47.9628 92,-29 111.452,-15.5451 139.011,-11.487 156.945,-10.3354"/>
<polygon fill="midnightblue" stroke="midnightblue" points="33.1009,-103.849 32.5028,-114.427 39.5669,-106.531 33.1009,-103.849"/>
</g>
<!-- Node3 -->
<g id="node3" class="node"><title>Node3</title>
<g id="a_node3"><a xlink:href="main_8cpp.html#a3c04138a5bfe5d72780bb7e82a18e627" target="_top" xlink:title="main">
<polygon fill="white" stroke="black" points="394,-133.5 394,-152.5 432,-152.5 432,-133.5 394,-133.5"/>
<text text-anchor="middle" x="413" y="-140.5" font-family="Helvetica,sans-Serif" font-size="10.00">main</text>
</a>
</g>
</g>
<!-- Node2&#45;&gt;Node3 -->
<g id="edge2" class="edge"><title>Node2&#45;&gt;Node3</title>
<path fill="none" stroke="midnightblue" d="M368.544,-143C377.361,-143 386.264,-143 393.696,-143"/>
<polygon fill="midnightblue" stroke="midnightblue" points="368.326,-139.5 358.326,-143 368.326,-146.5 368.326,-139.5"/>
</g>
<!-- Node4&#45;&gt;Node2 -->
<g id="edge4" class="edge"><title>Node4&#45;&gt;Node2</title>
<path fill="none" stroke="midnightblue" d="M223.915,-191.815C235.894,-189.035 248.603,-185.469 260,-181 279.079,-173.518 299.25,-161.166 312.196,-152.584"/>
<polygon fill="midnightblue" stroke="midnightblue" points="223.091,-188.412 214.069,-193.967 224.586,-195.251 223.091,-188.412"/>
</g>
<!-- Node5&#45;&gt;Node2 -->
<g id="edge6" class="edge"><title>Node5&#45;&gt;Node2</title>
<path fill="none" stroke="midnightblue" d="M243.422,-153.53C261.762,-151.191 280.762,-148.769 295.906,-146.837"/>
<polygon fill="midnightblue" stroke="midnightblue" points="242.807,-150.08 233.331,-154.817 243.693,-157.024 242.807,-150.08"/>
</g>
<!-- Node6&#45;&gt;Node2 -->
<g id="edge8" class="edge"><title>Node6&#45;&gt;Node2</title>
<path fill="none" stroke="midnightblue" d="M256.523,-134.14C270.59,-135.934 284.418,-137.698 295.988,-139.173"/>
<polygon fill="midnightblue" stroke="midnightblue" points="256.628,-130.626 246.266,-132.833 255.742,-137.569 256.628,-130.626"/>
</g>
<!-- Node7&#45;&gt;Node2 -->
<g id="edge10" class="edge"><title>Node7&#45;&gt;Node2</title>
<path fill="none" stroke="midnightblue" d="M239.202,-98.1006C246.311,-100.111 253.377,-102.403 260,-105 279.079,-112.482 299.25,-124.834 312.196,-133.416"/>
<polygon fill="midnightblue" stroke="midnightblue" points="240.083,-94.7133 229.52,-95.5323 238.289,-101.479 240.083,-94.7133"/>
</g>
<!-- Node8&#45;&gt;Node2 -->
<g id="edge12" class="edge"><title>Node8&#45;&gt;Node2</title>
<path fill="none" stroke="midnightblue" d="M248.505,-61.1774C252.5,-62.887 256.364,-64.8183 260,-67 288.173,-83.9017 310.561,-116.966 320.467,-133.339"/>
<polygon fill="midnightblue" stroke="midnightblue" points="249.585,-57.8437 238.993,-57.577 247.107,-64.3904 249.585,-57.8437"/>
</g>
</g>
</svg>
