<?xml version="1.0" encoding="UTF-8" standalone="no"?>
<!DOCTYPE svg PUBLIC "-//W3C//DTD SVG 1.1//EN"
 "http://www.w3.org/Graphics/SVG/1.1/DTD/svg11.dtd">
<!-- Generated by graphviz version 2.36.0 (20140111.2315)
 -->
<!-- Title: isValidInstructionCall Pages: 1 -->
<svg width="452pt" height="66pt"
 viewBox="0.00 0.00 452.00 66.00" xmlns="http://www.w3.org/2000/svg" xmlns:xlink="http://www.w3.org/1999/xlink">
<g id="graph0" class="graph" transform="scale(1 1) rotate(0) translate(4 62)">
<title>isValidInstructionCall</title>
<polygon fill="white" stroke="none" points="-4,4 -4,-62 448,-62 448,4 -4,4"/>
<!-- Node1 -->
<g id="node1" class="node"><title>Node1</title>
<polygon fill="#bfbfbf" stroke="black" points="0.5,-19.5 0.5,-38.5 109.5,-38.5 109.5,-19.5 0.5,-19.5"/>
<text text-anchor="middle" x="55" y="-26.5" font-family="Helvetica,sans-Serif" font-size="10.00">isValidInstructionCall</text>
</g>
<!-- Node2 -->
<g id="node2" class="node"><title>Node2</title>
<g id="a_node2"><a xlink:href="assembler_8cpp.html#ad735f823bad61ae08954113bfcaac5ad" target="_top" xlink:title="lexicalAnalisisInstruction">
<polygon fill="white" stroke="black" points="146.5,-38.5 146.5,-57.5 271.5,-57.5 271.5,-38.5 146.5,-38.5"/>
<text text-anchor="middle" x="209" y="-45.5" font-family="Helvetica,sans-Serif" font-size="10.00">lexicalAnalisisInstruction</text>
</a>
</g>
</g>
<!-- Node1&#45;&gt;Node2 -->
<g id="edge1" class="edge"><title>Node1&#45;&gt;Node2</title>
<path fill="none" stroke="midnightblue" d="M119.775,-36.9719C128.564,-38.0705 137.577,-39.1971 146.327,-40.2909"/>
<polygon fill="midnightblue" stroke="midnightblue" points="119.946,-33.4661 109.59,-35.6987 119.078,-40.4121 119.946,-33.4661"/>
</g>
<!-- Node5 -->
<g id="node5" class="node"><title>Node5</title>
<g id="a_node5"><a xlink:href="parser_8h.html#a630c1bfba8f4ed9490db77c6146d6f7f" target="_top" xlink:title="isValidInstructionCall">
<polygon fill="white" stroke="black" points="154.5,-0.5 154.5,-19.5 263.5,-19.5 263.5,-0.5 154.5,-0.5"/>
<text text-anchor="middle" x="209" y="-7.5" font-family="Helvetica,sans-Serif" font-size="10.00">isValidInstructionCall</text>
</a>
</g>
</g>
<!-- Node1&#45;&gt;Node5 -->
<g id="edge4" class="edge"><title>Node1&#45;&gt;Node5</title>
<path fill="none" stroke="midnightblue" d="M119.622,-21.0472C131.186,-19.6017 143.143,-18.1072 154.382,-16.7022"/>
<polygon fill="midnightblue" stroke="midnightblue" points="119.078,-17.5879 109.59,-22.3013 119.946,-24.5338 119.078,-17.5879"/>
</g>
<!-- Node3 -->
<g id="node3" class="node"><title>Node3</title>
<g id="a_node3"><a xlink:href="assembler_8h.html#a368a4f7b83093ab74e79be4ceeb11e3d" target="_top" xlink:title="assembler">
<polygon fill="white" stroke="black" points="308,-38.5 308,-57.5 370,-57.5 370,-38.5 308,-38.5"/>
<text text-anchor="middle" x="339" y="-45.5" font-family="Helvetica,sans-Serif" font-size="10.00">assembler</text>
</a>
</g>
</g>
<!-- Node2&#45;&gt;Node3 -->
<g id="edge2" class="edge"><title>Node2&#45;&gt;Node3</title>
<path fill="none" stroke="midnightblue" d="M282.016,-48C291.061,-48 299.889,-48 307.762,-48"/>
<polygon fill="midnightblue" stroke="midnightblue" points="281.75,-44.5001 271.75,-48 281.75,-51.5001 281.75,-44.5001"/>
</g>
<!-- Node4 -->
<g id="node4" class="node"><title>Node4</title>
<g id="a_node4"><a xlink:href="main_8cpp.html#a3c04138a5bfe5d72780bb7e82a18e627" target="_top" xlink:title="main">
<polygon fill="white" stroke="black" points="406,-38.5 406,-57.5 444,-57.5 444,-38.5 406,-38.5"/>
<text text-anchor="middle" x="425" y="-45.5" font-family="Helvetica,sans-Serif" font-size="10.00">main</text>
</a>
</g>
</g>
<!-- Node3&#45;&gt;Node4 -->
<g id="edge3" class="edge"><title>Node3&#45;&gt;Node4</title>
<path fill="none" stroke="midnightblue" d="M380.544,-48C389.361,-48 398.264,-48 405.696,-48"/>
<polygon fill="midnightblue" stroke="midnightblue" points="380.326,-44.5001 370.326,-48 380.326,-51.5001 380.326,-44.5001"/>
</g>
</g>
</svg>
