<?xml version="1.0" encoding="UTF-8" standalone="no"?>
<!DOCTYPE svg PUBLIC "-//W3C//DTD SVG 1.1//EN"
 "http://www.w3.org/Graphics/SVG/1.1/DTD/svg11.dtd">
<!-- Generated by graphviz version 2.36.0 (20140111.2315)
 -->
<!-- Title: findLabel Pages: 1 -->
<svg width="412pt" height="168pt"
 viewBox="0.00 0.00 412.00 167.57" xmlns="http://www.w3.org/2000/svg" xmlns:xlink="http://www.w3.org/1999/xlink">
<g id="graph0" class="graph" transform="scale(1 1) rotate(0) translate(4 163.566)">
<title>findLabel</title>
<polygon fill="white" stroke="none" points="-4,4 -4,-163.566 408,-163.566 408,4 -4,4"/>
<!-- Node1 -->
<g id="node1" class="node"><title>Node1</title>
<polygon fill="#bfbfbf" stroke="black" points="0,-76.5 0,-95.5 56,-95.5 56,-76.5 0,-76.5"/>
<text text-anchor="middle" x="28" y="-83.5" font-family="Helvetica,sans-Serif" font-size="10.00">findLabel</text>
</g>
<!-- Node2 -->
<g id="node2" class="node"><title>Node2</title>
<g id="a_node2"><a xlink:href="assembler_8h.html#a368a4f7b83093ab74e79be4ceeb11e3d" target="_top" xlink:title="assembler">
<polygon fill="white" stroke="black" points="268,-76.5 268,-95.5 330,-95.5 330,-76.5 268,-76.5"/>
<text text-anchor="middle" x="299" y="-83.5" font-family="Helvetica,sans-Serif" font-size="10.00">assembler</text>
</a>
</g>
</g>
<!-- Node1&#45;&gt;Node2 -->
<g id="edge1" class="edge"><title>Node1&#45;&gt;Node2</title>
<path fill="none" stroke="midnightblue" d="M42.0551,-103.391C53.4996,-117.071 71.4834,-135.096 92,-143 150.063,-165.368 173.683,-164.697 232,-143 257.542,-133.497 279.795,-109.178 290.756,-95.5757"/>
<polygon fill="midnightblue" stroke="midnightblue" points="44.783,-101.198 35.8101,-95.5647 39.3113,-105.564 44.783,-101.198"/>
</g>
<!-- Node4 -->
<g id="node4" class="node"><title>Node4</title>
<g id="a_node4"><a xlink:href="assembler_8cpp.html#a54fad2c006413b60d87eea48e412471b" target="_top" xlink:title="addNewLabel">
<polygon fill="white" stroke="black" points="124,-114.5 124,-133.5 200,-133.5 200,-114.5 124,-114.5"/>
<text text-anchor="middle" x="162" y="-121.5" font-family="Helvetica,sans-Serif" font-size="10.00">addNewLabel</text>
</a>
</g>
</g>
<!-- Node1&#45;&gt;Node4 -->
<g id="edge3" class="edge"><title>Node1&#45;&gt;Node4</title>
<path fill="none" stroke="midnightblue" d="M65.9644,-97.3111C74.5029,-99.8785 83.5583,-102.565 92,-105 102.983,-108.168 114.984,-111.513 125.852,-114.498"/>
<polygon fill="midnightblue" stroke="midnightblue" points="66.8311,-93.9167 56.2462,-94.3742 64.8061,-100.617 66.8311,-93.9167"/>
</g>
<!-- Node5 -->
<g id="node5" class="node"><title>Node5</title>
<g id="a_node5"><a xlink:href="assembler_8cpp.html#a45dcd38a718d16b9fdcda1e45c4ad5de" target="_top" xlink:title="addNewSymbolINST1">
<polygon fill="white" stroke="black" points="105,-76.5 105,-95.5 219,-95.5 219,-76.5 105,-76.5"/>
<text text-anchor="middle" x="162" y="-83.5" font-family="Helvetica,sans-Serif" font-size="10.00">addNewSymbolINST1</text>
</a>
</g>
</g>
<!-- Node1&#45;&gt;Node5 -->
<g id="edge5" class="edge"><title>Node1&#45;&gt;Node5</title>
<path fill="none" stroke="midnightblue" d="M66.1339,-86C78.1576,-86 91.773,-86 104.859,-86"/>
<polygon fill="midnightblue" stroke="midnightblue" points="66.0307,-82.5001 56.0307,-86 66.0307,-89.5001 66.0307,-82.5001"/>
</g>
<!-- Node6 -->
<g id="node6" class="node"><title>Node6</title>
<g id="a_node6"><a xlink:href="assembler_8cpp.html#ad85cc701dcbc6e69b1c273a99c2262d8" target="_top" xlink:title="addNewSymbolINST1PLUS">
<polygon fill="white" stroke="black" points="92,-38.5 92,-57.5 232,-57.5 232,-38.5 92,-38.5"/>
<text text-anchor="middle" x="162" y="-45.5" font-family="Helvetica,sans-Serif" font-size="10.00">addNewSymbolINST1PLUS</text>
</a>
</g>
</g>
<!-- Node1&#45;&gt;Node6 -->
<g id="edge7" class="edge"><title>Node1&#45;&gt;Node6</title>
<path fill="none" stroke="midnightblue" d="M65.9644,-74.6889C74.5029,-72.1215 83.5583,-69.4348 92,-67 102.983,-63.8321 114.984,-60.4873 125.852,-57.5018"/>
<polygon fill="midnightblue" stroke="midnightblue" points="64.8061,-71.3826 56.2462,-77.6258 66.8311,-78.0833 64.8061,-71.3826"/>
</g>
<!-- Node7 -->
<g id="node7" class="node"><title>Node7</title>
<g id="a_node7"><a xlink:href="assembler_8cpp.html#a4b08bb4206172aa8ae36e47f8298e274" target="_top" xlink:title="addNewSymbolINST2">
<polygon fill="white" stroke="black" points="105,-0.5 105,-19.5 219,-19.5 219,-0.5 105,-0.5"/>
<text text-anchor="middle" x="162" y="-7.5" font-family="Helvetica,sans-Serif" font-size="10.00">addNewSymbolINST2</text>
</a>
</g>
</g>
<!-- Node1&#45;&gt;Node7 -->
<g id="edge9" class="edge"><title>Node1&#45;&gt;Node7</title>
<path fill="none" stroke="midnightblue" d="M43.841,-68.7844C55.6836,-56.0662 73.3331,-39.2481 92,-29 98.9706,-25.1732 106.768,-22.0722 114.544,-19.5734"/>
<polygon fill="midnightblue" stroke="midnightblue" points="41.0375,-66.6673 36.945,-76.4398 46.2385,-71.3524 41.0375,-66.6673"/>
</g>
<!-- Node3 -->
<g id="node3" class="node"><title>Node3</title>
<g id="a_node3"><a xlink:href="main_8cpp.html#a3c04138a5bfe5d72780bb7e82a18e627" target="_top" xlink:title="main">
<polygon fill="white" stroke="black" points="366,-76.5 366,-95.5 404,-95.5 404,-76.5 366,-76.5"/>
<text text-anchor="middle" x="385" y="-83.5" font-family="Helvetica,sans-Serif" font-size="10.00">main</text>
</a>
</g>
</g>
<!-- Node2&#45;&gt;Node3 -->
<g id="edge2" class="edge"><title>Node2&#45;&gt;Node3</title>
<path fill="none" stroke="midnightblue" d="M340.544,-86C349.361,-86 358.264,-86 365.696,-86"/>
<polygon fill="midnightblue" stroke="midnightblue" points="340.326,-82.5001 330.326,-86 340.326,-89.5001 340.326,-82.5001"/>
</g>
<!-- Node4&#45;&gt;Node2 -->
<g id="edge4" class="edge"><title>Node4&#45;&gt;Node2</title>
<path fill="none" stroke="midnightblue" d="M207.781,-111.75C215.848,-109.52 224.178,-107.203 232,-105 243.707,-101.703 256.562,-98.0173 267.793,-94.7757"/>
<polygon fill="midnightblue" stroke="midnightblue" points="206.834,-108.381 198.124,-114.413 208.695,-115.129 206.834,-108.381"/>
</g>
<!-- Node5&#45;&gt;Node2 -->
<g id="edge6" class="edge"><title>Node5&#45;&gt;Node2</title>
<path fill="none" stroke="midnightblue" d="M229.316,-86C242.764,-86 256.275,-86 267.713,-86"/>
<polygon fill="midnightblue" stroke="midnightblue" points="229.079,-82.5001 219.079,-86 229.079,-89.5001 229.079,-82.5001"/>
</g>
<!-- Node6&#45;&gt;Node2 -->
<g id="edge8" class="edge"><title>Node6&#45;&gt;Node2</title>
<path fill="none" stroke="midnightblue" d="M207.781,-60.2499C215.848,-62.4796 224.178,-64.7971 232,-67 243.707,-70.2968 256.562,-73.9827 267.793,-77.2243"/>
<polygon fill="midnightblue" stroke="midnightblue" points="208.695,-56.8711 198.124,-57.5872 206.834,-63.6193 208.695,-56.8711"/>
</g>
<!-- Node7&#45;&gt;Node2 -->
<g id="edge10" class="edge"><title>Node7&#45;&gt;Node2</title>
<path fill="none" stroke="midnightblue" d="M218.616,-22.947C223.247,-24.7312 227.77,-26.741 232,-29 255.504,-41.553 277.886,-63.787 289.578,-76.4574"/>
<polygon fill="midnightblue" stroke="midnightblue" points="219.612,-19.5875 209.017,-19.5936 217.303,-26.1958 219.612,-19.5875"/>
</g>
</g>
</svg>
