<?xml version="1.0" encoding="UTF-8" standalone="no"?>
<!DOCTYPE svg PUBLIC "-//W3C//DTD SVG 1.1//EN"
 "http://www.w3.org/Graphics/SVG/1.1/DTD/svg11.dtd">
<!-- Generated by graphviz version 2.36.0 (20140111.2315)
 -->
<!-- Title: preprocessor Pages: 1 -->
<svg width="274pt" height="66pt"
 viewBox="0.00 0.00 274.00 66.00" xmlns="http://www.w3.org/2000/svg" xmlns:xlink="http://www.w3.org/1999/xlink">
<g id="graph0" class="graph" transform="scale(1 1) rotate(0) translate(4 62)">
<title>preprocessor</title>
<polygon fill="white" stroke="none" points="-4,4 -4,-62 270,-62 270,4 -4,4"/>
<!-- Node1 -->
<g id="node1" class="node"><title>Node1</title>
<polygon fill="#bfbfbf" stroke="black" points="0.5,-19.5 0.5,-38.5 73.5,-38.5 73.5,-19.5 0.5,-19.5"/>
<text text-anchor="middle" x="37" y="-26.5" font-family="Helvetica,sans-Serif" font-size="10.00">preprocessor</text>
</g>
<!-- Node2 -->
<g id="node2" class="node"><title>Node2</title>
<g id="a_node2"><a xlink:href="lexer_8cpp.html#ab482a9701233ff4e5a0ffc1f75f9c41a" target="_top" xlink:title="tokenizer">
<polygon fill="white" stroke="black" points="116,-38.5 116,-57.5 172,-57.5 172,-38.5 116,-38.5"/>
<text text-anchor="middle" x="144" y="-45.5" font-family="Helvetica,sans-Serif" font-size="10.00">tokenizer</text>
</a>
</g>
</g>
<!-- Node1&#45;&gt;Node2 -->
<g id="edge1" class="edge"><title>Node1&#45;&gt;Node2</title>
<path fill="none" stroke="midnightblue" d="M73.5482,-35.4325C83.9003,-37.3058 95.2374,-39.3573 105.695,-41.2495"/>
<polygon fill="midnightblue" stroke="midnightblue" points="105.326,-44.7395 115.789,-43.0761 106.572,-37.8514 105.326,-44.7395"/>
</g>
<!-- Node4 -->
<g id="node4" class="node"><title>Node4</title>
<g id="a_node4"><a xlink:href="preprocessor_8cpp.html#a130bd12178693578a2c217a3011725f3" target="_top" xlink:title="findLabelDir">
<polygon fill="white" stroke="black" points="110,-0.5 110,-19.5 178,-19.5 178,-0.5 110,-0.5"/>
<text text-anchor="middle" x="144" y="-7.5" font-family="Helvetica,sans-Serif" font-size="10.00">findLabelDir</text>
</a>
</g>
</g>
<!-- Node1&#45;&gt;Node4 -->
<g id="edge3" class="edge"><title>Node1&#45;&gt;Node4</title>
<path fill="none" stroke="midnightblue" d="M73.5482,-22.5675C82.0151,-21.0354 91.1409,-19.384 99.9051,-17.7981"/>
<polygon fill="midnightblue" stroke="midnightblue" points="100.75,-21.2023 109.966,-15.9775 99.503,-14.3141 100.75,-21.2023"/>
</g>
<!-- Node3 -->
<g id="node3" class="node"><title>Node3</title>
<g id="a_node3"><a xlink:href="lexer_8cpp.html#a63ef6d488951c4541159fe0961565c4d" target="_top" xlink:title="scanner">
<polygon fill="white" stroke="black" points="214.5,-38.5 214.5,-57.5 265.5,-57.5 265.5,-38.5 214.5,-38.5"/>
<text text-anchor="middle" x="240" y="-45.5" font-family="Helvetica,sans-Serif" font-size="10.00">scanner</text>
</a>
</g>
</g>
<!-- Node2&#45;&gt;Node3 -->
<g id="edge2" class="edge"><title>Node2&#45;&gt;Node3</title>
<path fill="none" stroke="midnightblue" d="M172.189,-48C182.193,-48 193.662,-48 204.243,-48"/>
<polygon fill="midnightblue" stroke="midnightblue" points="204.439,-51.5001 214.439,-48 204.439,-44.5001 204.439,-51.5001"/>
</g>
</g>
</svg>
