<?xml version="1.0" encoding="UTF-8" standalone="no"?>
<!DOCTYPE svg PUBLIC "-//W3C//DTD SVG 1.1//EN"
 "http://www.w3.org/Graphics/SVG/1.1/DTD/svg11.dtd">
<!-- Generated by graphviz version 2.36.0 (20140111.2315)
 -->
<!-- Title: findLabelDir Pages: 1 -->
<svg width="260pt" height="28pt"
 viewBox="0.00 0.00 260.00 28.00" xmlns="http://www.w3.org/2000/svg" xmlns:xlink="http://www.w3.org/1999/xlink">
<g id="graph0" class="graph" transform="scale(1 1) rotate(0) translate(4 24)">
<title>findLabelDir</title>
<polygon fill="white" stroke="none" points="-4,4 -4,-24 256,-24 256,4 -4,4"/>
<!-- Node1 -->
<g id="node1" class="node"><title>Node1</title>
<polygon fill="#bfbfbf" stroke="black" points="0,-0.5 0,-19.5 68,-19.5 68,-0.5 0,-0.5"/>
<text text-anchor="middle" x="34" y="-7.5" font-family="Helvetica,sans-Serif" font-size="10.00">findLabelDir</text>
</g>
<!-- Node2 -->
<g id="node2" class="node"><title>Node2</title>
<g id="a_node2"><a xlink:href="preprocessor_8h.html#a64877d45066932f7594bb2ad347c1d26" target="_top" xlink:title="preprocessor">
<polygon fill="white" stroke="black" points="104.5,-0.5 104.5,-19.5 177.5,-19.5 177.5,-0.5 104.5,-0.5"/>
<text text-anchor="middle" x="141" y="-7.5" font-family="Helvetica,sans-Serif" font-size="10.00">preprocessor</text>
</a>
</g>
</g>
<!-- Node1&#45;&gt;Node2 -->
<g id="edge1" class="edge"><title>Node1&#45;&gt;Node2</title>
<path fill="none" stroke="midnightblue" d="M78.2379,-10C86.9584,-10 96.031,-10 104.452,-10"/>
<polygon fill="midnightblue" stroke="midnightblue" points="78.2227,-6.5001 68.2227,-10 78.2226,-13.5001 78.2227,-6.5001"/>
</g>
<!-- Node3 -->
<g id="node3" class="node"><title>Node3</title>
<g id="a_node3"><a xlink:href="main_8cpp.html#a3c04138a5bfe5d72780bb7e82a18e627" target="_top" xlink:title="main">
<polygon fill="white" stroke="black" points="214,-0.5 214,-19.5 252,-19.5 252,-0.5 214,-0.5"/>
<text text-anchor="middle" x="233" y="-7.5" font-family="Helvetica,sans-Serif" font-size="10.00">main</text>
</a>
</g>
</g>
<!-- Node2&#45;&gt;Node3 -->
<g id="edge2" class="edge"><title>Node2&#45;&gt;Node3</title>
<path fill="none" stroke="midnightblue" d="M187.574,-10C196.849,-10 206.092,-10 213.726,-10"/>
<polygon fill="midnightblue" stroke="midnightblue" points="187.57,-6.5001 177.57,-10 187.57,-13.5001 187.57,-6.5001"/>
</g>
</g>
</svg>
