<?xml version="1.0" encoding="UTF-8" standalone="no"?>
<!DOCTYPE svg PUBLIC "-//W3C//DTD SVG 1.1//EN"
 "http://www.w3.org/Graphics/SVG/1.1/DTD/svg11.dtd">
<!-- Generated by graphviz version 2.36.0 (20140111.2315)
 -->
<!-- Title: preprocessor.h Pages: 1 -->
<svg width="174pt" height="84pt"
 viewBox="0.00 0.00 174.00 84.00" xmlns="http://www.w3.org/2000/svg" xmlns:xlink="http://www.w3.org/1999/xlink">
<g id="graph0" class="graph" transform="scale(1 1) rotate(0) translate(4 80)">
<title>preprocessor.h</title>
<polygon fill="white" stroke="none" points="-4,4 -4,-80 170,-80 170,4 -4,4"/>
<!-- Node1 -->
<g id="node1" class="node"><title>Node1</title>
<polygon fill="#bfbfbf" stroke="black" points="33.5,-56.5 33.5,-75.5 114.5,-75.5 114.5,-56.5 33.5,-56.5"/>
<text text-anchor="middle" x="74" y="-63.5" font-family="Helvetica,sans-Serif" font-size="10.00">preprocessor.h</text>
</g>
<!-- Node2 -->
<g id="node2" class="node"><title>Node2</title>
<g id="a_node2"><a xlink:href="main_8cpp.html" target="_top" xlink:title="main.cpp">
<polygon fill="white" stroke="black" points="0,-0.5 0,-19.5 56,-19.5 56,-0.5 0,-0.5"/>
<text text-anchor="middle" x="28" y="-7.5" font-family="Helvetica,sans-Serif" font-size="10.00">main.cpp</text>
</a>
</g>
</g>
<!-- Node1&#45;&gt;Node2 -->
<g id="edge1" class="edge"><title>Node1&#45;&gt;Node2</title>
<path fill="none" stroke="midnightblue" d="M59.886,-48.4314C51.824,-38.9673 42.0408,-27.4827 35.4546,-19.7511"/>
<polygon fill="midnightblue" stroke="midnightblue" points="57.255,-50.7402 66.404,-56.083 62.5837,-46.2009 57.255,-50.7402"/>
</g>
<!-- Node3 -->
<g id="node3" class="node"><title>Node3</title>
<g id="a_node3"><a xlink:href="preprocessor_8cpp.html" target="_top" xlink:title="preprocessor.cpp">
<polygon fill="white" stroke="black" points="74,-0.5 74,-19.5 166,-19.5 166,-0.5 74,-0.5"/>
<text text-anchor="middle" x="120" y="-7.5" font-family="Helvetica,sans-Serif" font-size="10.00">preprocessor.cpp</text>
</a>
</g>
</g>
<!-- Node1&#45;&gt;Node3 -->
<g id="edge2" class="edge"><title>Node1&#45;&gt;Node3</title>
<path fill="none" stroke="midnightblue" d="M88.114,-48.4314C96.176,-38.9673 105.959,-27.4827 112.545,-19.7511"/>
<polygon fill="midnightblue" stroke="midnightblue" points="85.4163,-46.2009 81.596,-56.083 90.745,-50.7402 85.4163,-46.2009"/>
</g>
</g>
</svg>
