<?xml version="1.0" encoding="UTF-8" standalone="no"?>
<!DOCTYPE svg PUBLIC "-//W3C//DTD SVG 1.1//EN"
 "http://www.w3.org/Graphics/SVG/1.1/DTD/svg11.dtd">
<!-- Generated by graphviz version 2.36.0 (20140111.2315)
 -->
<!-- Title: preprocessor.cpp Pages: 1 -->
<svg width="593pt" height="140pt"
 viewBox="0.00 0.00 593.00 140.00" xmlns="http://www.w3.org/2000/svg" xmlns:xlink="http://www.w3.org/1999/xlink">
<g id="graph0" class="graph" transform="scale(1 1) rotate(0) translate(4 136)">
<title>preprocessor.cpp</title>
<polygon fill="white" stroke="none" points="-4,4 -4,-136 589,-136 589,4 -4,4"/>
<!-- Node1 -->
<g id="node1" class="node"><title>Node1</title>
<polygon fill="#bfbfbf" stroke="black" points="230,-112.5 230,-131.5 322,-131.5 322,-112.5 230,-112.5"/>
<text text-anchor="middle" x="276" y="-119.5" font-family="Helvetica,sans-Serif" font-size="10.00">preprocessor.cpp</text>
</g>
<!-- Node2 -->
<g id="node2" class="node"><title>Node2</title>
<polygon fill="white" stroke="#bfbfbf" points="0,-56.5 0,-75.5 52,-75.5 52,-56.5 0,-56.5"/>
<text text-anchor="middle" x="26" y="-63.5" font-family="Helvetica,sans-Serif" font-size="10.00">sstream</text>
</g>
<!-- Node1&#45;&gt;Node2 -->
<g id="edge1" class="edge"><title>Node1&#45;&gt;Node2</title>
<path fill="none" stroke="midnightblue" d="M232.223,-112.443C190.814,-104.213 126.695,-91.1216 62.2639,-76.219"/>
<polygon fill="midnightblue" stroke="midnightblue" points="62.8749,-72.7678 52.3418,-73.9101 61.2882,-79.5856 62.8749,-72.7678"/>
</g>
<!-- Node3 -->
<g id="node3" class="node"><title>Node3</title>
<polygon fill="white" stroke="#bfbfbf" points="70,-56.5 70,-75.5 124,-75.5 124,-56.5 70,-56.5"/>
<text text-anchor="middle" x="97" y="-63.5" font-family="Helvetica,sans-Serif" font-size="10.00">iostream</text>
</g>
<!-- Node1&#45;&gt;Node3 -->
<g id="edge2" class="edge"><title>Node1&#45;&gt;Node3</title>
<path fill="none" stroke="midnightblue" d="M247.637,-112.444C216.904,-103.172 167.75,-88.3435 134,-78.1622"/>
<polygon fill="midnightblue" stroke="midnightblue" points="134.643,-74.7004 124.059,-75.1629 132.622,-81.4021 134.643,-74.7004"/>
</g>
<!-- Node4 -->
<g id="node4" class="node"><title>Node4</title>
<polygon fill="white" stroke="#bfbfbf" points="142,-56.5 142,-75.5 192,-75.5 192,-56.5 142,-56.5"/>
<text text-anchor="middle" x="167" y="-63.5" font-family="Helvetica,sans-Serif" font-size="10.00">fstream</text>
</g>
<!-- Node1&#45;&gt;Node4 -->
<g id="edge3" class="edge"><title>Node1&#45;&gt;Node4</title>
<path fill="none" stroke="midnightblue" d="M258.487,-112.324C240.928,-103.625 213.669,-90.1202 193.469,-80.113"/>
<polygon fill="midnightblue" stroke="midnightblue" points="194.984,-76.9575 184.469,-75.6545 191.876,-83.23 194.984,-76.9575"/>
</g>
<!-- Node5 -->
<g id="node5" class="node"><title>Node5</title>
<polygon fill="white" stroke="#bfbfbf" points="216.5,-0.5 216.5,-19.5 257.5,-19.5 257.5,-0.5 216.5,-0.5"/>
<text text-anchor="middle" x="237" y="-7.5" font-family="Helvetica,sans-Serif" font-size="10.00">string</text>
</g>
<!-- Node1&#45;&gt;Node5 -->
<g id="edge4" class="edge"><title>Node1&#45;&gt;Node5</title>
<path fill="none" stroke="midnightblue" d="M265.669,-112.205C256.756,-103.903 244.479,-90.5805 239,-76 233.471,-61.2867 233.364,-43.3529 234.417,-30.0528"/>
<polygon fill="midnightblue" stroke="midnightblue" points="237.935,-30.0741 235.534,-19.755 230.976,-29.3193 237.935,-30.0741"/>
</g>
<!-- Node6 -->
<g id="node6" class="node"><title>Node6</title>
<polygon fill="white" stroke="#bfbfbf" points="248,-56.5 248,-75.5 304,-75.5 304,-56.5 248,-56.5"/>
<text text-anchor="middle" x="276" y="-63.5" font-family="Helvetica,sans-Serif" font-size="10.00">algorithm</text>
</g>
<!-- Node1&#45;&gt;Node6 -->
<g id="edge5" class="edge"><title>Node1&#45;&gt;Node6</title>
<path fill="none" stroke="midnightblue" d="M276,-112.083C276,-105.006 276,-94.8611 276,-85.9865"/>
<polygon fill="midnightblue" stroke="midnightblue" points="279.5,-85.751 276,-75.7511 272.5,-85.7511 279.5,-85.751"/>
</g>
<!-- Node7 -->
<g id="node7" class="node"><title>Node7</title>
<polygon fill="white" stroke="#bfbfbf" points="434,-0.5 434,-19.5 478,-19.5 478,-0.5 434,-0.5"/>
<text text-anchor="middle" x="456" y="-7.5" font-family="Helvetica,sans-Serif" font-size="10.00">vector</text>
</g>
<!-- Node1&#45;&gt;Node7 -->
<g id="edge6" class="edge"><title>Node1&#45;&gt;Node7</title>
<path fill="none" stroke="midnightblue" d="M322.298,-115.867C370.021,-109.509 439.695,-96.8829 456,-76 466.083,-63.086 464.729,-43.9131 461.668,-29.7343"/>
<polygon fill="midnightblue" stroke="midnightblue" points="464.947,-28.4392 459.032,-19.6489 458.174,-30.2089 464.947,-28.4392"/>
</g>
<!-- Node8 -->
<g id="node8" class="node"><title>Node8</title>
<g id="a_node8"><a xlink:href="msgs__pt_8h.html" target="_top" xlink:title="msgs_pt.h">
<polygon fill="white" stroke="black" points="386,-56.5 386,-75.5 448,-75.5 448,-56.5 386,-56.5"/>
<text text-anchor="middle" x="417" y="-63.5" font-family="Helvetica,sans-Serif" font-size="10.00">msgs_pt.h</text>
</a>
</g>
</g>
<!-- Node1&#45;&gt;Node8 -->
<g id="edge7" class="edge"><title>Node1&#45;&gt;Node8</title>
<path fill="none" stroke="midnightblue" d="M298.342,-112.444C321.753,-103.478 358.736,-89.314 385.19,-79.1827"/>
<polygon fill="midnightblue" stroke="midnightblue" points="386.676,-82.3615 394.763,-75.5164 384.172,-75.8245 386.676,-82.3615"/>
</g>
<!-- Node9 -->
<g id="node9" class="node"><title>Node9</title>
<g id="a_node9"><a xlink:href="lexer_8h.html" target="_top" xlink:title="lexer.h">
<polygon fill="white" stroke="black" points="322,-56.5 322,-75.5 368,-75.5 368,-56.5 322,-56.5"/>
<text text-anchor="middle" x="345" y="-63.5" font-family="Helvetica,sans-Serif" font-size="10.00">lexer.h</text>
</a>
</g>
</g>
<!-- Node1&#45;&gt;Node9 -->
<g id="edge8" class="edge"><title>Node1&#45;&gt;Node9</title>
<path fill="none" stroke="midnightblue" d="M287.086,-112.324C297.486,-104.185 313.261,-91.8395 325.722,-82.0874"/>
<polygon fill="midnightblue" stroke="midnightblue" points="327.994,-84.7533 333.712,-75.8339 323.68,-79.2407 327.994,-84.7533"/>
</g>
<!-- Node11 -->
<g id="node11" class="node"><title>Node11</title>
<g id="a_node11"><a xlink:href="preprocessor_8h.html" target="_top" xlink:title="preprocessor.h">
<polygon fill="white" stroke="black" points="504.5,-56.5 504.5,-75.5 585.5,-75.5 585.5,-56.5 504.5,-56.5"/>
<text text-anchor="middle" x="545" y="-63.5" font-family="Helvetica,sans-Serif" font-size="10.00">preprocessor.h</text>
</a>
</g>
</g>
<!-- Node1&#45;&gt;Node11 -->
<g id="edge12" class="edge"><title>Node1&#45;&gt;Node11</title>
<path fill="none" stroke="midnightblue" d="M318.624,-112.444C366.301,-102.873 443.483,-87.3789 494.24,-77.1897"/>
<polygon fill="midnightblue" stroke="midnightblue" points="495.221,-80.5627 504.336,-75.1629 493.843,-73.6997 495.221,-80.5627"/>
</g>
<!-- Node9&#45;&gt;Node5 -->
<g id="edge9" class="edge"><title>Node9&#45;&gt;Node5</title>
<path fill="none" stroke="midnightblue" d="M327.648,-56.324C310.328,-47.6641 283.485,-34.2424 263.498,-24.249"/>
<polygon fill="midnightblue" stroke="midnightblue" points="264.819,-20.9962 254.309,-19.6545 261.688,-27.2572 264.819,-20.9962"/>
</g>
<!-- Node9&#45;&gt;Node7 -->
<g id="edge10" class="edge"><title>Node9&#45;&gt;Node7</title>
<path fill="none" stroke="midnightblue" d="M362.834,-56.324C380.716,-47.6247 408.475,-34.1202 429.046,-24.113"/>
<polygon fill="midnightblue" stroke="midnightblue" points="430.749,-27.1765 438.21,-19.6545 427.687,-20.8819 430.749,-27.1765"/>
</g>
<!-- Node10 -->
<g id="node10" class="node"><title>Node10</title>
<g id="a_node10"><a xlink:href="languagedefinition_8h.html" target="_top" xlink:title="languagedefinition.h">
<polygon fill="white" stroke="black" points="293.5,-0.5 293.5,-19.5 396.5,-19.5 396.5,-0.5 293.5,-0.5"/>
<text text-anchor="middle" x="345" y="-7.5" font-family="Helvetica,sans-Serif" font-size="10.00">languagedefinition.h</text>
</a>
</g>
</g>
<!-- Node9&#45;&gt;Node10 -->
<g id="edge11" class="edge"><title>Node9&#45;&gt;Node10</title>
<path fill="none" stroke="midnightblue" d="M345,-56.083C345,-49.0059 345,-38.8611 345,-29.9865"/>
<polygon fill="midnightblue" stroke="midnightblue" points="348.5,-29.751 345,-19.7511 341.5,-29.7511 348.5,-29.751"/>
</g>
</g>
</svg>
