<?xml version="1.0" encoding="UTF-8" standalone="no"?>
<!DOCTYPE svg PUBLIC "-//W3C//DTD SVG 1.1//EN"
 "http://www.w3.org/Graphics/SVG/1.1/DTD/svg11.dtd">
<!-- Generated by graphviz version 2.36.0 (20140111.2315)
 -->
<!-- Title: preprocessor.cpp Pages: 1 -->
<svg width="513pt" height="84pt"
 viewBox="0.00 0.00 513.00 84.00" xmlns="http://www.w3.org/2000/svg" xmlns:xlink="http://www.w3.org/1999/xlink">
<g id="graph0" class="graph" transform="scale(1 1) rotate(0) translate(4 80)">
<title>preprocessor.cpp</title>
<polygon fill="white" stroke="none" points="-4,4 -4,-80 509,-80 509,4 -4,4"/>
<!-- Node1 -->
<g id="node1" class="node"><title>Node1</title>
<polygon fill="#bfbfbf" stroke="black" points="185,-56.5 185,-75.5 277,-75.5 277,-56.5 185,-56.5"/>
<text text-anchor="middle" x="231" y="-63.5" font-family="Helvetica,sans-Serif" font-size="10.00">preprocessor.cpp</text>
</g>
<!-- Node2 -->
<g id="node2" class="node"><title>Node2</title>
<polygon fill="white" stroke="#bfbfbf" points="0,-0.5 0,-19.5 52,-19.5 52,-0.5 0,-0.5"/>
<text text-anchor="middle" x="26" y="-7.5" font-family="Helvetica,sans-Serif" font-size="10.00">sstream</text>
</g>
<!-- Node1&#45;&gt;Node2 -->
<g id="edge1" class="edge"><title>Node1&#45;&gt;Node2</title>
<path fill="none" stroke="midnightblue" d="M198.517,-56.4435C161.311,-46.6429 100.528,-30.6319 61.9337,-20.4655"/>
<polygon fill="midnightblue" stroke="midnightblue" points="62.713,-17.0514 52.1513,-17.8886 60.9298,-23.8205 62.713,-17.0514"/>
</g>
<!-- Node3 -->
<g id="node3" class="node"><title>Node3</title>
<polygon fill="white" stroke="#bfbfbf" points="70,-0.5 70,-19.5 124,-19.5 124,-0.5 70,-0.5"/>
<text text-anchor="middle" x="97" y="-7.5" font-family="Helvetica,sans-Serif" font-size="10.00">iostream</text>
</g>
<!-- Node1&#45;&gt;Node3 -->
<g id="edge2" class="edge"><title>Node1&#45;&gt;Node3</title>
<path fill="none" stroke="midnightblue" d="M209.767,-56.4435C187.616,-47.5171 152.681,-33.4387 127.564,-23.3168"/>
<polygon fill="midnightblue" stroke="midnightblue" points="128.717,-20.0079 118.133,-19.5164 126.1,-26.5006 128.717,-20.0079"/>
</g>
<!-- Node4 -->
<g id="node4" class="node"><title>Node4</title>
<polygon fill="white" stroke="#bfbfbf" points="142,-0.5 142,-19.5 192,-19.5 192,-0.5 142,-0.5"/>
<text text-anchor="middle" x="167" y="-7.5" font-family="Helvetica,sans-Serif" font-size="10.00">fstream</text>
</g>
<!-- Node1&#45;&gt;Node4 -->
<g id="edge3" class="edge"><title>Node1&#45;&gt;Node4</title>
<path fill="none" stroke="midnightblue" d="M220.717,-56.324C211.164,-48.2631 196.72,-36.0765 185.216,-26.3695"/>
<polygon fill="midnightblue" stroke="midnightblue" points="187.37,-23.6076 177.47,-19.8339 182.856,-28.9577 187.37,-23.6076"/>
</g>
<!-- Node5 -->
<g id="node5" class="node"><title>Node5</title>
<polygon fill="white" stroke="#bfbfbf" points="210.5,-0.5 210.5,-19.5 251.5,-19.5 251.5,-0.5 210.5,-0.5"/>
<text text-anchor="middle" x="231" y="-7.5" font-family="Helvetica,sans-Serif" font-size="10.00">string</text>
</g>
<!-- Node1&#45;&gt;Node5 -->
<g id="edge4" class="edge"><title>Node1&#45;&gt;Node5</title>
<path fill="none" stroke="midnightblue" d="M231,-56.083C231,-49.0059 231,-38.8611 231,-29.9865"/>
<polygon fill="midnightblue" stroke="midnightblue" points="234.5,-29.751 231,-19.7511 227.5,-29.7511 234.5,-29.751"/>
</g>
<!-- Node6 -->
<g id="node6" class="node"><title>Node6</title>
<polygon fill="white" stroke="#bfbfbf" points="270,-0.5 270,-19.5 326,-19.5 326,-0.5 270,-0.5"/>
<text text-anchor="middle" x="298" y="-7.5" font-family="Helvetica,sans-Serif" font-size="10.00">algorithm</text>
</g>
<!-- Node1&#45;&gt;Node6 -->
<g id="edge5" class="edge"><title>Node1&#45;&gt;Node6</title>
<path fill="none" stroke="midnightblue" d="M241.765,-56.324C251.766,-48.2631 266.887,-36.0765 278.93,-26.3695"/>
<polygon fill="midnightblue" stroke="midnightblue" points="281.45,-28.8343 287.039,-19.8339 277.057,-23.3841 281.45,-28.8343"/>
</g>
<!-- Node7 -->
<g id="node7" class="node"><title>Node7</title>
<g id="a_node7"><a xlink:href="msgs__pt_8h.html" target="_top" xlink:title="msgs_pt.h">
<polygon fill="white" stroke="black" points="344,-0.5 344,-19.5 406,-19.5 406,-0.5 344,-0.5"/>
<text text-anchor="middle" x="375" y="-7.5" font-family="Helvetica,sans-Serif" font-size="10.00">msgs_pt.h</text>
</a>
</g>
</g>
<!-- Node1&#45;&gt;Node7 -->
<g id="edge6" class="edge"><title>Node1&#45;&gt;Node7</title>
<path fill="none" stroke="midnightblue" d="M253.817,-56.4435C277.832,-47.4381 315.829,-33.1891 342.869,-23.049"/>
<polygon fill="midnightblue" stroke="midnightblue" points="344.155,-26.3049 352.29,-19.5164 341.697,-19.7506 344.155,-26.3049"/>
</g>
<!-- Node8 -->
<g id="node8" class="node"><title>Node8</title>
<g id="a_node8"><a xlink:href="preprocessor_8h.html" target="_top" xlink:title="preprocessor.h">
<polygon fill="white" stroke="black" points="424.5,-0.5 424.5,-19.5 505.5,-19.5 505.5,-0.5 424.5,-0.5"/>
<text text-anchor="middle" x="465" y="-7.5" font-family="Helvetica,sans-Serif" font-size="10.00">preprocessor.h</text>
</a>
</g>
</g>
<!-- Node1&#45;&gt;Node8 -->
<g id="edge7" class="edge"><title>Node1&#45;&gt;Node8</title>
<path fill="none" stroke="midnightblue" d="M268.078,-56.4435C308.728,-47.0629 374.032,-31.9926 418.184,-21.8036"/>
<polygon fill="midnightblue" stroke="midnightblue" points="419.139,-25.1755 428.095,-19.5164 417.565,-18.3547 419.139,-25.1755"/>
</g>
</g>
</svg>
