<?xml version="1.0" encoding="UTF-8" standalone="no"?>
<!DOCTYPE svg PUBLIC "-//W3C//DTD SVG 1.1//EN"
 "http://www.w3.org/Graphics/SVG/1.1/DTD/svg11.dtd">
<!-- Generated by graphviz version 2.36.0 (20140111.2315)
 -->
<!-- Title: simulator.h Pages: 1 -->
<svg width="184pt" height="84pt"
 viewBox="0.00 0.00 184.00 84.00" xmlns="http://www.w3.org/2000/svg" xmlns:xlink="http://www.w3.org/1999/xlink">
<g id="graph0" class="graph" transform="scale(1 1) rotate(0) translate(4 80)">
<title>simulator.h</title>
<polygon fill="white" stroke="none" points="-4,4 -4,-80 180,-80 180,4 -4,4"/>
<!-- Node1 -->
<g id="node1" class="node"><title>Node1</title>
<polygon fill="#bfbfbf" stroke="black" points="46.5,-56.5 46.5,-75.5 111.5,-75.5 111.5,-56.5 46.5,-56.5"/>
<text text-anchor="middle" x="79" y="-63.5" font-family="Helvetica,sans-Serif" font-size="10.00">simulator.h</text>
</g>
<!-- Node2 -->
<g id="node2" class="node"><title>Node2</title>
<g id="a_node2"><a xlink:href="loader_8cpp.html" target="_top" xlink:title="loader.cpp">
<polygon fill="white" stroke="black" points="0,-0.5 0,-19.5 62,-19.5 62,-0.5 0,-0.5"/>
<text text-anchor="middle" x="31" y="-7.5" font-family="Helvetica,sans-Serif" font-size="10.00">loader.cpp</text>
</a>
</g>
</g>
<!-- Node1&#45;&gt;Node2 -->
<g id="edge1" class="edge"><title>Node1&#45;&gt;Node2</title>
<path fill="none" stroke="midnightblue" d="M64.2723,-48.4314C55.8599,-38.9673 45.6513,-27.4827 38.7787,-19.7511"/>
<polygon fill="midnightblue" stroke="midnightblue" points="61.8142,-50.9342 71.0738,-56.083 67.046,-46.2836 61.8142,-50.9342"/>
</g>
<!-- Node3 -->
<g id="node3" class="node"><title>Node3</title>
<g id="a_node3"><a xlink:href="test__simulator_8cpp.html" target="_top" xlink:title="test_simulator.cpp">
<polygon fill="white" stroke="black" points="79.5,-0.5 79.5,-19.5 176.5,-19.5 176.5,-0.5 79.5,-0.5"/>
<text text-anchor="middle" x="128" y="-7.5" font-family="Helvetica,sans-Serif" font-size="10.00">test_simulator.cpp</text>
</a>
</g>
</g>
<!-- Node1&#45;&gt;Node3 -->
<g id="edge2" class="edge"><title>Node1&#45;&gt;Node3</title>
<path fill="none" stroke="midnightblue" d="M94.0345,-48.4314C102.622,-38.9673 113.043,-27.4827 120.059,-19.7511"/>
<polygon fill="midnightblue" stroke="midnightblue" points="91.2193,-46.3254 87.0914,-56.083 96.4033,-51.0293 91.2193,-46.3254"/>
</g>
</g>
</svg>
