<?xml version="1.0" encoding="UTF-8" standalone="no"?>
<!DOCTYPE svg PUBLIC "-//W3C//DTD SVG 1.1//EN"
 "http://www.w3.org/Graphics/SVG/1.1/DTD/svg11.dtd">
<!-- Generated by graphviz version 2.36.0 (20140111.2315)
 -->
<!-- Title: assembler.cpp Pages: 1 -->
<svg width="680pt" height="140pt"
 viewBox="0.00 0.00 680.00 140.00" xmlns="http://www.w3.org/2000/svg" xmlns:xlink="http://www.w3.org/1999/xlink">
<g id="graph0" class="graph" transform="scale(1 1) rotate(0) translate(4 136)">
<title>assembler.cpp</title>
<polygon fill="white" stroke="none" points="-4,4 -4,-136 676,-136 676,4 -4,4"/>
<!-- Node1 -->
<g id="node1" class="node"><title>Node1</title>
<polygon fill="#bfbfbf" stroke="black" points="308,-112.5 308,-131.5 388,-131.5 388,-112.5 308,-112.5"/>
<text text-anchor="middle" x="348" y="-119.5" font-family="Helvetica,sans-Serif" font-size="10.00">assembler.cpp</text>
</g>
<!-- Node2 -->
<g id="node2" class="node"><title>Node2</title>
<polygon fill="white" stroke="#bfbfbf" points="0,-56.5 0,-75.5 46,-75.5 46,-56.5 0,-56.5"/>
<text text-anchor="middle" x="23" y="-63.5" font-family="Helvetica,sans-Serif" font-size="10.00">stdio.h</text>
</g>
<!-- Node1&#45;&gt;Node2 -->
<g id="edge1" class="edge"><title>Node1&#45;&gt;Node2</title>
<path fill="none" stroke="midnightblue" d="M307.909,-116.413C253.094,-109.799 151.56,-96.3238 56.1434,-76.0324"/>
<polygon fill="midnightblue" stroke="midnightblue" points="56.8495,-72.6043 46.3364,-73.9177 55.3739,-79.447 56.8495,-72.6043"/>
</g>
<!-- Node3 -->
<g id="node3" class="node"><title>Node3</title>
<polygon fill="white" stroke="#bfbfbf" points="64,-56.5 64,-75.5 118,-75.5 118,-56.5 64,-56.5"/>
<text text-anchor="middle" x="91" y="-63.5" font-family="Helvetica,sans-Serif" font-size="10.00">iostream</text>
</g>
<!-- Node1&#45;&gt;Node3 -->
<g id="edge2" class="edge"><title>Node1&#45;&gt;Node3</title>
<path fill="none" stroke="midnightblue" d="M307.962,-113.399C265.682,-105.249 196.843,-91.6357 128.217,-76.2002"/>
<polygon fill="midnightblue" stroke="midnightblue" points="128.622,-72.7035 118.096,-73.91 127.077,-79.5309 128.622,-72.7035"/>
</g>
<!-- Node4 -->
<g id="node4" class="node"><title>Node4</title>
<polygon fill="white" stroke="#bfbfbf" points="136,-56.5 136,-75.5 186,-75.5 186,-56.5 136,-56.5"/>
<text text-anchor="middle" x="161" y="-63.5" font-family="Helvetica,sans-Serif" font-size="10.00">fstream</text>
</g>
<!-- Node1&#45;&gt;Node4 -->
<g id="edge3" class="edge"><title>Node1&#45;&gt;Node4</title>
<path fill="none" stroke="midnightblue" d="M318.369,-112.444C285.094,-102.835 231.145,-87.2558 195.867,-77.0686"/>
<polygon fill="midnightblue" stroke="midnightblue" points="196.582,-73.6321 186.004,-74.2203 194.64,-80.3573 196.582,-73.6321"/>
</g>
<!-- Node5 -->
<g id="node5" class="node"><title>Node5</title>
<polygon fill="white" stroke="#bfbfbf" points="204,-56.5 204,-75.5 256,-75.5 256,-56.5 204,-56.5"/>
<text text-anchor="middle" x="230" y="-63.5" font-family="Helvetica,sans-Serif" font-size="10.00">sstream</text>
</g>
<!-- Node1&#45;&gt;Node5 -->
<g id="edge4" class="edge"><title>Node1&#45;&gt;Node5</title>
<path fill="none" stroke="midnightblue" d="M329.303,-112.444C310.056,-103.636 279.848,-89.8116 257.8,-79.722"/>
<polygon fill="midnightblue" stroke="midnightblue" points="259.16,-76.4951 248.61,-75.5164 256.247,-82.8603 259.16,-76.4951"/>
</g>
<!-- Node6 -->
<g id="node6" class="node"><title>Node6</title>
<polygon fill="white" stroke="#bfbfbf" points="327.5,-0.5 327.5,-19.5 368.5,-19.5 368.5,-0.5 327.5,-0.5"/>
<text text-anchor="middle" x="348" y="-7.5" font-family="Helvetica,sans-Serif" font-size="10.00">string</text>
</g>
<!-- Node1&#45;&gt;Node6 -->
<g id="edge5" class="edge"><title>Node1&#45;&gt;Node6</title>
<path fill="none" stroke="midnightblue" d="M348,-112.368C348,-94.617 348,-53.6664 348,-29.5974"/>
<polygon fill="midnightblue" stroke="midnightblue" points="351.5,-29.5914 348,-19.5914 344.5,-29.5915 351.5,-29.5914"/>
</g>
<!-- Node7 -->
<g id="node7" class="node"><title>Node7</title>
<polygon fill="white" stroke="#bfbfbf" points="457,-0.5 457,-19.5 513,-19.5 513,-0.5 457,-0.5"/>
<text text-anchor="middle" x="485" y="-7.5" font-family="Helvetica,sans-Serif" font-size="10.00">algorithm</text>
</g>
<!-- Node1&#45;&gt;Node7 -->
<g id="edge6" class="edge"><title>Node1&#45;&gt;Node7</title>
<path fill="none" stroke="midnightblue" d="M388.222,-117.449C416.802,-112.712 453.745,-101.677 475,-76 485.57,-63.2306 487.367,-44.0383 486.943,-29.8156"/>
<polygon fill="midnightblue" stroke="midnightblue" points="490.425,-29.4304 486.251,-19.6924 483.441,-29.9078 490.425,-29.4304"/>
</g>
<!-- Node8 -->
<g id="node8" class="node"><title>Node8</title>
<polygon fill="white" stroke="#bfbfbf" points="387,-0.5 387,-19.5 431,-19.5 431,-0.5 387,-0.5"/>
<text text-anchor="middle" x="409" y="-7.5" font-family="Helvetica,sans-Serif" font-size="10.00">vector</text>
</g>
<!-- Node1&#45;&gt;Node8 -->
<g id="edge7" class="edge"><title>Node1&#45;&gt;Node8</title>
<path fill="none" stroke="midnightblue" d="M352.787,-112.368C362.764,-94.376 385.958,-52.5503 399.225,-28.6267"/>
<polygon fill="midnightblue" stroke="midnightblue" points="402.447,-30.0342 404.236,-19.5914 396.325,-26.6393 402.447,-30.0342"/>
</g>
<!-- Node9 -->
<g id="node9" class="node"><title>Node9</title>
<g id="a_node9"><a xlink:href="msgs__pt_8h.html" target="_top" xlink:title="msgs_pt.h">
<polygon fill="white" stroke="black" points="522,-56.5 522,-75.5 584,-75.5 584,-56.5 522,-56.5"/>
<text text-anchor="middle" x="553" y="-63.5" font-family="Helvetica,sans-Serif" font-size="10.00">msgs_pt.h</text>
</a>
</g>
</g>
<!-- Node1&#45;&gt;Node9 -->
<g id="edge8" class="edge"><title>Node1&#45;&gt;Node9</title>
<path fill="none" stroke="midnightblue" d="M380.483,-112.444C416.031,-103.08 473.1,-88.0467 511.778,-77.8585"/>
<polygon fill="midnightblue" stroke="midnightblue" points="512.899,-81.1827 521.678,-75.2508 511.116,-74.4136 512.899,-81.1827"/>
</g>
<!-- Node10 -->
<g id="node10" class="node"><title>Node10</title>
<g id="a_node10"><a xlink:href="assembler_8h.html" target="_top" xlink:title="assembler.h">
<polygon fill="white" stroke="black" points="602,-56.5 602,-75.5 672,-75.5 672,-56.5 602,-56.5"/>
<text text-anchor="middle" x="637" y="-63.5" font-family="Helvetica,sans-Serif" font-size="10.00">assembler.h</text>
</a>
</g>
</g>
<!-- Node1&#45;&gt;Node10 -->
<g id="edge9" class="edge"><title>Node1&#45;&gt;Node10</title>
<path fill="none" stroke="midnightblue" d="M388.189,-113.779C434.594,-105.399 513.491,-91.0218 591.619,-76.0488"/>
<polygon fill="midnightblue" stroke="midnightblue" points="592.476,-79.4482 601.637,-74.1248 591.156,-72.5738 592.476,-79.4482"/>
</g>
<!-- Node11 -->
<g id="node11" class="node"><title>Node11</title>
<g id="a_node11"><a xlink:href="lexer_8h.html" target="_top" xlink:title="lexer.h">
<polygon fill="white" stroke="black" points="274,-56.5 274,-75.5 320,-75.5 320,-56.5 274,-56.5"/>
<text text-anchor="middle" x="297" y="-63.5" font-family="Helvetica,sans-Serif" font-size="10.00">lexer.h</text>
</a>
</g>
</g>
<!-- Node1&#45;&gt;Node11 -->
<g id="edge10" class="edge"><title>Node1&#45;&gt;Node11</title>
<path fill="none" stroke="midnightblue" d="M339.578,-112.083C332.152,-104.22 321.148,-92.5688 312.188,-83.0813"/>
<polygon fill="midnightblue" stroke="midnightblue" points="314.676,-80.618 305.265,-75.7511 309.587,-85.4244 314.676,-80.618"/>
</g>
<!-- Node13 -->
<g id="node13" class="node"><title>Node13</title>
<g id="a_node13"><a xlink:href="parser_8h.html" target="_top" xlink:title="parser.h">
<polygon fill="white" stroke="black" points="414,-56.5 414,-75.5 466,-75.5 466,-56.5 414,-56.5"/>
<text text-anchor="middle" x="440" y="-63.5" font-family="Helvetica,sans-Serif" font-size="10.00">parser.h</text>
</a>
</g>
</g>
<!-- Node1&#45;&gt;Node13 -->
<g id="edge14" class="edge"><title>Node1&#45;&gt;Node13</title>
<path fill="none" stroke="midnightblue" d="M362.781,-112.324C377.267,-103.822 399.573,-90.7288 416.493,-80.7975"/>
<polygon fill="midnightblue" stroke="midnightblue" points="418.403,-83.735 425.255,-75.6545 414.859,-77.6981 418.403,-83.735"/>
</g>
<!-- Node11&#45;&gt;Node6 -->
<g id="edge11" class="edge"><title>Node11&#45;&gt;Node6</title>
<path fill="none" stroke="midnightblue" d="M305.422,-56.083C312.848,-48.2195 323.852,-36.5688 332.812,-27.0813"/>
<polygon fill="midnightblue" stroke="midnightblue" points="335.413,-29.4244 339.735,-19.7511 330.324,-24.618 335.413,-29.4244"/>
</g>
<!-- Node11&#45;&gt;Node8 -->
<g id="edge12" class="edge"><title>Node11&#45;&gt;Node8</title>
<path fill="none" stroke="midnightblue" d="M314.995,-56.324C333.038,-47.6247 361.047,-34.1202 381.803,-24.113"/>
<polygon fill="midnightblue" stroke="midnightblue" points="383.562,-27.1502 391.05,-19.6545 380.522,-20.8449 383.562,-27.1502"/>
</g>
<!-- Node12 -->
<g id="node12" class="node"><title>Node12</title>
<g id="a_node12"><a xlink:href="languagedefinition_8h.html" target="_top" xlink:title="#brief Definições da liguagem assembly ">
<polygon fill="white" stroke="black" points="206.5,-0.5 206.5,-19.5 309.5,-19.5 309.5,-0.5 206.5,-0.5"/>
<text text-anchor="middle" x="258" y="-7.5" font-family="Helvetica,sans-Serif" font-size="10.00">languagedefinition.h</text>
</a>
</g>
</g>
<!-- Node11&#45;&gt;Node12 -->
<g id="edge13" class="edge"><title>Node11&#45;&gt;Node12</title>
<path fill="none" stroke="midnightblue" d="M290.56,-56.083C285.051,-48.4554 276.969,-37.2645 270.235,-27.9408"/>
<polygon fill="midnightblue" stroke="midnightblue" points="273.013,-25.8087 264.32,-19.7511 267.338,-29.9071 273.013,-25.8087"/>
</g>
<!-- Node13&#45;&gt;Node6 -->
<g id="edge15" class="edge"><title>Node13&#45;&gt;Node6</title>
<path fill="none" stroke="midnightblue" d="M425.219,-56.324C410.733,-47.8215 388.427,-34.7288 371.507,-24.7975"/>
<polygon fill="midnightblue" stroke="midnightblue" points="373.141,-21.6981 362.745,-19.6545 369.597,-27.735 373.141,-21.6981"/>
</g>
<!-- Node13&#45;&gt;Node7 -->
<g id="edge16" class="edge"><title>Node13&#45;&gt;Node7</title>
<path fill="none" stroke="midnightblue" d="M447.431,-56.083C453.853,-48.3768 463.306,-37.0333 471.122,-27.6531"/>
<polygon fill="midnightblue" stroke="midnightblue" points="473.994,-29.674 477.707,-19.7511 468.617,-25.1927 473.994,-29.674"/>
</g>
<!-- Node13&#45;&gt;Node8 -->
<g id="edge17" class="edge"><title>Node13&#45;&gt;Node8</title>
<path fill="none" stroke="midnightblue" d="M434.881,-56.083C430.592,-48.6127 424.342,-37.7244 419.058,-28.5199"/>
<polygon fill="midnightblue" stroke="midnightblue" points="422.038,-26.6811 414.024,-19.7511 415.967,-30.1662 422.038,-26.6811"/>
</g>
</g>
</svg>
