<?xml version="1.0" encoding="UTF-8" standalone="no"?>
<!DOCTYPE svg PUBLIC "-//W3C//DTD SVG 1.1//EN"
 "http://www.w3.org/Graphics/SVG/1.1/DTD/svg11.dtd">
<!-- Generated by graphviz version 2.36.0 (20140111.2315)
 -->
<!-- Title: addNewSymbolINST2PLUSPLUS Pages: 1 -->
<svg width="348pt" height="28pt"
 viewBox="0.00 0.00 348.00 28.00" xmlns="http://www.w3.org/2000/svg" xmlns:xlink="http://www.w3.org/1999/xlink">
<g id="graph0" class="graph" transform="scale(1 1) rotate(0) translate(4 24)">
<title>addNewSymbolINST2PLUSPLUS</title>
<polygon fill="white" stroke="none" points="-4,4 -4,-24 344,-24 344,4 -4,4"/>
<!-- Node1 -->
<g id="node1" class="node"><title>Node1</title>
<polygon fill="#bfbfbf" stroke="black" points="0.5,-0.5 0.5,-19.5 167.5,-19.5 167.5,-0.5 0.5,-0.5"/>
<text text-anchor="middle" x="84" y="-7.5" font-family="Helvetica,sans-Serif" font-size="10.00">addNewSymbolINST2PLUSPLUS</text>
</g>
<!-- Node2 -->
<g id="node2" class="node"><title>Node2</title>
<g id="a_node2"><a xlink:href="assembler_8h.html#a797a6a110fea06ef3ba01a4a30ea9695" target="_top" xlink:title="Montador. ">
<polygon fill="white" stroke="black" points="204,-0.5 204,-19.5 266,-19.5 266,-0.5 204,-0.5"/>
<text text-anchor="middle" x="235" y="-7.5" font-family="Helvetica,sans-Serif" font-size="10.00">assembler</text>
</a>
</g>
</g>
<!-- Node1&#45;&gt;Node2 -->
<g id="edge1" class="edge"><title>Node1&#45;&gt;Node2</title>
<path fill="none" stroke="midnightblue" d="M177.927,-10C187.161,-10 195.992,-10 203.803,-10"/>
<polygon fill="midnightblue" stroke="midnightblue" points="177.779,-6.5001 167.779,-10 177.779,-13.5001 177.779,-6.5001"/>
</g>
<!-- Node3 -->
<g id="node3" class="node"><title>Node3</title>
<g id="a_node3"><a xlink:href="main_8cpp.html#a3c04138a5bfe5d72780bb7e82a18e627" target="_top" xlink:title="main">
<polygon fill="white" stroke="black" points="302,-0.5 302,-19.5 340,-19.5 340,-0.5 302,-0.5"/>
<text text-anchor="middle" x="321" y="-7.5" font-family="Helvetica,sans-Serif" font-size="10.00">main</text>
</a>
</g>
</g>
<!-- Node2&#45;&gt;Node3 -->
<g id="edge2" class="edge"><title>Node2&#45;&gt;Node3</title>
<path fill="none" stroke="midnightblue" d="M276.544,-10C285.361,-10 294.264,-10 301.696,-10"/>
<polygon fill="midnightblue" stroke="midnightblue" points="276.326,-6.5001 266.326,-10 276.326,-13.5001 276.326,-6.5001"/>
</g>
</g>
</svg>
