<?xml version="1.0" encoding="UTF-8" standalone="no"?>
<!DOCTYPE svg PUBLIC "-//W3C//DTD SVG 1.1//EN"
 "http://www.w3.org/Graphics/SVG/1.1/DTD/svg11.dtd">
<!-- Generated by graphviz version 2.36.0 (20140111.2315)
 -->
<!-- Title: assembler Pages: 1 -->
<svg width="420pt" height="328pt"
 viewBox="0.00 0.00 420.00 327.80" xmlns="http://www.w3.org/2000/svg" xmlns:xlink="http://www.w3.org/1999/xlink">
<g id="graph0" class="graph" transform="scale(1 1) rotate(0) translate(4 323.802)">
<title>assembler</title>
<polygon fill="white" stroke="none" points="-4,4 -4,-323.802 416,-323.802 416,4 -4,4"/>
<!-- Node1 -->
<g id="node1" class="node"><title>Node1</title>
<polygon fill="#bfbfbf" stroke="black" points="0,-148.302 0,-167.302 62,-167.302 62,-148.302 0,-148.302"/>
<text text-anchor="middle" x="31" y="-155.302" font-family="Helvetica,sans-Serif" font-size="10.00">assembler</text>
</g>
<!-- Node2 -->
<g id="node2" class="node"><title>Node2</title>
<g id="a_node2"><a xlink:href="lexer_8cpp.html#a63ef6d488951c4541159fe0961565c4d" target="_top" xlink:title="Verifica uma string em busca de tokens v치lidos. ">
<polygon fill="white" stroke="black" points="156.5,-300.302 156.5,-319.302 207.5,-319.302 207.5,-300.302 156.5,-300.302"/>
<text text-anchor="middle" x="182" y="-307.302" font-family="Helvetica,sans-Serif" font-size="10.00">scanner</text>
</a>
</g>
</g>
<!-- Node1&#45;&gt;Node2 -->
<g id="edge1" class="edge"><title>Node1&#45;&gt;Node2</title>
<path fill="none" stroke="midnightblue" d="M33.8736,-167.639C39.1431,-192.481 56.502,-258.087 98,-290.802 111.618,-301.538 130.183,-306.424 146.302,-308.568"/>
<polygon fill="midnightblue" stroke="midnightblue" points="146.159,-312.071 156.465,-309.614 146.876,-305.108 146.159,-312.071"/>
</g>
<!-- Node3 -->
<g id="node3" class="node"><title>Node3</title>
<g id="a_node3"><a xlink:href="assembler_8cpp.html#a33535e8f85da588842c21d65d304f740" target="_top" xlink:title="addNewSymbolINST0">
<polygon fill="white" stroke="black" points="125,-224.302 125,-243.302 239,-243.302 239,-224.302 125,-224.302"/>
<text text-anchor="middle" x="182" y="-231.302" font-family="Helvetica,sans-Serif" font-size="10.00">addNewSymbolINST0</text>
</a>
</g>
</g>
<!-- Node1&#45;&gt;Node3 -->
<g id="edge2" class="edge"><title>Node1&#45;&gt;Node3</title>
<path fill="none" stroke="midnightblue" d="M40.3429,-167.496C51.9467,-180.338 74.2272,-202.765 98,-214.802 103.323,-217.497 109.03,-219.815 114.868,-221.807"/>
<polygon fill="midnightblue" stroke="midnightblue" points="114.186,-225.259 124.773,-224.861 116.249,-218.57 114.186,-225.259"/>
</g>
<!-- Node5 -->
<g id="node5" class="node"><title>Node5</title>
<g id="a_node5"><a xlink:href="assembler_8cpp.html#a45dcd38a718d16b9fdcda1e45c4ad5de" target="_top" xlink:title="addNewSymbolINST1">
<polygon fill="white" stroke="black" points="125,-72.3022 125,-91.3022 239,-91.3022 239,-72.3022 125,-72.3022"/>
<text text-anchor="middle" x="182" y="-79.3022" font-family="Helvetica,sans-Serif" font-size="10.00">addNewSymbolINST1</text>
</a>
</g>
</g>
<!-- Node1&#45;&gt;Node5 -->
<g id="edge4" class="edge"><title>Node1&#45;&gt;Node5</title>
<path fill="none" stroke="midnightblue" d="M40.3429,-148.108C51.9467,-135.267 74.2272,-112.839 98,-100.802 103.323,-98.1072 109.03,-95.7897 114.868,-93.7977"/>
<polygon fill="midnightblue" stroke="midnightblue" points="116.249,-97.0348 124.773,-90.7433 114.186,-90.3456 116.249,-97.0348"/>
</g>
<!-- Node6 -->
<g id="node6" class="node"><title>Node6</title>
<g id="a_node6"><a xlink:href="parser_8cpp.html#a9ef8c814439aab8a9db6ae7207902ab1" target="_top" xlink:title="findLabel">
<polygon fill="white" stroke="black" points="329,-91.3022 329,-110.302 385,-110.302 385,-91.3022 329,-91.3022"/>
<text text-anchor="middle" x="357" y="-98.3022" font-family="Helvetica,sans-Serif" font-size="10.00">findLabel</text>
</a>
</g>
</g>
<!-- Node1&#45;&gt;Node6 -->
<g id="edge21" class="edge"><title>Node1&#45;&gt;Node6</title>
<path fill="none" stroke="midnightblue" d="M33.3443,-148.14C37.4882,-122.526 52.6529,-52.9228 98,-24.8022 161.456,14.548 195.876,0.844967 266,-24.8022 297.812,-36.4373 326.134,-64.8311 342.166,-83.4272"/>
<polygon fill="midnightblue" stroke="midnightblue" points="339.543,-85.7471 348.635,-91.1865 344.919,-81.2645 339.543,-85.7471"/>
</g>
<!-- Node7 -->
<g id="node7" class="node"><title>Node7</title>
<g id="a_node7"><a xlink:href="assembler_8cpp.html#a53bd42138e87fabd2519a34abbf40b55" target="_top" xlink:title="addNewSymbolINST1NUM">
<polygon fill="white" stroke="black" points="113.5,-262.302 113.5,-281.302 250.5,-281.302 250.5,-262.302 113.5,-262.302"/>
<text text-anchor="middle" x="182" y="-269.302" font-family="Helvetica,sans-Serif" font-size="10.00">addNewSymbolINST1NUM</text>
</a>
</g>
</g>
<!-- Node1&#45;&gt;Node7 -->
<g id="edge7" class="edge"><title>Node1&#45;&gt;Node7</title>
<path fill="none" stroke="midnightblue" d="M35.8026,-167.379C44.0249,-186.783 65.3875,-230.761 98,-252.802 100.968,-254.808 104.118,-256.605 107.389,-258.213"/>
<polygon fill="midnightblue" stroke="midnightblue" points="106.305,-261.556 116.876,-262.267 109.056,-255.119 106.305,-261.556"/>
</g>
<!-- Node8 -->
<g id="node8" class="node"><title>Node8</title>
<g id="a_node8"><a xlink:href="assembler_8cpp.html#ad85cc701dcbc6e69b1c273a99c2262d8" target="_top" xlink:title="addNewSymbolINST1PLUS">
<polygon fill="white" stroke="black" points="112,-34.3022 112,-53.3022 252,-53.3022 252,-34.3022 112,-34.3022"/>
<text text-anchor="middle" x="182" y="-41.3022" font-family="Helvetica,sans-Serif" font-size="10.00">addNewSymbolINST1PLUS</text>
</a>
</g>
</g>
<!-- Node1&#45;&gt;Node8 -->
<g id="edge9" class="edge"><title>Node1&#45;&gt;Node8</title>
<path fill="none" stroke="midnightblue" d="M35.8026,-148.225C44.0249,-128.821 65.3875,-84.843 98,-62.8022 100.968,-60.7963 104.118,-58.9998 107.389,-57.3912"/>
<polygon fill="midnightblue" stroke="midnightblue" points="109.056,-60.4852 116.876,-53.3371 106.305,-54.0483 109.056,-60.4852"/>
</g>
<!-- Node9 -->
<g id="node9" class="node"><title>Node9</title>
<g id="a_node9"><a xlink:href="assembler_8cpp.html#a4b08bb4206172aa8ae36e47f8298e274" target="_top" xlink:title="addNewSymbolINST2">
<polygon fill="white" stroke="black" points="125,-186.302 125,-205.302 239,-205.302 239,-186.302 125,-186.302"/>
<text text-anchor="middle" x="182" y="-193.302" font-family="Helvetica,sans-Serif" font-size="10.00">addNewSymbolINST2</text>
</a>
</g>
</g>
<!-- Node1&#45;&gt;Node9 -->
<g id="edge12" class="edge"><title>Node1&#45;&gt;Node9</title>
<path fill="none" stroke="midnightblue" d="M62.132,-166.856C73.3543,-170.128 86.224,-173.762 98,-176.802 107.454,-179.243 117.556,-181.69 127.341,-183.976"/>
<polygon fill="midnightblue" stroke="midnightblue" points="126.852,-187.455 137.383,-186.294 128.426,-180.634 126.852,-187.455"/>
</g>
<!-- Node10 -->
<g id="node10" class="node"><title>Node10</title>
<g id="a_node10"><a xlink:href="assembler_8cpp.html#a23fbad662368f294c55a33dfa57a904c" target="_top" xlink:title="addNewSymbolINST2PLUSPLUS">
<polygon fill="white" stroke="black" points="98.5,-148.302 98.5,-167.302 265.5,-167.302 265.5,-148.302 98.5,-148.302"/>
<text text-anchor="middle" x="182" y="-155.302" font-family="Helvetica,sans-Serif" font-size="10.00">addNewSymbolINST2PLUSPLUS</text>
</a>
</g>
</g>
<!-- Node1&#45;&gt;Node10 -->
<g id="edge15" class="edge"><title>Node1&#45;&gt;Node10</title>
<path fill="none" stroke="midnightblue" d="M62.1524,-157.802C70.0208,-157.802 78.927,-157.802 88.2387,-157.802"/>
<polygon fill="midnightblue" stroke="midnightblue" points="88.4723,-161.302 98.4723,-157.802 88.4723,-154.302 88.4723,-161.302"/>
</g>
<!-- Node11 -->
<g id="node11" class="node"><title>Node11</title>
<g id="a_node11"><a xlink:href="assembler_8cpp.html#a54fad2c006413b60d87eea48e412471b" target="_top" xlink:title="addNewLabel">
<polygon fill="white" stroke="black" points="144,-110.302 144,-129.302 220,-129.302 220,-110.302 144,-110.302"/>
<text text-anchor="middle" x="182" y="-117.302" font-family="Helvetica,sans-Serif" font-size="10.00">addNewLabel</text>
</a>
</g>
</g>
<!-- Node1&#45;&gt;Node11 -->
<g id="edge18" class="edge"><title>Node1&#45;&gt;Node11</title>
<path fill="none" stroke="midnightblue" d="M62.132,-148.748C73.3543,-145.477 86.224,-141.843 98,-138.802 109.513,-135.83 121.986,-132.849 133.678,-130.16"/>
<polygon fill="midnightblue" stroke="midnightblue" points="134.734,-133.509 143.708,-127.878 133.181,-126.683 134.734,-133.509"/>
</g>
<!-- Node4 -->
<g id="node4" class="node"><title>Node4</title>
<g id="a_node4"><a xlink:href="parser_8cpp.html#ab6243b513963c15735c801e6e3b7fbdf" target="_top" xlink:title="Verifica se determinada String representa um comando v치lido caso seja inv치lido retorna o c칩digo da in...">
<polygon fill="white" stroke="black" points="302.5,-148.302 302.5,-167.302 411.5,-167.302 411.5,-148.302 302.5,-148.302"/>
<text text-anchor="middle" x="357" y="-155.302" font-family="Helvetica,sans-Serif" font-size="10.00">isValidInstructionCall</text>
</a>
</g>
</g>
<!-- Node3&#45;&gt;Node4 -->
<g id="edge3" class="edge"><title>Node3&#45;&gt;Node4</title>
<path fill="none" stroke="midnightblue" d="M236.971,-224.254C246.816,-221.729 256.858,-218.612 266,-214.802 291.587,-204.141 318.062,-186.426 335.615,-173.571"/>
<polygon fill="midnightblue" stroke="midnightblue" points="338.016,-176.146 343.929,-167.354 333.824,-170.54 338.016,-176.146"/>
</g>
<!-- Node5&#45;&gt;Node4 -->
<g id="edge5" class="edge"><title>Node5&#45;&gt;Node4</title>
<path fill="none" stroke="midnightblue" d="M236.971,-91.35C246.816,-93.8759 256.858,-96.9928 266,-100.802 279.73,-106.523 311.733,-127.555 333.629,-142.401"/>
<polygon fill="midnightblue" stroke="midnightblue" points="331.796,-145.387 342.03,-148.129 335.739,-139.603 331.796,-145.387"/>
</g>
<!-- Node5&#45;&gt;Node6 -->
<g id="edge6" class="edge"><title>Node5&#45;&gt;Node6</title>
<path fill="none" stroke="midnightblue" d="M239.168,-87.971C265.178,-90.8276 295.377,-94.1442 318.556,-96.6899"/>
<polygon fill="midnightblue" stroke="midnightblue" points="318.349,-100.188 328.671,-97.8008 319.113,-93.2299 318.349,-100.188"/>
</g>
<!-- Node7&#45;&gt;Node4 -->
<g id="edge8" class="edge"><title>Node7&#45;&gt;Node4</title>
<path fill="none" stroke="midnightblue" d="M243.965,-262.235C251.652,-259.777 259.196,-256.687 266,-252.802 299.838,-233.485 328.73,-197.414 344.116,-175.707"/>
<polygon fill="midnightblue" stroke="midnightblue" points="347.067,-177.594 349.859,-167.373 341.303,-173.622 347.067,-177.594"/>
</g>
<!-- Node8&#45;&gt;Node4 -->
<g id="edge10" class="edge"><title>Node8&#45;&gt;Node4</title>
<path fill="none" stroke="midnightblue" d="M248.145,-53.4116C254.487,-55.8772 260.572,-58.9574 266,-62.8022 290.451,-80.1204 281.348,-98.0934 302,-119.802 310.143,-128.362 320.482,-136.189 329.928,-142.485"/>
<polygon fill="midnightblue" stroke="midnightblue" points="328.299,-145.597 338.611,-148.027 332.065,-139.697 328.299,-145.597"/>
</g>
<!-- Node8&#45;&gt;Node6 -->
<g id="edge11" class="edge"><title>Node8&#45;&gt;Node6</title>
<path fill="none" stroke="midnightblue" d="M231.228,-53.3454C242.728,-56.0316 254.887,-59.2144 266,-62.8022 286.643,-69.4667 309.124,-78.9569 326.453,-86.7859"/>
<polygon fill="midnightblue" stroke="midnightblue" points="325.46,-90.1809 336.009,-91.1696 328.379,-83.8185 325.46,-90.1809"/>
</g>
<!-- Node9&#45;&gt;Node4 -->
<g id="edge13" class="edge"><title>Node9&#45;&gt;Node4</title>
<path fill="none" stroke="midnightblue" d="M226.655,-186.213C249.793,-181.131 278.402,-174.847 302.827,-169.482"/>
<polygon fill="midnightblue" stroke="midnightblue" points="303.642,-172.886 312.659,-167.322 302.141,-166.049 303.642,-172.886"/>
</g>
<!-- Node9&#45;&gt;Node6 -->
<g id="edge14" class="edge"><title>Node9&#45;&gt;Node6</title>
<path fill="none" stroke="midnightblue" d="M239.166,-187.686C248.488,-185.025 257.784,-181.493 266,-176.802 286.204,-165.268 284.4,-154.016 302,-138.802 311.429,-130.652 322.588,-122.571 332.308,-115.97"/>
<polygon fill="midnightblue" stroke="midnightblue" points="334.349,-118.816 340.738,-110.364 330.473,-112.987 334.349,-118.816"/>
</g>
<!-- Node10&#45;&gt;Node4 -->
<g id="edge16" class="edge"><title>Node10&#45;&gt;Node4</title>
<path fill="none" stroke="midnightblue" d="M265.7,-157.802C274.691,-157.802 283.737,-157.802 292.449,-157.802"/>
<polygon fill="midnightblue" stroke="midnightblue" points="292.498,-161.302 302.498,-157.802 292.498,-154.302 292.498,-161.302"/>
</g>
<!-- Node10&#45;&gt;Node6 -->
<g id="edge17" class="edge"><title>Node10&#45;&gt;Node6</title>
<path fill="none" stroke="midnightblue" d="M231.228,-148.259C242.728,-145.573 254.887,-142.39 266,-138.802 286.643,-132.138 309.124,-122.648 326.453,-114.819"/>
<polygon fill="midnightblue" stroke="midnightblue" points="328.379,-117.786 336.009,-110.435 325.46,-111.424 328.379,-117.786"/>
</g>
<!-- Node11&#45;&gt;Node4 -->
<g id="edge19" class="edge"><title>Node11&#45;&gt;Node4</title>
<path fill="none" stroke="midnightblue" d="M220.113,-127.954C244.147,-133.233 275.831,-140.193 302.558,-146.064"/>
<polygon fill="midnightblue" stroke="midnightblue" points="302.014,-149.527 312.532,-148.254 303.516,-142.69 302.014,-149.527"/>
</g>
<!-- Node11&#45;&gt;Node6 -->
<g id="edge20" class="edge"><title>Node11&#45;&gt;Node6</title>
<path fill="none" stroke="midnightblue" d="M220.113,-115.726C249.204,-112.531 289.504,-108.105 318.655,-104.904"/>
<polygon fill="midnightblue" stroke="midnightblue" points="319.291,-108.355 328.849,-103.784 318.527,-101.397 319.291,-108.355"/>
</g>
</g>
</svg>
