<?xml version="1.0" encoding="UTF-8" standalone="no"?>
<!DOCTYPE svg PUBLIC "-//W3C//DTD SVG 1.1//EN"
 "http://www.w3.org/Graphics/SVG/1.1/DTD/svg11.dtd">
<!-- Generated by graphviz version 2.36.0 (20140111.2315)
 -->
<!-- Title: addNewLabel Pages: 1 -->
<svg width="230pt" height="66pt"
 viewBox="0.00 0.00 230.00 66.00" xmlns="http://www.w3.org/2000/svg" xmlns:xlink="http://www.w3.org/1999/xlink">
<g id="graph0" class="graph" transform="scale(1 1) rotate(0) translate(4 62)">
<title>addNewLabel</title>
<polygon fill="white" stroke="none" points="-4,4 -4,-62 226,-62 226,4 -4,4"/>
<!-- Node1 -->
<g id="node1" class="node"><title>Node1</title>
<polygon fill="#bfbfbf" stroke="black" points="0,-19.5 0,-38.5 76,-38.5 76,-19.5 0,-19.5"/>
<text text-anchor="middle" x="38" y="-26.5" font-family="Helvetica,sans-Serif" font-size="10.00">addNewLabel</text>
</g>
<!-- Node2 -->
<g id="node2" class="node"><title>Node2</title>
<g id="a_node2"><a xlink:href="parser_8cpp.html#ab6243b513963c15735c801e6e3b7fbdf" target="_top" xlink:title="Verifica se determinada String representa um comando válido caso seja inválido retorna o código da in...">
<polygon fill="white" stroke="black" points="112.5,-38.5 112.5,-57.5 221.5,-57.5 221.5,-38.5 112.5,-38.5"/>
<text text-anchor="middle" x="167" y="-45.5" font-family="Helvetica,sans-Serif" font-size="10.00">isValidInstructionCall</text>
</a>
</g>
</g>
<!-- Node1&#45;&gt;Node2 -->
<g id="edge1" class="edge"><title>Node1&#45;&gt;Node2</title>
<path fill="none" stroke="midnightblue" d="M76.0751,-34.5467C84.2671,-35.7722 93.1732,-37.1047 102.09,-38.4387"/>
<polygon fill="midnightblue" stroke="midnightblue" points="101.717,-41.9217 112.125,-39.9399 102.753,-34.9988 101.717,-41.9217"/>
</g>
<!-- Node3 -->
<g id="node3" class="node"><title>Node3</title>
<g id="a_node3"><a xlink:href="parser_8cpp.html#a9ef8c814439aab8a9db6ae7207902ab1" target="_top" xlink:title="findLabel">
<polygon fill="white" stroke="black" points="139,-0.5 139,-19.5 195,-19.5 195,-0.5 139,-0.5"/>
<text text-anchor="middle" x="167" y="-7.5" font-family="Helvetica,sans-Serif" font-size="10.00">findLabel</text>
</a>
</g>
</g>
<!-- Node1&#45;&gt;Node3 -->
<g id="edge2" class="edge"><title>Node1&#45;&gt;Node3</title>
<path fill="none" stroke="midnightblue" d="M76.0751,-23.4533C92.6879,-20.968 112.238,-18.0432 128.858,-15.5566"/>
<polygon fill="midnightblue" stroke="midnightblue" points="129.404,-19.014 138.776,-14.0729 128.368,-12.0911 129.404,-19.014"/>
</g>
</g>
</svg>
