<?xml version="1.0" encoding="UTF-8" standalone="no"?>
<!DOCTYPE svg PUBLIC "-//W3C//DTD SVG 1.1//EN"
 "http://www.w3.org/Graphics/SVG/1.1/DTD/svg11.dtd">
<!-- Generated by graphviz version 2.36.0 (20140111.2315)
 -->
<!-- Title: lexer.h Pages: 1 -->
<svg width="232pt" height="84pt"
 viewBox="0.00 0.00 232.00 84.00" xmlns="http://www.w3.org/2000/svg" xmlns:xlink="http://www.w3.org/1999/xlink">
<g id="graph0" class="graph" transform="scale(1 1) rotate(0) translate(4 80)">
<title>lexer.h</title>
<polygon fill="white" stroke="none" points="-4,4 -4,-80 228,-80 228,4 -4,4"/>
<!-- Node1 -->
<g id="node1" class="node"><title>Node1</title>
<polygon fill="#bfbfbf" stroke="black" points="58,-56.5 58,-75.5 104,-75.5 104,-56.5 58,-56.5"/>
<text text-anchor="middle" x="81" y="-63.5" font-family="Helvetica,sans-Serif" font-size="10.00">lexer.h</text>
</g>
<!-- Node2 -->
<g id="node2" class="node"><title>Node2</title>
<polygon fill="white" stroke="#bfbfbf" points="-0.5,-0.5 -0.5,-19.5 40.5,-19.5 40.5,-0.5 -0.5,-0.5"/>
<text text-anchor="middle" x="20" y="-7.5" font-family="Helvetica,sans-Serif" font-size="10.00">string</text>
</g>
<!-- Node1&#45;&gt;Node2 -->
<g id="edge1" class="edge"><title>Node1&#45;&gt;Node2</title>
<path fill="none" stroke="midnightblue" d="M71.1993,-56.324C62.1819,-48.3414 48.594,-36.3128 37.682,-26.6529"/>
<polygon fill="midnightblue" stroke="midnightblue" points="39.7866,-23.8416 29.979,-19.8339 35.1467,-29.083 39.7866,-23.8416"/>
</g>
<!-- Node3 -->
<g id="node3" class="node"><title>Node3</title>
<polygon fill="white" stroke="#bfbfbf" points="59,-0.5 59,-19.5 103,-19.5 103,-0.5 59,-0.5"/>
<text text-anchor="middle" x="81" y="-7.5" font-family="Helvetica,sans-Serif" font-size="10.00">vector</text>
</g>
<!-- Node1&#45;&gt;Node3 -->
<g id="edge2" class="edge"><title>Node1&#45;&gt;Node3</title>
<path fill="none" stroke="midnightblue" d="M81,-56.083C81,-49.0059 81,-38.8611 81,-29.9865"/>
<polygon fill="midnightblue" stroke="midnightblue" points="84.5001,-29.751 81,-19.7511 77.5001,-29.7511 84.5001,-29.751"/>
</g>
<!-- Node4 -->
<g id="node4" class="node"><title>Node4</title>
<g id="a_node4"><a xlink:href="languagedefinition_8h.html" target="_top" xlink:title="#brief Definições da liguagem assembly ">
<polygon fill="white" stroke="black" points="121.5,-0.5 121.5,-19.5 224.5,-19.5 224.5,-0.5 121.5,-0.5"/>
<text text-anchor="middle" x="173" y="-7.5" font-family="Helvetica,sans-Serif" font-size="10.00">languagedefinition.h</text>
</a>
</g>
</g>
<!-- Node1&#45;&gt;Node4 -->
<g id="edge3" class="edge"><title>Node1&#45;&gt;Node4</title>
<path fill="none" stroke="midnightblue" d="M95.7814,-56.324C110.267,-47.8215 132.573,-34.7288 149.493,-24.7975"/>
<polygon fill="midnightblue" stroke="midnightblue" points="151.403,-27.735 158.255,-19.6545 147.859,-21.6981 151.403,-27.735"/>
</g>
</g>
</svg>
