<?xml version="1.0" encoding="UTF-8" standalone="no"?>
<!DOCTYPE svg PUBLIC "-//W3C//DTD SVG 1.1//EN"
 "http://www.w3.org/Graphics/SVG/1.1/DTD/svg11.dtd">
<!-- Generated by graphviz version 2.36.0 (20140111.2315)
 -->
<!-- Title: lexer.h Pages: 1 -->
<svg width="621pt" height="84pt"
 viewBox="0.00 0.00 621.00 84.00" xmlns="http://www.w3.org/2000/svg" xmlns:xlink="http://www.w3.org/1999/xlink">
<g id="graph0" class="graph" transform="scale(1 1) rotate(0) translate(4 80)">
<title>lexer.h</title>
<polygon fill="white" stroke="none" points="-4,4 -4,-80 617,-80 617,4 -4,4"/>
<!-- Node1 -->
<g id="node1" class="node"><title>Node1</title>
<polygon fill="#bfbfbf" stroke="black" points="258,-56.5 258,-75.5 304,-75.5 304,-56.5 258,-56.5"/>
<text text-anchor="middle" x="281" y="-63.5" font-family="Helvetica,sans-Serif" font-size="10.00">lexer.h</text>
</g>
<!-- Node2 -->
<g id="node2" class="node"><title>Node2</title>
<g id="a_node2"><a xlink:href="assembler_8cpp.html" target="_top" xlink:title="assembler.cpp">
<polygon fill="white" stroke="black" points="0,-0.5 0,-19.5 80,-19.5 80,-0.5 0,-0.5"/>
<text text-anchor="middle" x="40" y="-7.5" font-family="Helvetica,sans-Serif" font-size="10.00">assembler.cpp</text>
</a>
</g>
</g>
<!-- Node1&#45;&gt;Node2 -->
<g id="edge1" class="edge"><title>Node1&#45;&gt;Node2</title>
<path fill="none" stroke="midnightblue" d="M247.902,-57.5839C203.474,-47.629 124.737,-29.9868 77.9566,-19.5048"/>
<polygon fill="midnightblue" stroke="midnightblue" points="247.369,-61.051 257.892,-59.8223 248.899,-54.2204 247.369,-61.051"/>
</g>
<!-- Node3 -->
<g id="node3" class="node"><title>Node3</title>
<g id="a_node3"><a xlink:href="lexer_8cpp.html" target="_top" xlink:title="lexer.cpp">
<polygon fill="white" stroke="black" points="98,-0.5 98,-19.5 154,-19.5 154,-0.5 98,-0.5"/>
<text text-anchor="middle" x="126" y="-7.5" font-family="Helvetica,sans-Serif" font-size="10.00">lexer.cpp</text>
</a>
</g>
</g>
<!-- Node1&#45;&gt;Node3 -->
<g id="edge2" class="edge"><title>Node1&#45;&gt;Node3</title>
<path fill="none" stroke="midnightblue" d="M248.059,-53.5236C218.898,-43.3645 176.991,-28.7647 150.647,-19.5865"/>
<polygon fill="midnightblue" stroke="midnightblue" points="247.2,-56.9308 257.795,-56.9157 249.503,-50.3205 247.2,-56.9308"/>
</g>
<!-- Node4 -->
<g id="node4" class="node"><title>Node4</title>
<g id="a_node4"><a xlink:href="linker_8cpp.html" target="_top" xlink:title="linker.cpp">
<polygon fill="white" stroke="black" points="172.5,-0.5 172.5,-19.5 231.5,-19.5 231.5,-0.5 172.5,-0.5"/>
<text text-anchor="middle" x="202" y="-7.5" font-family="Helvetica,sans-Serif" font-size="10.00">linker.cpp</text>
</a>
</g>
</g>
<!-- Node1&#45;&gt;Node4 -->
<g id="edge3" class="edge"><title>Node1&#45;&gt;Node4</title>
<path fill="none" stroke="midnightblue" d="M259.966,-50.6221C245.534,-40.7574 226.859,-27.9919 214.661,-19.6545"/>
<polygon fill="midnightblue" stroke="midnightblue" points="258.077,-53.5703 268.307,-56.324 262.027,-47.7914 258.077,-53.5703"/>
</g>
<!-- Node5 -->
<g id="node5" class="node"><title>Node5</title>
<g id="a_node5"><a xlink:href="loader_8cpp.html" target="_top" xlink:title="loader.cpp">
<polygon fill="white" stroke="black" points="250,-0.5 250,-19.5 312,-19.5 312,-0.5 250,-0.5"/>
<text text-anchor="middle" x="281" y="-7.5" font-family="Helvetica,sans-Serif" font-size="10.00">loader.cpp</text>
</a>
</g>
</g>
<!-- Node1&#45;&gt;Node5 -->
<g id="edge4" class="edge"><title>Node1&#45;&gt;Node5</title>
<path fill="none" stroke="midnightblue" d="M281,-45.8045C281,-36.9102 281,-26.7798 281,-19.7511"/>
<polygon fill="midnightblue" stroke="midnightblue" points="277.5,-46.083 281,-56.083 284.5,-46.083 277.5,-46.083"/>
</g>
<!-- Node6 -->
<g id="node6" class="node"><title>Node6</title>
<g id="a_node6"><a xlink:href="macroeval_8cpp.html" target="_top" xlink:title="macroeval.cpp">
<polygon fill="white" stroke="black" points="330,-0.5 330,-19.5 410,-19.5 410,-0.5 330,-0.5"/>
<text text-anchor="middle" x="370" y="-7.5" font-family="Helvetica,sans-Serif" font-size="10.00">macroeval.cpp</text>
</a>
</g>
</g>
<!-- Node1&#45;&gt;Node6 -->
<g id="edge5" class="edge"><title>Node1&#45;&gt;Node6</title>
<path fill="none" stroke="midnightblue" d="M304.238,-50.9005C320.558,-40.9986 341.865,-28.0705 355.736,-19.6545"/>
<polygon fill="midnightblue" stroke="midnightblue" points="302.033,-48.1444 295.299,-56.324 305.664,-54.1289 302.033,-48.1444"/>
</g>
<!-- Node7 -->
<g id="node7" class="node"><title>Node7</title>
<g id="a_node7"><a xlink:href="preprocessor_8cpp.html" target="_top" xlink:title="preprocessor.cpp">
<polygon fill="white" stroke="black" points="428,-0.5 428,-19.5 520,-19.5 520,-0.5 428,-0.5"/>
<text text-anchor="middle" x="474" y="-7.5" font-family="Helvetica,sans-Serif" font-size="10.00">preprocessor.cpp</text>
</a>
</g>
</g>
<!-- Node1&#45;&gt;Node7 -->
<g id="edge6" class="edge"><title>Node1&#45;&gt;Node7</title>
<path fill="none" stroke="midnightblue" d="M314.361,-55.6658C350.638,-45.5158 408.133,-29.4291 443.321,-19.5837"/>
<polygon fill="midnightblue" stroke="midnightblue" points="312.967,-52.4213 304.28,-58.4863 314.854,-59.1624 312.967,-52.4213"/>
</g>
<!-- Node8 -->
<g id="node8" class="node"><title>Node8</title>
<g id="a_node8"><a xlink:href="simulator_8cpp.html" target="_top" xlink:title="simulator.cpp">
<polygon fill="white" stroke="black" points="538.5,-0.5 538.5,-19.5 613.5,-19.5 613.5,-0.5 538.5,-0.5"/>
<text text-anchor="middle" x="576" y="-7.5" font-family="Helvetica,sans-Serif" font-size="10.00">simulator.cpp</text>
</a>
</g>
</g>
<!-- Node1&#45;&gt;Node8 -->
<g id="edge7" class="edge"><title>Node1&#45;&gt;Node8</title>
<path fill="none" stroke="midnightblue" d="M314.313,-59.0612C361.936,-50.5471 452.214,-34.3179 529,-20 532.022,-19.4365 535.152,-18.8479 538.296,-18.2532"/>
<polygon fill="midnightblue" stroke="midnightblue" points="313.492,-55.6523 304.264,-60.8564 314.724,-62.5432 313.492,-55.6523"/>
</g>
</g>
</svg>
