<?xml version="1.0" encoding="UTF-8" standalone="no"?>
<!DOCTYPE svg PUBLIC "-//W3C//DTD SVG 1.1//EN"
 "http://www.w3.org/Graphics/SVG/1.1/DTD/svg11.dtd">
<!-- Generated by graphviz version 2.36.0 (20140111.2315)
 -->
<!-- Title: scanner Pages: 1 -->
<svg width="342pt" height="163pt"
 viewBox="0.00 0.00 342.00 162.52" xmlns="http://www.w3.org/2000/svg" xmlns:xlink="http://www.w3.org/1999/xlink">
<g id="graph0" class="graph" transform="scale(1 1) rotate(0) translate(4 158.517)">
<title>scanner</title>
<polygon fill="white" stroke="none" points="-4,4 -4,-158.517 338,-158.517 338,4 -4,4"/>
<!-- Node1 -->
<g id="node1" class="node"><title>Node1</title>
<polygon fill="#bfbfbf" stroke="black" points="0.5,-104.5 0.5,-123.5 51.5,-123.5 51.5,-104.5 0.5,-104.5"/>
<text text-anchor="middle" x="26" y="-111.5" font-family="Helvetica,sans-Serif" font-size="10.00">scanner</text>
</g>
<!-- Node2 -->
<g id="node2" class="node"><title>Node2</title>
<g id="a_node2"><a xlink:href="assembler_8h.html#a797a6a110fea06ef3ba01a4a30ea9695" target="_top" xlink:title="Montador. ">
<polygon fill="white" stroke="black" points="88,-133.5 88,-152.5 150,-152.5 150,-133.5 88,-133.5"/>
<text text-anchor="middle" x="119" y="-140.5" font-family="Helvetica,sans-Serif" font-size="10.00">assembler</text>
</a>
</g>
</g>
<!-- Node1&#45;&gt;Node2 -->
<g id="edge1" class="edge"><title>Node1&#45;&gt;Node2</title>
<path fill="none" stroke="midnightblue" d="M61.4141,-124.967C70.1557,-127.753 79.4787,-130.724 87.9825,-133.434"/>
<polygon fill="midnightblue" stroke="midnightblue" points="62.4568,-121.626 51.8661,-121.924 60.3313,-128.296 62.4568,-121.626"/>
</g>
<!-- Node4 -->
<g id="node4" class="node"><title>Node4</title>
<g id="a_node4"><a xlink:href="lexer_8h.html#ab482a9701233ff4e5a0ffc1f75f9c41a" target="_top" xlink:title="Verifica uma string e retorna um vetor de tokens. ">
<polygon fill="white" stroke="black" points="91,-76.5 91,-95.5 147,-95.5 147,-76.5 91,-76.5"/>
<text text-anchor="middle" x="119" y="-83.5" font-family="Helvetica,sans-Serif" font-size="10.00">tokenizer</text>
</a>
</g>
</g>
<!-- Node1&#45;&gt;Node4 -->
<g id="edge3" class="edge"><title>Node1&#45;&gt;Node4</title>
<path fill="none" stroke="midnightblue" d="M61.6403,-103.341C71.3392,-100.357 81.7372,-97.1578 90.928,-94.3298"/>
<polygon fill="midnightblue" stroke="midnightblue" points="60.3946,-100.063 51.8661,-106.349 62.4533,-106.753 60.3946,-100.063"/>
</g>
<!-- Node3 -->
<g id="node3" class="node"><title>Node3</title>
<g id="a_node3"><a xlink:href="main_8cpp.html#a3c04138a5bfe5d72780bb7e82a18e627" target="_top" xlink:title="main">
<polygon fill="white" stroke="black" points="296,-76.5 296,-95.5 334,-95.5 334,-76.5 296,-76.5"/>
<text text-anchor="middle" x="315" y="-83.5" font-family="Helvetica,sans-Serif" font-size="10.00">main</text>
</a>
</g>
</g>
<!-- Node2&#45;&gt;Node3 -->
<g id="edge2" class="edge"><title>Node2&#45;&gt;Node3</title>
<path fill="none" stroke="midnightblue" d="M160.213,-151.184C189.154,-155.163 228.481,-156.557 260,-143 282.54,-133.305 300.08,-109.064 308.508,-95.5248"/>
<polygon fill="midnightblue" stroke="midnightblue" points="160.469,-147.682 150.054,-149.624 159.407,-154.601 160.469,-147.682"/>
</g>
<!-- Node5 -->
<g id="node5" class="node"><title>Node5</title>
<g id="a_node5"><a xlink:href="linker_8cpp.html#a3c04138a5bfe5d72780bb7e82a18e627" target="_top" xlink:title="main">
<polygon fill="white" stroke="black" points="204,-114.5 204,-133.5 242,-133.5 242,-114.5 204,-114.5"/>
<text text-anchor="middle" x="223" y="-121.5" font-family="Helvetica,sans-Serif" font-size="10.00">main</text>
</a>
</g>
</g>
<!-- Node4&#45;&gt;Node5 -->
<g id="edge4" class="edge"><title>Node4&#45;&gt;Node5</title>
<path fill="none" stroke="midnightblue" d="M155.551,-99.2444C171.905,-105.337 190.599,-112.302 203.985,-117.288"/>
<polygon fill="midnightblue" stroke="midnightblue" points="156.332,-95.8004 145.739,-95.589 153.888,-102.36 156.332,-95.8004"/>
</g>
<!-- Node6 -->
<g id="node6" class="node"><title>Node6</title>
<g id="a_node6"><a xlink:href="macroeval_8h.html#afd6754ab646ddc8aa952e7d63cb5ad81" target="_top" xlink:title="macroeval">
<polygon fill="white" stroke="black" points="192,-76.5 192,-95.5 254,-95.5 254,-76.5 192,-76.5"/>
<text text-anchor="middle" x="223" y="-83.5" font-family="Helvetica,sans-Serif" font-size="10.00">macroeval</text>
</a>
</g>
</g>
<!-- Node4&#45;&gt;Node6 -->
<g id="edge5" class="edge"><title>Node4&#45;&gt;Node6</title>
<path fill="none" stroke="midnightblue" d="M157.203,-86C168.626,-86 181.047,-86 191.93,-86"/>
<polygon fill="midnightblue" stroke="midnightblue" points="157.066,-82.5001 147.066,-86 157.066,-89.5001 157.066,-82.5001"/>
</g>
<!-- Node7 -->
<g id="node7" class="node"><title>Node7</title>
<g id="a_node7"><a xlink:href="preprocessor_8h.html#a20cb42028a668e38567f8a26304b9c69" target="_top" xlink:title="preprocessor">
<polygon fill="white" stroke="black" points="186.5,-38.5 186.5,-57.5 259.5,-57.5 259.5,-38.5 186.5,-38.5"/>
<text text-anchor="middle" x="223" y="-45.5" font-family="Helvetica,sans-Serif" font-size="10.00">preprocessor</text>
</a>
</g>
</g>
<!-- Node4&#45;&gt;Node7 -->
<g id="edge7" class="edge"><title>Node4&#45;&gt;Node7</title>
<path fill="none" stroke="midnightblue" d="M155.211,-72.882C168.702,-67.8561 183.828,-62.2209 196.269,-57.5859"/>
<polygon fill="midnightblue" stroke="midnightblue" points="153.888,-69.6401 145.739,-76.411 156.332,-76.1996 153.888,-69.6401"/>
</g>
<!-- Node8 -->
<g id="node8" class="node"><title>Node8</title>
<g id="a_node8"><a xlink:href="simulator_8h.html#ac22a38b5c3395e0092ff660c6767ab38" target="_top" xlink:title="simulator">
<polygon fill="white" stroke="black" points="195,-0.5 195,-19.5 251,-19.5 251,-0.5 195,-0.5"/>
<text text-anchor="middle" x="223" y="-7.5" font-family="Helvetica,sans-Serif" font-size="10.00">simulator</text>
</a>
</g>
</g>
<!-- Node4&#45;&gt;Node8 -->
<g id="edge9" class="edge"><title>Node4&#45;&gt;Node8</title>
<path fill="none" stroke="midnightblue" d="M137.291,-69.1372C150.114,-57.1264 168.357,-41.0439 186,-29 190.903,-25.653 196.464,-22.4569 201.724,-19.6729"/>
<polygon fill="midnightblue" stroke="midnightblue" points="134.536,-66.9278 129.708,-76.3588 139.363,-71.9969 134.536,-66.9278"/>
</g>
<!-- Node6&#45;&gt;Node3 -->
<g id="edge6" class="edge"><title>Node6&#45;&gt;Node3</title>
<path fill="none" stroke="midnightblue" d="M264.747,-86C275.662,-86 286.913,-86 295.902,-86"/>
<polygon fill="midnightblue" stroke="midnightblue" points="264.47,-82.5001 254.47,-86 264.47,-89.5001 264.47,-82.5001"/>
</g>
<!-- Node7&#45;&gt;Node3 -->
<g id="edge8" class="edge"><title>Node7&#45;&gt;Node3</title>
<path fill="none" stroke="midnightblue" d="M256.065,-61.5384C269.417,-67.1762 284.431,-73.5151 295.828,-78.3273"/>
<polygon fill="midnightblue" stroke="midnightblue" points="257.285,-58.2544 246.711,-57.589 254.562,-64.7032 257.285,-58.2544"/>
</g>
<!-- Node9 -->
<g id="node9" class="node"><title>Node9</title>
<g id="a_node9"><a xlink:href="loader_8cpp.html#a3c04138a5bfe5d72780bb7e82a18e627" target="_top" xlink:title="main">
<polygon fill="white" stroke="black" points="296,-0.5 296,-19.5 334,-19.5 334,-0.5 296,-0.5"/>
<text text-anchor="middle" x="315" y="-7.5" font-family="Helvetica,sans-Serif" font-size="10.00">main</text>
</a>
</g>
</g>
<!-- Node8&#45;&gt;Node9 -->
<g id="edge10" class="edge"><title>Node8&#45;&gt;Node9</title>
<path fill="none" stroke="midnightblue" d="M261.228,-10C273.185,-10 285.897,-10 295.848,-10"/>
<polygon fill="midnightblue" stroke="midnightblue" points="261.003,-6.5001 251.003,-10 261.003,-13.5001 261.003,-6.5001"/>
</g>
</g>
</svg>
