<?xml version="1.0" encoding="UTF-8" standalone="no"?>
<!DOCTYPE svg PUBLIC "-//W3C//DTD SVG 1.1//EN"
 "http://www.w3.org/Graphics/SVG/1.1/DTD/svg11.dtd">
<!-- Generated by graphviz version 2.36.0 (20140111.2315)
 -->
<!-- Title: lexer.cpp Pages: 1 -->
<svg width="247pt" height="140pt"
 viewBox="0.00 0.00 247.00 140.00" xmlns="http://www.w3.org/2000/svg" xmlns:xlink="http://www.w3.org/1999/xlink">
<g id="graph0" class="graph" transform="scale(1 1) rotate(0) translate(4 136)">
<title>lexer.cpp</title>
<polygon fill="white" stroke="none" points="-4,4 -4,-136 243,-136 243,4 -4,4"/>
<!-- Node1 -->
<g id="node1" class="node"><title>Node1</title>
<polygon fill="#bfbfbf" stroke="black" points="18,-112.5 18,-131.5 74,-131.5 74,-112.5 18,-112.5"/>
<text text-anchor="middle" x="46" y="-119.5" font-family="Helvetica,sans-Serif" font-size="10.00">lexer.cpp</text>
</g>
<!-- Node2 -->
<g id="node2" class="node"><title>Node2</title>
<polygon fill="white" stroke="#bfbfbf" points="0,-0.5 0,-19.5 44,-19.5 44,-0.5 0,-0.5"/>
<text text-anchor="middle" x="22" y="-7.5" font-family="Helvetica,sans-Serif" font-size="10.00">vector</text>
</g>
<!-- Node1&#45;&gt;Node2 -->
<g id="edge1" class="edge"><title>Node1&#45;&gt;Node2</title>
<path fill="none" stroke="midnightblue" d="M35.8379,-112.185C27.0916,-103.87 15.1,-90.539 10,-76 4.60502,-60.6201 8.89018,-42.2981 13.7749,-29.0328"/>
<polygon fill="midnightblue" stroke="midnightblue" points="17.075,-30.2106 17.6473,-19.6312 10.6025,-27.5446 17.075,-30.2106"/>
</g>
<!-- Node3 -->
<g id="node3" class="node"><title>Node3</title>
<polygon fill="white" stroke="#bfbfbf" points="19,-56.5 19,-75.5 73,-75.5 73,-56.5 19,-56.5"/>
<text text-anchor="middle" x="46" y="-63.5" font-family="Helvetica,sans-Serif" font-size="10.00">iostream</text>
</g>
<!-- Node1&#45;&gt;Node3 -->
<g id="edge2" class="edge"><title>Node1&#45;&gt;Node3</title>
<path fill="none" stroke="midnightblue" d="M46,-112.083C46,-105.006 46,-94.8611 46,-85.9865"/>
<polygon fill="midnightblue" stroke="midnightblue" points="49.5001,-85.751 46,-75.7511 42.5001,-85.7511 49.5001,-85.751"/>
</g>
<!-- Node4 -->
<g id="node4" class="node"><title>Node4</title>
<g id="a_node4"><a xlink:href="lexer_8h.html" target="_top" xlink:title="lexer.h">
<polygon fill="white" stroke="black" points="91,-56.5 91,-75.5 137,-75.5 137,-56.5 91,-56.5"/>
<text text-anchor="middle" x="114" y="-63.5" font-family="Helvetica,sans-Serif" font-size="10.00">lexer.h</text>
</a>
</g>
</g>
<!-- Node1&#45;&gt;Node4 -->
<g id="edge3" class="edge"><title>Node1&#45;&gt;Node4</title>
<path fill="none" stroke="midnightblue" d="M56.9254,-112.324C67.1746,-104.185 82.7206,-91.8395 95.001,-82.0874"/>
<polygon fill="midnightblue" stroke="midnightblue" points="97.2213,-84.7937 102.876,-75.8339 92.8681,-79.3119 97.2213,-84.7937"/>
</g>
<!-- Node4&#45;&gt;Node2 -->
<g id="edge5" class="edge"><title>Node4&#45;&gt;Node2</title>
<path fill="none" stroke="midnightblue" d="M99.2186,-56.324C84.7329,-47.8215 62.4269,-34.7288 45.5068,-24.7975"/>
<polygon fill="midnightblue" stroke="midnightblue" points="47.1406,-21.6981 36.7447,-19.6545 43.5972,-27.735 47.1406,-21.6981"/>
</g>
<!-- Node5 -->
<g id="node5" class="node"><title>Node5</title>
<polygon fill="white" stroke="#bfbfbf" points="77.5,-0.5 77.5,-19.5 118.5,-19.5 118.5,-0.5 77.5,-0.5"/>
<text text-anchor="middle" x="98" y="-7.5" font-family="Helvetica,sans-Serif" font-size="10.00">string</text>
</g>
<!-- Node4&#45;&gt;Node5 -->
<g id="edge4" class="edge"><title>Node4&#45;&gt;Node5</title>
<path fill="none" stroke="midnightblue" d="M111.358,-56.083C109.214,-48.8486 106.121,-38.4087 103.451,-29.3968"/>
<polygon fill="midnightblue" stroke="midnightblue" points="106.79,-28.3447 100.593,-19.7511 100.078,-30.3334 106.79,-28.3447"/>
</g>
<!-- Node6 -->
<g id="node6" class="node"><title>Node6</title>
<g id="a_node6"><a xlink:href="languagedefinition_8h.html" target="_top" xlink:title="#brief Definições da liguagem assembly ">
<polygon fill="white" stroke="black" points="136.5,-0.5 136.5,-19.5 239.5,-19.5 239.5,-0.5 136.5,-0.5"/>
<text text-anchor="middle" x="188" y="-7.5" font-family="Helvetica,sans-Serif" font-size="10.00">languagedefinition.h</text>
</a>
</g>
</g>
<!-- Node4&#45;&gt;Node6 -->
<g id="edge6" class="edge"><title>Node4&#45;&gt;Node6</title>
<path fill="none" stroke="midnightblue" d="M125.889,-56.324C137.15,-48.1066 154.287,-35.6017 167.709,-25.8069"/>
<polygon fill="midnightblue" stroke="midnightblue" points="169.88,-28.5559 175.894,-19.8339 165.753,-22.9014 169.88,-28.5559"/>
</g>
</g>
</svg>
