<?xml version="1.0" encoding="UTF-8" standalone="no"?>
<!DOCTYPE svg PUBLIC "-//W3C//DTD SVG 1.1//EN"
 "http://www.w3.org/Graphics/SVG/1.1/DTD/svg11.dtd">
<!-- Generated by graphviz version 2.36.0 (20140111.2315)
 -->
<!-- Title: linker.cpp Pages: 1 -->
<svg width="528pt" height="140pt"
 viewBox="0.00 0.00 528.00 140.00" xmlns="http://www.w3.org/2000/svg" xmlns:xlink="http://www.w3.org/1999/xlink">
<g id="graph0" class="graph" transform="scale(1 1) rotate(0) translate(4 136)">
<title>linker.cpp</title>
<polygon fill="white" stroke="none" points="-4,4 -4,-136 524,-136 524,4 -4,4"/>
<!-- Node1 -->
<g id="node1" class="node"><title>Node1</title>
<polygon fill="#bfbfbf" stroke="black" points="254.5,-112.5 254.5,-131.5 313.5,-131.5 313.5,-112.5 254.5,-112.5"/>
<text text-anchor="middle" x="284" y="-119.5" font-family="Helvetica,sans-Serif" font-size="10.00">linker.cpp</text>
</g>
<!-- Node2 -->
<g id="node2" class="node"><title>Node2</title>
<polygon fill="white" stroke="#bfbfbf" points="0,-56.5 0,-75.5 54,-75.5 54,-56.5 0,-56.5"/>
<text text-anchor="middle" x="27" y="-63.5" font-family="Helvetica,sans-Serif" font-size="10.00">iostream</text>
</g>
<!-- Node1&#45;&gt;Node2 -->
<g id="edge1" class="edge"><title>Node1&#45;&gt;Node2</title>
<path fill="none" stroke="midnightblue" d="M254.242,-115.373C213.543,-107.584 138.015,-92.7942 64.0466,-76.1611"/>
<polygon fill="midnightblue" stroke="midnightblue" points="64.622,-72.7029 54.0962,-73.91 63.0774,-79.5304 64.622,-72.7029"/>
</g>
<!-- Node3 -->
<g id="node3" class="node"><title>Node3</title>
<polygon fill="white" stroke="#bfbfbf" points="72,-56.5 72,-75.5 122,-75.5 122,-56.5 72,-56.5"/>
<text text-anchor="middle" x="97" y="-63.5" font-family="Helvetica,sans-Serif" font-size="10.00">fstream</text>
</g>
<!-- Node1&#45;&gt;Node3 -->
<g id="edge2" class="edge"><title>Node1&#45;&gt;Node3</title>
<path fill="none" stroke="midnightblue" d="M254.369,-112.444C221.094,-102.835 167.145,-87.2558 131.867,-77.0686"/>
<polygon fill="midnightblue" stroke="midnightblue" points="132.582,-73.6321 122.004,-74.2203 130.64,-80.3573 132.582,-73.6321"/>
</g>
<!-- Node4 -->
<g id="node4" class="node"><title>Node4</title>
<polygon fill="white" stroke="#bfbfbf" points="140,-56.5 140,-75.5 192,-75.5 192,-56.5 140,-56.5"/>
<text text-anchor="middle" x="166" y="-63.5" font-family="Helvetica,sans-Serif" font-size="10.00">sstream</text>
</g>
<!-- Node1&#45;&gt;Node4 -->
<g id="edge3" class="edge"><title>Node1&#45;&gt;Node4</title>
<path fill="none" stroke="midnightblue" d="M265.303,-112.444C246.056,-103.636 215.848,-89.8116 193.8,-79.722"/>
<polygon fill="midnightblue" stroke="midnightblue" points="195.16,-76.4951 184.61,-75.5164 192.247,-82.8603 195.16,-76.4951"/>
</g>
<!-- Node5 -->
<g id="node5" class="node"><title>Node5</title>
<polygon fill="white" stroke="#bfbfbf" points="263.5,-0.5 263.5,-19.5 304.5,-19.5 304.5,-0.5 263.5,-0.5"/>
<text text-anchor="middle" x="284" y="-7.5" font-family="Helvetica,sans-Serif" font-size="10.00">string</text>
</g>
<!-- Node1&#45;&gt;Node5 -->
<g id="edge4" class="edge"><title>Node1&#45;&gt;Node5</title>
<path fill="none" stroke="midnightblue" d="M284,-112.368C284,-94.617 284,-53.6664 284,-29.5974"/>
<polygon fill="midnightblue" stroke="midnightblue" points="287.5,-29.5914 284,-19.5914 280.5,-29.5915 287.5,-29.5914"/>
</g>
<!-- Node6 -->
<g id="node6" class="node"><title>Node6</title>
<polygon fill="white" stroke="#bfbfbf" points="393,-0.5 393,-19.5 449,-19.5 449,-0.5 393,-0.5"/>
<text text-anchor="middle" x="421" y="-7.5" font-family="Helvetica,sans-Serif" font-size="10.00">algorithm</text>
</g>
<!-- Node1&#45;&gt;Node6 -->
<g id="edge5" class="edge"><title>Node1&#45;&gt;Node6</title>
<path fill="none" stroke="midnightblue" d="M313.566,-118.994C342.945,-115.33 386.985,-105.011 411,-76 421.57,-63.2306 423.367,-44.0383 422.943,-29.8156"/>
<polygon fill="midnightblue" stroke="midnightblue" points="426.425,-29.4304 422.251,-19.6924 419.441,-29.9078 426.425,-29.4304"/>
</g>
<!-- Node7 -->
<g id="node7" class="node"><title>Node7</title>
<polygon fill="white" stroke="#bfbfbf" points="323,-0.5 323,-19.5 367,-19.5 367,-0.5 323,-0.5"/>
<text text-anchor="middle" x="345" y="-7.5" font-family="Helvetica,sans-Serif" font-size="10.00">vector</text>
</g>
<!-- Node1&#45;&gt;Node7 -->
<g id="edge6" class="edge"><title>Node1&#45;&gt;Node7</title>
<path fill="none" stroke="midnightblue" d="M288.787,-112.368C298.764,-94.376 321.958,-52.5503 335.225,-28.6267"/>
<polygon fill="midnightblue" stroke="midnightblue" points="338.447,-30.0342 340.236,-19.5914 332.325,-26.6393 338.447,-30.0342"/>
</g>
<!-- Node8 -->
<g id="node8" class="node"><title>Node8</title>
<g id="a_node8"><a xlink:href="msgs__pt_8h.html" target="_top" xlink:title="msgs_pt.h">
<polygon fill="white" stroke="black" points="458,-56.5 458,-75.5 520,-75.5 520,-56.5 458,-56.5"/>
<text text-anchor="middle" x="489" y="-63.5" font-family="Helvetica,sans-Serif" font-size="10.00">msgs_pt.h</text>
</a>
</g>
</g>
<!-- Node1&#45;&gt;Node8 -->
<g id="edge7" class="edge"><title>Node1&#45;&gt;Node8</title>
<path fill="none" stroke="midnightblue" d="M313.809,-113.148C349.154,-103.837 408.26,-88.2682 447.923,-77.8202"/>
<polygon fill="midnightblue" stroke="midnightblue" points="449.032,-81.1475 457.811,-75.2157 447.249,-74.3784 449.032,-81.1475"/>
</g>
<!-- Node9 -->
<g id="node9" class="node"><title>Node9</title>
<g id="a_node9"><a xlink:href="lexer_8h.html" target="_top" xlink:title="lexer.h">
<polygon fill="white" stroke="black" points="210,-56.5 210,-75.5 256,-75.5 256,-56.5 210,-56.5"/>
<text text-anchor="middle" x="233" y="-63.5" font-family="Helvetica,sans-Serif" font-size="10.00">lexer.h</text>
</a>
</g>
</g>
<!-- Node1&#45;&gt;Node9 -->
<g id="edge8" class="edge"><title>Node1&#45;&gt;Node9</title>
<path fill="none" stroke="midnightblue" d="M275.578,-112.083C268.152,-104.22 257.148,-92.5688 248.188,-83.0813"/>
<polygon fill="midnightblue" stroke="midnightblue" points="250.676,-80.618 241.265,-75.7511 245.587,-85.4244 250.676,-80.618"/>
</g>
<!-- Node11 -->
<g id="node11" class="node"><title>Node11</title>
<g id="a_node11"><a xlink:href="parser_8h.html" target="_top" xlink:title="parser.h">
<polygon fill="white" stroke="black" points="350,-56.5 350,-75.5 402,-75.5 402,-56.5 350,-56.5"/>
<text text-anchor="middle" x="376" y="-63.5" font-family="Helvetica,sans-Serif" font-size="10.00">parser.h</text>
</a>
</g>
</g>
<!-- Node1&#45;&gt;Node11 -->
<g id="edge12" class="edge"><title>Node1&#45;&gt;Node11</title>
<path fill="none" stroke="midnightblue" d="M298.781,-112.324C313.267,-103.822 335.573,-90.7288 352.493,-80.7975"/>
<polygon fill="midnightblue" stroke="midnightblue" points="354.403,-83.735 361.255,-75.6545 350.859,-77.6981 354.403,-83.735"/>
</g>
<!-- Node9&#45;&gt;Node5 -->
<g id="edge9" class="edge"><title>Node9&#45;&gt;Node5</title>
<path fill="none" stroke="midnightblue" d="M241.422,-56.083C248.848,-48.2195 259.852,-36.5688 268.812,-27.0813"/>
<polygon fill="midnightblue" stroke="midnightblue" points="271.413,-29.4244 275.735,-19.7511 266.324,-24.618 271.413,-29.4244"/>
</g>
<!-- Node9&#45;&gt;Node7 -->
<g id="edge10" class="edge"><title>Node9&#45;&gt;Node7</title>
<path fill="none" stroke="midnightblue" d="M250.995,-56.324C269.038,-47.6247 297.047,-34.1202 317.803,-24.113"/>
<polygon fill="midnightblue" stroke="midnightblue" points="319.562,-27.1502 327.05,-19.6545 316.522,-20.8449 319.562,-27.1502"/>
</g>
<!-- Node10 -->
<g id="node10" class="node"><title>Node10</title>
<g id="a_node10"><a xlink:href="languagedefinition_8h.html" target="_top" xlink:title="#brief Definições da liguagem assembly ">
<polygon fill="white" stroke="black" points="142.5,-0.5 142.5,-19.5 245.5,-19.5 245.5,-0.5 142.5,-0.5"/>
<text text-anchor="middle" x="194" y="-7.5" font-family="Helvetica,sans-Serif" font-size="10.00">languagedefinition.h</text>
</a>
</g>
</g>
<!-- Node9&#45;&gt;Node10 -->
<g id="edge11" class="edge"><title>Node9&#45;&gt;Node10</title>
<path fill="none" stroke="midnightblue" d="M226.56,-56.083C221.051,-48.4554 212.969,-37.2645 206.235,-27.9408"/>
<polygon fill="midnightblue" stroke="midnightblue" points="209.013,-25.8087 200.32,-19.7511 203.338,-29.9071 209.013,-25.8087"/>
</g>
<!-- Node11&#45;&gt;Node5 -->
<g id="edge13" class="edge"><title>Node11&#45;&gt;Node5</title>
<path fill="none" stroke="midnightblue" d="M361.219,-56.324C346.733,-47.8215 324.427,-34.7288 307.507,-24.7975"/>
<polygon fill="midnightblue" stroke="midnightblue" points="309.141,-21.6981 298.745,-19.6545 305.597,-27.735 309.141,-21.6981"/>
</g>
<!-- Node11&#45;&gt;Node6 -->
<g id="edge14" class="edge"><title>Node11&#45;&gt;Node6</title>
<path fill="none" stroke="midnightblue" d="M383.431,-56.083C389.853,-48.3768 399.306,-37.0333 407.122,-27.6531"/>
<polygon fill="midnightblue" stroke="midnightblue" points="409.994,-29.674 413.707,-19.7511 404.617,-25.1927 409.994,-29.674"/>
</g>
<!-- Node11&#45;&gt;Node7 -->
<g id="edge15" class="edge"><title>Node11&#45;&gt;Node7</title>
<path fill="none" stroke="midnightblue" d="M370.881,-56.083C366.592,-48.6127 360.342,-37.7244 355.058,-28.5199"/>
<polygon fill="midnightblue" stroke="midnightblue" points="358.038,-26.6811 350.024,-19.7511 351.967,-30.1662 358.038,-26.6811"/>
</g>
</g>
</svg>
