<?xml version="1.0" encoding="UTF-8" standalone="no"?>
<!DOCTYPE svg PUBLIC "-//W3C//DTD SVG 1.1//EN"
 "http://www.w3.org/Graphics/SVG/1.1/DTD/svg11.dtd">
<!-- Generated by graphviz version 2.36.0 (20140111.2315)
 -->
<!-- Title: loader.cpp Pages: 1 -->
<svg width="507pt" height="140pt"
 viewBox="0.00 0.00 507.00 140.00" xmlns="http://www.w3.org/2000/svg" xmlns:xlink="http://www.w3.org/1999/xlink">
<g id="graph0" class="graph" transform="scale(1 1) rotate(0) translate(4 136)">
<title>loader.cpp</title>
<polygon fill="white" stroke="none" points="-4,4 -4,-136 503,-136 503,4 -4,4"/>
<!-- Node1 -->
<g id="node1" class="node"><title>Node1</title>
<polygon fill="#bfbfbf" stroke="black" points="209,-112.5 209,-131.5 271,-131.5 271,-112.5 209,-112.5"/>
<text text-anchor="middle" x="240" y="-119.5" font-family="Helvetica,sans-Serif" font-size="10.00">loader.cpp</text>
</g>
<!-- Node2 -->
<g id="node2" class="node"><title>Node2</title>
<polygon fill="white" stroke="#bfbfbf" points="0,-56.5 0,-75.5 54,-75.5 54,-56.5 0,-56.5"/>
<text text-anchor="middle" x="27" y="-63.5" font-family="Helvetica,sans-Serif" font-size="10.00">iostream</text>
</g>
<!-- Node1&#45;&gt;Node2 -->
<g id="edge1" class="edge"><title>Node1&#45;&gt;Node2</title>
<path fill="none" stroke="midnightblue" d="M208.571,-113.032C170.059,-103.269 104.9,-86.7493 64.0056,-76.3817"/>
<polygon fill="midnightblue" stroke="midnightblue" points="64.716,-72.9511 54.1625,-73.8863 62.9957,-79.7365 64.716,-72.9511"/>
</g>
<!-- Node3 -->
<g id="node3" class="node"><title>Node3</title>
<polygon fill="white" stroke="#bfbfbf" points="72,-56.5 72,-75.5 122,-75.5 122,-56.5 72,-56.5"/>
<text text-anchor="middle" x="97" y="-63.5" font-family="Helvetica,sans-Serif" font-size="10.00">fstream</text>
</g>
<!-- Node1&#45;&gt;Node3 -->
<g id="edge2" class="edge"><title>Node1&#45;&gt;Node3</title>
<path fill="none" stroke="midnightblue" d="M217.341,-112.444C193.598,-103.478 156.091,-89.314 129.262,-79.1827"/>
<polygon fill="midnightblue" stroke="midnightblue" points="130.144,-75.7749 119.553,-75.5164 127.671,-82.3235 130.144,-75.7749"/>
</g>
<!-- Node4 -->
<g id="node4" class="node"><title>Node4</title>
<polygon fill="white" stroke="#bfbfbf" points="335.5,-0.5 335.5,-19.5 376.5,-19.5 376.5,-0.5 335.5,-0.5"/>
<text text-anchor="middle" x="356" y="-7.5" font-family="Helvetica,sans-Serif" font-size="10.00">string</text>
</g>
<!-- Node1&#45;&gt;Node4 -->
<g id="edge3" class="edge"><title>Node1&#45;&gt;Node4</title>
<path fill="none" stroke="midnightblue" d="M255.693,-112.487C269.995,-104.28 291.23,-90.9331 307,-76 322.174,-61.6314 336.168,-42.1743 345.281,-28.3016"/>
<polygon fill="midnightblue" stroke="midnightblue" points="348.329,-30.0316 350.766,-19.7207 342.431,-26.2618 348.329,-30.0316"/>
</g>
<!-- Node5 -->
<g id="node5" class="node"><title>Node5</title>
<polygon fill="white" stroke="#bfbfbf" points="178,-56.5 178,-75.5 234,-75.5 234,-56.5 178,-56.5"/>
<text text-anchor="middle" x="206" y="-63.5" font-family="Helvetica,sans-Serif" font-size="10.00">algorithm</text>
</g>
<!-- Node1&#45;&gt;Node5 -->
<g id="edge4" class="edge"><title>Node1&#45;&gt;Node5</title>
<path fill="none" stroke="midnightblue" d="M234.386,-112.083C229.633,-104.534 222.682,-93.4948 216.848,-84.2298"/>
<polygon fill="midnightblue" stroke="midnightblue" points="219.8,-82.3486 211.51,-75.7511 213.876,-86.0783 219.8,-82.3486"/>
</g>
<!-- Node6 -->
<g id="node6" class="node"><title>Node6</title>
<polygon fill="white" stroke="#bfbfbf" points="136,-0.5 136,-19.5 180,-19.5 180,-0.5 136,-0.5"/>
<text text-anchor="middle" x="158" y="-7.5" font-family="Helvetica,sans-Serif" font-size="10.00">vector</text>
</g>
<!-- Node1&#45;&gt;Node6 -->
<g id="edge5" class="edge"><title>Node1&#45;&gt;Node6</title>
<path fill="none" stroke="midnightblue" d="M217.127,-112.443C201.064,-105.215 180.474,-93.2568 169,-76 159.99,-62.4484 157.595,-43.8985 157.247,-30.0832"/>
<polygon fill="midnightblue" stroke="midnightblue" points="160.749,-29.8353 157.335,-19.8056 153.749,-29.7751 160.749,-29.8353"/>
</g>
<!-- Node7 -->
<g id="node7" class="node"><title>Node7</title>
<g id="a_node7"><a xlink:href="lexer_8h.html" target="_top" xlink:title="lexer.h">
<polygon fill="white" stroke="black" points="252,-56.5 252,-75.5 298,-75.5 298,-56.5 252,-56.5"/>
<text text-anchor="middle" x="275" y="-63.5" font-family="Helvetica,sans-Serif" font-size="10.00">lexer.h</text>
</a>
</g>
</g>
<!-- Node1&#45;&gt;Node7 -->
<g id="edge6" class="edge"><title>Node1&#45;&gt;Node7</title>
<path fill="none" stroke="midnightblue" d="M245.78,-112.083C250.672,-104.534 257.827,-93.4948 263.833,-84.2298"/>
<polygon fill="midnightblue" stroke="midnightblue" points="266.826,-86.0463 269.328,-75.7511 260.952,-82.239 266.826,-86.0463"/>
</g>
<!-- Node9 -->
<g id="node9" class="node"><title>Node9</title>
<g id="a_node9"><a xlink:href="msgs__pt_8h.html" target="_top" xlink:title="msgs_pt.h">
<polygon fill="white" stroke="black" points="354,-56.5 354,-75.5 416,-75.5 416,-56.5 354,-56.5"/>
<text text-anchor="middle" x="385" y="-63.5" font-family="Helvetica,sans-Serif" font-size="10.00">msgs_pt.h</text>
</a>
</g>
</g>
<!-- Node1&#45;&gt;Node9 -->
<g id="edge10" class="edge"><title>Node1&#45;&gt;Node9</title>
<path fill="none" stroke="midnightblue" d="M262.976,-112.444C287.157,-103.438 325.418,-89.1891 352.646,-79.049"/>
<polygon fill="midnightblue" stroke="midnightblue" points="353.982,-82.2864 362.132,-75.5164 351.539,-75.7265 353.982,-82.2864"/>
</g>
<!-- Node10 -->
<g id="node10" class="node"><title>Node10</title>
<g id="a_node10"><a xlink:href="simulator_8h.html" target="_top" xlink:title="simulator.h">
<polygon fill="white" stroke="black" points="434.5,-56.5 434.5,-75.5 499.5,-75.5 499.5,-56.5 434.5,-56.5"/>
<text text-anchor="middle" x="467" y="-63.5" font-family="Helvetica,sans-Serif" font-size="10.00">simulator.h</text>
</a>
</g>
</g>
<!-- Node1&#45;&gt;Node10 -->
<g id="edge11" class="edge"><title>Node1&#45;&gt;Node10</title>
<path fill="none" stroke="midnightblue" d="M271.087,-113.605C310.853,-104.145 379.901,-87.7196 424.502,-77.1095"/>
<polygon fill="midnightblue" stroke="midnightblue" points="425.536,-80.4614 434.455,-74.742 423.916,-73.6514 425.536,-80.4614"/>
</g>
<!-- Node7&#45;&gt;Node4 -->
<g id="edge7" class="edge"><title>Node7&#45;&gt;Node4</title>
<path fill="none" stroke="midnightblue" d="M288.014,-56.324C300.532,-47.979 319.682,-35.2122 334.471,-25.3524"/>
<polygon fill="midnightblue" stroke="midnightblue" points="336.639,-28.1137 343.018,-19.6545 332.756,-22.2894 336.639,-28.1137"/>
</g>
<!-- Node7&#45;&gt;Node6 -->
<g id="edge8" class="edge"><title>Node7&#45;&gt;Node6</title>
<path fill="none" stroke="midnightblue" d="M256.461,-56.4435C237.377,-47.6356 207.425,-33.8116 185.564,-23.722"/>
<polygon fill="midnightblue" stroke="midnightblue" points="186.999,-20.5292 176.452,-19.5164 184.065,-26.8849 186.999,-20.5292"/>
</g>
<!-- Node8 -->
<g id="node8" class="node"><title>Node8</title>
<g id="a_node8"><a xlink:href="languagedefinition_8h.html" target="_top" xlink:title="#brief Definições da liguagem assembly ">
<polygon fill="white" stroke="black" points="214.5,-0.5 214.5,-19.5 317.5,-19.5 317.5,-0.5 214.5,-0.5"/>
<text text-anchor="middle" x="266" y="-7.5" font-family="Helvetica,sans-Serif" font-size="10.00">languagedefinition.h</text>
</a>
</g>
</g>
<!-- Node7&#45;&gt;Node8 -->
<g id="edge9" class="edge"><title>Node7&#45;&gt;Node8</title>
<path fill="none" stroke="midnightblue" d="M273.514,-56.083C272.321,-48.9272 270.606,-38.6353 269.115,-29.6911"/>
<polygon fill="midnightblue" stroke="midnightblue" points="272.555,-29.0396 267.459,-19.7511 265.65,-30.1904 272.555,-29.0396"/>
</g>
<!-- Node10&#45;&gt;Node4 -->
<g id="edge12" class="edge"><title>Node10&#45;&gt;Node4</title>
<path fill="none" stroke="midnightblue" d="M449.166,-56.324C431.284,-47.6247 403.525,-34.1202 382.954,-24.113"/>
<polygon fill="midnightblue" stroke="midnightblue" points="384.313,-20.8819 373.79,-19.6545 381.251,-27.1765 384.313,-20.8819"/>
</g>
</g>
</svg>
