<?xml version="1.0" encoding="UTF-8" standalone="no"?>
<!DOCTYPE svg PUBLIC "-//W3C//DTD SVG 1.1//EN"
 "http://www.w3.org/Graphics/SVG/1.1/DTD/svg11.dtd">
<!-- Generated by graphviz version 2.36.0 (20140111.2315)
 -->
<!-- Title: macroeval.cpp Pages: 1 -->
<svg width="544pt" height="140pt"
 viewBox="0.00 0.00 544.00 140.00" xmlns="http://www.w3.org/2000/svg" xmlns:xlink="http://www.w3.org/1999/xlink">
<g id="graph0" class="graph" transform="scale(1 1) rotate(0) translate(4 136)">
<title>macroeval.cpp</title>
<polygon fill="white" stroke="none" points="-4,4 -4,-136 540,-136 540,4 -4,4"/>
<!-- Node1 -->
<g id="node1" class="node"><title>Node1</title>
<polygon fill="#bfbfbf" stroke="black" points="211,-112.5 211,-131.5 291,-131.5 291,-112.5 211,-112.5"/>
<text text-anchor="middle" x="251" y="-119.5" font-family="Helvetica,sans-Serif" font-size="10.00">macroeval.cpp</text>
</g>
<!-- Node2 -->
<g id="node2" class="node"><title>Node2</title>
<polygon fill="white" stroke="#bfbfbf" points="0,-56.5 0,-75.5 52,-75.5 52,-56.5 0,-56.5"/>
<text text-anchor="middle" x="26" y="-63.5" font-family="Helvetica,sans-Serif" font-size="10.00">sstream</text>
</g>
<!-- Node1&#45;&gt;Node2 -->
<g id="edge1" class="edge"><title>Node1&#45;&gt;Node2</title>
<path fill="none" stroke="midnightblue" d="M214.171,-112.497C177.877,-104.069 120.593,-90.6373 62.1309,-76.2472"/>
<polygon fill="midnightblue" stroke="midnightblue" points="62.907,-72.8338 52.3596,-73.8357 61.2297,-79.6299 62.907,-72.8338"/>
</g>
<!-- Node3 -->
<g id="node3" class="node"><title>Node3</title>
<polygon fill="white" stroke="#bfbfbf" points="70,-56.5 70,-75.5 124,-75.5 124,-56.5 70,-56.5"/>
<text text-anchor="middle" x="97" y="-63.5" font-family="Helvetica,sans-Serif" font-size="10.00">iostream</text>
</g>
<!-- Node1&#45;&gt;Node3 -->
<g id="edge2" class="edge"><title>Node1&#45;&gt;Node3</title>
<path fill="none" stroke="midnightblue" d="M226.598,-112.444C200.803,-103.399 159.923,-89.064 130.982,-78.9158"/>
<polygon fill="midnightblue" stroke="midnightblue" points="131.882,-75.5226 121.288,-75.5164 129.566,-82.1283 131.882,-75.5226"/>
</g>
<!-- Node4 -->
<g id="node4" class="node"><title>Node4</title>
<polygon fill="white" stroke="#bfbfbf" points="142,-56.5 142,-75.5 192,-75.5 192,-56.5 142,-56.5"/>
<text text-anchor="middle" x="167" y="-63.5" font-family="Helvetica,sans-Serif" font-size="10.00">fstream</text>
</g>
<!-- Node1&#45;&gt;Node4 -->
<g id="edge3" class="edge"><title>Node1&#45;&gt;Node4</title>
<path fill="none" stroke="midnightblue" d="M237.504,-112.324C224.4,-103.9 204.288,-90.9709 188.893,-81.0741"/>
<polygon fill="midnightblue" stroke="midnightblue" points="190.767,-78.118 180.463,-75.6545 186.982,-84.0063 190.767,-78.118"/>
</g>
<!-- Node5 -->
<g id="node5" class="node"><title>Node5</title>
<polygon fill="white" stroke="#bfbfbf" points="231.5,-0.5 231.5,-19.5 272.5,-19.5 272.5,-0.5 231.5,-0.5"/>
<text text-anchor="middle" x="252" y="-7.5" font-family="Helvetica,sans-Serif" font-size="10.00">string</text>
</g>
<!-- Node1&#45;&gt;Node5 -->
<g id="edge4" class="edge"><title>Node1&#45;&gt;Node5</title>
<path fill="none" stroke="midnightblue" d="M247.54,-112.207C243.057,-99.7493 236.137,-76.2246 239,-56 240.268,-47.0425 242.889,-37.372 245.448,-29.2998"/>
<polygon fill="midnightblue" stroke="midnightblue" points="248.771,-30.3976 248.656,-19.8034 242.139,-28.1569 248.771,-30.3976"/>
</g>
<!-- Node6 -->
<g id="node6" class="node"><title>Node6</title>
<polygon fill="white" stroke="#bfbfbf" points="400,-56.5 400,-75.5 456,-75.5 456,-56.5 400,-56.5"/>
<text text-anchor="middle" x="428" y="-63.5" font-family="Helvetica,sans-Serif" font-size="10.00">algorithm</text>
</g>
<!-- Node1&#45;&gt;Node6 -->
<g id="edge5" class="edge"><title>Node1&#45;&gt;Node6</title>
<path fill="none" stroke="midnightblue" d="M279.046,-112.444C309.082,-103.28 356.913,-88.6876 390.243,-78.5192"/>
<polygon fill="midnightblue" stroke="midnightblue" points="391.542,-81.7822 400.085,-75.5164 389.499,-75.0869 391.542,-81.7822"/>
</g>
<!-- Node7 -->
<g id="node7" class="node"><title>Node7</title>
<g id="a_node7"><a xlink:href="lexer_8h.html" target="_top" xlink:title="lexer.h">
<polygon fill="white" stroke="black" points="336,-56.5 336,-75.5 382,-75.5 382,-56.5 336,-56.5"/>
<text text-anchor="middle" x="359" y="-63.5" font-family="Helvetica,sans-Serif" font-size="10.00">lexer.h</text>
</a>
</g>
</g>
<!-- Node1&#45;&gt;Node7 -->
<g id="edge6" class="edge"><title>Node1&#45;&gt;Node7</title>
<path fill="none" stroke="midnightblue" d="M268.352,-112.324C285.672,-103.664 312.515,-90.2424 332.502,-80.249"/>
<polygon fill="midnightblue" stroke="midnightblue" points="334.312,-83.2572 341.691,-75.6545 331.181,-76.9962 334.312,-83.2572"/>
</g>
<!-- Node10 -->
<g id="node10" class="node"><title>Node10</title>
<g id="a_node10"><a xlink:href="msgs__pt_8h.html" target="_top" xlink:title="msgs_pt.h">
<polygon fill="white" stroke="black" points="474,-56.5 474,-75.5 536,-75.5 536,-56.5 474,-56.5"/>
<text text-anchor="middle" x="505" y="-63.5" font-family="Helvetica,sans-Serif" font-size="10.00">msgs_pt.h</text>
</a>
</g>
</g>
<!-- Node1&#45;&gt;Node10 -->
<g id="edge10" class="edge"><title>Node1&#45;&gt;Node10</title>
<path fill="none" stroke="midnightblue" d="M291.063,-112.634C331.882,-104.089 397.282,-90.3369 463.841,-76.0205"/>
<polygon fill="midnightblue" stroke="midnightblue" points="464.627,-79.4315 473.666,-73.9047 463.154,-72.5883 464.627,-79.4315"/>
</g>
<!-- Node11 -->
<g id="node11" class="node"><title>Node11</title>
<g id="a_node11"><a xlink:href="macroeval_8h.html" target="_top" xlink:title="macroeval.h">
<polygon fill="white" stroke="black" points="248,-56.5 248,-75.5 318,-75.5 318,-56.5 248,-56.5"/>
<text text-anchor="middle" x="283" y="-63.5" font-family="Helvetica,sans-Serif" font-size="10.00">macroeval.h</text>
</a>
</g>
</g>
<!-- Node1&#45;&gt;Node11 -->
<g id="edge11" class="edge"><title>Node1&#45;&gt;Node11</title>
<path fill="none" stroke="midnightblue" d="M256.284,-112.083C260.711,-104.613 267.163,-93.7244 272.618,-84.5199"/>
<polygon fill="midnightblue" stroke="midnightblue" points="275.727,-86.1383 277.814,-75.7511 269.705,-82.5697 275.727,-86.1383"/>
</g>
<!-- Node7&#45;&gt;Node5 -->
<g id="edge7" class="edge"><title>Node7&#45;&gt;Node5</title>
<path fill="none" stroke="midnightblue" d="M341.809,-56.324C324.649,-47.6641 298.054,-34.2424 278.253,-24.249"/>
<polygon fill="midnightblue" stroke="midnightblue" points="279.653,-21.0354 269.149,-19.6545 276.499,-27.2847 279.653,-21.0354"/>
</g>
<!-- Node8 -->
<g id="node8" class="node"><title>Node8</title>
<polygon fill="white" stroke="#bfbfbf" points="291,-0.5 291,-19.5 335,-19.5 335,-0.5 291,-0.5"/>
<text text-anchor="middle" x="313" y="-7.5" font-family="Helvetica,sans-Serif" font-size="10.00">vector</text>
</g>
<!-- Node7&#45;&gt;Node8 -->
<g id="edge8" class="edge"><title>Node7&#45;&gt;Node8</title>
<path fill="none" stroke="midnightblue" d="M351.404,-56.083C344.773,-48.2982 334.979,-36.8015 326.942,-27.3665"/>
<polygon fill="midnightblue" stroke="midnightblue" points="329.604,-25.0939 320.455,-19.7511 324.275,-29.6332 329.604,-25.0939"/>
</g>
<!-- Node9 -->
<g id="node9" class="node"><title>Node9</title>
<g id="a_node9"><a xlink:href="languagedefinition_8h.html" target="_top" xlink:title="#brief Definições da liguagem assembly ">
<polygon fill="white" stroke="black" points="353.5,-0.5 353.5,-19.5 456.5,-19.5 456.5,-0.5 353.5,-0.5"/>
<text text-anchor="middle" x="405" y="-7.5" font-family="Helvetica,sans-Serif" font-size="10.00">languagedefinition.h</text>
</a>
</g>
</g>
<!-- Node7&#45;&gt;Node9 -->
<g id="edge9" class="edge"><title>Node7&#45;&gt;Node9</title>
<path fill="none" stroke="midnightblue" d="M366.596,-56.083C373.227,-48.2982 383.021,-36.8015 391.058,-27.3665"/>
<polygon fill="midnightblue" stroke="midnightblue" points="393.725,-29.6332 397.545,-19.7511 388.396,-25.0939 393.725,-29.6332"/>
</g>
<!-- Node11&#45;&gt;Node5 -->
<g id="edge12" class="edge"><title>Node11&#45;&gt;Node5</title>
<path fill="none" stroke="midnightblue" d="M277.881,-56.083C273.592,-48.6127 267.342,-37.7244 262.058,-28.5199"/>
<polygon fill="midnightblue" stroke="midnightblue" points="265.038,-26.6811 257.024,-19.7511 258.967,-30.1662 265.038,-26.6811"/>
</g>
<!-- Node11&#45;&gt;Node8 -->
<g id="edge13" class="edge"><title>Node11&#45;&gt;Node8</title>
<path fill="none" stroke="midnightblue" d="M287.954,-56.083C292.104,-48.6127 298.153,-37.7244 303.267,-28.5199"/>
<polygon fill="midnightblue" stroke="midnightblue" points="306.341,-30.1924 308.138,-19.7511 300.222,-26.7929 306.341,-30.1924"/>
</g>
</g>
</svg>
