<?xml version="1.0" encoding="UTF-8" standalone="no"?>
<!DOCTYPE svg PUBLIC "-//W3C//DTD SVG 1.1//EN"
 "http://www.w3.org/Graphics/SVG/1.1/DTD/svg11.dtd">
<!-- Generated by graphviz version 2.36.0 (20140111.2315)
 -->
<!-- Title: simulator.cpp Pages: 1 -->
<svg width="532pt" height="140pt"
 viewBox="0.00 0.00 532.00 140.00" xmlns="http://www.w3.org/2000/svg" xmlns:xlink="http://www.w3.org/1999/xlink">
<g id="graph0" class="graph" transform="scale(1 1) rotate(0) translate(4 136)">
<title>simulator.cpp</title>
<polygon fill="white" stroke="none" points="-4,4 -4,-136 528,-136 528,4 -4,4"/>
<!-- Node1 -->
<g id="node1" class="node"><title>Node1</title>
<polygon fill="#bfbfbf" stroke="black" points="220.5,-112.5 220.5,-131.5 295.5,-131.5 295.5,-112.5 220.5,-112.5"/>
<text text-anchor="middle" x="258" y="-119.5" font-family="Helvetica,sans-Serif" font-size="10.00">simulator.cpp</text>
</g>
<!-- Node2 -->
<g id="node2" class="node"><title>Node2</title>
<polygon fill="white" stroke="#bfbfbf" points="0,-56.5 0,-75.5 54,-75.5 54,-56.5 0,-56.5"/>
<text text-anchor="middle" x="27" y="-63.5" font-family="Helvetica,sans-Serif" font-size="10.00">iostream</text>
</g>
<!-- Node1&#45;&gt;Node2 -->
<g id="edge1" class="edge"><title>Node1&#45;&gt;Node2</title>
<path fill="none" stroke="midnightblue" d="M220.205,-112.492C182.959,-104.06 124.17,-90.625 64.1464,-76.2443"/>
<polygon fill="midnightblue" stroke="midnightblue" points="64.6547,-72.767 54.1138,-73.8345 63.0198,-79.5734 64.6547,-72.767"/>
</g>
<!-- Node3 -->
<g id="node3" class="node"><title>Node3</title>
<polygon fill="white" stroke="#bfbfbf" points="72,-56.5 72,-75.5 122,-75.5 122,-56.5 72,-56.5"/>
<text text-anchor="middle" x="97" y="-63.5" font-family="Helvetica,sans-Serif" font-size="10.00">fstream</text>
</g>
<!-- Node1&#45;&gt;Node3 -->
<g id="edge2" class="edge"><title>Node1&#45;&gt;Node3</title>
<path fill="none" stroke="midnightblue" d="M232.489,-112.444C205.324,-103.332 162.157,-88.8539 131.864,-78.6936"/>
<polygon fill="midnightblue" stroke="midnightblue" points="132.72,-75.2892 122.127,-75.4275 130.494,-81.9259 132.72,-75.2892"/>
</g>
<!-- Node4 -->
<g id="node4" class="node"><title>Node4</title>
<polygon fill="white" stroke="#bfbfbf" points="140,-56.5 140,-75.5 192,-75.5 192,-56.5 140,-56.5"/>
<text text-anchor="middle" x="166" y="-63.5" font-family="Helvetica,sans-Serif" font-size="10.00">sstream</text>
</g>
<!-- Node1&#45;&gt;Node4 -->
<g id="edge3" class="edge"><title>Node1&#45;&gt;Node4</title>
<path fill="none" stroke="midnightblue" d="M243.219,-112.324C228.733,-103.822 206.427,-90.7288 189.507,-80.7975"/>
<polygon fill="midnightblue" stroke="midnightblue" points="191.141,-77.6981 180.745,-75.6545 187.597,-83.735 191.141,-77.6981"/>
</g>
<!-- Node5 -->
<g id="node5" class="node"><title>Node5</title>
<polygon fill="white" stroke="#bfbfbf" points="192.5,-0.5 192.5,-19.5 233.5,-19.5 233.5,-0.5 192.5,-0.5"/>
<text text-anchor="middle" x="213" y="-7.5" font-family="Helvetica,sans-Serif" font-size="10.00">string</text>
</g>
<!-- Node1&#45;&gt;Node5 -->
<g id="edge4" class="edge"><title>Node1&#45;&gt;Node5</title>
<path fill="none" stroke="midnightblue" d="M254.469,-112.368C247.141,-94.4563 230.15,-52.9233 220.342,-28.9482"/>
<polygon fill="midnightblue" stroke="midnightblue" points="223.54,-27.5217 216.515,-19.5914 217.062,-30.1721 223.54,-27.5217"/>
</g>
<!-- Node6 -->
<g id="node6" class="node"><title>Node6</title>
<polygon fill="white" stroke="#bfbfbf" points="388,-56.5 388,-75.5 444,-75.5 444,-56.5 388,-56.5"/>
<text text-anchor="middle" x="416" y="-63.5" font-family="Helvetica,sans-Serif" font-size="10.00">algorithm</text>
</g>
<!-- Node1&#45;&gt;Node6 -->
<g id="edge5" class="edge"><title>Node1&#45;&gt;Node6</title>
<path fill="none" stroke="midnightblue" d="M283.036,-112.444C309.616,-103.359 351.809,-88.9388 381.523,-78.7831"/>
<polygon fill="midnightblue" stroke="midnightblue" points="382.751,-82.0625 391.082,-75.5164 380.487,-75.4386 382.751,-82.0625"/>
</g>
<!-- Node7 -->
<g id="node7" class="node"><title>Node7</title>
<polygon fill="white" stroke="#bfbfbf" points="252,-0.5 252,-19.5 296,-19.5 296,-0.5 252,-0.5"/>
<text text-anchor="middle" x="274" y="-7.5" font-family="Helvetica,sans-Serif" font-size="10.00">vector</text>
</g>
<!-- Node1&#45;&gt;Node7 -->
<g id="edge6" class="edge"><title>Node1&#45;&gt;Node7</title>
<path fill="none" stroke="midnightblue" d="M259.255,-112.368C261.838,-94.617 267.794,-53.6664 271.295,-29.5974"/>
<polygon fill="midnightblue" stroke="midnightblue" points="274.774,-29.9911 272.75,-19.5914 267.847,-28.9835 274.774,-29.9911"/>
</g>
<!-- Node8 -->
<g id="node8" class="node"><title>Node8</title>
<g id="a_node8"><a xlink:href="lexer_8h.html" target="_top" xlink:title="lexer.h">
<polygon fill="white" stroke="black" points="286,-56.5 286,-75.5 332,-75.5 332,-56.5 286,-56.5"/>
<text text-anchor="middle" x="309" y="-63.5" font-family="Helvetica,sans-Serif" font-size="10.00">lexer.h</text>
</a>
</g>
</g>
<!-- Node1&#45;&gt;Node8 -->
<g id="edge7" class="edge"><title>Node1&#45;&gt;Node8</title>
<path fill="none" stroke="midnightblue" d="M266.422,-112.083C273.848,-104.22 284.852,-92.5688 293.812,-83.0813"/>
<polygon fill="midnightblue" stroke="midnightblue" points="296.413,-85.4244 300.735,-75.7511 291.324,-80.618 296.413,-85.4244"/>
</g>
<!-- Node9 -->
<g id="node9" class="node"><title>Node9</title>
<g id="a_node9"><a xlink:href="languagedefinition_8h.html" target="_top" xlink:title="#brief Definições da liguagem assembly ">
<polygon fill="white" stroke="black" points="314.5,-0.5 314.5,-19.5 417.5,-19.5 417.5,-0.5 314.5,-0.5"/>
<text text-anchor="middle" x="366" y="-7.5" font-family="Helvetica,sans-Serif" font-size="10.00">languagedefinition.h</text>
</a>
</g>
</g>
<!-- Node1&#45;&gt;Node9 -->
<g id="edge12" class="edge"><title>Node1&#45;&gt;Node9</title>
<path fill="none" stroke="midnightblue" d="M283.967,-112.43C302.12,-105.254 325.75,-93.3667 341,-76 352.583,-62.8095 359.068,-43.6736 362.513,-29.5788"/>
<polygon fill="midnightblue" stroke="midnightblue" points="365.986,-30.0776 364.663,-19.5657 359.142,-28.6081 365.986,-30.0776"/>
</g>
<!-- Node10 -->
<g id="node10" class="node"><title>Node10</title>
<g id="a_node10"><a xlink:href="msgs__pt_8h.html" target="_top" xlink:title="msgs_pt.h">
<polygon fill="white" stroke="black" points="462,-56.5 462,-75.5 524,-75.5 524,-56.5 462,-56.5"/>
<text text-anchor="middle" x="493" y="-63.5" font-family="Helvetica,sans-Serif" font-size="10.00">msgs_pt.h</text>
</a>
</g>
</g>
<!-- Node1&#45;&gt;Node10 -->
<g id="edge11" class="edge"><title>Node1&#45;&gt;Node10</title>
<path fill="none" stroke="midnightblue" d="M295.236,-112.444C337.981,-102.621 407.871,-86.5616 452.098,-76.3987"/>
<polygon fill="midnightblue" stroke="midnightblue" points="452.979,-79.7875 461.942,-74.1368 451.412,-72.9653 452.979,-79.7875"/>
</g>
<!-- Node8&#45;&gt;Node5 -->
<g id="edge8" class="edge"><title>Node8&#45;&gt;Node5</title>
<path fill="none" stroke="midnightblue" d="M293.576,-56.324C278.46,-47.8215 255.185,-34.7288 237.529,-24.7975"/>
<polygon fill="midnightblue" stroke="midnightblue" points="238.817,-21.5066 228.386,-19.6545 235.386,-27.6077 238.817,-21.5066"/>
</g>
<!-- Node8&#45;&gt;Node7 -->
<g id="edge9" class="edge"><title>Node8&#45;&gt;Node7</title>
<path fill="none" stroke="midnightblue" d="M303.22,-56.083C298.328,-48.5341 291.173,-37.4948 285.167,-28.2298"/>
<polygon fill="midnightblue" stroke="midnightblue" points="288.048,-26.239 279.672,-19.7511 282.174,-30.0463 288.048,-26.239"/>
</g>
<!-- Node8&#45;&gt;Node9 -->
<g id="edge10" class="edge"><title>Node8&#45;&gt;Node9</title>
<path fill="none" stroke="midnightblue" d="M318.158,-56.324C326.501,-48.4196 339.032,-36.5482 349.177,-26.9377"/>
<polygon fill="midnightblue" stroke="midnightblue" points="351.823,-29.2522 356.675,-19.8339 347.009,-24.1705 351.823,-29.2522"/>
</g>
</g>
</svg>
