<?xml version="1.0" encoding="UTF-8" standalone="no"?>
<!DOCTYPE svg PUBLIC "-//W3C//DTD SVG 1.1//EN"
 "http://www.w3.org/Graphics/SVG/1.1/DTD/svg11.dtd">
<!-- Generated by graphviz version 2.36.0 (20140111.2315)
 -->
<!-- Title: simulator Pages: 1 -->
<svg width="244pt" height="28pt"
 viewBox="0.00 0.00 244.00 28.00" xmlns="http://www.w3.org/2000/svg" xmlns:xlink="http://www.w3.org/1999/xlink">
<g id="graph0" class="graph" transform="scale(1 1) rotate(0) translate(4 24)">
<title>simulator</title>
<polygon fill="white" stroke="none" points="-4,4 -4,-24 240,-24 240,4 -4,4"/>
<!-- Node1 -->
<g id="node1" class="node"><title>Node1</title>
<polygon fill="#bfbfbf" stroke="black" points="0,-0.5 0,-19.5 56,-19.5 56,-0.5 0,-0.5"/>
<text text-anchor="middle" x="28" y="-7.5" font-family="Helvetica,sans-Serif" font-size="10.00">simulator</text>
</g>
<!-- Node2 -->
<g id="node2" class="node"><title>Node2</title>
<g id="a_node2"><a xlink:href="lexer_8cpp.html#ab482a9701233ff4e5a0ffc1f75f9c41a" target="_top" xlink:title="Verifica uma string e retorna um vetor de tokens. ">
<polygon fill="white" stroke="black" points="92,-0.5 92,-19.5 148,-19.5 148,-0.5 92,-0.5"/>
<text text-anchor="middle" x="120" y="-7.5" font-family="Helvetica,sans-Serif" font-size="10.00">tokenizer</text>
</a>
</g>
</g>
<!-- Node1&#45;&gt;Node2 -->
<g id="edge1" class="edge"><title>Node1&#45;&gt;Node2</title>
<path fill="none" stroke="midnightblue" d="M56.003,-10C64.0277,-10 72.9665,-10 81.5309,-10"/>
<polygon fill="midnightblue" stroke="midnightblue" points="81.7051,-13.5001 91.705,-10 81.705,-6.5001 81.7051,-13.5001"/>
</g>
<!-- Node3 -->
<g id="node3" class="node"><title>Node3</title>
<g id="a_node3"><a xlink:href="lexer_8cpp.html#a63ef6d488951c4541159fe0961565c4d" target="_top" xlink:title="Verifica uma string em busca de tokens válidos. ">
<polygon fill="white" stroke="black" points="184.5,-0.5 184.5,-19.5 235.5,-19.5 235.5,-0.5 184.5,-0.5"/>
<text text-anchor="middle" x="210" y="-7.5" font-family="Helvetica,sans-Serif" font-size="10.00">scanner</text>
</a>
</g>
</g>
<!-- Node2&#45;&gt;Node3 -->
<g id="edge2" class="edge"><title>Node2&#45;&gt;Node3</title>
<path fill="none" stroke="midnightblue" d="M148.361,-10C156.54,-10 165.617,-10 174.205,-10"/>
<polygon fill="midnightblue" stroke="midnightblue" points="174.344,-13.5001 184.344,-10 174.344,-6.5001 174.344,-13.5001"/>
</g>
</g>
</svg>
